G04 Layer_Color=32896*
%FSLAX25Y25*%
%MOIN*%
G70*
G01*
G75*
%ADD40C,0.01575*%
%ADD55C,0.00787*%
%ADD56C,0.01200*%
D40*
X236300Y387811D02*
X277709D01*
D55*
X181740Y26707D02*
G03*
X185717Y26686I2009J3818D01*
G01*
X185758Y37242D02*
G03*
X181780Y37264I-2009J-3818D01*
G01*
X189594Y26735D02*
G03*
X193572Y26714I2009J3818D01*
G01*
X193613Y37270D02*
G03*
X189635Y37291I-2009J-3818D01*
G01*
X197482Y26707D02*
G03*
X201459Y26686I2009J3818D01*
G01*
X201500Y37242D02*
G03*
X197522Y37264I-2009J-3818D01*
G01*
X205369Y26707D02*
G03*
X209347Y26686I2009J3818D01*
G01*
X209387Y37242D02*
G03*
X205410Y37264I-2009J-3818D01*
G01*
X176509Y55217D02*
G03*
X172531Y55239I-2009J-3818D01*
G01*
X172491Y44682D02*
G03*
X176469Y44661I2009J3818D01*
G01*
X185749Y26725D02*
Y37225D01*
X181749Y26825D02*
Y37264D01*
X193603Y26753D02*
Y37253D01*
X189603Y26853D02*
Y37291D01*
X201491Y26725D02*
Y37225D01*
X197491Y26825D02*
Y37264D01*
X209378Y26725D02*
Y37225D01*
X205378Y26825D02*
Y37264D01*
X172500Y44700D02*
Y55200D01*
X176500Y44661D02*
Y55100D01*
X163957Y57713D02*
X171043D01*
X163957Y40287D02*
X171043D01*
X163957D02*
Y47000D01*
X171043Y40287D02*
Y47000D01*
Y51000D02*
Y57713D01*
X163957Y51000D02*
Y57713D01*
X278299Y364189D02*
Y387811D01*
X273700Y364189D02*
Y367200D01*
X268200D02*
X273700D01*
X268100Y367100D02*
X268200Y367200D01*
X268100Y364189D02*
Y367100D01*
X273700Y364189D02*
X278299D01*
X245600D02*
Y367200D01*
X240100D02*
X245600D01*
X240000Y364189D02*
Y367100D01*
X235701Y364189D02*
X240000D01*
X245600D02*
X268100D01*
X235701D02*
Y387811D01*
X181696Y44651D02*
X185696D01*
X181696Y55651D02*
X185696D01*
X181696Y44651D02*
Y55651D01*
X185696Y44651D02*
Y55651D01*
X189654Y44651D02*
X193654D01*
X189654Y55651D02*
X193654D01*
X189654Y44651D02*
Y55651D01*
X193654Y44651D02*
Y55651D01*
X197462Y44651D02*
X201462D01*
X197462Y55651D02*
X201462D01*
X197462Y44651D02*
Y55651D01*
X201462Y44651D02*
Y55651D01*
X205406Y44651D02*
X209406D01*
X205406Y55651D02*
X209406D01*
X205406Y44651D02*
Y55651D01*
X209406Y44651D02*
Y55651D01*
X177058Y33282D02*
X177714Y33938D01*
X179026D01*
X179682Y33282D01*
Y30658D01*
X179026Y30002D01*
X177714D01*
X177058Y30658D01*
X175746Y33282D02*
X175090Y33938D01*
X173778D01*
X173122Y33282D01*
Y32626D01*
X173778Y31970D01*
X174434D01*
X173778D01*
X173122Y31314D01*
Y30658D01*
X173778Y30002D01*
X175090D01*
X175746Y30658D01*
X171810Y33282D02*
X171154Y33938D01*
X169843D01*
X169186Y33282D01*
Y30658D01*
X169843Y30002D01*
X171154D01*
X171810Y30658D01*
Y33282D01*
X190982Y42943D02*
X191638Y43599D01*
X192950D01*
X193605Y42943D01*
Y40319D01*
X192950Y39663D01*
X191638D01*
X190982Y40319D01*
X189670Y42943D02*
X189014Y43599D01*
X187702D01*
X187046Y42943D01*
Y42287D01*
X187702Y41631D01*
X188358D01*
X187702D01*
X187046Y40975D01*
Y40319D01*
X187702Y39663D01*
X189014D01*
X189670Y40319D01*
X185734Y39663D02*
X184422D01*
X185078D01*
Y43599D01*
X185734Y42943D01*
X203058Y42872D02*
X203714Y43528D01*
X205026D01*
X205682Y42872D01*
Y40248D01*
X205026Y39592D01*
X203714D01*
X203058Y40248D01*
X201747Y42872D02*
X201091Y43528D01*
X199779D01*
X199123Y42872D01*
Y42216D01*
X199779Y41560D01*
X200435D01*
X199779D01*
X199123Y40904D01*
Y40248D01*
X199779Y39592D01*
X201091D01*
X201747Y40248D01*
X195187Y39592D02*
X197811D01*
X195187Y42216D01*
Y42872D01*
X195843Y43528D01*
X197155D01*
X197811Y42872D01*
X218971Y33850D02*
X219627Y34506D01*
X220939D01*
X221595Y33850D01*
Y31226D01*
X220939Y30570D01*
X219627D01*
X218971Y31226D01*
X217659Y33850D02*
X217003Y34506D01*
X215691D01*
X215036Y33850D01*
Y33194D01*
X215691Y32538D01*
X216347D01*
X215691D01*
X215036Y31882D01*
Y31226D01*
X215691Y30570D01*
X217003D01*
X217659Y31226D01*
X213723Y33850D02*
X213068Y34506D01*
X211756D01*
X211100Y33850D01*
Y33194D01*
X211756Y32538D01*
X212412D01*
X211756D01*
X211100Y31882D01*
Y31226D01*
X211756Y30570D01*
X213068D01*
X213723Y31226D01*
X178876Y42780D02*
X179532Y43436D01*
X180844D01*
X181500Y42780D01*
Y40156D01*
X180844Y39500D01*
X179532D01*
X178876Y40156D01*
X177564Y42780D02*
X176908Y43436D01*
X175596D01*
X174940Y42780D01*
Y42124D01*
X175596Y41468D01*
X176252D01*
X175596D01*
X174940Y40812D01*
Y40156D01*
X175596Y39500D01*
X176908D01*
X177564Y40156D01*
X171661Y39500D02*
Y43436D01*
X173628Y41468D01*
X171005D01*
X159376Y46780D02*
X160032Y47436D01*
X161344D01*
X162000Y46780D01*
Y44156D01*
X161344Y43500D01*
X160032D01*
X159376Y44156D01*
X158064Y46780D02*
X157408Y47436D01*
X156096D01*
X155440Y46780D01*
Y46124D01*
X156096Y45468D01*
X156752D01*
X156096D01*
X155440Y44812D01*
Y44156D01*
X156096Y43500D01*
X157408D01*
X158064Y44156D01*
X151505Y47436D02*
X154129D01*
Y45468D01*
X152817Y46124D01*
X152161D01*
X151505Y45468D01*
Y44156D01*
X152161Y43500D01*
X153473D01*
X154129Y44156D01*
X228876Y376436D02*
X230188D01*
X229532D01*
Y373156D01*
X230188Y372500D01*
X230844D01*
X231500Y373156D01*
X224940Y372500D02*
X227564D01*
X224940Y375124D01*
Y375780D01*
X225596Y376436D01*
X226908D01*
X227564Y375780D01*
X167035Y339086D02*
X168347D01*
X167691D01*
Y335806D01*
X168347Y335150D01*
X169003D01*
X169659Y335806D01*
X165723Y335150D02*
Y339086D01*
X163755D01*
X163099Y338430D01*
Y337118D01*
X163755Y336462D01*
X165723D01*
X161787Y335150D02*
X160476D01*
X161132D01*
Y339086D01*
X161787Y338430D01*
X95876Y13436D02*
X97188D01*
X96532D01*
Y10156D01*
X97188Y9500D01*
X97844D01*
X98500Y10156D01*
X94564Y9500D02*
Y13436D01*
X92596D01*
X91940Y12780D01*
Y11468D01*
X92596Y10812D01*
X94564D01*
X88005Y9500D02*
X90628D01*
X88005Y12124D01*
Y12780D01*
X88661Y13436D01*
X89973D01*
X90628Y12780D01*
X174376Y12936D02*
X175688D01*
X175032D01*
Y9656D01*
X175688Y9000D01*
X176344D01*
X177000Y9656D01*
X173064Y9000D02*
Y12936D01*
X171096D01*
X170440Y12280D01*
Y10968D01*
X171096Y10312D01*
X173064D01*
X169129Y12280D02*
X168473Y12936D01*
X167161D01*
X166505Y12280D01*
Y11624D01*
X167161Y10968D01*
X167817D01*
X167161D01*
X166505Y10312D01*
Y9656D01*
X167161Y9000D01*
X168473D01*
X169129Y9656D01*
X297876Y451436D02*
X299188D01*
X298532D01*
Y448156D01*
X299188Y447500D01*
X299844D01*
X300500Y448156D01*
X296564Y447500D02*
Y451436D01*
X294596D01*
X293940Y450780D01*
Y449468D01*
X294596Y448812D01*
X296564D01*
X290661Y447500D02*
Y451436D01*
X292629Y449468D01*
X290005D01*
X185500Y57000D02*
Y60936D01*
X183532D01*
X182876Y60280D01*
Y58968D01*
X183532Y58312D01*
X185500D01*
X184188D02*
X182876Y57000D01*
X178940D02*
X181564D01*
X178940Y59624D01*
Y60280D01*
X179596Y60936D01*
X180908D01*
X181564Y60280D01*
X175005Y60936D02*
X177629D01*
Y58968D01*
X176317Y59624D01*
X175661D01*
X175005Y58968D01*
Y57656D01*
X175661Y57000D01*
X176973D01*
X177629Y57656D01*
X197000Y57000D02*
Y60936D01*
X195032D01*
X194376Y60280D01*
Y58968D01*
X195032Y58312D01*
X197000D01*
X195688D02*
X194376Y57000D01*
X190440D02*
X193064D01*
X190440Y59624D01*
Y60280D01*
X191096Y60936D01*
X192408D01*
X193064Y60280D01*
X186505Y60936D02*
X187817Y60280D01*
X189128Y58968D01*
Y57656D01*
X188473Y57000D01*
X187161D01*
X186505Y57656D01*
Y58312D01*
X187161Y58968D01*
X189128D01*
X208500Y57000D02*
Y60936D01*
X206532D01*
X205876Y60280D01*
Y58968D01*
X206532Y58312D01*
X208500D01*
X207188D02*
X205876Y57000D01*
X201940D02*
X204564D01*
X201940Y59624D01*
Y60280D01*
X202596Y60936D01*
X203908D01*
X204564Y60280D01*
X200628Y60936D02*
X198005D01*
Y60280D01*
X200628Y57656D01*
Y57000D01*
X222451Y48746D02*
Y52682D01*
X220483D01*
X219827Y52026D01*
Y50714D01*
X220483Y50058D01*
X222451D01*
X221139D02*
X219827Y48746D01*
X215892D02*
X218515D01*
X215892Y51370D01*
Y52026D01*
X216547Y52682D01*
X217859D01*
X218515Y52026D01*
X214580D02*
X213924Y52682D01*
X212612D01*
X211956Y52026D01*
Y51370D01*
X212612Y50714D01*
X211956Y50058D01*
Y49402D01*
X212612Y48746D01*
X213924D01*
X214580Y49402D01*
Y50058D01*
X213924Y50714D01*
X214580Y51370D01*
Y52026D01*
X213924Y50714D02*
X212612D01*
X244000Y391468D02*
X241376D01*
X242688Y392780D02*
Y390156D01*
X273500Y391468D02*
X270876D01*
D56*
X170907Y316150D02*
Y332150D01*
X139407Y316150D02*
X170907D01*
X139407D02*
Y332150D01*
X170907D01*
X162907Y324150D02*
X170907D01*
X162907Y316150D02*
Y324150D01*
X108626Y11874D02*
Y19874D01*
X100626Y11874D02*
X108626D01*
X100626Y3874D02*
X132126D01*
Y19874D01*
X100626D02*
X132126D01*
X100626Y3874D02*
Y19874D01*
X179752Y4000D02*
Y20000D01*
X211252D01*
Y4000D02*
Y20000D01*
X179752Y4000D02*
X211252D01*
X179752Y12000D02*
X187752D01*
Y20000D01*
X283500Y405000D02*
X303500D01*
X283500D02*
Y445000D01*
X303500D01*
Y405000D02*
Y445000D01*
X293500Y405000D02*
Y415000D01*
X283500D02*
X293500D01*
M02*
