G04 Layer_Physical_Order=1*
G04 Layer_Color=255*
%FSLAX25Y25*%
%MOIN*%
G70*
G01*
G75*
%ADD10R,0.03000X0.03000*%
%ADD11R,0.03150X0.09843*%
%ADD12O,0.03150X0.09843*%
%ADD13R,0.12598X0.09843*%
%ADD14R,0.10827X0.10827*%
%ADD15R,0.06000X0.05000*%
%ADD16R,0.01378X0.05906*%
%ADD17O,0.01378X0.05906*%
%ADD18R,0.03000X0.03000*%
%ADD19R,0.03600X0.05000*%
%ADD20R,0.03600X0.03600*%
%ADD21R,0.07500X0.09000*%
%ADD22C,0.03937*%
%ADD23R,0.06000X0.13780*%
%ADD24O,0.08000X0.02400*%
%ADD25R,0.05000X0.01000*%
%ADD26O,0.05000X0.01000*%
%ADD27R,0.01000X0.05000*%
%ADD28R,0.21654X0.09843*%
%ADD29R,0.12500X0.06787*%
%ADD30R,0.09000X0.07500*%
%ADD31R,0.05000X0.06000*%
%ADD32R,0.06000X0.06000*%
%ADD33C,0.01000*%
%ADD34C,0.03937*%
%ADD35C,0.01969*%
%ADD36C,0.11811*%
%ADD37C,0.02000*%
%ADD38C,0.02500*%
%ADD39C,0.04000*%
%ADD40C,0.01575*%
%ADD41C,0.01181*%
%ADD42R,0.05906X0.05906*%
%ADD43C,0.05906*%
%ADD44C,0.06200*%
%ADD45R,0.06200X0.06200*%
%ADD46C,0.04724*%
%ADD47R,0.04724X0.04724*%
%ADD48O,0.05906X0.09843*%
%ADD49R,0.05906X0.09843*%
%ADD50C,0.02362*%
%ADD51C,0.03150*%
%ADD52C,0.05000*%
%ADD53C,0.03000*%
%ADD54C,0.05906*%
G36*
X145302Y85973D02*
Y82036D01*
X152664D01*
Y83972D01*
X161375D01*
X161642Y83472D01*
X161275Y82922D01*
X161091Y82000D01*
X161275Y81078D01*
X161797Y80297D01*
X162033Y80139D01*
Y78540D01*
X160098D01*
Y78359D01*
X160097D01*
Y75024D01*
X160064Y74859D01*
X159523D01*
Y78359D01*
X159523D01*
Y78540D01*
X156160D01*
Y71178D01*
X159523D01*
Y71359D01*
X160065D01*
Y65540D01*
X159322D01*
Y65338D01*
X133979D01*
Y78819D01*
X134181D01*
Y84181D01*
X133979D01*
Y84819D01*
X134181D01*
Y85786D01*
X136000D01*
X136656Y85916D01*
X137212Y86288D01*
X138833Y87909D01*
X145302D01*
Y85973D01*
D02*
G37*
G36*
X187396Y79002D02*
X187204Y78540D01*
X185688D01*
Y78359D01*
X185688D01*
Y75024D01*
X185655Y74859D01*
X185114D01*
Y78359D01*
X185113D01*
Y78540D01*
X177824D01*
X177526Y78942D01*
X178594Y82467D01*
X179744Y86050D01*
X180230Y86167D01*
X187396Y79002D01*
D02*
G37*
G36*
X277105Y501968D02*
X277095D01*
X277267Y499338D01*
X277781Y496753D01*
X278628Y494258D01*
X279794Y491894D01*
X281259Y489702D01*
X282996Y487721D01*
X284978Y485983D01*
X287169Y484519D01*
X289533Y483353D01*
X292029Y482506D01*
X294614Y481991D01*
X297244Y481819D01*
Y481829D01*
X309310D01*
Y278013D01*
X297244D01*
Y278024D01*
X294614Y277851D01*
X292029Y277337D01*
X289533Y276490D01*
X287169Y275324D01*
X284978Y273860D01*
X282996Y272122D01*
X281259Y270140D01*
X279794Y267949D01*
X278628Y265585D01*
X277781Y263089D01*
X277267Y260504D01*
X277095Y257874D01*
X277267Y255244D01*
X277781Y252659D01*
X278628Y250163D01*
X279794Y247799D01*
X281259Y245608D01*
X282996Y243626D01*
X284978Y241888D01*
X287169Y240424D01*
X289533Y239258D01*
X292029Y238411D01*
X294614Y237897D01*
X297244Y237725D01*
Y237735D01*
X309310D01*
Y189351D01*
X307012D01*
X307012Y189352D01*
Y189351D01*
X305486Y189351D01*
X305264Y189573D01*
X276799Y218038D01*
X276991Y218500D01*
X277319D01*
Y219819D01*
X276000D01*
Y219491D01*
X275538Y219299D01*
X274095Y220743D01*
Y223681D01*
X273214D01*
Y225319D01*
X274268D01*
Y230681D01*
X268905D01*
Y225319D01*
X269786D01*
Y223681D01*
X268732D01*
Y218319D01*
X271671D01*
X292406Y197584D01*
Y192181D01*
Y186819D01*
X292498Y186727D01*
Y184214D01*
X285181D01*
Y185181D01*
X279819D01*
Y184214D01*
X277181D01*
Y185181D01*
X274243D01*
X273712Y185712D01*
X273156Y186084D01*
X272500Y186214D01*
X265500D01*
X264844Y186084D01*
X264288Y185712D01*
X263288Y184712D01*
X262916Y184156D01*
X262881Y183980D01*
X262298Y183611D01*
X262000Y183670D01*
X261270Y183525D01*
X260750Y183178D01*
X260230Y183525D01*
X259500Y183670D01*
X258770Y183525D01*
X258152Y183112D01*
X258112Y183052D01*
X258112Y183052D01*
X257738Y182493D01*
X257593Y181764D01*
Y179500D01*
X256407D01*
Y181764D01*
X256262Y182493D01*
X255888Y183052D01*
X255888Y183052D01*
X255848Y183112D01*
X255230Y183525D01*
X254500Y183670D01*
X253770Y183525D01*
X253250Y183178D01*
X252730Y183525D01*
X252000Y183670D01*
X251705Y183612D01*
X251214Y183996D01*
Y185790D01*
X254837Y189413D01*
X255449Y189318D01*
X255797Y188797D01*
X256578Y188275D01*
X257500Y188092D01*
X258422Y188275D01*
X258766Y188505D01*
X259228Y188314D01*
X259275Y188078D01*
X259797Y187297D01*
X260578Y186775D01*
X261500Y186591D01*
X262422Y186775D01*
X263203Y187297D01*
X263725Y188078D01*
X263905Y188981D01*
X265712Y190788D01*
X266084Y191344D01*
X266214Y192000D01*
Y196236D01*
X266714Y196646D01*
X267000Y196589D01*
X267730Y196734D01*
X268348Y197148D01*
X268762Y197766D01*
X268907Y198496D01*
Y203024D01*
X268762Y203753D01*
X268348Y204372D01*
X267730Y204785D01*
X267000Y204930D01*
X266270Y204785D01*
X265750Y204437D01*
X265230Y204785D01*
X264500Y204930D01*
X263770Y204785D01*
X263250Y204437D01*
X262730Y204785D01*
X262000Y204930D01*
X261714Y204873D01*
X261214Y205284D01*
Y212377D01*
X265712Y216875D01*
X266084Y217431D01*
X266214Y218087D01*
Y225319D01*
X267181D01*
Y226320D01*
X267251Y226412D01*
X267568Y227178D01*
X267677Y228000D01*
Y238819D01*
X269431D01*
Y250181D01*
X266177D01*
Y255319D01*
X267181D01*
Y262681D01*
X266177D01*
Y307336D01*
X266069Y308158D01*
X265751Y308924D01*
X265246Y309582D01*
X254306Y320522D01*
X254213Y321229D01*
X253797Y322235D01*
X253134Y323098D01*
X252271Y323761D01*
X251265Y324177D01*
X250186Y324319D01*
X249107Y324177D01*
X248101Y323761D01*
X247237Y323098D01*
X246575Y322235D01*
X246158Y321229D01*
X246016Y320150D01*
X246158Y319071D01*
X246575Y318065D01*
X247237Y317202D01*
X248101Y316539D01*
X249107Y316122D01*
X249814Y316029D01*
X259823Y306020D01*
Y262681D01*
X258819D01*
Y255319D01*
X259823D01*
Y250181D01*
X259569D01*
Y238819D01*
X261323D01*
Y228000D01*
X261432Y227178D01*
X261749Y226412D01*
X261819Y226320D01*
Y225319D01*
X262786D01*
Y218797D01*
X258288Y214299D01*
X257976Y213832D01*
X257840Y213819D01*
X257276D01*
Y213819D01*
X257276Y213819D01*
X256723D01*
X256378Y214180D01*
X256635Y220019D01*
X256681D01*
Y220590D01*
X256681Y221064D01*
X256681Y221068D01*
X256681Y221068D01*
X256681Y221068D01*
Y225981D01*
X250719D01*
Y220019D01*
Y211868D01*
X250905Y211681D01*
Y207726D01*
X250406Y207519D01*
X249181Y208743D01*
Y213819D01*
Y219181D01*
Y225981D01*
X243219D01*
Y220795D01*
X243208Y220793D01*
X243208Y220793D01*
X243219Y220632D01*
X243219Y220019D01*
X243260D01*
X243819Y211681D01*
Y206319D01*
X246757D01*
X247786Y205290D01*
Y203824D01*
X247738Y203753D01*
X247593Y203024D01*
Y198496D01*
X247738Y197766D01*
X248152Y197148D01*
X248770Y196734D01*
X248873Y196714D01*
X248824Y196214D01*
X244181D01*
Y197681D01*
X238819D01*
Y192319D01*
X244181D01*
Y192786D01*
X252709D01*
X252900Y192324D01*
X248288Y187712D01*
X247916Y187156D01*
X247786Y186500D01*
Y183634D01*
X247630D01*
Y181214D01*
X245710D01*
X243214Y183710D01*
Y185232D01*
X244181D01*
Y190594D01*
X238819D01*
Y185232D01*
X239786D01*
Y183000D01*
X239916Y182344D01*
X240288Y181788D01*
X243788Y178288D01*
X244344Y177916D01*
X245000Y177786D01*
X245988D01*
X246179Y177324D01*
X237536Y168681D01*
X235319D01*
Y163319D01*
X235776D01*
Y149094D01*
X231236D01*
Y145677D01*
X108677D01*
Y147678D01*
X111556Y149727D01*
X111556D01*
X111556Y149728D01*
X112219Y149815D01*
X112890Y150093D01*
X113129Y150276D01*
X120500D01*
X120500Y150276D01*
X121351Y150445D01*
X122073Y150927D01*
X125073Y153928D01*
X125073Y153928D01*
X125555Y154649D01*
X125580Y154776D01*
X226236D01*
X226254Y154754D01*
X226912Y154249D01*
X227678Y153931D01*
X228500Y153823D01*
X229322Y153931D01*
X230088Y154249D01*
X230746Y154754D01*
X231251Y155412D01*
X231569Y156178D01*
X231677Y157000D01*
X231569Y157822D01*
X231251Y158588D01*
X230746Y159246D01*
X230088Y159751D01*
X229322Y160069D01*
X228500Y160177D01*
X227678Y160069D01*
X226912Y159751D01*
X226254Y159246D01*
X226236Y159224D01*
X125724D01*
Y166319D01*
X127681D01*
Y173681D01*
X126677D01*
Y176898D01*
X131035D01*
Y189102D01*
X126677D01*
Y205500D01*
X126568Y206322D01*
X126280Y207020D01*
Y208846D01*
X126185Y209566D01*
X125907Y210236D01*
X125724Y210475D01*
Y212079D01*
X242972Y329327D01*
X243000Y329323D01*
X243822Y329432D01*
X244588Y329749D01*
X245246Y330254D01*
X245751Y330912D01*
X246069Y331678D01*
X246177Y332500D01*
X246173Y332528D01*
X300073Y386427D01*
X300073Y386427D01*
X300555Y387149D01*
X300724Y388000D01*
Y406310D01*
X301553Y406947D01*
X302239Y407841D01*
X302671Y408882D01*
X302818Y410000D01*
X302671Y411118D01*
X302239Y412159D01*
X301553Y413053D01*
X300659Y413739D01*
X299618Y414171D01*
X298500Y414318D01*
X297382Y414171D01*
X296341Y413739D01*
X295447Y413053D01*
X294760Y412159D01*
X294329Y411118D01*
X294182Y410000D01*
X294329Y408882D01*
X294760Y407841D01*
X295447Y406947D01*
X296276Y406310D01*
Y388921D01*
X279624Y372269D01*
X275953D01*
Y372319D01*
X272000D01*
X268047D01*
Y367579D01*
X273181D01*
Y365936D01*
X273236Y365881D01*
X243028Y335673D01*
X243000Y335677D01*
X242178Y335568D01*
X241412Y335251D01*
X240754Y334746D01*
X240249Y334088D01*
X239932Y333322D01*
X239823Y332500D01*
X239827Y332472D01*
X121927Y214573D01*
X121446Y213851D01*
X121276Y213000D01*
X121276Y213000D01*
Y210475D01*
X121093Y210236D01*
X120815Y209566D01*
X120720Y208846D01*
Y207020D01*
X120431Y206322D01*
X120323Y205500D01*
Y189102D01*
X116075D01*
Y176898D01*
X120323D01*
Y173681D01*
X119319D01*
Y166319D01*
X121276D01*
Y156421D01*
X119579Y154724D01*
X113129D01*
X112890Y154907D01*
X112219Y155185D01*
X111560Y155272D01*
X108910Y156336D01*
X108677Y156438D01*
Y192184D01*
X116691Y200199D01*
X117196Y200856D01*
X117513Y201623D01*
X117622Y202445D01*
Y204581D01*
X117677Y205000D01*
Y215500D01*
Y223905D01*
X121095D01*
Y237094D01*
X117677D01*
Y430276D01*
X125736D01*
X125754Y430254D01*
X126412Y429749D01*
X127178Y429431D01*
X128000Y429323D01*
X128822Y429431D01*
X129588Y429749D01*
X130246Y430254D01*
X130264Y430276D01*
X157732D01*
Y429819D01*
X163094D01*
Y435181D01*
X157732D01*
Y434724D01*
X130264D01*
X130246Y434746D01*
X129588Y435251D01*
X128822Y435569D01*
X128000Y435677D01*
X127178Y435569D01*
X126412Y435251D01*
X125754Y434746D01*
X125736Y434724D01*
X119870D01*
X119678Y435186D01*
X169816Y485323D01*
X174819D01*
Y484319D01*
X182181D01*
Y485323D01*
X188992D01*
Y482465D01*
X213008D01*
Y494669D01*
X188992D01*
Y491677D01*
X182181D01*
Y492681D01*
X174819D01*
Y491677D01*
X168500D01*
X167678Y491569D01*
X166912Y491251D01*
X166820Y491181D01*
X166319D01*
Y490796D01*
X166254Y490746D01*
X112254Y436746D01*
X111749Y436088D01*
X111432Y435322D01*
X111323Y434500D01*
Y432000D01*
Y237094D01*
X107905D01*
Y223905D01*
X111323D01*
Y215500D01*
Y205919D01*
X111268Y205500D01*
Y203761D01*
X103254Y195746D01*
X102749Y195088D01*
X102431Y194322D01*
X102323Y193500D01*
Y145677D01*
X77500D01*
X76678Y145569D01*
X75912Y145251D01*
X75254Y144746D01*
X58184Y127677D01*
X23816D01*
X18515Y132977D01*
Y137264D01*
X21933D01*
Y150453D01*
X17546D01*
Y156819D01*
X18268D01*
Y162181D01*
X17546D01*
Y164535D01*
X17626Y164655D01*
X17794Y165500D01*
Y169172D01*
X19814Y171192D01*
X20186Y171041D01*
X20286Y170957D01*
Y161500D01*
X20416Y160844D01*
X20788Y160288D01*
X21875Y159201D01*
X22431Y158830D01*
X23087Y158699D01*
X23819D01*
Y157732D01*
X36776D01*
Y155500D01*
X36776Y155500D01*
X36945Y154649D01*
X37427Y153928D01*
X38928Y152427D01*
X39649Y151945D01*
X40500Y151776D01*
X40500Y151776D01*
X52579D01*
X53927Y150427D01*
X53927Y150427D01*
X54649Y149945D01*
X55500Y149776D01*
X55500Y149776D01*
X56736D01*
X56754Y149754D01*
X57412Y149249D01*
X58178Y148932D01*
X59000Y148823D01*
X59822Y148932D01*
X60588Y149249D01*
X61246Y149754D01*
X61751Y150412D01*
X62068Y151178D01*
X62177Y152000D01*
X62068Y152822D01*
X61751Y153588D01*
X61246Y154246D01*
X60588Y154751D01*
X59822Y155069D01*
X59000Y155177D01*
X58178Y155069D01*
X57412Y154751D01*
X56754Y154246D01*
X56293Y154352D01*
X55072Y155572D01*
X54351Y156054D01*
X53500Y156224D01*
X53500Y156224D01*
X41421D01*
X41224Y156421D01*
Y157732D01*
X41681D01*
Y163094D01*
X29181D01*
X30319Y162940D01*
Y162127D01*
X29181D01*
Y168334D01*
X29214Y168500D01*
Y175174D01*
X29714Y175571D01*
X30000Y175514D01*
X30286Y175571D01*
X30786Y175174D01*
Y174000D01*
X30916Y173344D01*
X31288Y172788D01*
X33614Y170462D01*
X33423Y170000D01*
X30500D01*
Y168681D01*
X33000D01*
Y167500D01*
X34181D01*
Y165000D01*
X36319D01*
Y164819D01*
X41681D01*
Y169786D01*
X42290D01*
X44319Y167757D01*
Y164819D01*
X49681D01*
Y164878D01*
X52724Y164906D01*
X57681D01*
Y164950D01*
X58645Y164959D01*
X59559Y165873D01*
X73587D01*
X74243Y166003D01*
X74799Y166375D01*
X93519Y185095D01*
X94422Y185275D01*
X95203Y185797D01*
X95725Y186578D01*
X95908Y187500D01*
X95725Y188422D01*
X95203Y189203D01*
X94422Y189725D01*
X94120Y189785D01*
X93935Y190287D01*
X94167Y190625D01*
X94922Y190775D01*
X95703Y191297D01*
X96225Y192078D01*
X96408Y193000D01*
X96225Y193922D01*
X95703Y194703D01*
X94922Y195225D01*
X94000Y195408D01*
X93078Y195225D01*
X92297Y194703D01*
X91775Y193922D01*
X91595Y193019D01*
X90163Y191587D01*
X89551Y191682D01*
X89203Y192203D01*
X88422Y192725D01*
X87500Y192909D01*
X86578Y192725D01*
X85797Y192203D01*
X85275Y191422D01*
X85095Y190519D01*
X76290Y181714D01*
X71037D01*
X70752Y182214D01*
X70908Y183000D01*
X70725Y183922D01*
X70301Y184557D01*
Y186819D01*
X71268D01*
Y192181D01*
X65905D01*
Y186819D01*
X66873D01*
Y184754D01*
X66797Y184703D01*
X66275Y183922D01*
X66092Y183000D01*
X66248Y182214D01*
X65963Y181714D01*
X58123D01*
X57681Y182156D01*
Y185094D01*
X52319D01*
Y184214D01*
X49681D01*
Y185181D01*
X46743D01*
X46212Y185712D01*
X45656Y186084D01*
X45000Y186214D01*
X38500D01*
X37844Y186084D01*
X37288Y185712D01*
X36288Y184712D01*
X35916Y184156D01*
X35881Y183980D01*
X35298Y183611D01*
X35000Y183670D01*
X34270Y183525D01*
X33750Y183178D01*
X33230Y183525D01*
X32500Y183670D01*
X31770Y183525D01*
X31152Y183112D01*
X31112Y183052D01*
X31112Y183052D01*
X30738Y182493D01*
X30593Y181764D01*
Y179500D01*
X29407D01*
Y181764D01*
X29262Y182493D01*
X28888Y183052D01*
X28888Y183052D01*
X28848Y183112D01*
X28230Y183525D01*
X27500Y183670D01*
X26770Y183525D01*
X26250Y183178D01*
X25730Y183525D01*
X25000Y183670D01*
X24805Y183632D01*
X24306Y184042D01*
Y186752D01*
X31277Y193723D01*
X31669Y194309D01*
X31806Y195000D01*
Y196333D01*
X32193Y196650D01*
X32500Y196589D01*
X33230Y196734D01*
X33750Y197082D01*
X34270Y196734D01*
X35000Y196589D01*
X35344Y196658D01*
X35916Y196344D01*
X36288Y195788D01*
X37288Y194788D01*
X37844Y194416D01*
X38500Y194286D01*
X83313D01*
X84078Y193775D01*
X85000Y193591D01*
X85922Y193775D01*
X86703Y194297D01*
X87225Y195078D01*
X87409Y196000D01*
X87225Y196922D01*
X86703Y197703D01*
X85922Y198225D01*
X85000Y198408D01*
X84078Y198225D01*
X83313Y197714D01*
X42261D01*
X41851Y198214D01*
X41907Y198496D01*
Y203024D01*
X41762Y203753D01*
X41829Y203820D01*
Y205905D01*
X41829D01*
X41829Y205905D01*
Y206786D01*
X51790D01*
X57788Y200788D01*
X58344Y200416D01*
X59000Y200286D01*
X78313D01*
X79078Y199775D01*
X80000Y199592D01*
X80922Y199775D01*
X81703Y200297D01*
X82225Y201078D01*
X82408Y202000D01*
X82225Y202922D01*
X81703Y203703D01*
X80922Y204225D01*
X80000Y204409D01*
X79078Y204225D01*
X78313Y203714D01*
X59710D01*
X53712Y209712D01*
X53156Y210084D01*
X52500Y210214D01*
X43169D01*
Y213478D01*
X43169Y213478D01*
X43169Y213478D01*
Y214245D01*
X45710Y216786D01*
X53319D01*
Y215819D01*
X58681D01*
X60319Y214181D01*
Y208819D01*
X63257D01*
X66288Y205788D01*
X66844Y205416D01*
X67500Y205286D01*
X69313D01*
X70078Y204775D01*
X71000Y204591D01*
X71922Y204775D01*
X72703Y205297D01*
X73225Y206078D01*
X73409Y207000D01*
X73225Y207922D01*
X72784Y208582D01*
X72587Y209000D01*
Y210319D01*
X70087D01*
X67587D01*
Y209991D01*
X67125Y209799D01*
X65681Y211243D01*
Y214181D01*
X64801D01*
Y215819D01*
X65768D01*
Y221181D01*
X61193D01*
X60876Y221568D01*
X60899Y221685D01*
Y238319D01*
X64116D01*
Y249681D01*
X60899D01*
Y254319D01*
X63181D01*
Y261681D01*
X62177D01*
Y262503D01*
X62856Y262785D01*
X63625Y263375D01*
X64215Y264144D01*
X64586Y265039D01*
X64713Y266000D01*
X64586Y266961D01*
X64215Y267856D01*
X63625Y268625D01*
X62856Y269215D01*
X61961Y269586D01*
X61000Y269713D01*
X60039Y269586D01*
X59144Y269215D01*
X58375Y268625D01*
X57785Y267856D01*
X57414Y266961D01*
X57405Y266898D01*
X56754Y266246D01*
X56249Y265588D01*
X55932Y264822D01*
X55823Y264000D01*
Y261681D01*
X54819D01*
Y254319D01*
X57471D01*
Y249681D01*
X54254D01*
Y238319D01*
X57471D01*
Y222395D01*
X56257Y221181D01*
X53319D01*
Y220214D01*
X45000D01*
X44344Y220084D01*
X43788Y219712D01*
X36757Y212681D01*
X33635D01*
X33295Y213047D01*
X33953Y222019D01*
X33981D01*
Y227981D01*
X28019D01*
Y222019D01*
X28873D01*
Y219681D01*
X27905D01*
Y214319D01*
X28873D01*
Y212681D01*
X27905D01*
Y209743D01*
X27905Y209743D01*
X26181D01*
X26646Y209074D01*
X26181Y209294D01*
Y212681D01*
X25214D01*
Y214319D01*
X26181D01*
Y219681D01*
X25214D01*
Y222019D01*
X26481D01*
Y227981D01*
X20519D01*
Y222095D01*
X20519Y222019D01*
X20519Y222019D01*
X20819Y219808D01*
X20819Y219681D01*
X20819Y219208D01*
Y214319D01*
Y209166D01*
X20786Y209000D01*
Y203824D01*
X20738Y203753D01*
X20593Y203024D01*
Y198496D01*
X20493Y198396D01*
Y195301D01*
X13681D01*
Y196268D01*
X8319D01*
Y190905D01*
X13681D01*
Y191873D01*
X21275D01*
Y188970D01*
X21223Y188777D01*
X20831Y188191D01*
X20694Y187500D01*
Y183634D01*
X20630D01*
Y181214D01*
X14210D01*
X12714Y182710D01*
Y183819D01*
X13681D01*
Y189181D01*
X8319D01*
Y183819D01*
X9286D01*
Y182000D01*
X9416Y181344D01*
X9788Y180788D01*
X12288Y178288D01*
X12844Y177916D01*
X13500Y177786D01*
X19457D01*
X19664Y177286D01*
X14026Y171648D01*
X13547Y170931D01*
X13379Y170087D01*
Y166217D01*
X13299Y166097D01*
X13131Y165252D01*
Y162181D01*
X12905D01*
Y156819D01*
X13131D01*
Y150453D01*
X8744D01*
Y137264D01*
X12162D01*
Y131662D01*
X12270Y130839D01*
X12587Y130073D01*
X13092Y129415D01*
X20254Y122254D01*
X20912Y121749D01*
X21678Y121432D01*
X22500Y121323D01*
X35323D01*
Y107095D01*
X31905D01*
Y93906D01*
X35323D01*
Y86500D01*
Y74418D01*
X35268Y74000D01*
X35376Y73178D01*
X35665Y72480D01*
Y70653D01*
X35760Y69934D01*
X36038Y69264D01*
X36479Y68688D01*
X37055Y68246D01*
X37725Y67969D01*
X38445Y67874D01*
X39164Y67969D01*
X39835Y68246D01*
X40410Y68688D01*
X40852Y69264D01*
X41130Y69934D01*
X41225Y70653D01*
Y72432D01*
X41251Y72467D01*
X41568Y73233D01*
X41677Y74055D01*
Y86500D01*
Y93906D01*
X45094D01*
Y107095D01*
X41677D01*
Y121323D01*
X59500D01*
X60322Y121432D01*
X61088Y121749D01*
X61746Y122254D01*
X78816Y139323D01*
X231236D01*
Y135906D01*
X244425D01*
Y149094D01*
X240224D01*
Y163319D01*
X240681D01*
Y165536D01*
X244809Y169664D01*
X245130Y169554D01*
X245286Y169434D01*
Y163500D01*
X245416Y162844D01*
X245788Y162288D01*
X248375Y159701D01*
X248931Y159330D01*
X249319Y159253D01*
Y158232D01*
X249319Y158232D01*
X249319D01*
X249258Y157822D01*
X249150Y157000D01*
X249258Y156178D01*
X249576Y155412D01*
X250080Y154754D01*
X250738Y154249D01*
X251505Y153931D01*
X252327Y153823D01*
X253149Y153931D01*
X253915Y154249D01*
X254573Y154754D01*
X255078Y155412D01*
X255395Y156178D01*
X255504Y157000D01*
X255395Y157822D01*
X255207Y158276D01*
X255541Y158776D01*
X256319D01*
Y158319D01*
X261681D01*
Y158776D01*
X263819D01*
Y158319D01*
X269181D01*
Y163681D01*
X263819D01*
Y163224D01*
X261681D01*
Y163681D01*
X256319D01*
Y163224D01*
X254681D01*
Y163594D01*
X249329D01*
X248714Y164210D01*
Y165372D01*
X249319D01*
Y165319D01*
X254681D01*
Y170257D01*
X255712Y171288D01*
X256084Y171844D01*
X256214Y172500D01*
Y175174D01*
X256714Y175571D01*
X257000Y175514D01*
X257286Y175571D01*
X257786Y175174D01*
Y171296D01*
X257433Y170768D01*
X256319D01*
Y165405D01*
X261681D01*
Y169313D01*
X264000D01*
Y169268D01*
X266500D01*
X269000D01*
Y169313D01*
X272319D01*
Y167405D01*
X277681D01*
Y167420D01*
X279819D01*
Y167319D01*
X285181D01*
Y168286D01*
X296790D01*
X297786Y167290D01*
Y165681D01*
X292905D01*
Y160319D01*
X295786D01*
Y145821D01*
X247679Y97714D01*
X234187D01*
X233422Y98225D01*
X232500Y98409D01*
X231578Y98225D01*
X230797Y97703D01*
X230275Y96922D01*
X230092Y96000D01*
X230275Y95078D01*
X230797Y94297D01*
X231294Y93965D01*
X231380Y93343D01*
X215536Y77500D01*
X212714D01*
Y83056D01*
X212584Y83711D01*
X212212Y84267D01*
X209882Y86598D01*
X209974Y91846D01*
X214060D01*
X214716Y91976D01*
X215272Y92348D01*
X224519Y101595D01*
X225422Y101775D01*
X226203Y102297D01*
X226725Y103078D01*
X226908Y104000D01*
X226725Y104922D01*
X226811Y105887D01*
X226811D01*
X226811Y105887D01*
X226964Y107594D01*
X246601D01*
X247078Y107275D01*
X248000Y107091D01*
X248922Y107275D01*
X249703Y107797D01*
X250225Y108578D01*
X250409Y109500D01*
X250225Y110422D01*
X249703Y111203D01*
X248922Y111725D01*
X248000Y111908D01*
X247078Y111725D01*
X246297Y111203D01*
X246176Y111022D01*
X216800D01*
X213605Y114216D01*
X213342Y114852D01*
X212912Y115412D01*
X212352Y115842D01*
X211700Y116112D01*
X211000Y116204D01*
X210300Y116112D01*
X209648Y115842D01*
X209381Y115637D01*
X208181D01*
Y116095D01*
X202819D01*
Y114959D01*
X196228D01*
X196062Y114926D01*
X192546D01*
Y111564D01*
X192727D01*
Y111563D01*
X196062D01*
X196228Y111530D01*
Y111022D01*
X196062Y110989D01*
X192727D01*
Y110989D01*
X192546D01*
Y108341D01*
X192046Y108189D01*
X191703Y108703D01*
X190922Y109225D01*
X190000Y109408D01*
X189078Y109225D01*
X188297Y108703D01*
X187775Y107922D01*
X187592Y107000D01*
X187500Y106909D01*
X186578Y106725D01*
X185797Y106203D01*
X185275Y105422D01*
X185091Y104500D01*
X185275Y103578D01*
X185786Y102813D01*
Y95000D01*
X185916Y94344D01*
X186288Y93788D01*
X189697Y90379D01*
X189888Y90252D01*
X190007Y89586D01*
X188887Y88121D01*
X188233Y88068D01*
X184289Y92012D01*
Y101953D01*
X184158Y102609D01*
X183787Y103165D01*
X174464Y112488D01*
X173907Y112860D01*
X173252Y112990D01*
X152907D01*
X152698Y113245D01*
X152567Y113901D01*
X152196Y114457D01*
X151639Y114828D01*
X150984Y114959D01*
X146984D01*
X146328Y114828D01*
X145772Y114457D01*
X145400Y113901D01*
X145311Y113454D01*
X145270Y113245D01*
X145302Y112957D01*
X145302D01*
Y109595D01*
Y107085D01*
X134168D01*
Y111181D01*
X128805D01*
Y107085D01*
X126900D01*
Y107319D01*
X121900D01*
Y107085D01*
X104839D01*
X104214Y107710D01*
Y114268D01*
X106681D01*
Y130409D01*
X98319D01*
Y114268D01*
X100786D01*
Y107000D01*
X100916Y106344D01*
X101288Y105788D01*
X102576Y104500D01*
X101288Y103212D01*
X100916Y102656D01*
X100786Y102000D01*
Y89071D01*
X98319D01*
Y72929D01*
X106681D01*
Y89071D01*
X104214D01*
Y101290D01*
X104612Y101688D01*
X121900D01*
Y101540D01*
X124400D01*
Y99178D01*
X121900D01*
Y97859D01*
X121900D01*
X121912Y97845D01*
X121810Y97038D01*
X121766Y95540D01*
X121719D01*
Y90178D01*
X121732D01*
Y84819D01*
X127094D01*
Y90181D01*
X127081D01*
Y94786D01*
X128987D01*
Y94040D01*
X133987D01*
Y94786D01*
X134000D01*
X134656Y94916D01*
X135212Y95288D01*
X139644Y99720D01*
X145302D01*
Y95815D01*
Y91878D01*
X145483D01*
Y91337D01*
X138123D01*
X137467Y91206D01*
X136911Y90835D01*
X135290Y89214D01*
X134181D01*
Y90181D01*
X134181D01*
X133987Y90359D01*
Y91678D01*
X128987D01*
Y90612D01*
X128819Y90181D01*
X128819D01*
X128819Y90181D01*
Y84819D01*
X129021D01*
Y84181D01*
X128819D01*
Y78819D01*
X129021D01*
Y63000D01*
Y58027D01*
X124973Y53979D01*
X83181D01*
Y54181D01*
X77819D01*
Y53979D01*
X73681D01*
Y56181D01*
X66319D01*
Y53979D01*
X55035D01*
Y57602D01*
X50764D01*
Y73945D01*
X50654Y74775D01*
X50467Y75229D01*
X50334Y75549D01*
X50280Y75620D01*
Y77346D01*
X50185Y78066D01*
X49907Y78736D01*
X49724Y78975D01*
Y83579D01*
X64573Y98427D01*
X65055Y99149D01*
X65224Y100000D01*
X65224Y100000D01*
Y110579D01*
X88421Y133776D01*
X135819D01*
Y133319D01*
X141181D01*
Y133776D01*
X156128D01*
Y133181D01*
X155161D01*
Y127819D01*
X156128D01*
Y122103D01*
X156161Y121937D01*
Y118422D01*
X159523D01*
Y118603D01*
X159523D01*
Y121937D01*
X159556Y122103D01*
X160097D01*
Y118603D01*
X160098D01*
Y118422D01*
X189050D01*
Y121937D01*
X189083Y122103D01*
Y124659D01*
X189454Y125030D01*
X251185D01*
X251275Y124578D01*
X251797Y123797D01*
X252578Y123275D01*
X253500Y123091D01*
X254422Y123275D01*
X255203Y123797D01*
X255725Y124578D01*
X255908Y125500D01*
X256083Y125674D01*
X256500Y125592D01*
X257422Y125775D01*
X258203Y126297D01*
X258725Y127078D01*
X258909Y128000D01*
X258725Y128922D01*
X258203Y129703D01*
X257422Y130225D01*
X256500Y130409D01*
X255681Y130245D01*
X231652D01*
X231335Y130632D01*
X231409Y131000D01*
X231225Y131922D01*
X230703Y132703D01*
X229922Y133225D01*
X229000Y133408D01*
X228078Y133225D01*
X227313Y132714D01*
X183500D01*
X182844Y132584D01*
X182288Y132212D01*
X180252Y130176D01*
X179880Y129620D01*
X179750Y128964D01*
Y125784D01*
X175084D01*
X174797Y126193D01*
X176161Y129982D01*
X176225Y130078D01*
X176262Y130262D01*
X177527Y133776D01*
X209994D01*
X210148Y133658D01*
X210800Y133388D01*
X211500Y133296D01*
X212200Y133388D01*
X212852Y133658D01*
X213412Y134088D01*
X213842Y134648D01*
X214112Y135300D01*
X214204Y136000D01*
X214112Y136700D01*
X213842Y137352D01*
X213412Y137912D01*
X212852Y138342D01*
X212200Y138612D01*
X211500Y138704D01*
X210800Y138612D01*
X210148Y138342D01*
X209994Y138224D01*
X141181D01*
Y138681D01*
X135819D01*
Y138224D01*
X87500D01*
X87500Y138224D01*
X86649Y138055D01*
X85927Y137573D01*
X85927Y137573D01*
X61427Y113073D01*
X60945Y112351D01*
X60776Y111500D01*
X60776Y111500D01*
Y100921D01*
X45928Y86072D01*
X45445Y85351D01*
X45276Y84500D01*
X45276Y84500D01*
Y78975D01*
X45093Y78736D01*
X44815Y78066D01*
X44720Y77346D01*
Y75602D01*
X44401Y74830D01*
X44291Y74000D01*
X44347Y73581D01*
Y57602D01*
X40075D01*
Y45398D01*
X55035D01*
Y49021D01*
X66319D01*
Y47819D01*
X73681D01*
Y49021D01*
X77819D01*
Y48819D01*
X83181D01*
Y49021D01*
X126000D01*
X126949Y49210D01*
X127753Y49747D01*
X133253Y55247D01*
X133253Y55247D01*
X133790Y56051D01*
X133979Y57000D01*
Y60380D01*
X159322D01*
Y60178D01*
X164684D01*
X165069Y59899D01*
X165713Y59405D01*
X166575Y59048D01*
X167500Y58926D01*
X168425Y59048D01*
X169287Y59405D01*
X170027Y59973D01*
X170340Y60380D01*
X184819D01*
Y60319D01*
X190181D01*
Y65681D01*
X189083D01*
Y74504D01*
X189578Y74775D01*
X190500Y74591D01*
X191228Y74736D01*
X191623Y74420D01*
X191661Y74352D01*
X191592Y74000D01*
X191775Y73078D01*
X192297Y72297D01*
X193078Y71775D01*
X194000Y71592D01*
X194922Y71775D01*
X195703Y72297D01*
X195756Y72376D01*
X196227Y72181D01*
X196091Y71500D01*
X196275Y70578D01*
X196797Y69797D01*
X197578Y69275D01*
X198500Y69091D01*
X199422Y69275D01*
X200203Y69797D01*
X200725Y70578D01*
X200908Y71500D01*
X200725Y72422D01*
X200214Y73187D01*
Y75377D01*
X200084Y76033D01*
X199712Y76589D01*
X194727Y81574D01*
X194918Y82036D01*
X196062D01*
X196228Y82003D01*
X201073D01*
X202999Y80077D01*
Y62923D01*
X188449Y48373D01*
X187922Y48725D01*
X187000Y48908D01*
X186078Y48725D01*
X185297Y48203D01*
X184775Y47422D01*
X184591Y46500D01*
X184775Y45578D01*
X185297Y44797D01*
X186078Y44275D01*
X187000Y44091D01*
X187922Y44275D01*
X188687Y44786D01*
X189000D01*
X189656Y44916D01*
X190212Y45288D01*
X192087Y47163D01*
X192548Y46916D01*
X192486Y46606D01*
X192669Y45684D01*
X193191Y44903D01*
X193973Y44381D01*
X194894Y44197D01*
X195816Y44381D01*
X196597Y44903D01*
X197119Y45684D01*
X197299Y46586D01*
X206324Y55611D01*
X206786Y55420D01*
Y52210D01*
X203481Y48905D01*
X202578Y48725D01*
X201797Y48203D01*
X201275Y47422D01*
X201092Y46500D01*
X201275Y45578D01*
X201797Y44797D01*
X202578Y44275D01*
X203500Y44091D01*
X204422Y44275D01*
X205203Y44797D01*
X205725Y45578D01*
X205905Y46481D01*
X208824Y49400D01*
X209286Y49209D01*
Y48187D01*
X208775Y47422D01*
X208592Y46500D01*
X208775Y45578D01*
X209297Y44797D01*
X210078Y44275D01*
X211000Y44091D01*
X211922Y44275D01*
X212703Y44797D01*
X213225Y45578D01*
X213408Y46500D01*
X213225Y47422D01*
X212714Y48187D01*
Y63854D01*
X213101Y64171D01*
X213500Y64091D01*
X214422Y64275D01*
X215203Y64797D01*
X215725Y65578D01*
X215877Y66344D01*
X215962Y66525D01*
X216375Y66716D01*
X217000Y66592D01*
X217922Y66775D01*
X218703Y67297D01*
X219225Y68078D01*
X219405Y68981D01*
X234502Y84078D01*
X237775D01*
X238297Y83297D01*
X239078Y82775D01*
X240000Y82591D01*
X240922Y82775D01*
X241687Y83286D01*
X250491D01*
X251147Y83416D01*
X251703Y83788D01*
X308499Y140584D01*
X308810Y141049D01*
X309262Y140985D01*
X309310Y140965D01*
Y33919D01*
X297244D01*
Y33929D01*
X294614Y33757D01*
X292029Y33242D01*
X289533Y32395D01*
X287169Y31229D01*
X284978Y29765D01*
X282996Y28027D01*
X281259Y26046D01*
X279794Y23854D01*
X278628Y21490D01*
X277781Y18995D01*
X277267Y16410D01*
X277095Y13780D01*
X277105D01*
Y1714D01*
X33919D01*
Y13780D01*
X33929D01*
X33757Y16410D01*
X33242Y18995D01*
X32395Y21490D01*
X31229Y23854D01*
X29765Y26046D01*
X28027Y28027D01*
X26046Y29765D01*
X23854Y31229D01*
X21490Y32395D01*
X18995Y33242D01*
X16410Y33757D01*
X13780Y33929D01*
Y33919D01*
X1714D01*
Y237735D01*
X13780D01*
Y237725D01*
X16410Y237897D01*
X18995Y238411D01*
X21490Y239258D01*
X23854Y240424D01*
X26046Y241888D01*
X28027Y243626D01*
X29765Y245608D01*
X31229Y247799D01*
X32395Y250163D01*
X33242Y252659D01*
X33757Y255244D01*
X33929Y257874D01*
X33757Y260504D01*
X33242Y263089D01*
X32395Y265585D01*
X31229Y267949D01*
X29765Y270140D01*
X28027Y272122D01*
X26046Y273860D01*
X23854Y275324D01*
X21490Y276490D01*
X18995Y277337D01*
X16410Y277851D01*
X13780Y278024D01*
Y278013D01*
X1714D01*
Y481829D01*
X13780D01*
Y481819D01*
X16410Y481991D01*
X18995Y482506D01*
X21490Y483353D01*
X23854Y484519D01*
X26046Y485983D01*
X28027Y487721D01*
X29765Y489702D01*
X31229Y491894D01*
X32395Y494258D01*
X33242Y496753D01*
X33757Y499338D01*
X33929Y501968D01*
X33919D01*
Y514034D01*
X277105D01*
Y501968D01*
D02*
G37*
%LPC*%
G36*
X293819Y85789D02*
X293007Y85453D01*
X292181Y84819D01*
X291547Y83993D01*
X291211Y83181D01*
X293819D01*
Y85789D01*
D02*
G37*
G36*
X126913Y84000D02*
X125594D01*
Y82681D01*
X126913D01*
Y84000D01*
D02*
G37*
G36*
X123232Y80319D02*
X121913D01*
Y79000D01*
X123232D01*
Y80319D01*
D02*
G37*
G36*
X298789Y80819D02*
X296181D01*
Y78211D01*
X296993Y78547D01*
X297819Y79181D01*
X298453Y80007D01*
X298789Y80819D01*
D02*
G37*
G36*
X123232Y84000D02*
X121913D01*
Y82681D01*
X123232D01*
Y84000D01*
D02*
G37*
G36*
X126913Y80319D02*
X125594D01*
Y79000D01*
X126913D01*
Y80319D01*
D02*
G37*
G36*
X24244Y99319D02*
X19012D01*
Y94087D01*
X24244D01*
Y99319D01*
D02*
G37*
G36*
X16650D02*
X11417D01*
Y94087D01*
X16650D01*
Y99319D01*
D02*
G37*
G36*
X24244Y106913D02*
X19012D01*
Y101681D01*
X24244D01*
Y106913D01*
D02*
G37*
G36*
X16650D02*
X11417D01*
Y101681D01*
X16650D01*
Y106913D01*
D02*
G37*
G36*
X33913Y89000D02*
X32594D01*
Y87681D01*
X33913D01*
Y89000D01*
D02*
G37*
G36*
X30232Y85319D02*
X28913D01*
Y84000D01*
X30232D01*
Y85319D01*
D02*
G37*
G36*
X296181Y85789D02*
Y83181D01*
X298789D01*
X298453Y83993D01*
X297819Y84819D01*
X296993Y85453D01*
X296181Y85789D01*
D02*
G37*
G36*
X30232Y89000D02*
X28913D01*
Y87681D01*
X30232D01*
Y89000D01*
D02*
G37*
G36*
X33913Y85319D02*
X32594D01*
Y84000D01*
X33913D01*
Y85319D01*
D02*
G37*
G36*
X293819Y67819D02*
X291211D01*
X291547Y67007D01*
X292181Y66181D01*
X293007Y65547D01*
X293819Y65211D01*
Y67819D01*
D02*
G37*
G36*
X298789D02*
X296181D01*
Y65211D01*
X296993Y65547D01*
X297819Y66181D01*
X298453Y67007D01*
X298789Y67819D01*
D02*
G37*
G36*
X55374Y72819D02*
X53980D01*
Y68079D01*
X55374D01*
Y72819D01*
D02*
G37*
G36*
X269134Y86134D02*
X260866D01*
Y77866D01*
X262521D01*
Y73134D01*
X260866D01*
Y71479D01*
X235500D01*
X234551Y71290D01*
X233747Y70753D01*
X233747Y70753D01*
X228884Y65889D01*
X228638Y65857D01*
X227872Y65540D01*
X227214Y65035D01*
X226709Y64377D01*
X226392Y63611D01*
X226359Y63365D01*
X220560Y57566D01*
X220500Y57574D01*
X219575Y57452D01*
X218713Y57095D01*
X217973Y56527D01*
X217405Y55787D01*
X217048Y54925D01*
X216926Y54000D01*
X217048Y53075D01*
X217405Y52213D01*
X217973Y51473D01*
X218713Y50905D01*
X219575Y50548D01*
X220500Y50426D01*
X221425Y50548D01*
X222287Y50905D01*
X223027Y51473D01*
X223595Y52213D01*
X223952Y53075D01*
X224074Y54000D01*
X224066Y54061D01*
X229641Y59636D01*
X230282Y59720D01*
X231048Y60037D01*
X231706Y60542D01*
X232211Y61200D01*
X232529Y61966D01*
X232613Y62608D01*
X236527Y66521D01*
X260866D01*
Y64866D01*
X269134D01*
Y73134D01*
X267479D01*
Y77866D01*
X269134D01*
Y86134D01*
D02*
G37*
G36*
X190000Y58413D02*
X188681D01*
Y57095D01*
X190000D01*
Y58413D01*
D02*
G37*
G36*
X275000Y73169D02*
X273921Y73027D01*
X272915Y72611D01*
X272052Y71948D01*
X271389Y71085D01*
X270973Y70079D01*
X270830Y69000D01*
X270973Y67921D01*
X271389Y66915D01*
X272052Y66052D01*
X272915Y65389D01*
X273921Y64973D01*
X275000Y64830D01*
X276079Y64973D01*
X277085Y65389D01*
X277948Y66052D01*
X278611Y66915D01*
X279027Y67921D01*
X279170Y69000D01*
X279027Y70079D01*
X278611Y71085D01*
X277948Y71948D01*
X277085Y72611D01*
X276079Y73027D01*
X275000Y73169D01*
D02*
G37*
G36*
X285000D02*
X283921Y73027D01*
X282915Y72611D01*
X282052Y71948D01*
X281389Y71085D01*
X280973Y70079D01*
X280831Y69000D01*
X280973Y67921D01*
X281389Y66915D01*
X282052Y66052D01*
X282915Y65389D01*
X283921Y64973D01*
X285000Y64830D01*
X286079Y64973D01*
X287085Y65389D01*
X287948Y66052D01*
X288611Y66915D01*
X289027Y67921D01*
X289170Y69000D01*
X289027Y70079D01*
X288611Y71085D01*
X287948Y71948D01*
X287085Y72611D01*
X286079Y73027D01*
X285000Y73169D01*
D02*
G37*
G36*
X59130Y72819D02*
X57736D01*
Y68079D01*
X59130D01*
Y72819D01*
D02*
G37*
G36*
X275000Y86169D02*
X273921Y86027D01*
X272915Y85611D01*
X272052Y84948D01*
X271389Y84085D01*
X270973Y83079D01*
X270830Y82000D01*
X270973Y80921D01*
X271389Y79915D01*
X272052Y79052D01*
X272915Y78389D01*
X273921Y77973D01*
X275000Y77830D01*
X276079Y77973D01*
X277085Y78389D01*
X277948Y79052D01*
X278611Y79915D01*
X279027Y80921D01*
X279170Y82000D01*
X279027Y83079D01*
X278611Y84085D01*
X277948Y84948D01*
X277085Y85611D01*
X276079Y86027D01*
X275000Y86169D01*
D02*
G37*
G36*
X285000D02*
X283921Y86027D01*
X282915Y85611D01*
X282052Y84948D01*
X281389Y84085D01*
X280973Y83079D01*
X280831Y82000D01*
X280973Y80921D01*
X281389Y79915D01*
X282052Y79052D01*
X282915Y78389D01*
X283921Y77973D01*
X285000Y77830D01*
X286079Y77973D01*
X287085Y78389D01*
X287948Y79052D01*
X288611Y79915D01*
X289027Y80921D01*
X289170Y82000D01*
X289027Y83079D01*
X288611Y84085D01*
X287948Y84948D01*
X287085Y85611D01*
X286079Y86027D01*
X285000Y86169D01*
D02*
G37*
G36*
X293819Y80819D02*
X291211D01*
X291547Y80007D01*
X292181Y79181D01*
X293007Y78547D01*
X293819Y78211D01*
Y80819D01*
D02*
G37*
G36*
X59130Y79921D02*
X57736D01*
Y75181D01*
X59130D01*
Y79921D01*
D02*
G37*
G36*
X293819Y72789D02*
X293007Y72453D01*
X292181Y71819D01*
X291547Y70993D01*
X291211Y70181D01*
X293819D01*
Y72789D01*
D02*
G37*
G36*
X296181D02*
Y70181D01*
X298789D01*
X298453Y70993D01*
X297819Y71819D01*
X296993Y72453D01*
X296181Y72789D01*
D02*
G37*
G36*
X55374Y79921D02*
X53980D01*
Y75181D01*
X55374D01*
Y79921D01*
D02*
G37*
G36*
X42421Y150272D02*
X37189D01*
Y145039D01*
X42421D01*
Y150272D01*
D02*
G37*
G36*
X34827D02*
X29594D01*
Y145039D01*
X34827D01*
Y150272D01*
D02*
G37*
G36*
X11000Y158319D02*
X9681D01*
Y157000D01*
X11000D01*
Y158319D01*
D02*
G37*
G36*
X7319D02*
X6000D01*
Y157000D01*
X7319D01*
Y158319D01*
D02*
G37*
G36*
X42421Y142677D02*
X37189D01*
Y137445D01*
X42421D01*
Y142677D01*
D02*
G37*
G36*
X34827D02*
X29594D01*
Y137445D01*
X34827D01*
Y142677D01*
D02*
G37*
G36*
X264913Y148913D02*
X259681D01*
Y143681D01*
X264913D01*
Y148913D01*
D02*
G37*
G36*
X257319D02*
X252087D01*
Y143681D01*
X257319D01*
Y148913D01*
D02*
G37*
G36*
X277500Y161819D02*
X276181D01*
Y160500D01*
X277500D01*
Y161819D01*
D02*
G37*
G36*
X273819D02*
X272500D01*
Y160500D01*
X273819D01*
Y161819D01*
D02*
G37*
G36*
X11000Y162000D02*
X9681D01*
Y160681D01*
X11000D01*
Y162000D01*
D02*
G37*
G36*
X7319D02*
X6000D01*
Y160681D01*
X7319D01*
Y162000D01*
D02*
G37*
G36*
X49500Y159232D02*
X48181D01*
Y157913D01*
X49500D01*
Y159232D01*
D02*
G37*
G36*
X45819D02*
X44500D01*
Y157913D01*
X45819D01*
Y159232D01*
D02*
G37*
G36*
X285268Y165681D02*
X285181Y165594D01*
X284852Y165594D01*
X279819D01*
Y160232D01*
X285181D01*
X285787Y160315D01*
Y160315D01*
X286252Y160319D01*
X291181D01*
Y165681D01*
X286283D01*
X285268Y165681D01*
D02*
G37*
G36*
X71268Y163181D02*
X65905D01*
Y157819D01*
X71268D01*
Y158786D01*
X76313D01*
X77078Y158275D01*
X78000Y158091D01*
X78922Y158275D01*
X79703Y158797D01*
X80225Y159578D01*
X80409Y160500D01*
X80225Y161422D01*
X79703Y162203D01*
X78922Y162725D01*
X78000Y162908D01*
X77078Y162725D01*
X76313Y162214D01*
X71268D01*
Y163181D01*
D02*
G37*
G36*
X208000Y123000D02*
X206681D01*
Y121681D01*
X208000D01*
Y123000D01*
D02*
G37*
G36*
X204319D02*
X203000D01*
Y121681D01*
X204319D01*
Y123000D01*
D02*
G37*
G36*
X141000Y127732D02*
X139681D01*
Y126413D01*
X141000D01*
Y127732D01*
D02*
G37*
G36*
X137319D02*
X136000D01*
Y126413D01*
X137319D01*
Y127732D01*
D02*
G37*
G36*
X126900Y111000D02*
X125581D01*
Y109681D01*
X126900D01*
Y111000D01*
D02*
G37*
G36*
X123219D02*
X121900D01*
Y109681D01*
X123219D01*
Y111000D01*
D02*
G37*
G36*
X208000Y119319D02*
X206681D01*
Y118000D01*
X208000D01*
Y119319D01*
D02*
G37*
G36*
X204319D02*
X203000D01*
Y118000D01*
X204319D01*
Y119319D01*
D02*
G37*
G36*
X153255Y133000D02*
X151936D01*
Y131681D01*
X153255D01*
Y133000D01*
D02*
G37*
G36*
X149574D02*
X148255D01*
Y131681D01*
X149574D01*
Y133000D01*
D02*
G37*
G36*
X264913Y141319D02*
X259681D01*
Y136087D01*
X264913D01*
Y141319D01*
D02*
G37*
G36*
X257319D02*
X252087D01*
Y136087D01*
X257319D01*
Y141319D01*
D02*
G37*
G36*
X153255Y129319D02*
X151936D01*
Y128000D01*
X153255D01*
Y129319D01*
D02*
G37*
G36*
X149574D02*
X148255D01*
Y128000D01*
X149574D01*
Y129319D01*
D02*
G37*
G36*
X141000Y131413D02*
X139681D01*
Y130095D01*
X141000D01*
Y131413D01*
D02*
G37*
G36*
X137319D02*
X136000D01*
Y130095D01*
X137319D01*
Y131413D01*
D02*
G37*
G36*
X182571Y11276D02*
X182056Y11063D01*
X181354Y10524D01*
X180815Y9822D01*
X180602Y9307D01*
X182571D01*
Y11276D01*
D02*
G37*
G36*
X129429Y11150D02*
Y9181D01*
X131398D01*
X131185Y9696D01*
X130646Y10398D01*
X129944Y10937D01*
X129429Y11150D01*
D02*
G37*
G36*
X191626Y19574D02*
X190701Y19452D01*
X189839Y19095D01*
X189099Y18527D01*
X188531Y17787D01*
X188174Y16925D01*
X188052Y16000D01*
X188174Y15075D01*
X188531Y14213D01*
X189099Y13473D01*
X189839Y12905D01*
X190701Y12548D01*
X191626Y12426D01*
X192551Y12548D01*
X193413Y12905D01*
X194153Y13473D01*
X194721Y14213D01*
X195078Y15075D01*
X195200Y16000D01*
X195078Y16925D01*
X194721Y17787D01*
X194153Y18527D01*
X193413Y19095D01*
X192551Y19452D01*
X191626Y19574D01*
D02*
G37*
G36*
X184933Y11276D02*
Y9307D01*
X186902D01*
X186689Y9822D01*
X186150Y10524D01*
X185448Y11063D01*
X184933Y11276D01*
D02*
G37*
G36*
X119193Y11150D02*
X118678Y10937D01*
X117976Y10398D01*
X117437Y9696D01*
X117224Y9181D01*
X119193D01*
Y11150D01*
D02*
G37*
G36*
X113681D02*
Y9181D01*
X115650D01*
X115437Y9696D01*
X114898Y10398D01*
X114196Y10937D01*
X113681Y11150D01*
D02*
G37*
G36*
X127067D02*
X126552Y10937D01*
X125850Y10398D01*
X125311Y9696D01*
X125098Y9181D01*
X127067D01*
Y11150D01*
D02*
G37*
G36*
X121555D02*
Y9181D01*
X123524D01*
X123311Y9696D01*
X122772Y10398D01*
X122070Y10937D01*
X121555Y11150D01*
D02*
G37*
G36*
X119193Y14693D02*
X117224D01*
X117437Y14178D01*
X117976Y13476D01*
X118678Y12937D01*
X119193Y12724D01*
Y14693D01*
D02*
G37*
G36*
X107988D02*
X105807D01*
Y12512D01*
X107988D01*
Y14693D01*
D02*
G37*
G36*
X127067D02*
X125098D01*
X125311Y14178D01*
X125850Y13476D01*
X126552Y12937D01*
X127067Y12724D01*
Y14693D01*
D02*
G37*
G36*
X123524D02*
X121555D01*
Y12724D01*
X122070Y12937D01*
X122772Y13476D01*
X123311Y14178D01*
X123524Y14693D01*
D02*
G37*
G36*
X207374Y19574D02*
X206449Y19452D01*
X205587Y19095D01*
X204847Y18527D01*
X204279Y17787D01*
X203922Y16925D01*
X203800Y16000D01*
X203922Y15075D01*
X204279Y14213D01*
X204847Y13473D01*
X205587Y12905D01*
X206449Y12548D01*
X207374Y12426D01*
X208299Y12548D01*
X209161Y12905D01*
X209901Y13473D01*
X210469Y14213D01*
X210826Y15075D01*
X210948Y16000D01*
X210826Y16925D01*
X210469Y17787D01*
X209901Y18527D01*
X209161Y19095D01*
X208299Y19452D01*
X207374Y19574D01*
D02*
G37*
G36*
X199500D02*
X198575Y19452D01*
X197713Y19095D01*
X196973Y18527D01*
X196405Y17787D01*
X196048Y16925D01*
X195926Y16000D01*
X196048Y15075D01*
X196405Y14213D01*
X196973Y13473D01*
X197713Y12905D01*
X198575Y12548D01*
X199500Y12426D01*
X200425Y12548D01*
X201287Y12905D01*
X202027Y13473D01*
X202595Y14213D01*
X202952Y15075D01*
X203074Y16000D01*
X202952Y16925D01*
X202595Y17787D01*
X202027Y18527D01*
X201287Y19095D01*
X200425Y19452D01*
X199500Y19574D01*
D02*
G37*
G36*
X103445Y14693D02*
X101264D01*
Y12512D01*
X103445D01*
Y14693D01*
D02*
G37*
G36*
X187295Y19543D02*
X180209D01*
Y12457D01*
X187295D01*
Y19543D01*
D02*
G37*
G36*
X127067Y6819D02*
X125098D01*
X125311Y6304D01*
X125850Y5602D01*
X126552Y5063D01*
X127067Y4850D01*
Y6819D01*
D02*
G37*
G36*
X123524D02*
X121555D01*
Y4850D01*
X122070Y5063D01*
X122772Y5602D01*
X123311Y6304D01*
X123524Y6819D01*
D02*
G37*
G36*
X103445D02*
X101476D01*
X101689Y6304D01*
X102228Y5602D01*
X102930Y5063D01*
X103445Y4850D01*
Y6819D01*
D02*
G37*
G36*
X131398D02*
X129429D01*
Y4850D01*
X129944Y5063D01*
X130646Y5602D01*
X131185Y6304D01*
X131398Y6819D01*
D02*
G37*
G36*
X199500Y11700D02*
X198575Y11578D01*
X197713Y11221D01*
X196973Y10653D01*
X196405Y9913D01*
X196048Y9051D01*
X195926Y8126D01*
X196048Y7201D01*
X196405Y6339D01*
X196973Y5599D01*
X197713Y5031D01*
X198575Y4674D01*
X199500Y4552D01*
X200425Y4674D01*
X201287Y5031D01*
X202027Y5599D01*
X202595Y6339D01*
X202952Y7201D01*
X203074Y8126D01*
X202952Y9051D01*
X202595Y9913D01*
X202027Y10653D01*
X201287Y11221D01*
X200425Y11578D01*
X199500Y11700D01*
D02*
G37*
G36*
X191626D02*
X190701Y11578D01*
X189839Y11221D01*
X189099Y10653D01*
X188531Y9913D01*
X188174Y9051D01*
X188052Y8126D01*
X188174Y7201D01*
X188531Y6339D01*
X189099Y5599D01*
X189839Y5031D01*
X190701Y4674D01*
X191626Y4552D01*
X192551Y4674D01*
X193413Y5031D01*
X194153Y5599D01*
X194721Y6339D01*
X195078Y7201D01*
X195200Y8126D01*
X195078Y9051D01*
X194721Y9913D01*
X194153Y10653D01*
X193413Y11221D01*
X192551Y11578D01*
X191626Y11700D01*
D02*
G37*
G36*
X119193Y6819D02*
X117224D01*
X117437Y6304D01*
X117976Y5602D01*
X118678Y5063D01*
X119193Y4850D01*
Y6819D01*
D02*
G37*
G36*
X207374Y11700D02*
X206449Y11578D01*
X205587Y11221D01*
X204847Y10653D01*
X204279Y9913D01*
X203922Y9051D01*
X203800Y8126D01*
X203922Y7201D01*
X204279Y6339D01*
X204847Y5599D01*
X205587Y5031D01*
X206449Y4674D01*
X207374Y4552D01*
X208299Y4674D01*
X209161Y5031D01*
X209901Y5599D01*
X210469Y6339D01*
X210826Y7201D01*
X210948Y8126D01*
X210826Y9051D01*
X210469Y9913D01*
X209901Y10653D01*
X209161Y11221D01*
X208299Y11578D01*
X207374Y11700D01*
D02*
G37*
G36*
X103445Y11150D02*
X102930Y10937D01*
X102228Y10398D01*
X101689Y9696D01*
X101476Y9181D01*
X103445D01*
Y11150D01*
D02*
G37*
G36*
X186902Y6945D02*
X184933D01*
Y4976D01*
X185448Y5189D01*
X186150Y5728D01*
X186689Y6430D01*
X186902Y6945D01*
D02*
G37*
G36*
X111319Y11150D02*
X110804Y10937D01*
X110102Y10398D01*
X109563Y9696D01*
X109350Y9181D01*
X111319D01*
Y11150D01*
D02*
G37*
G36*
X105807D02*
Y9181D01*
X107776D01*
X107563Y9696D01*
X107024Y10398D01*
X106322Y10937D01*
X105807Y11150D01*
D02*
G37*
G36*
X111319Y6819D02*
X109350D01*
X109563Y6304D01*
X110102Y5602D01*
X110804Y5063D01*
X111319Y4850D01*
Y6819D01*
D02*
G37*
G36*
X107776D02*
X105807D01*
Y4850D01*
X106322Y5063D01*
X107024Y5602D01*
X107563Y6304D01*
X107776Y6819D01*
D02*
G37*
G36*
X182571Y6945D02*
X180602D01*
X180815Y6430D01*
X181354Y5728D01*
X182056Y5189D01*
X182571Y4976D01*
Y6945D01*
D02*
G37*
G36*
X115650Y6819D02*
X113681D01*
Y4850D01*
X114196Y5063D01*
X114898Y5602D01*
X115437Y6304D01*
X115650Y6819D01*
D02*
G37*
G36*
X252496Y45873D02*
X252180Y45742D01*
X251560Y45267D01*
X251084Y44646D01*
X250953Y44330D01*
X252496D01*
Y45873D01*
D02*
G37*
G36*
X73500Y47000D02*
X71181D01*
Y44181D01*
X73500D01*
Y47000D01*
D02*
G37*
G36*
X79319Y46913D02*
X78000D01*
Y45594D01*
X79319D01*
Y46913D01*
D02*
G37*
G36*
X254858Y45873D02*
Y44330D01*
X256401D01*
X256270Y44646D01*
X255794Y45267D01*
X255174Y45742D01*
X254858Y45873D01*
D02*
G37*
G36*
X79319Y43232D02*
X78000D01*
Y41913D01*
X79319D01*
Y43232D01*
D02*
G37*
G36*
X256401Y41968D02*
X254858D01*
Y40426D01*
X255174Y40556D01*
X255794Y41032D01*
X256270Y41652D01*
X256401Y41968D01*
D02*
G37*
G36*
X68819Y47000D02*
X66500D01*
Y44181D01*
X68819D01*
Y47000D01*
D02*
G37*
G36*
X83000Y43232D02*
X81681D01*
Y41913D01*
X83000D01*
Y43232D01*
D02*
G37*
G36*
X160822Y58272D02*
X159503D01*
Y56953D01*
X160822D01*
Y58272D01*
D02*
G37*
G36*
X190000Y54732D02*
X188681D01*
Y53413D01*
X190000D01*
Y54732D01*
D02*
G37*
G36*
X186319Y58413D02*
X185000D01*
Y57095D01*
X186319D01*
Y58413D01*
D02*
G37*
G36*
X164503Y58272D02*
X163184D01*
Y56953D01*
X164503D01*
Y58272D01*
D02*
G37*
G36*
X160822Y54591D02*
X159503D01*
Y53272D01*
X160822D01*
Y54591D01*
D02*
G37*
G36*
X83000Y46913D02*
X81681D01*
Y45594D01*
X83000D01*
Y46913D01*
D02*
G37*
G36*
X186319Y54732D02*
X185000D01*
Y53413D01*
X186319D01*
Y54732D01*
D02*
G37*
G36*
X164503Y54591D02*
X163184D01*
Y53272D01*
X164503D01*
Y54591D01*
D02*
G37*
G36*
X111319Y19024D02*
X110804Y18811D01*
X110102Y18272D01*
X109563Y17570D01*
X109350Y17055D01*
X111319D01*
Y19024D01*
D02*
G37*
G36*
X107988Y19236D02*
X105807D01*
Y17055D01*
X107988D01*
Y19236D01*
D02*
G37*
G36*
X119193Y19024D02*
X118678Y18811D01*
X117976Y18272D01*
X117437Y17570D01*
X117224Y17055D01*
X119193D01*
Y19024D01*
D02*
G37*
G36*
X113681D02*
Y17055D01*
X115650D01*
X115437Y17570D01*
X114898Y18272D01*
X114196Y18811D01*
X113681Y19024D01*
D02*
G37*
G36*
X111319Y14693D02*
X109350D01*
X109563Y14178D01*
X110102Y13476D01*
X110804Y12937D01*
X111319Y12724D01*
Y14693D01*
D02*
G37*
G36*
X131398D02*
X129429D01*
Y12724D01*
X129944Y12937D01*
X130646Y13476D01*
X131185Y14178D01*
X131398Y14693D01*
D02*
G37*
G36*
X103445Y19236D02*
X101264D01*
Y17055D01*
X103445D01*
Y19236D01*
D02*
G37*
G36*
X115650Y14693D02*
X113681D01*
Y12724D01*
X114196Y12937D01*
X114898Y13476D01*
X115437Y14178D01*
X115650Y14693D01*
D02*
G37*
G36*
X13780Y63449D02*
X11971Y63307D01*
X10208Y62883D01*
X8532Y62189D01*
X6985Y61241D01*
X5606Y60063D01*
X4428Y58684D01*
X3480Y57138D01*
X2786Y55462D01*
X2363Y53698D01*
X2220Y51890D01*
X2363Y50081D01*
X2786Y48318D01*
X3480Y46642D01*
X4428Y45095D01*
X5606Y43716D01*
X6985Y42538D01*
X8532Y41590D01*
X10208Y40896D01*
X11971Y40473D01*
X13780Y40330D01*
X15588Y40473D01*
X17352Y40896D01*
X19027Y41590D01*
X20574Y42538D01*
X21953Y43716D01*
X23131Y45095D01*
X24079Y46642D01*
X24773Y48318D01*
X25196Y50081D01*
X25339Y51890D01*
X25196Y53698D01*
X24773Y55462D01*
X24079Y57138D01*
X23131Y58684D01*
X21953Y60063D01*
X20574Y61241D01*
X19027Y62189D01*
X17352Y62883D01*
X15588Y63307D01*
X13780Y63449D01*
D02*
G37*
G36*
X73500Y41819D02*
X71181D01*
Y39000D01*
X73500D01*
Y41819D01*
D02*
G37*
G36*
X252496Y41968D02*
X250953D01*
X251084Y41652D01*
X251560Y41032D01*
X252180Y40556D01*
X252496Y40426D01*
Y41968D01*
D02*
G37*
G36*
X297244Y63449D02*
X295436Y63307D01*
X293672Y62883D01*
X291996Y62189D01*
X290450Y61241D01*
X289071Y60063D01*
X287893Y58684D01*
X286945Y57138D01*
X286251Y55462D01*
X285827Y53698D01*
X285685Y51890D01*
X285827Y50081D01*
X286251Y48318D01*
X286945Y46642D01*
X287893Y45095D01*
X289071Y43716D01*
X290450Y42538D01*
X291996Y41590D01*
X293672Y40896D01*
X295436Y40473D01*
X297244Y40330D01*
X299052Y40473D01*
X300816Y40896D01*
X302492Y41590D01*
X304039Y42538D01*
X305418Y43716D01*
X306596Y45095D01*
X307543Y46642D01*
X308238Y48318D01*
X308661Y50081D01*
X308803Y51890D01*
X308661Y53698D01*
X308238Y55462D01*
X307543Y57138D01*
X306596Y58684D01*
X305418Y60063D01*
X304039Y61241D01*
X302492Y62189D01*
X300816Y62883D01*
X299052Y63307D01*
X297244Y63449D01*
D02*
G37*
G36*
X127067Y19024D02*
X126552Y18811D01*
X125850Y18272D01*
X125311Y17570D01*
X125098Y17055D01*
X127067D01*
Y19024D01*
D02*
G37*
G36*
X121555D02*
Y17055D01*
X123524D01*
X123311Y17570D01*
X122772Y18272D01*
X122070Y18811D01*
X121555Y19024D01*
D02*
G37*
G36*
X68819Y41819D02*
X66500D01*
Y39000D01*
X68819D01*
Y41819D01*
D02*
G37*
G36*
X129429Y19024D02*
Y17055D01*
X131398D01*
X131185Y17570D01*
X130646Y18272D01*
X129944Y18811D01*
X129429Y19024D01*
D02*
G37*
G36*
X178905Y428500D02*
X177587D01*
Y427181D01*
X178905D01*
Y428500D01*
D02*
G37*
G36*
X298500Y434318D02*
X297382Y434171D01*
X296341Y433740D01*
X295447Y433053D01*
X294760Y432159D01*
X294329Y431118D01*
X294182Y430000D01*
X294329Y428882D01*
X294760Y427841D01*
X295447Y426947D01*
X296341Y426261D01*
X297382Y425829D01*
X298500Y425682D01*
X299618Y425829D01*
X300659Y426261D01*
X301553Y426947D01*
X302239Y427841D01*
X302671Y428882D01*
X302818Y430000D01*
X302671Y431118D01*
X302239Y432159D01*
X301553Y433053D01*
X300659Y433740D01*
X299618Y434171D01*
X298500Y434318D01*
D02*
G37*
G36*
X232819Y429913D02*
X231500D01*
Y428594D01*
X232819D01*
Y429913D01*
D02*
G37*
G36*
X182587Y428500D02*
X181268D01*
Y427181D01*
X182587D01*
Y428500D01*
D02*
G37*
G36*
X232819Y426232D02*
X231500D01*
Y424913D01*
X232819D01*
Y426232D01*
D02*
G37*
G36*
X182587Y424819D02*
X181268D01*
Y423500D01*
X182587D01*
Y424819D01*
D02*
G37*
G36*
X288500Y434318D02*
X287382Y434171D01*
X286341Y433740D01*
X285447Y433053D01*
X284760Y432159D01*
X284329Y431118D01*
X284182Y430000D01*
X284329Y428882D01*
X284760Y427841D01*
X285447Y426947D01*
X286341Y426261D01*
X287382Y425829D01*
X288500Y425682D01*
X289618Y425829D01*
X290659Y426261D01*
X291553Y426947D01*
X292239Y427841D01*
X292671Y428882D01*
X292818Y430000D01*
X292671Y431118D01*
X292239Y432159D01*
X291553Y433053D01*
X290659Y433740D01*
X289618Y434171D01*
X288500Y434318D01*
D02*
G37*
G36*
X236500Y426232D02*
X235181D01*
Y424913D01*
X236500D01*
Y426232D01*
D02*
G37*
G36*
X172232Y441000D02*
X170913D01*
Y439681D01*
X172232D01*
Y441000D01*
D02*
G37*
G36*
X298500Y444318D02*
X297382Y444171D01*
X296341Y443740D01*
X295447Y443053D01*
X294760Y442159D01*
X294329Y441118D01*
X294182Y440000D01*
X294329Y438882D01*
X294760Y437841D01*
X295447Y436947D01*
X296341Y436261D01*
X297382Y435829D01*
X298500Y435682D01*
X299618Y435829D01*
X300659Y436261D01*
X301553Y436947D01*
X302239Y437841D01*
X302671Y438882D01*
X302818Y440000D01*
X302671Y441118D01*
X302239Y442159D01*
X301553Y443053D01*
X300659Y443740D01*
X299618Y444171D01*
X298500Y444318D01*
D02*
G37*
G36*
X158232Y443319D02*
X156913D01*
Y442000D01*
X158232D01*
Y443319D01*
D02*
G37*
G36*
X175913Y441000D02*
X174594D01*
Y439681D01*
X175913D01*
Y441000D01*
D02*
G37*
G36*
X221819Y433819D02*
X218343D01*
X218614Y433414D01*
X219342Y432928D01*
X220200Y432757D01*
X221819D01*
Y433819D01*
D02*
G37*
G36*
X236500Y429913D02*
X235181D01*
Y428594D01*
X236500D01*
Y429913D01*
D02*
G37*
G36*
X288500Y444318D02*
X287382Y444171D01*
X286341Y443740D01*
X285447Y443053D01*
X284760Y442159D01*
X284329Y441118D01*
X284182Y440000D01*
X284329Y438882D01*
X284760Y437841D01*
X285447Y436947D01*
X286341Y436261D01*
X287382Y435829D01*
X288500Y435682D01*
X289618Y435829D01*
X290659Y436261D01*
X291553Y436947D01*
X292239Y437841D01*
X292671Y438882D01*
X292818Y440000D01*
X292671Y441118D01*
X292239Y442159D01*
X291553Y443053D01*
X290659Y443740D01*
X289618Y444171D01*
X288500Y444318D01*
D02*
G37*
G36*
X227657Y433819D02*
X224181D01*
Y432757D01*
X225800D01*
X226658Y432928D01*
X227386Y433414D01*
X227657Y433819D01*
D02*
G37*
G36*
X287319Y414100D02*
X284400D01*
Y411181D01*
X287319D01*
Y414100D01*
D02*
G37*
G36*
X214750Y411319D02*
X211181D01*
Y407000D01*
X214750D01*
Y411319D01*
D02*
G37*
G36*
X208819Y418000D02*
X205250D01*
Y413681D01*
X208819D01*
Y418000D01*
D02*
G37*
G36*
X292600Y414100D02*
X289681D01*
Y411181D01*
X292600D01*
Y414100D01*
D02*
G37*
G36*
X287319Y408819D02*
X284400D01*
Y405900D01*
X287319D01*
Y408819D01*
D02*
G37*
G36*
X248500Y430621D02*
X247111Y430484D01*
X245775Y430079D01*
X244544Y429421D01*
X243465Y428535D01*
X243379Y428431D01*
X242819D01*
Y427748D01*
X242579Y427456D01*
X241921Y426225D01*
X241516Y424889D01*
X241379Y423500D01*
Y419621D01*
X229685D01*
X228296Y419484D01*
X226960Y419079D01*
X225729Y418421D01*
X225437Y418181D01*
X224754D01*
Y417621D01*
X224650Y417535D01*
X223764Y416456D01*
X223106Y415225D01*
X222701Y413889D01*
X222564Y412500D01*
X222701Y411111D01*
X223106Y409775D01*
X223764Y408544D01*
X224650Y407465D01*
X224754Y407379D01*
Y406819D01*
X225437D01*
X225729Y406579D01*
X226960Y405921D01*
X228296Y405516D01*
X229685Y405379D01*
X249000D01*
X249000Y405379D01*
X250389Y405516D01*
X251725Y405921D01*
X252956Y406579D01*
X254035Y407465D01*
X254413Y407925D01*
X256431D01*
Y417075D01*
X255621D01*
Y423500D01*
X255484Y424889D01*
X255079Y426225D01*
X254421Y427456D01*
X254181Y427748D01*
Y428431D01*
X253621D01*
X253535Y428535D01*
X252456Y429421D01*
X251225Y430079D01*
X249889Y430484D01*
X248500Y430621D01*
D02*
G37*
G36*
X208819Y411319D02*
X205250D01*
Y407000D01*
X208819D01*
Y411319D01*
D02*
G37*
G36*
X292600Y408819D02*
X289681D01*
Y405900D01*
X292600D01*
Y408819D01*
D02*
G37*
G36*
X289681Y423949D02*
Y421181D01*
X292449D01*
X292081Y422068D01*
X291424Y422924D01*
X290568Y423581D01*
X289681Y423949D01*
D02*
G37*
G36*
X287319D02*
X286432Y423581D01*
X285576Y422924D01*
X284919Y422068D01*
X284551Y421181D01*
X287319D01*
Y423949D01*
D02*
G37*
G36*
X178905Y424819D02*
X177587D01*
Y423500D01*
X178905D01*
Y424819D01*
D02*
G37*
G36*
X175913Y437319D02*
X170913D01*
Y436177D01*
X170913Y436000D01*
X170547Y435677D01*
X167500D01*
X166678Y435569D01*
X165912Y435251D01*
X165820Y435181D01*
X164819D01*
Y434180D01*
X164749Y434088D01*
X164432Y433322D01*
X164323Y432500D01*
X164432Y431678D01*
X164749Y430912D01*
X164819Y430820D01*
Y429819D01*
X165820D01*
X165912Y429749D01*
X166678Y429431D01*
X167500Y429323D01*
X169823D01*
Y426000D01*
X169931Y425178D01*
X170249Y424412D01*
X170319Y424320D01*
Y423319D01*
X171320D01*
X171412Y423249D01*
X172178Y422931D01*
X173000Y422823D01*
X173822Y422931D01*
X174588Y423249D01*
X174680Y423319D01*
X175681D01*
Y424320D01*
X175751Y424412D01*
X176068Y425178D01*
X176177Y426000D01*
Y432500D01*
X176068Y433322D01*
X175751Y434088D01*
X175681Y434180D01*
X175681Y435468D01*
X175681Y435596D01*
X175913Y436000D01*
X175913Y436171D01*
Y437319D01*
D02*
G37*
G36*
X298500Y424318D02*
X297382Y424171D01*
X296341Y423739D01*
X295447Y423053D01*
X294760Y422159D01*
X294329Y421118D01*
X294182Y420000D01*
X294329Y418882D01*
X294760Y417841D01*
X295447Y416947D01*
X296341Y416260D01*
X297382Y415829D01*
X298500Y415682D01*
X299618Y415829D01*
X300659Y416260D01*
X301553Y416947D01*
X302239Y417841D01*
X302671Y418882D01*
X302818Y420000D01*
X302671Y421118D01*
X302239Y422159D01*
X301553Y423053D01*
X300659Y423739D01*
X299618Y424171D01*
X298500Y424318D01*
D02*
G37*
G36*
X214750Y418000D02*
X211181D01*
Y413681D01*
X214750D01*
Y418000D01*
D02*
G37*
G36*
X292449Y418819D02*
X289681D01*
Y416051D01*
X290568Y416419D01*
X291424Y417076D01*
X292081Y417932D01*
X292449Y418819D01*
D02*
G37*
G36*
X287319D02*
X284551D01*
X284919Y417932D01*
X285576Y417076D01*
X286432Y416419D01*
X287319Y416051D01*
Y418819D01*
D02*
G37*
G36*
X251935Y479500D02*
X248366D01*
Y475181D01*
X251935D01*
Y479500D01*
D02*
G37*
G36*
X246004D02*
X242435D01*
Y475181D01*
X246004D01*
Y479500D01*
D02*
G37*
G36*
X253937Y513528D02*
X252129Y513385D01*
X250365Y512962D01*
X248689Y512268D01*
X247143Y511320D01*
X245763Y510142D01*
X244585Y508763D01*
X243638Y507216D01*
X242944Y505541D01*
X242520Y503777D01*
X242378Y501968D01*
X242520Y500160D01*
X242944Y498396D01*
X243638Y496721D01*
X244585Y495174D01*
X245763Y493795D01*
X247143Y492617D01*
X248689Y491669D01*
X250365Y490975D01*
X252129Y490552D01*
X253937Y490409D01*
X255745Y490552D01*
X257509Y490975D01*
X259185Y491669D01*
X260731Y492617D01*
X262111Y493795D01*
X263289Y495174D01*
X264236Y496721D01*
X264931Y498396D01*
X265354Y500160D01*
X265496Y501968D01*
X265354Y503777D01*
X264931Y505541D01*
X264236Y507216D01*
X263289Y508763D01*
X262111Y510142D01*
X260731Y511320D01*
X259185Y512268D01*
X257509Y512962D01*
X255745Y513385D01*
X253937Y513528D01*
D02*
G37*
G36*
X57087D02*
X55278Y513385D01*
X53515Y512962D01*
X51839Y512268D01*
X50292Y511320D01*
X48913Y510142D01*
X47735Y508763D01*
X46787Y507216D01*
X46093Y505541D01*
X45670Y503777D01*
X45527Y501968D01*
X45670Y500160D01*
X46093Y498396D01*
X46787Y496721D01*
X47735Y495174D01*
X48913Y493795D01*
X50292Y492617D01*
X51839Y491669D01*
X53515Y490975D01*
X55278Y490552D01*
X57087Y490409D01*
X58895Y490552D01*
X60659Y490975D01*
X62334Y491669D01*
X63881Y492617D01*
X65260Y493795D01*
X66438Y495174D01*
X67386Y496721D01*
X68080Y498396D01*
X68503Y500160D01*
X68646Y501968D01*
X68503Y503777D01*
X68080Y505541D01*
X67386Y507216D01*
X66438Y508763D01*
X65260Y510142D01*
X63881Y511320D01*
X62334Y512268D01*
X60659Y512962D01*
X58895Y513385D01*
X57087Y513528D01*
D02*
G37*
G36*
X213008Y480102D02*
X188992D01*
Y467898D01*
X197823D01*
Y459500D01*
Y452353D01*
X197271Y452243D01*
X196483Y451717D01*
X195957Y450929D01*
X195772Y450000D01*
X195957Y449071D01*
X196220Y448677D01*
X195953Y448177D01*
X193316D01*
X188746Y452746D01*
X188088Y453251D01*
X187322Y453569D01*
X186500Y453677D01*
X183763D01*
Y456500D01*
X183655Y457322D01*
X183338Y458088D01*
X183268Y458180D01*
Y459181D01*
X182266D01*
X182175Y459251D01*
X181409Y459569D01*
X180587Y459677D01*
X179764Y459569D01*
X178998Y459251D01*
X178907Y459181D01*
X177905D01*
Y458180D01*
X177835Y458088D01*
X177518Y457322D01*
X177410Y456500D01*
Y451158D01*
X177323Y450500D01*
X177431Y449678D01*
X177749Y448912D01*
X177736Y448384D01*
X177724Y447922D01*
Y447922D01*
X177723Y447869D01*
X177723D01*
X177720Y447779D01*
X177720D01*
X177720Y447761D01*
X177720D01*
X177716Y447596D01*
X177716D01*
X177406Y435181D01*
Y429819D01*
X182768D01*
Y430292D01*
X186000D01*
X186845Y430460D01*
X187561Y430939D01*
X189415Y432792D01*
X197218D01*
X197271Y432757D01*
X198200Y432572D01*
X203800D01*
X204729Y432757D01*
X205517Y433283D01*
X206043Y434071D01*
X206228Y434256D01*
Y447035D01*
X206228Y447035D01*
X206228Y447036D01*
Y447036D01*
D01*
Y448334D01*
Y448334D01*
Y448334D01*
X206228D01*
X206228Y448334D01*
Y450000D01*
X206043Y450929D01*
X205517Y451717D01*
X204729Y452243D01*
X204177Y452353D01*
Y459500D01*
Y467898D01*
X213008D01*
Y470823D01*
X222569D01*
Y468319D01*
X232431D01*
Y479681D01*
X222569D01*
Y477177D01*
X213008D01*
Y480102D01*
D02*
G37*
G36*
X165587Y465500D02*
X164268D01*
Y464181D01*
X165587D01*
Y465500D01*
D02*
G37*
G36*
X251935Y472819D02*
X248366D01*
Y468500D01*
X251935D01*
Y472819D01*
D02*
G37*
G36*
X246004D02*
X242435D01*
Y468500D01*
X246004D01*
Y472819D01*
D02*
G37*
G36*
X171500Y498087D02*
X170181D01*
Y496768D01*
X171500D01*
Y498087D01*
D02*
G37*
G36*
X167819D02*
X166500D01*
Y496768D01*
X167819D01*
Y498087D01*
D02*
G37*
G36*
X182000Y501500D02*
X179681D01*
Y498681D01*
X182000D01*
Y501500D01*
D02*
G37*
G36*
X177319D02*
X175000D01*
Y498681D01*
X177319D01*
Y501500D01*
D02*
G37*
G36*
X171500Y494406D02*
X170181D01*
Y493087D01*
X171500D01*
Y494406D01*
D02*
G37*
G36*
X167819D02*
X166500D01*
Y493087D01*
X167819D01*
Y494406D01*
D02*
G37*
G36*
X182000Y496319D02*
X179681D01*
Y493500D01*
X182000D01*
Y496319D01*
D02*
G37*
G36*
X177319D02*
X175000D01*
Y493500D01*
X177319D01*
Y496319D01*
D02*
G37*
G36*
X175913Y449319D02*
X174594D01*
Y448000D01*
X175913D01*
Y449319D01*
D02*
G37*
G36*
X172232D02*
X170913D01*
Y448000D01*
X172232D01*
Y449319D01*
D02*
G37*
G36*
X173500Y465213D02*
X172539Y465086D01*
X171644Y464715D01*
X170875Y464125D01*
X170285Y463356D01*
X169914Y462461D01*
X169787Y461500D01*
X169914Y460539D01*
X170099Y460092D01*
X169821Y459677D01*
X163087D01*
X162264Y459569D01*
X161498Y459251D01*
X161407Y459181D01*
X160406D01*
Y458180D01*
X160335Y458088D01*
X160018Y457322D01*
X159910Y456500D01*
X160018Y455678D01*
X160335Y454912D01*
X160406Y454820D01*
Y453819D01*
X161407D01*
X161498Y453749D01*
X162264Y453432D01*
X163087Y453323D01*
X170547D01*
X170913Y453000D01*
X170913Y452823D01*
Y451681D01*
X175913D01*
Y453000D01*
X176181Y453268D01*
Y453819D01*
X175846Y453647D01*
X175659Y453819D01*
X176181D01*
Y454820D01*
X176251Y454912D01*
X176568Y455678D01*
X176677Y456500D01*
Y459593D01*
X176715Y459644D01*
X177086Y460539D01*
X177213Y461500D01*
X177086Y462461D01*
X176715Y463356D01*
X176125Y464125D01*
X175356Y464715D01*
X174461Y465086D01*
X173500Y465213D01*
D02*
G37*
G36*
X234000D02*
X233039Y465086D01*
X232144Y464715D01*
X231375Y464125D01*
X230785Y463356D01*
X230414Y462461D01*
X230287Y461500D01*
X230414Y460539D01*
X230785Y459644D01*
X231375Y458875D01*
X232144Y458285D01*
X233039Y457914D01*
X234000Y457787D01*
X236572Y455065D01*
X232436Y450929D01*
X228043D01*
X227517Y451717D01*
X226729Y452243D01*
X225800Y452428D01*
X225208D01*
Y457500D01*
X225040Y458345D01*
X224561Y459061D01*
X222561Y461061D01*
X221845Y461540D01*
X221000Y461708D01*
X210768D01*
Y462181D01*
X205405D01*
Y456819D01*
X210768D01*
Y457292D01*
X220086D01*
X220792Y456586D01*
Y452428D01*
X220200D01*
X219271Y452243D01*
X218483Y451717D01*
X217957Y450929D01*
X217772Y450000D01*
Y436752D01*
X218343Y436181D01*
Y436181D01*
X228212D01*
Y436181D01*
X229197Y436181D01*
X231319Y434059D01*
Y431819D01*
X236681D01*
Y437112D01*
X239938D01*
X240412Y436749D01*
X241178Y436432D01*
X242000Y436323D01*
X244815D01*
X245637Y436432D01*
X245939Y436556D01*
X247111Y436201D01*
X248500Y436064D01*
X249889Y436201D01*
X251225Y436606D01*
X252456Y437264D01*
X253535Y438150D01*
X253621Y438254D01*
X254181D01*
Y438937D01*
X254421Y439229D01*
X255079Y440460D01*
X255484Y441796D01*
X255621Y443185D01*
Y457000D01*
X255484Y458389D01*
X255079Y459725D01*
X254421Y460956D01*
X253535Y462035D01*
X252456Y462921D01*
X251225Y463579D01*
X249889Y463984D01*
X249370Y464035D01*
X249088Y464251D01*
X248322Y464569D01*
X247500Y464677D01*
X235907D01*
X235856Y464715D01*
X234961Y465086D01*
X234000Y465213D01*
D02*
G37*
G36*
X158232Y447000D02*
X156913D01*
Y445681D01*
X158232D01*
Y447000D01*
D02*
G37*
G36*
X161913Y443319D02*
X160594D01*
Y442000D01*
X161913D01*
Y443319D01*
D02*
G37*
G36*
X176094Y447181D02*
X169181D01*
X169187Y447179D01*
X169181Y447154D01*
Y447181D01*
X163819D01*
Y441819D01*
X169181D01*
Y441834D01*
X169184Y441820D01*
X169181Y441819D01*
X176094D01*
Y447181D01*
D02*
G37*
G36*
X161913Y447000D02*
X160594D01*
Y445681D01*
X161913D01*
Y447000D01*
D02*
G37*
G36*
X161906Y461819D02*
X160587D01*
Y460500D01*
X161906D01*
Y461819D01*
D02*
G37*
G36*
X266000Y461000D02*
X263181D01*
Y458181D01*
X266000D01*
Y461000D01*
D02*
G37*
G36*
X161906Y465500D02*
X160587D01*
Y464181D01*
X161906D01*
Y465500D01*
D02*
G37*
G36*
X165587Y461819D02*
X164268D01*
Y460500D01*
X165587D01*
Y461819D01*
D02*
G37*
G36*
X266000Y455819D02*
X263181D01*
Y453000D01*
X266000D01*
Y455819D01*
D02*
G37*
G36*
X260819D02*
X258000D01*
Y453000D01*
X260819D01*
Y455819D01*
D02*
G37*
G36*
Y461000D02*
X258000D01*
Y458181D01*
X260819D01*
Y461000D01*
D02*
G37*
G36*
X156000Y466177D02*
X155178Y466069D01*
X154412Y465751D01*
X154320Y465681D01*
X153319D01*
Y464680D01*
X153249Y464588D01*
X152931Y463822D01*
X152823Y463000D01*
Y456500D01*
X152931Y455678D01*
X153249Y454912D01*
X153319Y454820D01*
Y453819D01*
X154320D01*
X154412Y453749D01*
X155178Y453432D01*
X156000Y453323D01*
X156822Y453432D01*
X157588Y453749D01*
X157680Y453819D01*
X158681D01*
Y454820D01*
X158751Y454912D01*
X159069Y455678D01*
X159177Y456500D01*
Y463000D01*
X159069Y463822D01*
X158751Y464588D01*
X158681Y464680D01*
Y465681D01*
X157680D01*
X157588Y465751D01*
X156822Y466069D01*
X156000Y466177D01*
D02*
G37*
G36*
X45819Y192087D02*
X44500D01*
Y190768D01*
X45819D01*
Y192087D01*
D02*
G37*
G36*
X277000Y188406D02*
X275681D01*
Y187087D01*
X277000D01*
Y188406D01*
D02*
G37*
G36*
X49500Y192087D02*
X48181D01*
Y190768D01*
X49500D01*
Y192087D01*
D02*
G37*
G36*
X273319D02*
X272000D01*
Y190768D01*
X273319D01*
Y192087D01*
D02*
G37*
G36*
X45819Y188406D02*
X44500D01*
Y187087D01*
X45819D01*
Y188406D01*
D02*
G37*
G36*
X285181Y192268D02*
Y192268D01*
X279819D01*
Y186906D01*
X285181D01*
X285319Y186819D01*
Y186819D01*
X290681D01*
Y192181D01*
X285319D01*
X285181Y192268D01*
D02*
G37*
G36*
X273319Y188406D02*
X272000D01*
Y187087D01*
X273319D01*
Y188406D01*
D02*
G37*
G36*
X49500D02*
X48181D01*
Y187087D01*
X49500D01*
Y188406D01*
D02*
G37*
G36*
X135130Y211421D02*
X133736D01*
Y206681D01*
X135130D01*
Y211421D01*
D02*
G37*
G36*
X131374D02*
X129980D01*
Y206681D01*
X131374D01*
Y211421D01*
D02*
G37*
G36*
X72587Y214000D02*
X71268D01*
Y212681D01*
X72587D01*
Y214000D01*
D02*
G37*
G36*
X68906D02*
X67587D01*
Y212681D01*
X68906D01*
Y214000D01*
D02*
G37*
G36*
X64181Y192181D02*
X58819D01*
Y191214D01*
X57681D01*
Y192181D01*
X52319D01*
Y186819D01*
X57681D01*
Y187786D01*
X58819D01*
Y186819D01*
X64181D01*
Y192181D01*
D02*
G37*
G36*
X277000Y192087D02*
X275681D01*
Y190768D01*
X277000D01*
Y192087D01*
D02*
G37*
G36*
X135130Y204319D02*
X133736D01*
Y199579D01*
X135130D01*
Y204319D01*
D02*
G37*
G36*
X131374D02*
X129980D01*
Y199579D01*
X131374D01*
Y204319D01*
D02*
G37*
G36*
X273819Y165500D02*
X272500D01*
Y164181D01*
X273819D01*
Y165500D01*
D02*
G37*
G36*
X233413Y164819D02*
X232095D01*
Y163500D01*
X233413D01*
Y164819D01*
D02*
G37*
G36*
X31819Y166319D02*
X30500D01*
Y165000D01*
X31819D01*
Y166319D01*
D02*
G37*
G36*
X277500Y165500D02*
X276181D01*
Y164181D01*
X277500D01*
Y165500D01*
D02*
G37*
G36*
X49500Y162913D02*
X48181D01*
Y161594D01*
X49500D01*
Y162913D01*
D02*
G37*
G36*
X45819D02*
X44500D01*
Y161594D01*
X45819D01*
Y162913D01*
D02*
G37*
G36*
X229732Y164819D02*
X228413D01*
Y163500D01*
X229732D01*
Y164819D01*
D02*
G37*
G36*
X64181Y163181D02*
X58819D01*
Y163162D01*
X57681D01*
Y163181D01*
X52319D01*
Y157819D01*
X57681D01*
Y157825D01*
X58819D01*
Y157819D01*
X64181D01*
Y163181D01*
D02*
G37*
G36*
X233413Y168500D02*
X232095D01*
Y167181D01*
X233413D01*
Y168500D01*
D02*
G37*
G36*
X229732D02*
X228413D01*
Y167181D01*
X229732D01*
Y168500D01*
D02*
G37*
G36*
X136500Y173500D02*
X133681D01*
Y171181D01*
X136500D01*
Y173500D01*
D02*
G37*
G36*
X131319D02*
X128500D01*
Y171181D01*
X131319D01*
Y173500D01*
D02*
G37*
G36*
X269000Y166905D02*
X267681D01*
Y165587D01*
X269000D01*
Y166905D01*
D02*
G37*
G36*
X265319D02*
X264000D01*
Y165587D01*
X265319D01*
Y166905D01*
D02*
G37*
G36*
X136500Y168819D02*
X133681D01*
Y166500D01*
X136500D01*
Y168819D01*
D02*
G37*
G36*
X131319D02*
X128500D01*
Y166500D01*
X131319D01*
Y168819D01*
D02*
G37*
G36*
X13780Y316677D02*
X11971Y316535D01*
X10208Y316112D01*
X8532Y315418D01*
X6985Y314470D01*
X5606Y313292D01*
X4428Y311912D01*
X3480Y310366D01*
X2786Y308690D01*
X2363Y306926D01*
X2220Y305118D01*
X2363Y303310D01*
X2786Y301546D01*
X3480Y299870D01*
X4428Y298324D01*
X5606Y296944D01*
X6985Y295766D01*
X8532Y294819D01*
X10208Y294125D01*
X11971Y293701D01*
X13780Y293559D01*
X15588Y293701D01*
X17352Y294125D01*
X19027Y294819D01*
X20574Y295766D01*
X21953Y296944D01*
X23131Y298324D01*
X24079Y299870D01*
X24773Y301546D01*
X25196Y303310D01*
X25339Y305118D01*
X25196Y306926D01*
X24773Y308690D01*
X24079Y310366D01*
X23131Y311912D01*
X21953Y313292D01*
X20574Y314470D01*
X19027Y315418D01*
X17352Y316112D01*
X15588Y316535D01*
X13780Y316677D01*
D02*
G37*
G36*
X258000Y262500D02*
X255181D01*
Y260181D01*
X258000D01*
Y262500D01*
D02*
G37*
G36*
X143285Y331598D02*
X142360Y331476D01*
X141498Y331119D01*
X140758Y330551D01*
X140190Y329811D01*
X139833Y328949D01*
X139711Y328024D01*
X139833Y327099D01*
X140108Y326434D01*
Y321740D01*
X139833Y321075D01*
X139711Y320150D01*
X139833Y319225D01*
X140190Y318363D01*
X140758Y317623D01*
X141498Y317055D01*
X142360Y316698D01*
X143285Y316576D01*
X144210Y316698D01*
X145072Y317055D01*
X145812Y317623D01*
X146380Y318363D01*
X146737Y319225D01*
X146859Y320150D01*
X146737Y321075D01*
X146462Y321740D01*
Y326434D01*
X146737Y327099D01*
X146859Y328024D01*
X146737Y328949D01*
X146380Y329811D01*
X145812Y330551D01*
X145072Y331119D01*
X144210Y331476D01*
X143285Y331598D01*
D02*
G37*
G36*
X297244Y316677D02*
X295436Y316535D01*
X293672Y316112D01*
X291996Y315418D01*
X290450Y314470D01*
X289071Y313292D01*
X287893Y311912D01*
X286945Y310366D01*
X286251Y308690D01*
X285827Y306926D01*
X285685Y305118D01*
X285827Y303310D01*
X286251Y301546D01*
X286945Y299870D01*
X287893Y298324D01*
X289071Y296944D01*
X290450Y295766D01*
X291996Y294819D01*
X293672Y294125D01*
X295436Y293701D01*
X297244Y293559D01*
X299052Y293701D01*
X300816Y294125D01*
X302492Y294819D01*
X304039Y295766D01*
X305418Y296944D01*
X306596Y298324D01*
X307543Y299870D01*
X308238Y301546D01*
X308661Y303310D01*
X308803Y305118D01*
X308661Y306926D01*
X308238Y308690D01*
X307543Y310366D01*
X306596Y311912D01*
X305418Y313292D01*
X304039Y314470D01*
X302492Y315418D01*
X300816Y316112D01*
X299052Y316535D01*
X297244Y316677D01*
D02*
G37*
G36*
X48819Y261500D02*
X46000D01*
Y259181D01*
X48819D01*
Y261500D01*
D02*
G37*
G36*
X258000Y257819D02*
X255181D01*
Y255500D01*
X258000D01*
Y257819D01*
D02*
G37*
G36*
X252819Y262500D02*
X250000D01*
Y260181D01*
X252819D01*
Y262500D01*
D02*
G37*
G36*
X54000Y261500D02*
X51181D01*
Y259181D01*
X54000D01*
Y261500D01*
D02*
G37*
G36*
X270819Y379421D02*
X268047D01*
Y374681D01*
X270819D01*
Y379421D01*
D02*
G37*
G36*
X265987Y372319D02*
X263181D01*
Y367742D01*
X263993Y368079D01*
X264819Y368712D01*
X265453Y369538D01*
X265851Y370500D01*
X265987Y371532D01*
Y372319D01*
D02*
G37*
G36*
X275953Y379421D02*
X273181D01*
Y374681D01*
X275953D01*
Y379421D01*
D02*
G37*
G36*
X263181Y379258D02*
Y374681D01*
X265987D01*
Y375468D01*
X265851Y376500D01*
X265453Y377462D01*
X264819Y378288D01*
X263993Y378921D01*
X263181Y379258D01*
D02*
G37*
G36*
X159033Y331598D02*
X158108Y331476D01*
X157246Y331119D01*
X156506Y330551D01*
X155938Y329811D01*
X155581Y328949D01*
X155459Y328024D01*
X155581Y327099D01*
X155856Y326434D01*
Y321740D01*
X155581Y321075D01*
X155459Y320150D01*
X155581Y319225D01*
X155938Y318363D01*
X156506Y317623D01*
X157246Y317055D01*
X158108Y316698D01*
X159033Y316576D01*
X159958Y316698D01*
X160820Y317055D01*
X161560Y317623D01*
X162128Y318363D01*
X162485Y319225D01*
X162607Y320150D01*
X162485Y321075D01*
X162210Y321740D01*
Y326434D01*
X162485Y327099D01*
X162607Y328024D01*
X162485Y328949D01*
X162128Y329811D01*
X161560Y330551D01*
X160820Y331119D01*
X159958Y331476D01*
X159033Y331598D01*
D02*
G37*
G36*
X151159D02*
X150234Y331476D01*
X149372Y331119D01*
X148632Y330551D01*
X148064Y329811D01*
X147707Y328949D01*
X147585Y328024D01*
X147707Y327099D01*
X147982Y326434D01*
Y321740D01*
X147707Y321075D01*
X147585Y320150D01*
X147707Y319225D01*
X148064Y318363D01*
X148632Y317623D01*
X149372Y317055D01*
X150234Y316698D01*
X151159Y316576D01*
X152084Y316698D01*
X152946Y317055D01*
X153686Y317623D01*
X154254Y318363D01*
X154611Y319225D01*
X154733Y320150D01*
X154611Y321075D01*
X154336Y321740D01*
Y326434D01*
X154611Y327099D01*
X154733Y328024D01*
X154611Y328949D01*
X154254Y329811D01*
X153686Y330551D01*
X152946Y331119D01*
X152084Y331476D01*
X151159Y331598D01*
D02*
G37*
G36*
X249000Y401121D02*
X247611Y400984D01*
X246275Y400579D01*
X245044Y399921D01*
X243965Y399035D01*
X243587Y398575D01*
X241569D01*
Y389425D01*
X241879D01*
Y383431D01*
X241079Y382456D01*
X240421Y381225D01*
X240199Y380493D01*
X240111Y380484D01*
X238775Y380079D01*
X237544Y379421D01*
X236465Y378535D01*
X235579Y377456D01*
X234921Y376225D01*
X234516Y374889D01*
X234379Y373500D01*
X234516Y372111D01*
X234921Y370775D01*
X235579Y369544D01*
X236465Y368465D01*
X237544Y367579D01*
X238775Y366921D01*
X240111Y366516D01*
X241500Y366379D01*
X250500D01*
X251889Y366516D01*
X253225Y366921D01*
X253912Y367288D01*
X260683Y367799D01*
X260819Y367742D01*
Y373500D01*
Y379258D01*
X260751Y379230D01*
X256121D01*
Y380500D01*
X256121Y380500D01*
X256121Y380500D01*
Y389425D01*
X256431D01*
Y398575D01*
X254413D01*
X254035Y399035D01*
X252956Y399921D01*
X251725Y400579D01*
X250389Y400984D01*
X249000Y401121D01*
D02*
G37*
G36*
X166907Y331598D02*
X165982Y331476D01*
X165120Y331119D01*
X164380Y330551D01*
X163812Y329811D01*
X163455Y328949D01*
X163333Y328024D01*
X163455Y327099D01*
X163730Y326434D01*
Y323693D01*
X163364D01*
Y316607D01*
X170450D01*
Y323693D01*
X170084D01*
Y326434D01*
X170359Y327099D01*
X170481Y328024D01*
X170359Y328949D01*
X170002Y329811D01*
X169434Y330551D01*
X168694Y331119D01*
X167832Y331476D01*
X166907Y331598D01*
D02*
G37*
G36*
X277319Y223500D02*
X276000D01*
Y222181D01*
X277319D01*
Y223500D01*
D02*
G37*
G36*
X281000Y219819D02*
X279681D01*
Y218500D01*
X281000D01*
Y219819D01*
D02*
G37*
G36*
X92650Y229319D02*
X87417D01*
Y224087D01*
X92650D01*
Y229319D01*
D02*
G37*
G36*
X281000Y223500D02*
X279681D01*
Y222181D01*
X281000D01*
Y223500D01*
D02*
G37*
G36*
X109913Y214319D02*
X108595D01*
Y213000D01*
X109913D01*
Y214319D01*
D02*
G37*
G36*
X106232D02*
X104913D01*
Y213000D01*
X106232D01*
Y214319D01*
D02*
G37*
G36*
X109913Y218000D02*
X108595D01*
Y216681D01*
X109913D01*
Y218000D01*
D02*
G37*
G36*
X106232D02*
X104913D01*
Y216681D01*
X106232D01*
Y218000D01*
D02*
G37*
G36*
X48819Y256819D02*
X46000D01*
Y254500D01*
X48819D01*
Y256819D01*
D02*
G37*
G36*
X100244Y236913D02*
X95012D01*
Y231681D01*
X100244D01*
Y236913D01*
D02*
G37*
G36*
X252819Y257819D02*
X250000D01*
Y255500D01*
X252819D01*
Y257819D01*
D02*
G37*
G36*
X54000Y256819D02*
X51181D01*
Y254500D01*
X54000D01*
Y256819D01*
D02*
G37*
G36*
X249746Y250181D02*
X239884D01*
Y238819D01*
X243101D01*
Y236185D01*
X243231Y235529D01*
X243603Y234973D01*
X247019Y231557D01*
Y227319D01*
X252981D01*
Y234681D01*
X248743D01*
X246529Y236895D01*
Y238819D01*
X249746D01*
Y250181D01*
D02*
G37*
G36*
X100244Y229319D02*
X95012D01*
Y224087D01*
X100244D01*
Y229319D01*
D02*
G37*
G36*
X92650Y236913D02*
X87417D01*
Y231681D01*
X92650D01*
Y236913D01*
D02*
G37*
G36*
X44431Y249681D02*
X34569D01*
Y243391D01*
X27859Y236681D01*
X24319D01*
Y229319D01*
X30281D01*
Y232859D01*
X35741Y238319D01*
X44431D01*
Y249681D01*
D02*
G37*
%LPD*%
D10*
X150755Y130500D02*
D03*
X157842D02*
D03*
X114500Y215500D02*
D03*
X107413D02*
D03*
X271413Y221000D02*
D03*
X278500D02*
D03*
X264500Y228000D02*
D03*
X271587D02*
D03*
X288500Y163000D02*
D03*
X295587D02*
D03*
X288000Y189500D02*
D03*
X295087D02*
D03*
X253587Y216500D02*
D03*
X246500D02*
D03*
X63000Y211500D02*
D03*
X70087D02*
D03*
X253587Y209000D02*
D03*
X246500D02*
D03*
X230913Y166000D02*
D03*
X238000D02*
D03*
X8500Y159500D02*
D03*
X15587D02*
D03*
X61500Y160500D02*
D03*
X68587D02*
D03*
X61500Y189500D02*
D03*
X68587D02*
D03*
X56000Y218500D02*
D03*
X63087D02*
D03*
X30587Y217000D02*
D03*
X23500D02*
D03*
X180087Y426000D02*
D03*
X173000D02*
D03*
X167500Y432500D02*
D03*
X160413D02*
D03*
X180087D02*
D03*
X173000D02*
D03*
X180500Y444500D02*
D03*
X173413D02*
D03*
X180500Y450500D02*
D03*
X173413D02*
D03*
X180587Y456500D02*
D03*
X173500D02*
D03*
X156000Y463000D02*
D03*
X163087D02*
D03*
Y456500D02*
D03*
X156000D02*
D03*
X131500Y87500D02*
D03*
X124413D02*
D03*
X38500Y86500D02*
D03*
X31413D02*
D03*
X30587Y210000D02*
D03*
X23500D02*
D03*
X166500Y444500D02*
D03*
X159413D02*
D03*
X180500Y438500D02*
D03*
X173413D02*
D03*
X201000Y459500D02*
D03*
X208087D02*
D03*
X124413Y81500D02*
D03*
X131500D02*
D03*
X131487Y100359D02*
D03*
X124400D02*
D03*
X131487Y108500D02*
D03*
X124400D02*
D03*
X131487Y92859D02*
D03*
X124400D02*
D03*
D11*
X132555Y205500D02*
D03*
X56555Y74000D02*
D03*
D12*
X123500Y205500D02*
D03*
X114445D02*
D03*
X47500Y74000D02*
D03*
X38445D02*
D03*
D13*
X123555Y183000D02*
D03*
X47555Y51500D02*
D03*
D14*
X114500Y230500D02*
D03*
X93831D02*
D03*
X258500Y142500D02*
D03*
X237831D02*
D03*
X36008Y143858D02*
D03*
X15338D02*
D03*
X38500Y100500D02*
D03*
X17831D02*
D03*
D15*
X123500Y170000D02*
D03*
X132500D02*
D03*
X263000Y259000D02*
D03*
X254000D02*
D03*
X59000Y258000D02*
D03*
X50000D02*
D03*
D16*
X249500Y179500D02*
D03*
X22500D02*
D03*
D17*
X252000D02*
D03*
X254500D02*
D03*
X257000D02*
D03*
X259500D02*
D03*
X262000D02*
D03*
X264500D02*
D03*
X267000D02*
D03*
Y200760D02*
D03*
X264500D02*
D03*
X262000D02*
D03*
X259500D02*
D03*
X257000D02*
D03*
X254500D02*
D03*
X252000D02*
D03*
X249500D02*
D03*
X25000Y179500D02*
D03*
X27500D02*
D03*
X30000D02*
D03*
X32500D02*
D03*
X35000D02*
D03*
X37500D02*
D03*
X40000D02*
D03*
Y200760D02*
D03*
X37500D02*
D03*
X35000D02*
D03*
X32500D02*
D03*
X30000D02*
D03*
X27500D02*
D03*
X25000D02*
D03*
X22500D02*
D03*
D18*
X282500Y189587D02*
D03*
Y182500D02*
D03*
Y162913D02*
D03*
Y170000D02*
D03*
X274500Y189587D02*
D03*
Y182500D02*
D03*
X275000Y170087D02*
D03*
Y163000D02*
D03*
X259000Y168087D02*
D03*
Y161000D02*
D03*
X252000Y168000D02*
D03*
Y160913D02*
D03*
X266500Y168087D02*
D03*
Y161000D02*
D03*
X47000Y167500D02*
D03*
Y160413D02*
D03*
X241500Y187913D02*
D03*
Y195000D02*
D03*
X55000Y189500D02*
D03*
Y182413D02*
D03*
Y160500D02*
D03*
Y167587D02*
D03*
X11000Y186500D02*
D03*
Y193587D02*
D03*
X234000Y427413D02*
D03*
Y434500D02*
D03*
X47000Y189587D02*
D03*
Y182500D02*
D03*
X33000Y167500D02*
D03*
Y160413D02*
D03*
X39000Y167500D02*
D03*
Y160413D02*
D03*
X26500Y167500D02*
D03*
Y160413D02*
D03*
X169000Y495587D02*
D03*
Y488500D02*
D03*
X205500Y120500D02*
D03*
Y113413D02*
D03*
X138500Y128913D02*
D03*
Y136000D02*
D03*
X187500Y55913D02*
D03*
Y63000D02*
D03*
X162003Y55772D02*
D03*
Y62859D02*
D03*
X80500Y44413D02*
D03*
Y51500D02*
D03*
D19*
X250000Y231000D02*
D03*
X27300Y233000D02*
D03*
D20*
X246200Y223000D02*
D03*
X253700D02*
D03*
X23500Y225000D02*
D03*
X31000D02*
D03*
D21*
X244815Y244500D02*
D03*
X264500D02*
D03*
X39500Y244000D02*
D03*
X59185D02*
D03*
X247185Y474000D02*
D03*
X227500D02*
D03*
X210000Y412500D02*
D03*
X229685D02*
D03*
D22*
X243000Y332500D02*
D03*
X229460Y62788D02*
D03*
X253677Y43149D02*
D03*
X128000Y432500D02*
D03*
X59000Y152000D02*
D03*
X228500Y157000D02*
D03*
X252327D02*
D03*
D23*
X102500Y81000D02*
D03*
Y122339D02*
D03*
D24*
X223000Y450000D02*
D03*
Y445000D02*
D03*
Y440000D02*
D03*
Y435000D02*
D03*
X201000D02*
D03*
Y440000D02*
D03*
Y445000D02*
D03*
Y450000D02*
D03*
D25*
X148983Y89623D02*
D03*
Y85686D02*
D03*
Y91591D02*
D03*
Y111276D02*
D03*
Y109308D02*
D03*
Y107339D02*
D03*
Y105371D02*
D03*
Y93560D02*
D03*
Y87654D02*
D03*
Y97497D02*
D03*
X196228Y87654D02*
D03*
X148983Y83717D02*
D03*
Y99465D02*
D03*
Y103402D02*
D03*
X196228Y113245D02*
D03*
Y111276D02*
D03*
Y109308D02*
D03*
Y107339D02*
D03*
Y105371D02*
D03*
Y103402D02*
D03*
Y101434D02*
D03*
Y99465D02*
D03*
Y97497D02*
D03*
Y95528D02*
D03*
Y93560D02*
D03*
Y91591D02*
D03*
Y89623D02*
D03*
Y85686D02*
D03*
Y83717D02*
D03*
X148983Y101434D02*
D03*
Y95528D02*
D03*
D26*
X148984Y113245D02*
D03*
D27*
X177527Y74859D02*
D03*
X175558D02*
D03*
X173590D02*
D03*
X179495D02*
D03*
X161779D02*
D03*
X183432D02*
D03*
X169653Y122103D02*
D03*
X187369Y74859D02*
D03*
X185401D02*
D03*
X181464D02*
D03*
X171621D02*
D03*
X169653D02*
D03*
X167684D02*
D03*
X165716D02*
D03*
X163747D02*
D03*
X159810D02*
D03*
X157842D02*
D03*
X157842Y122103D02*
D03*
X159810D02*
D03*
X165716D02*
D03*
X167684D02*
D03*
X171621D02*
D03*
X173590D02*
D03*
X175558D02*
D03*
X177527D02*
D03*
X179495D02*
D03*
X181464D02*
D03*
X183432D02*
D03*
X185401D02*
D03*
X187369D02*
D03*
X163747D02*
D03*
X161779D02*
D03*
D28*
X201000Y474000D02*
D03*
Y488567D02*
D03*
D29*
X249000Y394000D02*
D03*
Y412500D02*
D03*
D30*
X248500Y423500D02*
D03*
Y443185D02*
D03*
D31*
X70000Y52000D02*
D03*
Y43000D02*
D03*
X178500Y497500D02*
D03*
Y488500D02*
D03*
D32*
X262000Y457000D02*
D03*
X248500D02*
D03*
D33*
X30000Y171089D02*
Y179500D01*
X271500Y221000D02*
Y227913D01*
X40000Y177500D02*
X78500D01*
X124400Y87632D02*
X124673Y87359D01*
X185401Y79407D02*
X185409Y79416D01*
X185401Y74859D02*
Y79407D01*
X236820Y92425D02*
X249870D01*
X234673Y94213D02*
X249129D01*
X232500Y96000D02*
X248389D01*
X213500Y73040D02*
X234673Y94213D01*
X217000Y69000D02*
X238638Y90638D01*
X213500Y66500D02*
Y73040D01*
X148983Y85686D02*
X175814D01*
X176500Y85000D01*
X250491D02*
X307287Y141796D01*
X240000Y85000D02*
X250491D01*
X250345Y87817D02*
X254000Y91472D01*
X245517Y87817D02*
X250345D01*
X250638Y90638D02*
X252213Y92213D01*
X238638Y90638D02*
X250638D01*
X249870Y92425D02*
X301500Y144055D01*
X249129Y94213D02*
X299500Y144583D01*
X155154Y87654D02*
X156000Y88500D01*
X148983Y87654D02*
X155154D01*
X156000Y88500D02*
X160500D01*
X148983Y111276D02*
X173252D01*
X182575Y101953D01*
X172000Y107339D02*
X179000Y100339D01*
X172692Y109308D02*
X180787Y101213D01*
X148983Y109308D02*
X172692D01*
X148983Y107339D02*
X172000D01*
X187500Y95000D02*
X190909Y91591D01*
X211000Y46500D02*
Y83056D01*
X167500Y82500D02*
X167684Y82316D01*
X169653Y70847D02*
X171500Y69000D01*
X169653Y70847D02*
Y74859D01*
X165716Y69284D02*
X166000Y69000D01*
X165716Y69284D02*
Y74859D01*
X299500Y144583D02*
Y168000D01*
X307287Y141796D02*
Y185126D01*
X148983Y95528D02*
X155000D01*
X155528Y95000D02*
X158500D01*
X155000Y95528D02*
X155528Y95000D01*
X254000Y91472D02*
Y91500D01*
X248389Y96000D02*
X297500Y145111D01*
X148983Y93560D02*
X152913D01*
X148983Y97497D02*
X173503D01*
X190000Y97528D02*
X192000Y95528D01*
X190909Y91591D02*
X196228D01*
X192000Y95528D02*
X196228D01*
Y89623D02*
X204433D01*
X203874Y87654D02*
X208500Y83028D01*
X196228Y87654D02*
X203874D01*
X203314Y85686D02*
X206500Y82500D01*
X196228Y85686D02*
X203314D01*
X148983Y99465D02*
X154965D01*
X156213Y100713D01*
Y101287D01*
X156500Y101000D01*
X68587Y183087D02*
Y189500D01*
X68500Y183000D02*
X68587Y183087D01*
X77000Y180000D02*
X87500Y190500D01*
X57413Y180000D02*
X77000D01*
X78500Y177500D02*
X94000Y193000D01*
X55000Y182413D02*
X57413Y180000D01*
X163747Y74859D02*
Y81753D01*
X163500Y82000D02*
X163747Y81753D01*
X55000Y167587D02*
X73587D01*
X93500Y187500D01*
X167684Y74859D02*
Y82316D01*
X171621Y74859D02*
Y81379D01*
X171500Y81500D02*
X171621Y81379D01*
X38500Y196000D02*
X85000D01*
X68587Y189500D02*
X69087Y190000D01*
X38500Y208500D02*
X52500D01*
X35000Y205000D02*
X38500Y208500D01*
X35000Y200760D02*
Y205000D01*
X45000Y218500D02*
X56000D01*
X32500Y206000D02*
X45000Y218500D01*
X32500Y200760D02*
Y206000D01*
X68587Y160500D02*
X78000D01*
X45000Y184500D02*
X47000Y182500D01*
X38500Y184500D02*
X45000D01*
X37500Y183500D02*
X38500Y184500D01*
X37500Y179500D02*
Y183500D01*
X295587Y163000D02*
X297500Y161087D01*
Y145111D02*
Y161087D01*
Y170000D02*
X299500Y168000D01*
X282500Y170000D02*
X297500D01*
X301500Y144055D02*
Y174500D01*
X298500Y177500D02*
X301500Y174500D01*
X303500Y143528D02*
Y177000D01*
X298000Y182500D02*
X303500Y177000D01*
X282500Y182500D02*
X298000D01*
X252213Y92240D02*
X303500Y143528D01*
X252213Y92213D02*
Y92240D01*
X267000Y177500D02*
Y179500D01*
X262000Y174500D02*
X265000Y171500D01*
X262000Y174500D02*
Y179500D01*
X265000Y171500D02*
X273587D01*
X272500Y184500D02*
X274500Y182500D01*
X265500Y184500D02*
X272500D01*
X271500Y227913D02*
X271587Y228000D01*
X259500Y213087D02*
X264500Y218087D01*
Y228000D01*
X259500Y200760D02*
Y213087D01*
X254500Y200760D02*
Y208087D01*
X249500Y179500D02*
Y186500D01*
X257000Y194000D01*
X249587Y160913D02*
X252000D01*
X247000Y163500D02*
X249587Y160913D01*
X247000Y163500D02*
Y169500D01*
X252000Y174500D01*
Y179500D01*
X257000Y194000D02*
Y200760D01*
X288413Y162913D02*
X288500Y163000D01*
X282500Y162913D02*
X288413D01*
X282413Y170087D02*
X282500Y170000D01*
X275000Y170087D02*
X282413D01*
X287913Y189587D02*
X288000Y189500D01*
X282500Y189587D02*
X287913D01*
X274500Y182500D02*
X282500D01*
X273587Y171500D02*
X275000Y170087D01*
X252000Y168000D02*
Y170000D01*
X259000Y168087D02*
Y170087D01*
X245000Y179500D02*
X249500D01*
X241500Y183000D02*
X245000Y179500D01*
X254500Y195500D02*
Y200760D01*
X253500Y194500D02*
X254500Y195500D01*
X242000Y194500D02*
X253500D01*
X241500Y183000D02*
Y187913D01*
Y195000D02*
X242000Y194500D01*
X259500Y170587D02*
Y179500D01*
X259000Y170087D02*
X259500Y170587D01*
X254500Y172500D02*
Y179500D01*
X252000Y170000D02*
X254500Y172500D01*
X244815Y236185D02*
X250000Y231000D01*
X244815Y236185D02*
Y244500D01*
X246200Y223000D02*
X246500Y222700D01*
Y216500D02*
Y222700D01*
X253587Y216500D02*
X253700Y216613D01*
Y223000D01*
X253587Y209000D02*
Y216500D01*
Y209000D02*
X254500Y208087D01*
X246500Y209000D02*
Y216500D01*
Y209000D02*
X249500Y206000D01*
Y200760D02*
Y206000D01*
X138123Y89623D02*
X148983D01*
X136000Y87500D02*
X138123Y89623D01*
X131500Y87500D02*
X136000D01*
X161779Y63083D02*
X162003Y62859D01*
X161779Y63083D02*
Y74859D01*
X32500Y174000D02*
Y179500D01*
X23087Y160413D02*
X26500D01*
X22000Y161500D02*
X23087Y160413D01*
X22000Y161500D02*
Y171000D01*
X25000Y174000D01*
Y179500D01*
X27500Y168500D02*
Y179500D01*
X26500Y167500D02*
X27500Y168500D01*
X26500Y160413D02*
X33000D01*
X39000D01*
X55000Y160500D02*
X61500D01*
X47000Y167500D02*
X47087Y167587D01*
X55000D01*
Y189500D02*
X61500D01*
X54913Y182500D02*
X55000Y182413D01*
X47000Y182500D02*
X54913D01*
X35000Y175500D02*
X39000Y171500D01*
X43000D01*
X47000Y167500D01*
X35000Y175500D02*
Y179500D01*
X32500Y174000D02*
X39000Y167500D01*
X131487Y105384D02*
Y108500D01*
Y105384D02*
X131500Y105371D01*
X102500Y107000D02*
X104129Y105371D01*
X102500Y107000D02*
Y122339D01*
X104129Y105371D02*
X131500D01*
X148983D01*
X131487Y100359D02*
Y103389D01*
X131500Y103402D01*
X102500Y102000D02*
X103902Y103402D01*
X102500Y81000D02*
Y102000D01*
X103902Y103402D02*
X131500D01*
X148983D01*
X138934Y101434D02*
X148983D01*
X134000Y96500D02*
X138934Y101434D01*
X124400Y87632D02*
Y92859D01*
Y95900D02*
X125000Y96500D01*
X124400Y92859D02*
Y95900D01*
X125000Y96500D02*
X134000D01*
X23500Y210000D02*
Y217000D01*
Y225000D01*
X22500Y200760D02*
Y209000D01*
X23500Y210000D01*
X27500Y200760D02*
Y206913D01*
X30587Y210000D01*
Y217000D01*
Y224587D01*
X31000Y225000D01*
X59185Y244000D02*
Y257815D01*
X59000Y258000D02*
X59185Y257815D01*
X56000Y218500D02*
X59185Y221685D01*
Y244000D01*
X63087Y211587D02*
Y218500D01*
X63000Y211500D02*
X63087Y211587D01*
X27500Y196000D02*
Y200760D01*
X25087Y193587D02*
X27500Y196000D01*
X11000Y193587D02*
X25087D01*
X13500Y179500D02*
X22500D01*
X11000Y182000D02*
X13500Y179500D01*
X11000Y182000D02*
Y186500D01*
X203500Y46500D02*
X208500Y51500D01*
Y83028D01*
X194894Y46606D02*
X206500Y58211D01*
Y82500D01*
X40000Y177500D02*
Y179500D01*
X52500Y208500D02*
X59000Y202000D01*
X80000D01*
X37500Y197000D02*
X38500Y196000D01*
X37500Y197000D02*
Y200760D01*
X67500Y207000D02*
X71000D01*
X63000Y211500D02*
X67500Y207000D01*
X206889Y113245D02*
X207003Y113359D01*
X271413Y221000D02*
X307287Y185126D01*
X254000Y91500D02*
X305500Y143000D01*
Y179087D01*
X295087Y189500D02*
X305500Y179087D01*
X196228Y101434D02*
X213434D01*
X196228Y103402D02*
X210402D01*
X207871Y105371D02*
X208500Y106000D01*
X196228Y105371D02*
X207871D01*
X167684Y122103D02*
Y129184D01*
X169653Y122103D02*
Y126653D01*
X187369Y63131D02*
X187500Y63000D01*
X257500Y190500D02*
X262000Y195000D01*
Y200760D01*
X264500Y179500D02*
Y183500D01*
X265500Y184500D01*
X264500Y192000D02*
Y200760D01*
X261500Y189000D02*
X264500Y192000D01*
X196228Y83717D02*
X201783D01*
X204713Y80787D01*
X204433Y89623D02*
X211000Y83056D01*
X183500Y131000D02*
X229000D01*
X181464Y128964D02*
X183500Y131000D01*
X181464Y122103D02*
Y128964D01*
X285000Y69000D02*
X286000D01*
X183432Y126932D02*
X185031Y128532D01*
X183432Y122103D02*
Y126932D01*
X187369Y122103D02*
Y125369D01*
X188744Y126744D01*
X252256D01*
X253500Y125500D01*
X255968Y128532D02*
X256500Y128000D01*
X185031Y128532D02*
X255968D01*
X167684Y129184D02*
X170500Y132000D01*
Y132500D01*
X169653Y126653D02*
X174000Y131000D01*
X157842Y122103D02*
Y130500D01*
Y135842D02*
X158000Y136000D01*
X157842Y130500D02*
Y135842D01*
X152913Y93560D02*
X154472Y92000D01*
X145139Y91591D02*
X148983D01*
X142997Y93733D02*
X145139Y91591D01*
X190000Y97528D02*
Y107000D01*
X187500Y95000D02*
Y104500D01*
X173503Y97497D02*
X175000Y96000D01*
X176000D01*
X179000Y89821D02*
Y100339D01*
Y89821D02*
X190500Y78321D01*
Y77000D02*
Y78321D01*
X180787Y90562D02*
Y101213D01*
Y90562D02*
X194000Y77349D01*
Y74000D02*
Y77349D01*
X182575Y91302D02*
Y101953D01*
Y91302D02*
X198500Y75377D01*
Y71500D02*
Y75377D01*
X154472Y92000D02*
X174000D01*
X176500Y89500D01*
X210402Y103402D02*
X213500Y106500D01*
X196228Y93560D02*
X214060D01*
X224500Y104000D01*
X196228Y97497D02*
X213497D01*
X213434Y101434D02*
X218500Y106500D01*
X222000Y106000D02*
Y106500D01*
X213497Y97497D02*
X222000Y106000D01*
X175500Y80500D02*
Y81000D01*
X173590Y74859D02*
Y78590D01*
X175500Y80500D01*
X227652Y83258D02*
X236820Y92425D01*
X267000Y177500D02*
X298500D01*
X196228Y109308D02*
X247808D01*
X248000Y109500D01*
X252327Y157000D02*
Y161000D01*
X204713Y62213D02*
Y80787D01*
X187000Y46500D02*
X189000D01*
X204713Y62213D01*
X196228Y113245D02*
X206889D01*
X187369Y63131D02*
Y74859D01*
D34*
X105500Y142500D02*
X237831D01*
X105500D02*
Y193500D01*
X114500Y205000D02*
Y215500D01*
X263000Y244741D02*
X264500Y243241D01*
X114500Y432000D02*
Y434500D01*
X168500Y488500D01*
X38500Y86500D02*
Y100500D01*
Y74055D02*
Y86500D01*
X38445Y74000D02*
X38500Y74055D01*
Y124500D02*
X59500D01*
X38500Y100500D02*
Y124500D01*
X22500D02*
X38500D01*
X59500D02*
X77500Y142500D01*
X15338Y131662D02*
Y143858D01*
Y131662D02*
X22500Y124500D01*
X77500Y142500D02*
X105500D01*
Y193500D02*
X114445Y202445D01*
Y205500D01*
X242000Y439500D02*
X244815D01*
X248500Y443185D01*
X231000Y445000D02*
X243000Y457000D01*
X173500Y456500D02*
Y461500D01*
X243000Y457000D02*
Y460500D01*
X242000Y461500D02*
X243000Y460500D01*
X247500Y458000D02*
Y461500D01*
Y458000D02*
X248500Y457000D01*
X237500Y461500D02*
X242000D01*
X247500D01*
X180587Y450587D02*
Y456500D01*
X180500Y450500D02*
X180587Y450587D01*
X180500Y450500D02*
X186500D01*
X201000Y451000D02*
Y459500D01*
X186500Y450500D02*
X192000Y445000D01*
X201000D01*
Y474000D02*
X227500D01*
X201000Y459500D02*
Y474000D01*
X200933Y488500D02*
X201000Y488567D01*
X169000Y488500D02*
X178500D01*
X200933D01*
X163087Y456500D02*
X173500D01*
X156000D02*
Y463000D01*
X167500Y432500D02*
X173000D01*
Y426000D02*
Y432500D01*
X168500Y488500D02*
X169000D01*
X143285Y320150D02*
Y328024D01*
X151159Y320150D02*
Y328024D01*
X159033Y320150D02*
Y328024D01*
X166907Y320150D02*
Y328024D01*
X59000Y264000D02*
X61000Y266000D01*
X59000Y258000D02*
Y264000D01*
X114500Y215500D02*
Y230500D01*
Y432000D01*
X250186Y320150D02*
X263000Y307336D01*
Y259000D02*
Y307336D01*
Y244741D02*
Y259000D01*
X264500Y228000D02*
Y243241D01*
Y244500D01*
X241000Y440500D02*
Y449500D01*
X236500Y445000D02*
X242000Y439500D01*
X234000Y461500D02*
X242000D01*
X236500Y445000D02*
X248500Y457000D01*
X223000Y445000D02*
X246685D01*
X123500Y170000D02*
Y205500D01*
D35*
X15338Y143858D02*
Y165252D01*
X15587Y170087D02*
X21500Y176000D01*
X15587Y165500D02*
Y170087D01*
X208087Y459500D02*
X221000D01*
X223000Y457500D01*
Y450000D02*
Y457500D01*
Y440000D02*
X228500D01*
X234000Y434500D01*
X223000Y435000D02*
X226413D01*
X234000Y427413D01*
X180500Y438500D02*
X186500D01*
X188000Y440000D01*
X201000D01*
X180500Y438500D02*
Y444500D01*
X166500D02*
X173413D01*
X180087Y432500D02*
X186000D01*
X188500Y435000D01*
X201000D01*
X38300Y244000D02*
X39500D01*
X27300Y233000D02*
X38300Y244000D01*
X15338Y165252D02*
X15587Y165500D01*
D36*
X247000Y378500D02*
X249000Y380500D01*
X242000Y373500D02*
X250500D01*
X241500D02*
X242000D01*
X249000Y375000D02*
X250500Y373500D01*
X249000Y375000D02*
Y380500D01*
Y394000D01*
X248500Y413000D02*
Y423500D01*
Y413000D02*
X249000Y412500D01*
X229685D02*
X249000D01*
X248500Y443185D02*
Y457000D01*
D37*
X63000Y100000D02*
Y111500D01*
X47500Y84500D02*
X63000Y100000D01*
X47500Y74000D02*
Y84500D01*
X120500Y152500D02*
X123500Y155500D01*
X111500Y152500D02*
X120500D01*
X123500Y157000D02*
Y170000D01*
Y155500D02*
Y157000D01*
X55500Y152000D02*
X59000D01*
X53500Y154000D02*
X55500Y152000D01*
X114500Y432000D02*
X115000Y432500D01*
X128000D01*
X160413D01*
X237831Y142500D02*
X238000Y142669D01*
Y166000D01*
X249500Y177500D02*
Y179500D01*
X238000Y166000D02*
X249500Y177500D01*
X123500Y157000D02*
X228500D01*
X252327Y161000D02*
X259000D01*
X266500D01*
X40500Y154000D02*
X53500D01*
X39000Y155500D02*
Y160413D01*
Y155500D02*
X40500Y154000D01*
X123500Y205500D02*
Y213000D01*
X243000Y332500D02*
X298500Y388000D01*
X63000Y111500D02*
X87500Y136000D01*
X138500D01*
X158000D01*
X211500D01*
X210913Y113413D02*
X211000Y113500D01*
X205500Y113413D02*
X210913D01*
X123500Y213000D02*
X243000Y332500D01*
X298500Y388000D02*
Y410000D01*
X252000Y161000D02*
X252327D01*
D38*
X131500Y63000D02*
Y81500D01*
Y57000D02*
Y63000D01*
X131641Y62859D01*
X162003D01*
X131500Y81500D02*
Y87500D01*
X126000Y51500D02*
X131500Y57000D01*
X80500Y51500D02*
X126000D01*
X187359Y62859D02*
X187500Y63000D01*
X235500Y69000D02*
X265000D01*
Y82000D01*
X220500Y54000D02*
X235500Y69000D01*
X162003Y62859D02*
X187359D01*
X47555Y51500D02*
X80500D01*
D39*
X47500Y74000D02*
X47555Y73945D01*
Y51500D02*
Y73945D01*
D40*
X21500Y176000D02*
X22500Y177000D01*
Y179500D01*
D41*
X30000Y195000D02*
Y200760D01*
X22500Y187500D02*
X30000Y195000D01*
X22500Y179500D02*
Y187500D01*
D42*
X265000Y69000D02*
D03*
Y82000D02*
D03*
D43*
X295000Y69000D02*
D03*
X275000D02*
D03*
X285000D02*
D03*
X295000Y82000D02*
D03*
X275000D02*
D03*
X285000D02*
D03*
D44*
X298500Y440000D02*
D03*
X288500D02*
D03*
X298500Y430000D02*
D03*
X288500D02*
D03*
X298500Y420000D02*
D03*
X288500D02*
D03*
X298500Y410000D02*
D03*
D45*
X288500D02*
D03*
D46*
X207374Y8126D02*
D03*
Y16000D02*
D03*
X199500Y8126D02*
D03*
Y16000D02*
D03*
X191626Y8126D02*
D03*
Y16000D02*
D03*
X183752Y8126D02*
D03*
X104626Y8000D02*
D03*
X112500Y15874D02*
D03*
Y8000D02*
D03*
X120374Y15874D02*
D03*
Y8000D02*
D03*
X128248Y15874D02*
D03*
Y8000D02*
D03*
X143285Y328024D02*
D03*
Y320150D02*
D03*
X151159Y328024D02*
D03*
Y320150D02*
D03*
X159033Y328024D02*
D03*
Y320150D02*
D03*
X166907Y328024D02*
D03*
X167500Y62500D02*
D03*
X220500Y54000D02*
D03*
D47*
X183752Y16000D02*
D03*
X104626Y15874D02*
D03*
X166907Y320150D02*
D03*
D48*
X242000Y373500D02*
D03*
X252000D02*
D03*
X262000D02*
D03*
D49*
X272000D02*
D03*
D50*
X274010Y75340D02*
D03*
X284835Y75434D02*
D03*
X177776Y127622D02*
D03*
X180700Y79854D02*
D03*
X292035Y166907D02*
D03*
X255437Y164562D02*
D03*
X240096Y432920D02*
D03*
X27026Y213476D02*
D03*
X27160Y220718D02*
D03*
X74560Y187190D02*
D03*
X16937Y186645D02*
D03*
X259490Y221578D02*
D03*
X56000Y360000D02*
D03*
X46250D02*
D03*
X36500D02*
D03*
X75500D02*
D03*
X26750D02*
D03*
X65750D02*
D03*
X17000D02*
D03*
X56000Y323500D02*
D03*
X46250D02*
D03*
X36500D02*
D03*
X75500D02*
D03*
X26750D02*
D03*
X65750D02*
D03*
X17000D02*
D03*
X186000Y92000D02*
D03*
X17000Y396000D02*
D03*
X65750D02*
D03*
X26750D02*
D03*
X75500D02*
D03*
X36500D02*
D03*
X46250D02*
D03*
X56000D02*
D03*
X17000Y432500D02*
D03*
X65750D02*
D03*
X26750D02*
D03*
X75500D02*
D03*
X36500D02*
D03*
X46250D02*
D03*
X56000D02*
D03*
X55500Y464000D02*
D03*
X45750D02*
D03*
X36000D02*
D03*
X75000D02*
D03*
X26250D02*
D03*
X65250D02*
D03*
X16500D02*
D03*
X199650Y25227D02*
D03*
X191695Y25063D02*
D03*
X183708Y24868D02*
D03*
X214519Y80199D02*
D03*
X185409Y79416D02*
D03*
X227652Y83285D02*
D03*
X176500Y85000D02*
D03*
X240000D02*
D03*
X245517Y87817D02*
D03*
X160500Y88500D02*
D03*
X194000Y74000D02*
D03*
X190500Y77000D02*
D03*
X198500Y71500D02*
D03*
X217000Y69000D02*
D03*
X213500Y66500D02*
D03*
X167500Y82500D02*
D03*
X171500Y69000D02*
D03*
X166000D02*
D03*
X158500Y95000D02*
D03*
X156213Y101287D02*
D03*
X68500Y183000D02*
D03*
X87500Y190500D02*
D03*
X163500Y82000D02*
D03*
X93500Y187500D02*
D03*
X94000Y193000D02*
D03*
X171500Y81500D02*
D03*
X85000Y196000D02*
D03*
X78000Y160500D02*
D03*
X211000Y46500D02*
D03*
X203500D02*
D03*
X194894Y46606D02*
D03*
X187000Y46500D02*
D03*
X80000Y202000D02*
D03*
X71000Y207000D02*
D03*
X208500Y106000D02*
D03*
X257500Y190500D02*
D03*
X261500Y189000D02*
D03*
X229000Y131000D02*
D03*
X253500Y125500D02*
D03*
X256500Y128000D02*
D03*
X170500Y132500D02*
D03*
X174000Y131000D02*
D03*
X42975Y23892D02*
D03*
X49847Y24386D02*
D03*
X58647Y24040D02*
D03*
X140467Y84800D02*
D03*
X140319Y79213D02*
D03*
X140270Y70809D02*
D03*
X157326Y81240D02*
D03*
X196431Y60921D02*
D03*
X141604Y96319D02*
D03*
X190000Y107000D02*
D03*
X187500Y104500D02*
D03*
X176000Y96000D02*
D03*
X176500Y89500D02*
D03*
X232500Y96000D02*
D03*
X129000Y410000D02*
D03*
X177750D02*
D03*
X138750D02*
D03*
X187500D02*
D03*
X148500D02*
D03*
X158250D02*
D03*
X168000D02*
D03*
X129000Y378500D02*
D03*
X177750D02*
D03*
X138750D02*
D03*
X187500D02*
D03*
X148500D02*
D03*
X158250D02*
D03*
X168000D02*
D03*
X129000Y347000D02*
D03*
X177750D02*
D03*
X138750D02*
D03*
X187500D02*
D03*
X148500D02*
D03*
X158250D02*
D03*
X168000D02*
D03*
X127500Y293500D02*
D03*
X176250D02*
D03*
X137250D02*
D03*
X186000D02*
D03*
X147000D02*
D03*
X156750D02*
D03*
X166500D02*
D03*
X141000Y216000D02*
D03*
X189750D02*
D03*
X150750D02*
D03*
X199500D02*
D03*
X160500D02*
D03*
X170250D02*
D03*
X180000D02*
D03*
X97000Y30500D02*
D03*
X145750D02*
D03*
X106750D02*
D03*
X155500D02*
D03*
X116500D02*
D03*
X126250D02*
D03*
X136000D02*
D03*
X85000Y500000D02*
D03*
X133750D02*
D03*
X94750D02*
D03*
X143500D02*
D03*
X104500D02*
D03*
X114250D02*
D03*
X124000D02*
D03*
X213500Y106500D02*
D03*
X222000D02*
D03*
X224500Y104000D02*
D03*
X218500Y106500D02*
D03*
X175500Y81000D02*
D03*
X241000Y104000D02*
D03*
X234000D02*
D03*
X248000Y109500D02*
D03*
X249000Y104000D02*
D03*
X254000Y113500D02*
D03*
X248500Y118000D02*
D03*
X238500Y119500D02*
D03*
X229500D02*
D03*
X198500Y121000D02*
D03*
X190500Y117500D02*
D03*
X183500Y106000D02*
D03*
X221000Y91500D02*
D03*
X76500Y115000D02*
D03*
X92500Y114500D02*
D03*
X73500Y102000D02*
D03*
X91000D02*
D03*
X70000Y89000D02*
D03*
X92000Y89500D02*
D03*
X71500Y77000D02*
D03*
X92500Y78000D02*
D03*
X116500Y66500D02*
D03*
X98000Y63000D02*
D03*
X78000Y62000D02*
D03*
X62000Y61500D02*
D03*
X49500Y115500D02*
D03*
X21000D02*
D03*
X10500Y120000D02*
D03*
X29500Y132000D02*
D03*
X54500Y135000D02*
D03*
X51500Y147000D02*
D03*
X7500Y176500D02*
D03*
X36500Y189500D02*
D03*
X31500Y187000D02*
D03*
X48000Y200500D02*
D03*
X49000Y213500D02*
D03*
X57500Y211500D02*
D03*
X15500Y200000D02*
D03*
X11500Y212500D02*
D03*
X10500Y228500D02*
D03*
X47500Y227000D02*
D03*
X49500Y244000D02*
D03*
X42500Y231000D02*
D03*
X70500Y230500D02*
D03*
X91500Y215500D02*
D03*
X116000Y192000D02*
D03*
X133000Y196000D02*
D03*
X120500Y147500D02*
D03*
X169500Y149000D02*
D03*
X161000Y150500D02*
D03*
X179500Y150000D02*
D03*
X267500Y212500D02*
D03*
X273500Y209500D02*
D03*
X286500Y197500D02*
D03*
X275500Y196000D02*
D03*
X279500Y203500D02*
D03*
X306000Y197000D02*
D03*
X300000Y202000D02*
D03*
X304500Y215500D02*
D03*
X300000Y230000D02*
D03*
X293000Y212000D02*
D03*
X283500Y231000D02*
D03*
X292500Y224000D02*
D03*
X255500Y235500D02*
D03*
X254000Y244500D02*
D03*
X240500Y230500D02*
D03*
X243000Y201500D02*
D03*
X237000Y204000D02*
D03*
X238000Y217500D02*
D03*
Y176000D02*
D03*
X248000Y146500D02*
D03*
X272000Y156500D02*
D03*
X290000Y155000D02*
D03*
X285000Y146500D02*
D03*
X279000Y140500D02*
D03*
X272500Y131000D02*
D03*
X302500Y126000D02*
D03*
Y115000D02*
D03*
X287500Y107000D02*
D03*
X301500Y106500D02*
D03*
X303000Y95500D02*
D03*
X297500Y90500D02*
D03*
X293500Y116000D02*
D03*
X278000Y237000D02*
D03*
X271000Y269000D02*
D03*
X275500Y283500D02*
D03*
X305500Y319000D02*
D03*
X302500Y286000D02*
D03*
X289500Y289500D02*
D03*
X255500Y252000D02*
D03*
X220000Y63000D02*
D03*
X224000Y66500D02*
D03*
X254500Y77000D02*
D03*
X257000Y84500D02*
D03*
X246000Y75000D02*
D03*
X254000Y62000D02*
D03*
X248000Y18500D02*
D03*
X241000Y14500D02*
D03*
X265500Y10500D02*
D03*
X271500Y28000D02*
D03*
X170500Y479500D02*
D03*
X185500D02*
D03*
X169500Y473000D02*
D03*
X185000Y472500D02*
D03*
X218000Y468500D02*
D03*
X218500Y480000D02*
D03*
X219000Y486500D02*
D03*
X236500Y482500D02*
D03*
X238000Y475000D02*
D03*
X231500Y454000D02*
D03*
X212000Y451500D02*
D03*
Y442000D02*
D03*
X210500Y435000D02*
D03*
X212000Y424000D02*
D03*
X192500D02*
D03*
X224500D02*
D03*
X260500Y434000D02*
D03*
X262000Y443500D02*
D03*
Y473500D02*
D03*
X265500Y468000D02*
D03*
X276500Y465500D02*
D03*
X285500Y465000D02*
D03*
X295000D02*
D03*
X303000Y464500D02*
D03*
X276000Y452500D02*
D03*
X284500Y453000D02*
D03*
X295500Y452500D02*
D03*
X303500Y452000D02*
D03*
X282500Y390000D02*
D03*
X271000Y391500D02*
D03*
X198500Y387500D02*
D03*
X217000Y388000D02*
D03*
X229500Y391500D02*
D03*
X201000Y370500D02*
D03*
X226500Y369500D02*
D03*
X213500Y356000D02*
D03*
X209000Y340000D02*
D03*
X237000Y342500D02*
D03*
X239000Y357500D02*
D03*
X257500Y360000D02*
D03*
X221000Y333000D02*
D03*
X202500Y306000D02*
D03*
X239000Y294500D02*
D03*
X225000Y277500D02*
D03*
X211500Y263000D02*
D03*
X94000Y199000D02*
D03*
X82000Y192000D02*
D03*
X75500Y199000D02*
D03*
X76000Y206000D02*
D03*
X81000Y218000D02*
D03*
X111500Y164500D02*
D03*
X96500Y177000D02*
D03*
D51*
X111500Y152500D02*
D03*
D52*
X234000Y461500D02*
D03*
X173500D02*
D03*
X61000Y266000D02*
D03*
D53*
X211500Y136000D02*
D03*
X211000Y113500D02*
D03*
D54*
X250186Y320150D02*
D03*
M02*
