G04 Layer_Color=2752767*
%FSLAX25Y25*%
%MOIN*%
G70*
G01*
G75*
%ADD10C,0.00200*%
%ADD11C,0.00267*%
D10*
X271200Y372700D02*
Y374300D01*
X272800D01*
Y372700D01*
X271200D01*
X261200D02*
Y374300D01*
X262800D01*
Y372700D01*
X261200D01*
X251200D02*
Y374300D01*
X252800D01*
Y372700D01*
X251200D01*
X241200D02*
Y374300D01*
X242800D01*
Y372700D01*
X241200D01*
X288500Y409200D02*
X287700Y410800D01*
X289300D01*
X288500Y409200D01*
X298500D02*
X297700Y410800D01*
X299300D01*
X298500Y409200D01*
X288500Y419200D02*
X287700Y420800D01*
X289300D01*
X288500Y419200D01*
X298500D02*
X297700Y420800D01*
X299300D01*
X298500Y419200D01*
X288500Y429200D02*
X287700Y430800D01*
X289300D01*
X288500Y429200D01*
X298500D02*
X297700Y430800D01*
X299300D01*
X298500Y429200D01*
X288500Y439200D02*
X287700Y440800D01*
X289300D01*
X288500Y439200D01*
X298500D02*
X297700Y440800D01*
X299300D01*
X298500Y439200D01*
X285000Y81200D02*
X284200Y82800D01*
X285800D01*
X285000Y81200D01*
X275000D02*
X274200Y82800D01*
X275800D01*
X275000Y81200D01*
X295000D02*
X294200Y82800D01*
X295800D01*
X295000Y81200D01*
X265000D02*
X264200Y82800D01*
X265800D01*
X265000Y81200D01*
X285000Y68200D02*
X284200Y69800D01*
X285800D01*
X285000Y68200D01*
X275000D02*
X274200Y69800D01*
X275800D01*
X275000Y68200D01*
X295000D02*
X294200Y69800D01*
X295800D01*
X295000Y68200D01*
X265000D02*
X264200Y69800D01*
X265800D01*
X265000Y68200D01*
X96500Y176200D02*
X96900Y176600D01*
X97300D01*
X96900Y177000D01*
X97300Y177400D01*
X96900D01*
X96500Y177800D01*
X96100Y177400D01*
X95700D01*
X96100Y177000D01*
X95700Y176600D01*
X96100D01*
X96500Y176200D01*
X111500Y163700D02*
X111900Y164100D01*
X112300D01*
X111900Y164500D01*
X112300Y164900D01*
X111900D01*
X111500Y165300D01*
X111100Y164900D01*
X110700D01*
X111100Y164500D01*
X110700Y164100D01*
X111100D01*
X111500Y163700D01*
X81000Y217200D02*
X81400Y217600D01*
X81800D01*
X81400Y218000D01*
X81800Y218400D01*
X81400D01*
X81000Y218800D01*
X80600Y218400D01*
X80200D01*
X80600Y218000D01*
X80200Y217600D01*
X80600D01*
X81000Y217200D01*
X76000Y205200D02*
X76400Y205600D01*
X76800D01*
X76400Y206000D01*
X76800Y206400D01*
X76400D01*
X76000Y206800D01*
X75600Y206400D01*
X75200D01*
X75600Y206000D01*
X75200Y205600D01*
X75600D01*
X76000Y205200D01*
X75500Y198200D02*
X75900Y198600D01*
X76300D01*
X75900Y199000D01*
X76300Y199400D01*
X75900D01*
X75500Y199800D01*
X75100Y199400D01*
X74700D01*
X75100Y199000D01*
X74700Y198600D01*
X75100D01*
X75500Y198200D01*
X82000Y191200D02*
X82400Y191600D01*
X82800D01*
X82400Y192000D01*
X82800Y192400D01*
X82400D01*
X82000Y192800D01*
X81600Y192400D01*
X81200D01*
X81600Y192000D01*
X81200Y191600D01*
X81600D01*
X82000Y191200D01*
X94000Y198200D02*
X94400Y198600D01*
X94800D01*
X94400Y199000D01*
X94800Y199400D01*
X94400D01*
X94000Y199800D01*
X93600Y199400D01*
X93200D01*
X93600Y199000D01*
X93200Y198600D01*
X93600D01*
X94000Y198200D01*
X211500Y262200D02*
X211900Y262600D01*
X212300D01*
X211900Y263000D01*
X212300Y263400D01*
X211900D01*
X211500Y263800D01*
X211100Y263400D01*
X210700D01*
X211100Y263000D01*
X210700Y262600D01*
X211100D01*
X211500Y262200D01*
X225000Y276700D02*
X225400Y277100D01*
X225800D01*
X225400Y277500D01*
X225800Y277900D01*
X225400D01*
X225000Y278300D01*
X224600Y277900D01*
X224200D01*
X224600Y277500D01*
X224200Y277100D01*
X224600D01*
X225000Y276700D01*
X239000Y293700D02*
X239400Y294100D01*
X239800D01*
X239400Y294500D01*
X239800Y294900D01*
X239400D01*
X239000Y295300D01*
X238600Y294900D01*
X238200D01*
X238600Y294500D01*
X238200Y294100D01*
X238600D01*
X239000Y293700D01*
X202500Y305200D02*
X202900Y305600D01*
X203300D01*
X202900Y306000D01*
X203300Y306400D01*
X202900D01*
X202500Y306800D01*
X202100Y306400D01*
X201700D01*
X202100Y306000D01*
X201700Y305600D01*
X202100D01*
X202500Y305200D01*
X221000Y332200D02*
X221400Y332600D01*
X221800D01*
X221400Y333000D01*
X221800Y333400D01*
X221400D01*
X221000Y333800D01*
X220600Y333400D01*
X220200D01*
X220600Y333000D01*
X220200Y332600D01*
X220600D01*
X221000Y332200D01*
X257500Y359200D02*
X257900Y359600D01*
X258300D01*
X257900Y360000D01*
X258300Y360400D01*
X257900D01*
X257500Y360800D01*
X257100Y360400D01*
X256700D01*
X257100Y360000D01*
X256700Y359600D01*
X257100D01*
X257500Y359200D01*
X239000Y356700D02*
X239400Y357100D01*
X239800D01*
X239400Y357500D01*
X239800Y357900D01*
X239400D01*
X239000Y358300D01*
X238600Y357900D01*
X238200D01*
X238600Y357500D01*
X238200Y357100D01*
X238600D01*
X239000Y356700D01*
X237000Y341700D02*
X237400Y342100D01*
X237800D01*
X237400Y342500D01*
X237800Y342900D01*
X237400D01*
X237000Y343300D01*
X236600Y342900D01*
X236200D01*
X236600Y342500D01*
X236200Y342100D01*
X236600D01*
X237000Y341700D01*
X209000Y339200D02*
X209400Y339600D01*
X209800D01*
X209400Y340000D01*
X209800Y340400D01*
X209400D01*
X209000Y340800D01*
X208600Y340400D01*
X208200D01*
X208600Y340000D01*
X208200Y339600D01*
X208600D01*
X209000Y339200D01*
X213500Y355200D02*
X213900Y355600D01*
X214300D01*
X213900Y356000D01*
X214300Y356400D01*
X213900D01*
X213500Y356800D01*
X213100Y356400D01*
X212700D01*
X213100Y356000D01*
X212700Y355600D01*
X213100D01*
X213500Y355200D01*
X226500Y368700D02*
X226900Y369100D01*
X227300D01*
X226900Y369500D01*
X227300Y369900D01*
X226900D01*
X226500Y370300D01*
X226100Y369900D01*
X225700D01*
X226100Y369500D01*
X225700Y369100D01*
X226100D01*
X226500Y368700D01*
X201000Y369700D02*
X201400Y370100D01*
X201800D01*
X201400Y370500D01*
X201800Y370900D01*
X201400D01*
X201000Y371300D01*
X200600Y370900D01*
X200200D01*
X200600Y370500D01*
X200200Y370100D01*
X200600D01*
X201000Y369700D01*
X229500Y390700D02*
X229900Y391100D01*
X230300D01*
X229900Y391500D01*
X230300Y391900D01*
X229900D01*
X229500Y392300D01*
X229100Y391900D01*
X228700D01*
X229100Y391500D01*
X228700Y391100D01*
X229100D01*
X229500Y390700D01*
X217000Y387200D02*
X217400Y387600D01*
X217800D01*
X217400Y388000D01*
X217800Y388400D01*
X217400D01*
X217000Y388800D01*
X216600Y388400D01*
X216200D01*
X216600Y388000D01*
X216200Y387600D01*
X216600D01*
X217000Y387200D01*
X198500Y386700D02*
X198900Y387100D01*
X199300D01*
X198900Y387500D01*
X199300Y387900D01*
X198900D01*
X198500Y388300D01*
X198100Y387900D01*
X197700D01*
X198100Y387500D01*
X197700Y387100D01*
X198100D01*
X198500Y386700D01*
X271000Y390700D02*
X271400Y391100D01*
X271800D01*
X271400Y391500D01*
X271800Y391900D01*
X271400D01*
X271000Y392300D01*
X270600Y391900D01*
X270200D01*
X270600Y391500D01*
X270200Y391100D01*
X270600D01*
X271000Y390700D01*
X282500Y389200D02*
X282900Y389600D01*
X283300D01*
X282900Y390000D01*
X283300Y390400D01*
X282900D01*
X282500Y390800D01*
X282100Y390400D01*
X281700D01*
X282100Y390000D01*
X281700Y389600D01*
X282100D01*
X282500Y389200D01*
X303500Y451200D02*
X303900Y451600D01*
X304300D01*
X303900Y452000D01*
X304300Y452400D01*
X303900D01*
X303500Y452800D01*
X303100Y452400D01*
X302700D01*
X303100Y452000D01*
X302700Y451600D01*
X303100D01*
X303500Y451200D01*
X295500Y451700D02*
X295900Y452100D01*
X296300D01*
X295900Y452500D01*
X296300Y452900D01*
X295900D01*
X295500Y453300D01*
X295100Y452900D01*
X294700D01*
X295100Y452500D01*
X294700Y452100D01*
X295100D01*
X295500Y451700D01*
X284500Y452200D02*
X284900Y452600D01*
X285300D01*
X284900Y453000D01*
X285300Y453400D01*
X284900D01*
X284500Y453800D01*
X284100Y453400D01*
X283700D01*
X284100Y453000D01*
X283700Y452600D01*
X284100D01*
X284500Y452200D01*
X276000Y451700D02*
X276400Y452100D01*
X276800D01*
X276400Y452500D01*
X276800Y452900D01*
X276400D01*
X276000Y453300D01*
X275600Y452900D01*
X275200D01*
X275600Y452500D01*
X275200Y452100D01*
X275600D01*
X276000Y451700D01*
X303000Y463700D02*
X303400Y464100D01*
X303800D01*
X303400Y464500D01*
X303800Y464900D01*
X303400D01*
X303000Y465300D01*
X302600Y464900D01*
X302200D01*
X302600Y464500D01*
X302200Y464100D01*
X302600D01*
X303000Y463700D01*
X295000Y464200D02*
X295400Y464600D01*
X295800D01*
X295400Y465000D01*
X295800Y465400D01*
X295400D01*
X295000Y465800D01*
X294600Y465400D01*
X294200D01*
X294600Y465000D01*
X294200Y464600D01*
X294600D01*
X295000Y464200D01*
X285500D02*
X285900Y464600D01*
X286300D01*
X285900Y465000D01*
X286300Y465400D01*
X285900D01*
X285500Y465800D01*
X285100Y465400D01*
X284700D01*
X285100Y465000D01*
X284700Y464600D01*
X285100D01*
X285500Y464200D01*
X276500Y464700D02*
X276900Y465100D01*
X277300D01*
X276900Y465500D01*
X277300Y465900D01*
X276900D01*
X276500Y466300D01*
X276100Y465900D01*
X275700D01*
X276100Y465500D01*
X275700Y465100D01*
X276100D01*
X276500Y464700D01*
X265500Y467200D02*
X265900Y467600D01*
X266300D01*
X265900Y468000D01*
X266300Y468400D01*
X265900D01*
X265500Y468800D01*
X265100Y468400D01*
X264700D01*
X265100Y468000D01*
X264700Y467600D01*
X265100D01*
X265500Y467200D01*
X262000Y472700D02*
X262400Y473100D01*
X262800D01*
X262400Y473500D01*
X262800Y473900D01*
X262400D01*
X262000Y474300D01*
X261600Y473900D01*
X261200D01*
X261600Y473500D01*
X261200Y473100D01*
X261600D01*
X262000Y472700D01*
Y442700D02*
X262400Y443100D01*
X262800D01*
X262400Y443500D01*
X262800Y443900D01*
X262400D01*
X262000Y444300D01*
X261600Y443900D01*
X261200D01*
X261600Y443500D01*
X261200Y443100D01*
X261600D01*
X262000Y442700D01*
X260500Y433200D02*
X260900Y433600D01*
X261300D01*
X260900Y434000D01*
X261300Y434400D01*
X260900D01*
X260500Y434800D01*
X260100Y434400D01*
X259700D01*
X260100Y434000D01*
X259700Y433600D01*
X260100D01*
X260500Y433200D01*
X224500Y423200D02*
X224900Y423600D01*
X225300D01*
X224900Y424000D01*
X225300Y424400D01*
X224900D01*
X224500Y424800D01*
X224100Y424400D01*
X223700D01*
X224100Y424000D01*
X223700Y423600D01*
X224100D01*
X224500Y423200D01*
X192500D02*
X192900Y423600D01*
X193300D01*
X192900Y424000D01*
X193300Y424400D01*
X192900D01*
X192500Y424800D01*
X192100Y424400D01*
X191700D01*
X192100Y424000D01*
X191700Y423600D01*
X192100D01*
X192500Y423200D01*
X212000D02*
X212400Y423600D01*
X212800D01*
X212400Y424000D01*
X212800Y424400D01*
X212400D01*
X212000Y424800D01*
X211600Y424400D01*
X211200D01*
X211600Y424000D01*
X211200Y423600D01*
X211600D01*
X212000Y423200D01*
X210500Y434200D02*
X210900Y434600D01*
X211300D01*
X210900Y435000D01*
X211300Y435400D01*
X210900D01*
X210500Y435800D01*
X210100Y435400D01*
X209700D01*
X210100Y435000D01*
X209700Y434600D01*
X210100D01*
X210500Y434200D01*
X212000Y441200D02*
X212400Y441600D01*
X212800D01*
X212400Y442000D01*
X212800Y442400D01*
X212400D01*
X212000Y442800D01*
X211600Y442400D01*
X211200D01*
X211600Y442000D01*
X211200Y441600D01*
X211600D01*
X212000Y441200D01*
Y450700D02*
X212400Y451100D01*
X212800D01*
X212400Y451500D01*
X212800Y451900D01*
X212400D01*
X212000Y452300D01*
X211600Y451900D01*
X211200D01*
X211600Y451500D01*
X211200Y451100D01*
X211600D01*
X212000Y450700D01*
X231500Y453200D02*
X231900Y453600D01*
X232300D01*
X231900Y454000D01*
X232300Y454400D01*
X231900D01*
X231500Y454800D01*
X231100Y454400D01*
X230700D01*
X231100Y454000D01*
X230700Y453600D01*
X231100D01*
X231500Y453200D01*
X238000Y474200D02*
X238400Y474600D01*
X238800D01*
X238400Y475000D01*
X238800Y475400D01*
X238400D01*
X238000Y475800D01*
X237600Y475400D01*
X237200D01*
X237600Y475000D01*
X237200Y474600D01*
X237600D01*
X238000Y474200D01*
X236500Y481700D02*
X236900Y482100D01*
X237300D01*
X236900Y482500D01*
X237300Y482900D01*
X236900D01*
X236500Y483300D01*
X236100Y482900D01*
X235700D01*
X236100Y482500D01*
X235700Y482100D01*
X236100D01*
X236500Y481700D01*
X219000Y485700D02*
X219400Y486100D01*
X219800D01*
X219400Y486500D01*
X219800Y486900D01*
X219400D01*
X219000Y487300D01*
X218600Y486900D01*
X218200D01*
X218600Y486500D01*
X218200Y486100D01*
X218600D01*
X219000Y485700D01*
X218500Y479200D02*
X218900Y479600D01*
X219300D01*
X218900Y480000D01*
X219300Y480400D01*
X218900D01*
X218500Y480800D01*
X218100Y480400D01*
X217700D01*
X218100Y480000D01*
X217700Y479600D01*
X218100D01*
X218500Y479200D01*
X218000Y467700D02*
X218400Y468100D01*
X218800D01*
X218400Y468500D01*
X218800Y468900D01*
X218400D01*
X218000Y469300D01*
X217600Y468900D01*
X217200D01*
X217600Y468500D01*
X217200Y468100D01*
X217600D01*
X218000Y467700D01*
X185000Y471700D02*
X185400Y472100D01*
X185800D01*
X185400Y472500D01*
X185800Y472900D01*
X185400D01*
X185000Y473300D01*
X184600Y472900D01*
X184200D01*
X184600Y472500D01*
X184200Y472100D01*
X184600D01*
X185000Y471700D01*
X169500Y472200D02*
X169900Y472600D01*
X170300D01*
X169900Y473000D01*
X170300Y473400D01*
X169900D01*
X169500Y473800D01*
X169100Y473400D01*
X168700D01*
X169100Y473000D01*
X168700Y472600D01*
X169100D01*
X169500Y472200D01*
X185500Y478700D02*
X185900Y479100D01*
X186300D01*
X185900Y479500D01*
X186300Y479900D01*
X185900D01*
X185500Y480300D01*
X185100Y479900D01*
X184700D01*
X185100Y479500D01*
X184700Y479100D01*
X185100D01*
X185500Y478700D01*
X170500D02*
X170900Y479100D01*
X171300D01*
X170900Y479500D01*
X171300Y479900D01*
X170900D01*
X170500Y480300D01*
X170100Y479900D01*
X169700D01*
X170100Y479500D01*
X169700Y479100D01*
X170100D01*
X170500Y478700D01*
X271500Y27200D02*
X271900Y27600D01*
X272300D01*
X271900Y28000D01*
X272300Y28400D01*
X271900D01*
X271500Y28800D01*
X271100Y28400D01*
X270700D01*
X271100Y28000D01*
X270700Y27600D01*
X271100D01*
X271500Y27200D01*
X265500Y9700D02*
X265900Y10100D01*
X266300D01*
X265900Y10500D01*
X266300Y10900D01*
X265900D01*
X265500Y11300D01*
X265100Y10900D01*
X264700D01*
X265100Y10500D01*
X264700Y10100D01*
X265100D01*
X265500Y9700D01*
X241000Y13700D02*
X241400Y14100D01*
X241800D01*
X241400Y14500D01*
X241800Y14900D01*
X241400D01*
X241000Y15300D01*
X240600Y14900D01*
X240200D01*
X240600Y14500D01*
X240200Y14100D01*
X240600D01*
X241000Y13700D01*
X248000Y17700D02*
X248400Y18100D01*
X248800D01*
X248400Y18500D01*
X248800Y18900D01*
X248400D01*
X248000Y19300D01*
X247600Y18900D01*
X247200D01*
X247600Y18500D01*
X247200Y18100D01*
X247600D01*
X248000Y17700D01*
X254000Y61200D02*
X254400Y61600D01*
X254800D01*
X254400Y62000D01*
X254800Y62400D01*
X254400D01*
X254000Y62800D01*
X253600Y62400D01*
X253200D01*
X253600Y62000D01*
X253200Y61600D01*
X253600D01*
X254000Y61200D01*
X246000Y74200D02*
X246400Y74600D01*
X246800D01*
X246400Y75000D01*
X246800Y75400D01*
X246400D01*
X246000Y75800D01*
X245600Y75400D01*
X245200D01*
X245600Y75000D01*
X245200Y74600D01*
X245600D01*
X246000Y74200D01*
X257000Y83700D02*
X257400Y84100D01*
X257800D01*
X257400Y84500D01*
X257800Y84900D01*
X257400D01*
X257000Y85300D01*
X256600Y84900D01*
X256200D01*
X256600Y84500D01*
X256200Y84100D01*
X256600D01*
X257000Y83700D01*
X254500Y76200D02*
X254900Y76600D01*
X255300D01*
X254900Y77000D01*
X255300Y77400D01*
X254900D01*
X254500Y77800D01*
X254100Y77400D01*
X253700D01*
X254100Y77000D01*
X253700Y76600D01*
X254100D01*
X254500Y76200D01*
X224000Y65700D02*
X224400Y66100D01*
X224800D01*
X224400Y66500D01*
X224800Y66900D01*
X224400D01*
X224000Y67300D01*
X223600Y66900D01*
X223200D01*
X223600Y66500D01*
X223200Y66100D01*
X223600D01*
X224000Y65700D01*
X220000Y62200D02*
X220400Y62600D01*
X220800D01*
X220400Y63000D01*
X220800Y63400D01*
X220400D01*
X220000Y63800D01*
X219600Y63400D01*
X219200D01*
X219600Y63000D01*
X219200Y62600D01*
X219600D01*
X220000Y62200D01*
X255500Y251200D02*
X255900Y251600D01*
X256300D01*
X255900Y252000D01*
X256300Y252400D01*
X255900D01*
X255500Y252800D01*
X255100Y252400D01*
X254700D01*
X255100Y252000D01*
X254700Y251600D01*
X255100D01*
X255500Y251200D01*
X289500Y288700D02*
X289900Y289100D01*
X290300D01*
X289900Y289500D01*
X290300Y289900D01*
X289900D01*
X289500Y290300D01*
X289100Y289900D01*
X288700D01*
X289100Y289500D01*
X288700Y289100D01*
X289100D01*
X289500Y288700D01*
X302500Y285200D02*
X302900Y285600D01*
X303300D01*
X302900Y286000D01*
X303300Y286400D01*
X302900D01*
X302500Y286800D01*
X302100Y286400D01*
X301700D01*
X302100Y286000D01*
X301700Y285600D01*
X302100D01*
X302500Y285200D01*
X305500Y318200D02*
X305900Y318600D01*
X306300D01*
X305900Y319000D01*
X306300Y319400D01*
X305900D01*
X305500Y319800D01*
X305100Y319400D01*
X304700D01*
X305100Y319000D01*
X304700Y318600D01*
X305100D01*
X305500Y318200D01*
X275500Y282700D02*
X275900Y283100D01*
X276300D01*
X275900Y283500D01*
X276300Y283900D01*
X275900D01*
X275500Y284300D01*
X275100Y283900D01*
X274700D01*
X275100Y283500D01*
X274700Y283100D01*
X275100D01*
X275500Y282700D01*
X271000Y268200D02*
X271400Y268600D01*
X271800D01*
X271400Y269000D01*
X271800Y269400D01*
X271400D01*
X271000Y269800D01*
X270600Y269400D01*
X270200D01*
X270600Y269000D01*
X270200Y268600D01*
X270600D01*
X271000Y268200D01*
X278000Y236200D02*
X278400Y236600D01*
X278800D01*
X278400Y237000D01*
X278800Y237400D01*
X278400D01*
X278000Y237800D01*
X277600Y237400D01*
X277200D01*
X277600Y237000D01*
X277200Y236600D01*
X277600D01*
X278000Y236200D01*
X293500Y115200D02*
X293900Y115600D01*
X294300D01*
X293900Y116000D01*
X294300Y116400D01*
X293900D01*
X293500Y116800D01*
X293100Y116400D01*
X292700D01*
X293100Y116000D01*
X292700Y115600D01*
X293100D01*
X293500Y115200D01*
X297500Y89700D02*
X297900Y90100D01*
X298300D01*
X297900Y90500D01*
X298300Y90900D01*
X297900D01*
X297500Y91300D01*
X297100Y90900D01*
X296700D01*
X297100Y90500D01*
X296700Y90100D01*
X297100D01*
X297500Y89700D01*
X303000Y94700D02*
X303400Y95100D01*
X303800D01*
X303400Y95500D01*
X303800Y95900D01*
X303400D01*
X303000Y96300D01*
X302600Y95900D01*
X302200D01*
X302600Y95500D01*
X302200Y95100D01*
X302600D01*
X303000Y94700D01*
X301500Y105700D02*
X301900Y106100D01*
X302300D01*
X301900Y106500D01*
X302300Y106900D01*
X301900D01*
X301500Y107300D01*
X301100Y106900D01*
X300700D01*
X301100Y106500D01*
X300700Y106100D01*
X301100D01*
X301500Y105700D01*
X287500Y106200D02*
X287900Y106600D01*
X288300D01*
X287900Y107000D01*
X288300Y107400D01*
X287900D01*
X287500Y107800D01*
X287100Y107400D01*
X286700D01*
X287100Y107000D01*
X286700Y106600D01*
X287100D01*
X287500Y106200D01*
X302500Y114200D02*
X302900Y114600D01*
X303300D01*
X302900Y115000D01*
X303300Y115400D01*
X302900D01*
X302500Y115800D01*
X302100Y115400D01*
X301700D01*
X302100Y115000D01*
X301700Y114600D01*
X302100D01*
X302500Y114200D01*
Y125200D02*
X302900Y125600D01*
X303300D01*
X302900Y126000D01*
X303300Y126400D01*
X302900D01*
X302500Y126800D01*
X302100Y126400D01*
X301700D01*
X302100Y126000D01*
X301700Y125600D01*
X302100D01*
X302500Y125200D01*
X272500Y130200D02*
X272900Y130600D01*
X273300D01*
X272900Y131000D01*
X273300Y131400D01*
X272900D01*
X272500Y131800D01*
X272100Y131400D01*
X271700D01*
X272100Y131000D01*
X271700Y130600D01*
X272100D01*
X272500Y130200D01*
X279000Y139700D02*
X279400Y140100D01*
X279800D01*
X279400Y140500D01*
X279800Y140900D01*
X279400D01*
X279000Y141300D01*
X278600Y140900D01*
X278200D01*
X278600Y140500D01*
X278200Y140100D01*
X278600D01*
X279000Y139700D01*
X285000Y145700D02*
X285400Y146100D01*
X285800D01*
X285400Y146500D01*
X285800Y146900D01*
X285400D01*
X285000Y147300D01*
X284600Y146900D01*
X284200D01*
X284600Y146500D01*
X284200Y146100D01*
X284600D01*
X285000Y145700D01*
X290000Y154200D02*
X290400Y154600D01*
X290800D01*
X290400Y155000D01*
X290800Y155400D01*
X290400D01*
X290000Y155800D01*
X289600Y155400D01*
X289200D01*
X289600Y155000D01*
X289200Y154600D01*
X289600D01*
X290000Y154200D01*
X272000Y155700D02*
X272400Y156100D01*
X272800D01*
X272400Y156500D01*
X272800Y156900D01*
X272400D01*
X272000Y157300D01*
X271600Y156900D01*
X271200D01*
X271600Y156500D01*
X271200Y156100D01*
X271600D01*
X272000Y155700D01*
X248000Y145700D02*
X248400Y146100D01*
X248800D01*
X248400Y146500D01*
X248800Y146900D01*
X248400D01*
X248000Y147300D01*
X247600Y146900D01*
X247200D01*
X247600Y146500D01*
X247200Y146100D01*
X247600D01*
X248000Y145700D01*
X238000Y175200D02*
X238400Y175600D01*
X238800D01*
X238400Y176000D01*
X238800Y176400D01*
X238400D01*
X238000Y176800D01*
X237600Y176400D01*
X237200D01*
X237600Y176000D01*
X237200Y175600D01*
X237600D01*
X238000Y175200D01*
Y216700D02*
X238400Y217100D01*
X238800D01*
X238400Y217500D01*
X238800Y217900D01*
X238400D01*
X238000Y218300D01*
X237600Y217900D01*
X237200D01*
X237600Y217500D01*
X237200Y217100D01*
X237600D01*
X238000Y216700D01*
X237000Y203200D02*
X237400Y203600D01*
X237800D01*
X237400Y204000D01*
X237800Y204400D01*
X237400D01*
X237000Y204800D01*
X236600Y204400D01*
X236200D01*
X236600Y204000D01*
X236200Y203600D01*
X236600D01*
X237000Y203200D01*
X243000Y200700D02*
X243400Y201100D01*
X243800D01*
X243400Y201500D01*
X243800Y201900D01*
X243400D01*
X243000Y202300D01*
X242600Y201900D01*
X242200D01*
X242600Y201500D01*
X242200Y201100D01*
X242600D01*
X243000Y200700D01*
X240500Y229700D02*
X240900Y230100D01*
X241300D01*
X240900Y230500D01*
X241300Y230900D01*
X240900D01*
X240500Y231300D01*
X240100Y230900D01*
X239700D01*
X240100Y230500D01*
X239700Y230100D01*
X240100D01*
X240500Y229700D01*
X254000Y243700D02*
X254400Y244100D01*
X254800D01*
X254400Y244500D01*
X254800Y244900D01*
X254400D01*
X254000Y245300D01*
X253600Y244900D01*
X253200D01*
X253600Y244500D01*
X253200Y244100D01*
X253600D01*
X254000Y243700D01*
X255500Y234700D02*
X255900Y235100D01*
X256300D01*
X255900Y235500D01*
X256300Y235900D01*
X255900D01*
X255500Y236300D01*
X255100Y235900D01*
X254700D01*
X255100Y235500D01*
X254700Y235100D01*
X255100D01*
X255500Y234700D01*
X292500Y223200D02*
X292900Y223600D01*
X293300D01*
X292900Y224000D01*
X293300Y224400D01*
X292900D01*
X292500Y224800D01*
X292100Y224400D01*
X291700D01*
X292100Y224000D01*
X291700Y223600D01*
X292100D01*
X292500Y223200D01*
X283500Y230200D02*
X283900Y230600D01*
X284300D01*
X283900Y231000D01*
X284300Y231400D01*
X283900D01*
X283500Y231800D01*
X283100Y231400D01*
X282700D01*
X283100Y231000D01*
X282700Y230600D01*
X283100D01*
X283500Y230200D01*
X293000Y211200D02*
X293400Y211600D01*
X293800D01*
X293400Y212000D01*
X293800Y212400D01*
X293400D01*
X293000Y212800D01*
X292600Y212400D01*
X292200D01*
X292600Y212000D01*
X292200Y211600D01*
X292600D01*
X293000Y211200D01*
X300000Y229200D02*
X300400Y229600D01*
X300800D01*
X300400Y230000D01*
X300800Y230400D01*
X300400D01*
X300000Y230800D01*
X299600Y230400D01*
X299200D01*
X299600Y230000D01*
X299200Y229600D01*
X299600D01*
X300000Y229200D01*
X304500Y214700D02*
X304900Y215100D01*
X305300D01*
X304900Y215500D01*
X305300Y215900D01*
X304900D01*
X304500Y216300D01*
X304100Y215900D01*
X303700D01*
X304100Y215500D01*
X303700Y215100D01*
X304100D01*
X304500Y214700D01*
X300000Y201200D02*
X300400Y201600D01*
X300800D01*
X300400Y202000D01*
X300800Y202400D01*
X300400D01*
X300000Y202800D01*
X299600Y202400D01*
X299200D01*
X299600Y202000D01*
X299200Y201600D01*
X299600D01*
X300000Y201200D01*
X306000Y196200D02*
X306400Y196600D01*
X306800D01*
X306400Y197000D01*
X306800Y197400D01*
X306400D01*
X306000Y197800D01*
X305600Y197400D01*
X305200D01*
X305600Y197000D01*
X305200Y196600D01*
X305600D01*
X306000Y196200D01*
X279500Y202700D02*
X279900Y203100D01*
X280300D01*
X279900Y203500D01*
X280300Y203900D01*
X279900D01*
X279500Y204300D01*
X279100Y203900D01*
X278700D01*
X279100Y203500D01*
X278700Y203100D01*
X279100D01*
X279500Y202700D01*
X275500Y195200D02*
X275900Y195600D01*
X276300D01*
X275900Y196000D01*
X276300Y196400D01*
X275900D01*
X275500Y196800D01*
X275100Y196400D01*
X274700D01*
X275100Y196000D01*
X274700Y195600D01*
X275100D01*
X275500Y195200D01*
X286500Y196700D02*
X286900Y197100D01*
X287300D01*
X286900Y197500D01*
X287300Y197900D01*
X286900D01*
X286500Y198300D01*
X286100Y197900D01*
X285700D01*
X286100Y197500D01*
X285700Y197100D01*
X286100D01*
X286500Y196700D01*
X273500Y208700D02*
X273900Y209100D01*
X274300D01*
X273900Y209500D01*
X274300Y209900D01*
X273900D01*
X273500Y210300D01*
X273100Y209900D01*
X272700D01*
X273100Y209500D01*
X272700Y209100D01*
X273100D01*
X273500Y208700D01*
X267500Y211700D02*
X267900Y212100D01*
X268300D01*
X267900Y212500D01*
X268300Y212900D01*
X267900D01*
X267500Y213300D01*
X267100Y212900D01*
X266700D01*
X267100Y212500D01*
X266700Y212100D01*
X267100D01*
X267500Y211700D01*
X179500Y149200D02*
X179900Y149600D01*
X180300D01*
X179900Y150000D01*
X180300Y150400D01*
X179900D01*
X179500Y150800D01*
X179100Y150400D01*
X178700D01*
X179100Y150000D01*
X178700Y149600D01*
X179100D01*
X179500Y149200D01*
X161000Y149700D02*
X161400Y150100D01*
X161800D01*
X161400Y150500D01*
X161800Y150900D01*
X161400D01*
X161000Y151300D01*
X160600Y150900D01*
X160200D01*
X160600Y150500D01*
X160200Y150100D01*
X160600D01*
X161000Y149700D01*
X169500Y148200D02*
X169900Y148600D01*
X170300D01*
X169900Y149000D01*
X170300Y149400D01*
X169900D01*
X169500Y149800D01*
X169100Y149400D01*
X168700D01*
X169100Y149000D01*
X168700Y148600D01*
X169100D01*
X169500Y148200D01*
X120500Y146700D02*
X120900Y147100D01*
X121300D01*
X120900Y147500D01*
X121300Y147900D01*
X120900D01*
X120500Y148300D01*
X120100Y147900D01*
X119700D01*
X120100Y147500D01*
X119700Y147100D01*
X120100D01*
X120500Y146700D01*
X133000Y195200D02*
X133400Y195600D01*
X133800D01*
X133400Y196000D01*
X133800Y196400D01*
X133400D01*
X133000Y196800D01*
X132600Y196400D01*
X132200D01*
X132600Y196000D01*
X132200Y195600D01*
X132600D01*
X133000Y195200D01*
X116000Y191200D02*
X116400Y191600D01*
X116800D01*
X116400Y192000D01*
X116800Y192400D01*
X116400D01*
X116000Y192800D01*
X115600Y192400D01*
X115200D01*
X115600Y192000D01*
X115200Y191600D01*
X115600D01*
X116000Y191200D01*
X91500Y214700D02*
X91900Y215100D01*
X92300D01*
X91900Y215500D01*
X92300Y215900D01*
X91900D01*
X91500Y216300D01*
X91100Y215900D01*
X90700D01*
X91100Y215500D01*
X90700Y215100D01*
X91100D01*
X91500Y214700D01*
X70500Y229700D02*
X70900Y230100D01*
X71300D01*
X70900Y230500D01*
X71300Y230900D01*
X70900D01*
X70500Y231300D01*
X70100Y230900D01*
X69700D01*
X70100Y230500D01*
X69700Y230100D01*
X70100D01*
X70500Y229700D01*
X42500Y230200D02*
X42900Y230600D01*
X43300D01*
X42900Y231000D01*
X43300Y231400D01*
X42900D01*
X42500Y231800D01*
X42100Y231400D01*
X41700D01*
X42100Y231000D01*
X41700Y230600D01*
X42100D01*
X42500Y230200D01*
X49500Y243200D02*
X49900Y243600D01*
X50300D01*
X49900Y244000D01*
X50300Y244400D01*
X49900D01*
X49500Y244800D01*
X49100Y244400D01*
X48700D01*
X49100Y244000D01*
X48700Y243600D01*
X49100D01*
X49500Y243200D01*
X47500Y226200D02*
X47900Y226600D01*
X48300D01*
X47900Y227000D01*
X48300Y227400D01*
X47900D01*
X47500Y227800D01*
X47100Y227400D01*
X46700D01*
X47100Y227000D01*
X46700Y226600D01*
X47100D01*
X47500Y226200D01*
X10500Y227700D02*
X10900Y228100D01*
X11300D01*
X10900Y228500D01*
X11300Y228900D01*
X10900D01*
X10500Y229300D01*
X10100Y228900D01*
X9700D01*
X10100Y228500D01*
X9700Y228100D01*
X10100D01*
X10500Y227700D01*
X11500Y211700D02*
X11900Y212100D01*
X12300D01*
X11900Y212500D01*
X12300Y212900D01*
X11900D01*
X11500Y213300D01*
X11100Y212900D01*
X10700D01*
X11100Y212500D01*
X10700Y212100D01*
X11100D01*
X11500Y211700D01*
X15500Y199200D02*
X15900Y199600D01*
X16300D01*
X15900Y200000D01*
X16300Y200400D01*
X15900D01*
X15500Y200800D01*
X15100Y200400D01*
X14700D01*
X15100Y200000D01*
X14700Y199600D01*
X15100D01*
X15500Y199200D01*
X57500Y210700D02*
X57900Y211100D01*
X58300D01*
X57900Y211500D01*
X58300Y211900D01*
X57900D01*
X57500Y212300D01*
X57100Y211900D01*
X56700D01*
X57100Y211500D01*
X56700Y211100D01*
X57100D01*
X57500Y210700D01*
X49000Y212700D02*
X49400Y213100D01*
X49800D01*
X49400Y213500D01*
X49800Y213900D01*
X49400D01*
X49000Y214300D01*
X48600Y213900D01*
X48200D01*
X48600Y213500D01*
X48200Y213100D01*
X48600D01*
X49000Y212700D01*
X48000Y199700D02*
X48400Y200100D01*
X48800D01*
X48400Y200500D01*
X48800Y200900D01*
X48400D01*
X48000Y201300D01*
X47600Y200900D01*
X47200D01*
X47600Y200500D01*
X47200Y200100D01*
X47600D01*
X48000Y199700D01*
X31500Y186200D02*
X31900Y186600D01*
X32300D01*
X31900Y187000D01*
X32300Y187400D01*
X31900D01*
X31500Y187800D01*
X31100Y187400D01*
X30700D01*
X31100Y187000D01*
X30700Y186600D01*
X31100D01*
X31500Y186200D01*
X36500Y188700D02*
X36900Y189100D01*
X37300D01*
X36900Y189500D01*
X37300Y189900D01*
X36900D01*
X36500Y190300D01*
X36100Y189900D01*
X35700D01*
X36100Y189500D01*
X35700Y189100D01*
X36100D01*
X36500Y188700D01*
X7500Y175700D02*
X7900Y176100D01*
X8300D01*
X7900Y176500D01*
X8300Y176900D01*
X7900D01*
X7500Y177300D01*
X7100Y176900D01*
X6700D01*
X7100Y176500D01*
X6700Y176100D01*
X7100D01*
X7500Y175700D01*
X51500Y146200D02*
X51900Y146600D01*
X52300D01*
X51900Y147000D01*
X52300Y147400D01*
X51900D01*
X51500Y147800D01*
X51100Y147400D01*
X50700D01*
X51100Y147000D01*
X50700Y146600D01*
X51100D01*
X51500Y146200D01*
X54500Y134200D02*
X54900Y134600D01*
X55300D01*
X54900Y135000D01*
X55300Y135400D01*
X54900D01*
X54500Y135800D01*
X54100Y135400D01*
X53700D01*
X54100Y135000D01*
X53700Y134600D01*
X54100D01*
X54500Y134200D01*
X29500Y131200D02*
X29900Y131600D01*
X30300D01*
X29900Y132000D01*
X30300Y132400D01*
X29900D01*
X29500Y132800D01*
X29100Y132400D01*
X28700D01*
X29100Y132000D01*
X28700Y131600D01*
X29100D01*
X29500Y131200D01*
X10500Y119200D02*
X10900Y119600D01*
X11300D01*
X10900Y120000D01*
X11300Y120400D01*
X10900D01*
X10500Y120800D01*
X10100Y120400D01*
X9700D01*
X10100Y120000D01*
X9700Y119600D01*
X10100D01*
X10500Y119200D01*
X21000Y114700D02*
X21400Y115100D01*
X21800D01*
X21400Y115500D01*
X21800Y115900D01*
X21400D01*
X21000Y116300D01*
X20600Y115900D01*
X20200D01*
X20600Y115500D01*
X20200Y115100D01*
X20600D01*
X21000Y114700D01*
X49500D02*
X49900Y115100D01*
X50300D01*
X49900Y115500D01*
X50300Y115900D01*
X49900D01*
X49500Y116300D01*
X49100Y115900D01*
X48700D01*
X49100Y115500D01*
X48700Y115100D01*
X49100D01*
X49500Y114700D01*
X62000Y60700D02*
X62400Y61100D01*
X62800D01*
X62400Y61500D01*
X62800Y61900D01*
X62400D01*
X62000Y62300D01*
X61600Y61900D01*
X61200D01*
X61600Y61500D01*
X61200Y61100D01*
X61600D01*
X62000Y60700D01*
X78000Y61200D02*
X78400Y61600D01*
X78800D01*
X78400Y62000D01*
X78800Y62400D01*
X78400D01*
X78000Y62800D01*
X77600Y62400D01*
X77200D01*
X77600Y62000D01*
X77200Y61600D01*
X77600D01*
X78000Y61200D01*
X98000Y62200D02*
X98400Y62600D01*
X98800D01*
X98400Y63000D01*
X98800Y63400D01*
X98400D01*
X98000Y63800D01*
X97600Y63400D01*
X97200D01*
X97600Y63000D01*
X97200Y62600D01*
X97600D01*
X98000Y62200D01*
X116500Y65700D02*
X116900Y66100D01*
X117300D01*
X116900Y66500D01*
X117300Y66900D01*
X116900D01*
X116500Y67300D01*
X116100Y66900D01*
X115700D01*
X116100Y66500D01*
X115700Y66100D01*
X116100D01*
X116500Y65700D01*
X92500Y77200D02*
X92900Y77600D01*
X93300D01*
X92900Y78000D01*
X93300Y78400D01*
X92900D01*
X92500Y78800D01*
X92100Y78400D01*
X91700D01*
X92100Y78000D01*
X91700Y77600D01*
X92100D01*
X92500Y77200D01*
X71500Y76200D02*
X71900Y76600D01*
X72300D01*
X71900Y77000D01*
X72300Y77400D01*
X71900D01*
X71500Y77800D01*
X71100Y77400D01*
X70700D01*
X71100Y77000D01*
X70700Y76600D01*
X71100D01*
X71500Y76200D01*
X92000Y88700D02*
X92400Y89100D01*
X92800D01*
X92400Y89500D01*
X92800Y89900D01*
X92400D01*
X92000Y90300D01*
X91600Y89900D01*
X91200D01*
X91600Y89500D01*
X91200Y89100D01*
X91600D01*
X92000Y88700D01*
X70000Y88200D02*
X70400Y88600D01*
X70800D01*
X70400Y89000D01*
X70800Y89400D01*
X70400D01*
X70000Y89800D01*
X69600Y89400D01*
X69200D01*
X69600Y89000D01*
X69200Y88600D01*
X69600D01*
X70000Y88200D01*
X91000Y101200D02*
X91400Y101600D01*
X91800D01*
X91400Y102000D01*
X91800Y102400D01*
X91400D01*
X91000Y102800D01*
X90600Y102400D01*
X90200D01*
X90600Y102000D01*
X90200Y101600D01*
X90600D01*
X91000Y101200D01*
X73500D02*
X73900Y101600D01*
X74300D01*
X73900Y102000D01*
X74300Y102400D01*
X73900D01*
X73500Y102800D01*
X73100Y102400D01*
X72700D01*
X73100Y102000D01*
X72700Y101600D01*
X73100D01*
X73500Y101200D01*
X92500Y113700D02*
X92900Y114100D01*
X93300D01*
X92900Y114500D01*
X93300Y114900D01*
X92900D01*
X92500Y115300D01*
X92100Y114900D01*
X91700D01*
X92100Y114500D01*
X91700Y114100D01*
X92100D01*
X92500Y113700D01*
X76500Y114200D02*
X76900Y114600D01*
X77300D01*
X76900Y115000D01*
X77300Y115400D01*
X76900D01*
X76500Y115800D01*
X76100Y115400D01*
X75700D01*
X76100Y115000D01*
X75700Y114600D01*
X76100D01*
X76500Y114200D01*
X221000Y90700D02*
X221400Y91100D01*
X221800D01*
X221400Y91500D01*
X221800Y91900D01*
X221400D01*
X221000Y92300D01*
X220600Y91900D01*
X220200D01*
X220600Y91500D01*
X220200Y91100D01*
X220600D01*
X221000Y90700D01*
X183500Y105200D02*
X183900Y105600D01*
X184300D01*
X183900Y106000D01*
X184300Y106400D01*
X183900D01*
X183500Y106800D01*
X183100Y106400D01*
X182700D01*
X183100Y106000D01*
X182700Y105600D01*
X183100D01*
X183500Y105200D01*
X190500Y116700D02*
X190900Y117100D01*
X191300D01*
X190900Y117500D01*
X191300Y117900D01*
X190900D01*
X190500Y118300D01*
X190100Y117900D01*
X189700D01*
X190100Y117500D01*
X189700Y117100D01*
X190100D01*
X190500Y116700D01*
X198500Y120200D02*
X198900Y120600D01*
X199300D01*
X198900Y121000D01*
X199300Y121400D01*
X198900D01*
X198500Y121800D01*
X198100Y121400D01*
X197700D01*
X198100Y121000D01*
X197700Y120600D01*
X198100D01*
X198500Y120200D01*
X229500Y118700D02*
X229900Y119100D01*
X230300D01*
X229900Y119500D01*
X230300Y119900D01*
X229900D01*
X229500Y120300D01*
X229100Y119900D01*
X228700D01*
X229100Y119500D01*
X228700Y119100D01*
X229100D01*
X229500Y118700D01*
X238500D02*
X238900Y119100D01*
X239300D01*
X238900Y119500D01*
X239300Y119900D01*
X238900D01*
X238500Y120300D01*
X238100Y119900D01*
X237700D01*
X238100Y119500D01*
X237700Y119100D01*
X238100D01*
X238500Y118700D01*
X248500Y117200D02*
X248900Y117600D01*
X249300D01*
X248900Y118000D01*
X249300Y118400D01*
X248900D01*
X248500Y118800D01*
X248100Y118400D01*
X247700D01*
X248100Y118000D01*
X247700Y117600D01*
X248100D01*
X248500Y117200D01*
X254000Y112700D02*
X254400Y113100D01*
X254800D01*
X254400Y113500D01*
X254800Y113900D01*
X254400D01*
X254000Y114300D01*
X253600Y113900D01*
X253200D01*
X253600Y113500D01*
X253200Y113100D01*
X253600D01*
X254000Y112700D01*
X249000Y103200D02*
X249400Y103600D01*
X249800D01*
X249400Y104000D01*
X249800Y104400D01*
X249400D01*
X249000Y104800D01*
X248600Y104400D01*
X248200D01*
X248600Y104000D01*
X248200Y103600D01*
X248600D01*
X249000Y103200D01*
X248000Y108700D02*
X248400Y109100D01*
X248800D01*
X248400Y109500D01*
X248800Y109900D01*
X248400D01*
X248000Y110300D01*
X247600Y109900D01*
X247200D01*
X247600Y109500D01*
X247200Y109100D01*
X247600D01*
X248000Y108700D01*
X234000Y103200D02*
X234400Y103600D01*
X234800D01*
X234400Y104000D01*
X234800Y104400D01*
X234400D01*
X234000Y104800D01*
X233600Y104400D01*
X233200D01*
X233600Y104000D01*
X233200Y103600D01*
X233600D01*
X234000Y103200D01*
X241000D02*
X241400Y103600D01*
X241800D01*
X241400Y104000D01*
X241800Y104400D01*
X241400D01*
X241000Y104800D01*
X240600Y104400D01*
X240200D01*
X240600Y104000D01*
X240200Y103600D01*
X240600D01*
X241000Y103200D01*
X175500Y80200D02*
X175900Y80600D01*
X176300D01*
X175900Y81000D01*
X176300Y81400D01*
X175900D01*
X175500Y81800D01*
X175100Y81400D01*
X174700D01*
X175100Y81000D01*
X174700Y80600D01*
X175100D01*
X175500Y80200D01*
X218500Y105700D02*
X218900Y106100D01*
X219300D01*
X218900Y106500D01*
X219300Y106900D01*
X218900D01*
X218500Y107300D01*
X218100Y106900D01*
X217700D01*
X218100Y106500D01*
X217700Y106100D01*
X218100D01*
X218500Y105700D01*
X224500Y103200D02*
X224900Y103600D01*
X225300D01*
X224900Y104000D01*
X225300Y104400D01*
X224900D01*
X224500Y104800D01*
X224100Y104400D01*
X223700D01*
X224100Y104000D01*
X223700Y103600D01*
X224100D01*
X224500Y103200D01*
X222000Y105700D02*
X222400Y106100D01*
X222800D01*
X222400Y106500D01*
X222800Y106900D01*
X222400D01*
X222000Y107300D01*
X221600Y106900D01*
X221200D01*
X221600Y106500D01*
X221200Y106100D01*
X221600D01*
X222000Y105700D01*
X213500D02*
X213900Y106100D01*
X214300D01*
X213900Y106500D01*
X214300Y106900D01*
X213900D01*
X213500Y107300D01*
X213100Y106900D01*
X212700D01*
X213100Y106500D01*
X212700Y106100D01*
X213100D01*
X213500Y105700D01*
X124000Y499200D02*
X124400Y499600D01*
X124800D01*
X124400Y500000D01*
X124800Y500400D01*
X124400D01*
X124000Y500800D01*
X123600Y500400D01*
X123200D01*
X123600Y500000D01*
X123200Y499600D01*
X123600D01*
X124000Y499200D01*
X114250D02*
X114650Y499600D01*
X115050D01*
X114650Y500000D01*
X115050Y500400D01*
X114650D01*
X114250Y500800D01*
X113850Y500400D01*
X113450D01*
X113850Y500000D01*
X113450Y499600D01*
X113850D01*
X114250Y499200D01*
X104500D02*
X104900Y499600D01*
X105300D01*
X104900Y500000D01*
X105300Y500400D01*
X104900D01*
X104500Y500800D01*
X104100Y500400D01*
X103700D01*
X104100Y500000D01*
X103700Y499600D01*
X104100D01*
X104500Y499200D01*
X143500D02*
X143900Y499600D01*
X144300D01*
X143900Y500000D01*
X144300Y500400D01*
X143900D01*
X143500Y500800D01*
X143100Y500400D01*
X142700D01*
X143100Y500000D01*
X142700Y499600D01*
X143100D01*
X143500Y499200D01*
X94750D02*
X95150Y499600D01*
X95550D01*
X95150Y500000D01*
X95550Y500400D01*
X95150D01*
X94750Y500800D01*
X94350Y500400D01*
X93950D01*
X94350Y500000D01*
X93950Y499600D01*
X94350D01*
X94750Y499200D01*
X133750D02*
X134150Y499600D01*
X134550D01*
X134150Y500000D01*
X134550Y500400D01*
X134150D01*
X133750Y500800D01*
X133350Y500400D01*
X132950D01*
X133350Y500000D01*
X132950Y499600D01*
X133350D01*
X133750Y499200D01*
X85000D02*
X85400Y499600D01*
X85800D01*
X85400Y500000D01*
X85800Y500400D01*
X85400D01*
X85000Y500800D01*
X84600Y500400D01*
X84200D01*
X84600Y500000D01*
X84200Y499600D01*
X84600D01*
X85000Y499200D01*
X136000Y29700D02*
X136400Y30100D01*
X136800D01*
X136400Y30500D01*
X136800Y30900D01*
X136400D01*
X136000Y31300D01*
X135600Y30900D01*
X135200D01*
X135600Y30500D01*
X135200Y30100D01*
X135600D01*
X136000Y29700D01*
X126250D02*
X126650Y30100D01*
X127050D01*
X126650Y30500D01*
X127050Y30900D01*
X126650D01*
X126250Y31300D01*
X125850Y30900D01*
X125450D01*
X125850Y30500D01*
X125450Y30100D01*
X125850D01*
X126250Y29700D01*
X116500D02*
X116900Y30100D01*
X117300D01*
X116900Y30500D01*
X117300Y30900D01*
X116900D01*
X116500Y31300D01*
X116100Y30900D01*
X115700D01*
X116100Y30500D01*
X115700Y30100D01*
X116100D01*
X116500Y29700D01*
X155500D02*
X155900Y30100D01*
X156300D01*
X155900Y30500D01*
X156300Y30900D01*
X155900D01*
X155500Y31300D01*
X155100Y30900D01*
X154700D01*
X155100Y30500D01*
X154700Y30100D01*
X155100D01*
X155500Y29700D01*
X106750D02*
X107150Y30100D01*
X107550D01*
X107150Y30500D01*
X107550Y30900D01*
X107150D01*
X106750Y31300D01*
X106350Y30900D01*
X105950D01*
X106350Y30500D01*
X105950Y30100D01*
X106350D01*
X106750Y29700D01*
X145750D02*
X146150Y30100D01*
X146550D01*
X146150Y30500D01*
X146550Y30900D01*
X146150D01*
X145750Y31300D01*
X145350Y30900D01*
X144950D01*
X145350Y30500D01*
X144950Y30100D01*
X145350D01*
X145750Y29700D01*
X97000D02*
X97400Y30100D01*
X97800D01*
X97400Y30500D01*
X97800Y30900D01*
X97400D01*
X97000Y31300D01*
X96600Y30900D01*
X96200D01*
X96600Y30500D01*
X96200Y30100D01*
X96600D01*
X97000Y29700D01*
X180000Y215200D02*
X180400Y215600D01*
X180800D01*
X180400Y216000D01*
X180800Y216400D01*
X180400D01*
X180000Y216800D01*
X179600Y216400D01*
X179200D01*
X179600Y216000D01*
X179200Y215600D01*
X179600D01*
X180000Y215200D01*
X170250D02*
X170650Y215600D01*
X171050D01*
X170650Y216000D01*
X171050Y216400D01*
X170650D01*
X170250Y216800D01*
X169850Y216400D01*
X169450D01*
X169850Y216000D01*
X169450Y215600D01*
X169850D01*
X170250Y215200D01*
X160500D02*
X160900Y215600D01*
X161300D01*
X160900Y216000D01*
X161300Y216400D01*
X160900D01*
X160500Y216800D01*
X160100Y216400D01*
X159700D01*
X160100Y216000D01*
X159700Y215600D01*
X160100D01*
X160500Y215200D01*
X199500D02*
X199900Y215600D01*
X200300D01*
X199900Y216000D01*
X200300Y216400D01*
X199900D01*
X199500Y216800D01*
X199100Y216400D01*
X198700D01*
X199100Y216000D01*
X198700Y215600D01*
X199100D01*
X199500Y215200D01*
X150750D02*
X151150Y215600D01*
X151550D01*
X151150Y216000D01*
X151550Y216400D01*
X151150D01*
X150750Y216800D01*
X150350Y216400D01*
X149950D01*
X150350Y216000D01*
X149950Y215600D01*
X150350D01*
X150750Y215200D01*
X189750D02*
X190150Y215600D01*
X190550D01*
X190150Y216000D01*
X190550Y216400D01*
X190150D01*
X189750Y216800D01*
X189350Y216400D01*
X188950D01*
X189350Y216000D01*
X188950Y215600D01*
X189350D01*
X189750Y215200D01*
X141000D02*
X141400Y215600D01*
X141800D01*
X141400Y216000D01*
X141800Y216400D01*
X141400D01*
X141000Y216800D01*
X140600Y216400D01*
X140200D01*
X140600Y216000D01*
X140200Y215600D01*
X140600D01*
X141000Y215200D01*
X166500Y292700D02*
X166900Y293100D01*
X167300D01*
X166900Y293500D01*
X167300Y293900D01*
X166900D01*
X166500Y294300D01*
X166100Y293900D01*
X165700D01*
X166100Y293500D01*
X165700Y293100D01*
X166100D01*
X166500Y292700D01*
X156750D02*
X157150Y293100D01*
X157550D01*
X157150Y293500D01*
X157550Y293900D01*
X157150D01*
X156750Y294300D01*
X156350Y293900D01*
X155950D01*
X156350Y293500D01*
X155950Y293100D01*
X156350D01*
X156750Y292700D01*
X147000D02*
X147400Y293100D01*
X147800D01*
X147400Y293500D01*
X147800Y293900D01*
X147400D01*
X147000Y294300D01*
X146600Y293900D01*
X146200D01*
X146600Y293500D01*
X146200Y293100D01*
X146600D01*
X147000Y292700D01*
X186000D02*
X186400Y293100D01*
X186800D01*
X186400Y293500D01*
X186800Y293900D01*
X186400D01*
X186000Y294300D01*
X185600Y293900D01*
X185200D01*
X185600Y293500D01*
X185200Y293100D01*
X185600D01*
X186000Y292700D01*
X137250D02*
X137650Y293100D01*
X138050D01*
X137650Y293500D01*
X138050Y293900D01*
X137650D01*
X137250Y294300D01*
X136850Y293900D01*
X136450D01*
X136850Y293500D01*
X136450Y293100D01*
X136850D01*
X137250Y292700D01*
X176250D02*
X176650Y293100D01*
X177050D01*
X176650Y293500D01*
X177050Y293900D01*
X176650D01*
X176250Y294300D01*
X175850Y293900D01*
X175450D01*
X175850Y293500D01*
X175450Y293100D01*
X175850D01*
X176250Y292700D01*
X127500D02*
X127900Y293100D01*
X128300D01*
X127900Y293500D01*
X128300Y293900D01*
X127900D01*
X127500Y294300D01*
X127100Y293900D01*
X126700D01*
X127100Y293500D01*
X126700Y293100D01*
X127100D01*
X127500Y292700D01*
X168000Y346200D02*
X168400Y346600D01*
X168800D01*
X168400Y347000D01*
X168800Y347400D01*
X168400D01*
X168000Y347800D01*
X167600Y347400D01*
X167200D01*
X167600Y347000D01*
X167200Y346600D01*
X167600D01*
X168000Y346200D01*
X158250D02*
X158650Y346600D01*
X159050D01*
X158650Y347000D01*
X159050Y347400D01*
X158650D01*
X158250Y347800D01*
X157850Y347400D01*
X157450D01*
X157850Y347000D01*
X157450Y346600D01*
X157850D01*
X158250Y346200D01*
X148500D02*
X148900Y346600D01*
X149300D01*
X148900Y347000D01*
X149300Y347400D01*
X148900D01*
X148500Y347800D01*
X148100Y347400D01*
X147700D01*
X148100Y347000D01*
X147700Y346600D01*
X148100D01*
X148500Y346200D01*
X187500D02*
X187900Y346600D01*
X188300D01*
X187900Y347000D01*
X188300Y347400D01*
X187900D01*
X187500Y347800D01*
X187100Y347400D01*
X186700D01*
X187100Y347000D01*
X186700Y346600D01*
X187100D01*
X187500Y346200D01*
X138750D02*
X139150Y346600D01*
X139550D01*
X139150Y347000D01*
X139550Y347400D01*
X139150D01*
X138750Y347800D01*
X138350Y347400D01*
X137950D01*
X138350Y347000D01*
X137950Y346600D01*
X138350D01*
X138750Y346200D01*
X177750D02*
X178150Y346600D01*
X178550D01*
X178150Y347000D01*
X178550Y347400D01*
X178150D01*
X177750Y347800D01*
X177350Y347400D01*
X176950D01*
X177350Y347000D01*
X176950Y346600D01*
X177350D01*
X177750Y346200D01*
X129000D02*
X129400Y346600D01*
X129800D01*
X129400Y347000D01*
X129800Y347400D01*
X129400D01*
X129000Y347800D01*
X128600Y347400D01*
X128200D01*
X128600Y347000D01*
X128200Y346600D01*
X128600D01*
X129000Y346200D01*
X168000Y377700D02*
X168400Y378100D01*
X168800D01*
X168400Y378500D01*
X168800Y378900D01*
X168400D01*
X168000Y379300D01*
X167600Y378900D01*
X167200D01*
X167600Y378500D01*
X167200Y378100D01*
X167600D01*
X168000Y377700D01*
X158250D02*
X158650Y378100D01*
X159050D01*
X158650Y378500D01*
X159050Y378900D01*
X158650D01*
X158250Y379300D01*
X157850Y378900D01*
X157450D01*
X157850Y378500D01*
X157450Y378100D01*
X157850D01*
X158250Y377700D01*
X148500D02*
X148900Y378100D01*
X149300D01*
X148900Y378500D01*
X149300Y378900D01*
X148900D01*
X148500Y379300D01*
X148100Y378900D01*
X147700D01*
X148100Y378500D01*
X147700Y378100D01*
X148100D01*
X148500Y377700D01*
X187500D02*
X187900Y378100D01*
X188300D01*
X187900Y378500D01*
X188300Y378900D01*
X187900D01*
X187500Y379300D01*
X187100Y378900D01*
X186700D01*
X187100Y378500D01*
X186700Y378100D01*
X187100D01*
X187500Y377700D01*
X138750D02*
X139150Y378100D01*
X139550D01*
X139150Y378500D01*
X139550Y378900D01*
X139150D01*
X138750Y379300D01*
X138350Y378900D01*
X137950D01*
X138350Y378500D01*
X137950Y378100D01*
X138350D01*
X138750Y377700D01*
X177750D02*
X178150Y378100D01*
X178550D01*
X178150Y378500D01*
X178550Y378900D01*
X178150D01*
X177750Y379300D01*
X177350Y378900D01*
X176950D01*
X177350Y378500D01*
X176950Y378100D01*
X177350D01*
X177750Y377700D01*
X129000D02*
X129400Y378100D01*
X129800D01*
X129400Y378500D01*
X129800Y378900D01*
X129400D01*
X129000Y379300D01*
X128600Y378900D01*
X128200D01*
X128600Y378500D01*
X128200Y378100D01*
X128600D01*
X129000Y377700D01*
X168000Y409200D02*
X168400Y409600D01*
X168800D01*
X168400Y410000D01*
X168800Y410400D01*
X168400D01*
X168000Y410800D01*
X167600Y410400D01*
X167200D01*
X167600Y410000D01*
X167200Y409600D01*
X167600D01*
X168000Y409200D01*
X158250D02*
X158650Y409600D01*
X159050D01*
X158650Y410000D01*
X159050Y410400D01*
X158650D01*
X158250Y410800D01*
X157850Y410400D01*
X157450D01*
X157850Y410000D01*
X157450Y409600D01*
X157850D01*
X158250Y409200D01*
X148500D02*
X148900Y409600D01*
X149300D01*
X148900Y410000D01*
X149300Y410400D01*
X148900D01*
X148500Y410800D01*
X148100Y410400D01*
X147700D01*
X148100Y410000D01*
X147700Y409600D01*
X148100D01*
X148500Y409200D01*
X187500D02*
X187900Y409600D01*
X188300D01*
X187900Y410000D01*
X188300Y410400D01*
X187900D01*
X187500Y410800D01*
X187100Y410400D01*
X186700D01*
X187100Y410000D01*
X186700Y409600D01*
X187100D01*
X187500Y409200D01*
X138750D02*
X139150Y409600D01*
X139550D01*
X139150Y410000D01*
X139550Y410400D01*
X139150D01*
X138750Y410800D01*
X138350Y410400D01*
X137950D01*
X138350Y410000D01*
X137950Y409600D01*
X138350D01*
X138750Y409200D01*
X177750D02*
X178150Y409600D01*
X178550D01*
X178150Y410000D01*
X178550Y410400D01*
X178150D01*
X177750Y410800D01*
X177350Y410400D01*
X176950D01*
X177350Y410000D01*
X176950Y409600D01*
X177350D01*
X177750Y409200D01*
X129000D02*
X129400Y409600D01*
X129800D01*
X129400Y410000D01*
X129800Y410400D01*
X129400D01*
X129000Y410800D01*
X128600Y410400D01*
X128200D01*
X128600Y410000D01*
X128200Y409600D01*
X128600D01*
X129000Y409200D01*
X249386Y319350D02*
X249786Y320150D01*
X249386Y320950D01*
X250186Y320550D01*
X250986Y320950D01*
X250586Y320150D01*
X250986Y319350D01*
X250186Y319750D01*
X249386Y319350D01*
X232500Y95200D02*
X232900Y95600D01*
X233300D01*
X232900Y96000D01*
X233300Y96400D01*
X232900D01*
X232500Y96800D01*
X232100Y96400D01*
X231700D01*
X232100Y96000D01*
X231700Y95600D01*
X232100D01*
X232500Y95200D01*
X176500Y88700D02*
X176900Y89100D01*
X177300D01*
X176900Y89500D01*
X177300Y89900D01*
X176900D01*
X176500Y90300D01*
X176100Y89900D01*
X175700D01*
X176100Y89500D01*
X175700Y89100D01*
X176100D01*
X176500Y88700D01*
X176000Y95200D02*
X176400Y95600D01*
X176800D01*
X176400Y96000D01*
X176800Y96400D01*
X176400D01*
X176000Y96800D01*
X175600Y96400D01*
X175200D01*
X175600Y96000D01*
X175200Y95600D01*
X175600D01*
X176000Y95200D01*
X187500Y103700D02*
X187900Y104100D01*
X188300D01*
X187900Y104500D01*
X188300Y104900D01*
X187900D01*
X187500Y105300D01*
X187100Y104900D01*
X186700D01*
X187100Y104500D01*
X186700Y104100D01*
X187100D01*
X187500Y103700D01*
X190000Y106200D02*
X190400Y106600D01*
X190800D01*
X190400Y107000D01*
X190800Y107400D01*
X190400D01*
X190000Y107800D01*
X189600Y107400D01*
X189200D01*
X189600Y107000D01*
X189200Y106600D01*
X189600D01*
X190000Y106200D01*
X141604Y95519D02*
X142004Y95919D01*
X142404D01*
X142004Y96319D01*
X142404Y96719D01*
X142004D01*
X141604Y97119D01*
X141204Y96719D01*
X140804D01*
X141204Y96319D01*
X140804Y95919D01*
X141204D01*
X141604Y95519D01*
X196431Y60121D02*
X196831Y60521D01*
X197231D01*
X196831Y60921D01*
X197231Y61321D01*
X196831D01*
X196431Y61721D01*
X196031Y61321D01*
X195631D01*
X196031Y60921D01*
X195631Y60521D01*
X196031D01*
X196431Y60121D01*
X157326Y80440D02*
X157726Y80840D01*
X158126D01*
X157726Y81240D01*
X158126Y81640D01*
X157726D01*
X157326Y82040D01*
X156926Y81640D01*
X156526D01*
X156926Y81240D01*
X156526Y80840D01*
X156926D01*
X157326Y80440D01*
X140270Y70009D02*
X140670Y70409D01*
X141070D01*
X140670Y70809D01*
X141070Y71209D01*
X140670D01*
X140270Y71609D01*
X139870Y71209D01*
X139470D01*
X139870Y70809D01*
X139470Y70409D01*
X139870D01*
X140270Y70009D01*
X140319Y78413D02*
X140719Y78813D01*
X141119D01*
X140719Y79213D01*
X141119Y79613D01*
X140719D01*
X140319Y80013D01*
X139919Y79613D01*
X139519D01*
X139919Y79213D01*
X139519Y78813D01*
X139919D01*
X140319Y78413D01*
X140467Y84000D02*
X140867Y84400D01*
X141267D01*
X140867Y84800D01*
X141267Y85200D01*
X140867D01*
X140467Y85600D01*
X140067Y85200D01*
X139667D01*
X140067Y84800D01*
X139667Y84400D01*
X140067D01*
X140467Y84000D01*
X58647Y23240D02*
X59047Y23640D01*
X59447D01*
X59047Y24040D01*
X59447Y24440D01*
X59047D01*
X58647Y24840D01*
X58247Y24440D01*
X57847D01*
X58247Y24040D01*
X57847Y23640D01*
X58247D01*
X58647Y23240D01*
X49847Y23586D02*
X50247Y23987D01*
X50647D01*
X50247Y24386D01*
X50647Y24787D01*
X50247D01*
X49847Y25186D01*
X49447Y24787D01*
X49047D01*
X49447Y24386D01*
X49047Y23987D01*
X49447D01*
X49847Y23586D01*
X42975Y23092D02*
X43375Y23492D01*
X43775D01*
X43375Y23892D01*
X43775Y24292D01*
X43375D01*
X42975Y24692D01*
X42575Y24292D01*
X42175D01*
X42575Y23892D01*
X42175Y23492D01*
X42575D01*
X42975Y23092D01*
X210600Y113100D02*
Y112700D01*
X211400D01*
Y113100D01*
X211800D01*
Y113900D01*
X211400D01*
Y114300D01*
X210600D01*
Y113900D01*
X210200D01*
Y113100D01*
X210600D01*
X211100Y135600D02*
Y135200D01*
X211900D01*
Y135600D01*
X212300D01*
Y136400D01*
X211900D01*
Y136800D01*
X211100D01*
Y136400D01*
X210700D01*
Y135600D01*
X211100D01*
X174000Y130200D02*
X174400Y130600D01*
X174800D01*
X174400Y131000D01*
X174800Y131400D01*
X174400D01*
X174000Y131800D01*
X173600Y131400D01*
X173200D01*
X173600Y131000D01*
X173200Y130600D01*
X173600D01*
X174000Y130200D01*
X170500Y131700D02*
X170900Y132100D01*
X171300D01*
X170900Y132500D01*
X171300Y132900D01*
X170900D01*
X170500Y133300D01*
X170100Y132900D01*
X169700D01*
X170100Y132500D01*
X169700Y132100D01*
X170100D01*
X170500Y131700D01*
X256500Y127200D02*
X256900Y127600D01*
X257300D01*
X256900Y128000D01*
X257300Y128400D01*
X256900D01*
X256500Y128800D01*
X256100Y128400D01*
X255700D01*
X256100Y128000D01*
X255700Y127600D01*
X256100D01*
X256500Y127200D01*
X253500Y124700D02*
X253900Y125100D01*
X254300D01*
X253900Y125500D01*
X254300Y125900D01*
X253900D01*
X253500Y126300D01*
X253100Y125900D01*
X252700D01*
X253100Y125500D01*
X252700Y125100D01*
X253100D01*
X253500Y124700D01*
X229000Y130200D02*
X229400Y130600D01*
X229800D01*
X229400Y131000D01*
X229800Y131400D01*
X229400D01*
X229000Y131800D01*
X228600Y131400D01*
X228200D01*
X228600Y131000D01*
X228200Y130600D01*
X228600D01*
X229000Y130200D01*
X261500Y188200D02*
X261900Y188600D01*
X262300D01*
X261900Y189000D01*
X262300Y189400D01*
X261900D01*
X261500Y189800D01*
X261100Y189400D01*
X260700D01*
X261100Y189000D01*
X260700Y188600D01*
X261100D01*
X261500Y188200D01*
X257500Y189700D02*
X257900Y190100D01*
X258300D01*
X257900Y190500D01*
X258300Y190900D01*
X257900D01*
X257500Y191300D01*
X257100Y190900D01*
X256700D01*
X257100Y190500D01*
X256700Y190100D01*
X257100D01*
X257500Y189700D01*
X208500Y105200D02*
X208900Y105600D01*
X209300D01*
X208900Y106000D01*
X209300Y106400D01*
X208900D01*
X208500Y106800D01*
X208100Y106400D01*
X207700D01*
X208100Y106000D01*
X207700Y105600D01*
X208100D01*
X208500Y105200D01*
X71000Y206200D02*
X71400Y206600D01*
X71800D01*
X71400Y207000D01*
X71800Y207400D01*
X71400D01*
X71000Y207800D01*
X70600Y207400D01*
X70200D01*
X70600Y207000D01*
X70200Y206600D01*
X70600D01*
X71000Y206200D01*
X80000Y201200D02*
X80400Y201600D01*
X80800D01*
X80400Y202000D01*
X80800Y202400D01*
X80400D01*
X80000Y202800D01*
X79600Y202400D01*
X79200D01*
X79600Y202000D01*
X79200Y201600D01*
X79600D01*
X80000Y201200D01*
X219700Y53200D02*
X220100D01*
X220500Y53600D01*
X220900Y53200D01*
X221300D01*
Y53600D01*
X220900Y54000D01*
X221300Y54400D01*
Y54800D01*
X220900D01*
X220500Y54400D01*
X220100Y54800D01*
X219700D01*
Y54400D01*
X220100Y54000D01*
X219700Y53600D01*
Y53200D01*
X187000Y45700D02*
X187400Y46100D01*
X187800D01*
X187400Y46500D01*
X187800Y46900D01*
X187400D01*
X187000Y47300D01*
X186600Y46900D01*
X186200D01*
X186600Y46500D01*
X186200Y46100D01*
X186600D01*
X187000Y45700D01*
X194894Y45806D02*
X195294Y46206D01*
X195694D01*
X195294Y46606D01*
X195694Y47006D01*
X195294D01*
X194894Y47406D01*
X194494Y47006D01*
X194094D01*
X194494Y46606D01*
X194094Y46206D01*
X194494D01*
X194894Y45806D01*
X203500Y45700D02*
X203900Y46100D01*
X204300D01*
X203900Y46500D01*
X204300Y46900D01*
X203900D01*
X203500Y47300D01*
X203100Y46900D01*
X202700D01*
X203100Y46500D01*
X202700Y46100D01*
X203100D01*
X203500Y45700D01*
X211000D02*
X211400Y46100D01*
X211800D01*
X211400Y46500D01*
X211800Y46900D01*
X211400D01*
X211000Y47300D01*
X210600Y46900D01*
X210200D01*
X210600Y46500D01*
X210200Y46100D01*
X210600D01*
X211000Y45700D01*
X60200Y265200D02*
X60600Y266000D01*
X60200Y266800D01*
X61000Y266400D01*
X61800Y266800D01*
X61400Y266000D01*
X61800Y265200D01*
X61000Y265600D01*
X60200Y265200D01*
X172700Y460700D02*
X173100Y461500D01*
X172700Y462300D01*
X173500Y461900D01*
X174300Y462300D01*
X173900Y461500D01*
X174300Y460700D01*
X173500Y461100D01*
X172700Y460700D01*
X233200D02*
X233600Y461500D01*
X233200Y462300D01*
X234000Y461900D01*
X234800Y462300D01*
X234400Y461500D01*
X234800Y460700D01*
X234000Y461100D01*
X233200Y460700D01*
X251527Y157000D02*
X252327Y157800D01*
X253127Y157000D01*
X252327Y156200D01*
X251527Y157000D01*
X227700D02*
X228500Y157800D01*
X229300Y157000D01*
X228500Y156200D01*
X227700Y157000D01*
X110700Y152500D02*
X111500Y153300D01*
X112300Y152500D01*
X111500Y151700D01*
X110700Y152500D01*
X58200Y152000D02*
X59000Y152800D01*
X59800Y152000D01*
X59000Y151200D01*
X58200Y152000D01*
X78000Y159700D02*
X78400Y160100D01*
X78800D01*
X78400Y160500D01*
X78800Y160900D01*
X78400D01*
X78000Y161300D01*
X77600Y160900D01*
X77200D01*
X77600Y160500D01*
X77200Y160100D01*
X77600D01*
X78000Y159700D01*
X85000Y195200D02*
X85400Y195600D01*
X85800D01*
X85400Y196000D01*
X85800Y196400D01*
X85400D01*
X85000Y196800D01*
X84600Y196400D01*
X84200D01*
X84600Y196000D01*
X84200Y195600D01*
X84600D01*
X85000Y195200D01*
X171500Y80700D02*
X171900Y81100D01*
X172300D01*
X171900Y81500D01*
X172300Y81900D01*
X171900D01*
X171500Y82300D01*
X171100Y81900D01*
X170700D01*
X171100Y81500D01*
X170700Y81100D01*
X171100D01*
X171500Y80700D01*
X94000Y192200D02*
X94400Y192600D01*
X94800D01*
X94400Y193000D01*
X94800Y193400D01*
X94400D01*
X94000Y193800D01*
X93600Y193400D01*
X93200D01*
X93600Y193000D01*
X93200Y192600D01*
X93600D01*
X94000Y192200D01*
X93500Y186700D02*
X93900Y187100D01*
X94300D01*
X93900Y187500D01*
X94300Y187900D01*
X93900D01*
X93500Y188300D01*
X93100Y187900D01*
X92700D01*
X93100Y187500D01*
X92700Y187100D01*
X93100D01*
X93500Y186700D01*
X163500Y81200D02*
X163900Y81600D01*
X164300D01*
X163900Y82000D01*
X164300Y82400D01*
X163900D01*
X163500Y82800D01*
X163100Y82400D01*
X162700D01*
X163100Y82000D01*
X162700Y81600D01*
X163100D01*
X163500Y81200D01*
X87500Y189700D02*
X87900Y190100D01*
X88300D01*
X87900Y190500D01*
X88300Y190900D01*
X87900D01*
X87500Y191300D01*
X87100Y190900D01*
X86700D01*
X87100Y190500D01*
X86700Y190100D01*
X87100D01*
X87500Y189700D01*
X68500Y182200D02*
X68900Y182600D01*
X69300D01*
X68900Y183000D01*
X69300Y183400D01*
X68900D01*
X68500Y183800D01*
X68100Y183400D01*
X67700D01*
X68100Y183000D01*
X67700Y182600D01*
X68100D01*
X68500Y182200D01*
X156213Y100487D02*
X156613Y100887D01*
X157013D01*
X156613Y101287D01*
X157013Y101687D01*
X156613D01*
X156213Y102087D01*
X155813Y101687D01*
X155413D01*
X155813Y101287D01*
X155413Y100887D01*
X155813D01*
X156213Y100487D01*
X158500Y94200D02*
X158900Y94600D01*
X159300D01*
X158900Y95000D01*
X159300Y95400D01*
X158900D01*
X158500Y95800D01*
X158100Y95400D01*
X157700D01*
X158100Y95000D01*
X157700Y94600D01*
X158100D01*
X158500Y94200D01*
X166000Y68200D02*
X166400Y68600D01*
X166800D01*
X166400Y69000D01*
X166800Y69400D01*
X166400D01*
X166000Y69800D01*
X165600Y69400D01*
X165200D01*
X165600Y69000D01*
X165200Y68600D01*
X165600D01*
X166000Y68200D01*
X171500D02*
X171900Y68600D01*
X172300D01*
X171900Y69000D01*
X172300Y69400D01*
X171900D01*
X171500Y69800D01*
X171100Y69400D01*
X170700D01*
X171100Y69000D01*
X170700Y68600D01*
X171100D01*
X171500Y68200D01*
X167500Y81700D02*
X167900Y82100D01*
X168300D01*
X167900Y82500D01*
X168300Y82900D01*
X167900D01*
X167500Y83300D01*
X167100Y82900D01*
X166700D01*
X167100Y82500D01*
X166700Y82100D01*
X167100D01*
X167500Y81700D01*
X166700Y61700D02*
X167100D01*
X167500Y62100D01*
X167900Y61700D01*
X168300D01*
Y62100D01*
X167900Y62500D01*
X168300Y62900D01*
Y63300D01*
X167900D01*
X167500Y62900D01*
X167100Y63300D01*
X166700D01*
Y62900D01*
X167100Y62500D01*
X166700Y62100D01*
Y61700D01*
X213500Y65700D02*
X213900Y66100D01*
X214300D01*
X213900Y66500D01*
X214300Y66900D01*
X213900D01*
X213500Y67300D01*
X213100Y66900D01*
X212700D01*
X213100Y66500D01*
X212700Y66100D01*
X213100D01*
X213500Y65700D01*
X217000Y68200D02*
X217400Y68600D01*
X217800D01*
X217400Y69000D01*
X217800Y69400D01*
X217400D01*
X217000Y69800D01*
X216600Y69400D01*
X216200D01*
X216600Y69000D01*
X216200Y68600D01*
X216600D01*
X217000Y68200D01*
X198500Y70700D02*
X198900Y71100D01*
X199300D01*
X198900Y71500D01*
X199300Y71900D01*
X198900D01*
X198500Y72300D01*
X198100Y71900D01*
X197700D01*
X198100Y71500D01*
X197700Y71100D01*
X198100D01*
X198500Y70700D01*
X190500Y76200D02*
X190900Y76600D01*
X191300D01*
X190900Y77000D01*
X191300Y77400D01*
X190900D01*
X190500Y77800D01*
X190100Y77400D01*
X189700D01*
X190100Y77000D01*
X189700Y76600D01*
X190100D01*
X190500Y76200D01*
X194000Y73200D02*
X194400Y73600D01*
X194800D01*
X194400Y74000D01*
X194800Y74400D01*
X194400D01*
X194000Y74800D01*
X193600Y74400D01*
X193200D01*
X193600Y74000D01*
X193200Y73600D01*
X193600D01*
X194000Y73200D01*
X160500Y87700D02*
X160900Y88100D01*
X161300D01*
X160900Y88500D01*
X161300Y88900D01*
X160900D01*
X160500Y89300D01*
X160100Y88900D01*
X159700D01*
X160100Y88500D01*
X159700Y88100D01*
X160100D01*
X160500Y87700D01*
X245517Y87017D02*
X245917Y87417D01*
X246317D01*
X245917Y87817D01*
X246317Y88217D01*
X245917D01*
X245517Y88617D01*
X245117Y88217D01*
X244717D01*
X245117Y87817D01*
X244717Y87417D01*
X245117D01*
X245517Y87017D01*
X240000Y84200D02*
X240400Y84600D01*
X240800D01*
X240400Y85000D01*
X240800Y85400D01*
X240400D01*
X240000Y85800D01*
X239600Y85400D01*
X239200D01*
X239600Y85000D01*
X239200Y84600D01*
X239600D01*
X240000Y84200D01*
X176500D02*
X176900Y84600D01*
X177300D01*
X176900Y85000D01*
X177300Y85400D01*
X176900D01*
X176500Y85800D01*
X176100Y85400D01*
X175700D01*
X176100Y85000D01*
X175700Y84600D01*
X176100D01*
X176500Y84200D01*
X227652Y82485D02*
X228052Y82885D01*
X228452D01*
X228052Y83285D01*
X228452Y83685D01*
X228052D01*
X227652Y84085D01*
X227252Y83685D01*
X226852D01*
X227252Y83285D01*
X226852Y82885D01*
X227252D01*
X227652Y82485D01*
X185409Y78616D02*
X185810Y79016D01*
X186209D01*
X185810Y79416D01*
X186209Y79816D01*
X185810D01*
X185409Y80216D01*
X185010Y79816D01*
X184609D01*
X185010Y79416D01*
X184609Y79016D01*
X185010D01*
X185409Y78616D01*
X214519Y79399D02*
X214919Y79799D01*
X215319D01*
X214919Y80199D01*
X215319Y80599D01*
X214919D01*
X214519Y80999D01*
X214119Y80599D01*
X213719D01*
X214119Y80199D01*
X213719Y79799D01*
X214119D01*
X214519Y79399D01*
X183708Y24068D02*
X184108Y24468D01*
X184508D01*
X184108Y24868D01*
X184508Y25268D01*
X184108D01*
X183708Y25668D01*
X183308Y25268D01*
X182908D01*
X183308Y24868D01*
X182908Y24468D01*
X183308D01*
X183708Y24068D01*
X191695Y24263D02*
X192095Y24664D01*
X192495D01*
X192095Y25063D01*
X192495Y25464D01*
X192095D01*
X191695Y25864D01*
X191295Y25464D01*
X190895D01*
X191295Y25063D01*
X190895Y24664D01*
X191295D01*
X191695Y24263D01*
X199650Y24427D02*
X200050Y24826D01*
X200450D01*
X200050Y25227D01*
X200450Y25627D01*
X200050D01*
X199650Y26026D01*
X199250Y25627D01*
X198850D01*
X199250Y25227D01*
X198850Y24826D01*
X199250D01*
X199650Y24427D01*
X16500Y463200D02*
X16900Y463600D01*
X17300D01*
X16900Y464000D01*
X17300Y464400D01*
X16900D01*
X16500Y464800D01*
X16100Y464400D01*
X15700D01*
X16100Y464000D01*
X15700Y463600D01*
X16100D01*
X16500Y463200D01*
X65250D02*
X65650Y463600D01*
X66050D01*
X65650Y464000D01*
X66050Y464400D01*
X65650D01*
X65250Y464800D01*
X64850Y464400D01*
X64450D01*
X64850Y464000D01*
X64450Y463600D01*
X64850D01*
X65250Y463200D01*
X26250D02*
X26650Y463600D01*
X27050D01*
X26650Y464000D01*
X27050Y464400D01*
X26650D01*
X26250Y464800D01*
X25850Y464400D01*
X25450D01*
X25850Y464000D01*
X25450Y463600D01*
X25850D01*
X26250Y463200D01*
X75000D02*
X75400Y463600D01*
X75800D01*
X75400Y464000D01*
X75800Y464400D01*
X75400D01*
X75000Y464800D01*
X74600Y464400D01*
X74200D01*
X74600Y464000D01*
X74200Y463600D01*
X74600D01*
X75000Y463200D01*
X36000D02*
X36400Y463600D01*
X36800D01*
X36400Y464000D01*
X36800Y464400D01*
X36400D01*
X36000Y464800D01*
X35600Y464400D01*
X35200D01*
X35600Y464000D01*
X35200Y463600D01*
X35600D01*
X36000Y463200D01*
X45750D02*
X46150Y463600D01*
X46550D01*
X46150Y464000D01*
X46550Y464400D01*
X46150D01*
X45750Y464800D01*
X45350Y464400D01*
X44950D01*
X45350Y464000D01*
X44950Y463600D01*
X45350D01*
X45750Y463200D01*
X55500D02*
X55900Y463600D01*
X56300D01*
X55900Y464000D01*
X56300Y464400D01*
X55900D01*
X55500Y464800D01*
X55100Y464400D01*
X54700D01*
X55100Y464000D01*
X54700Y463600D01*
X55100D01*
X55500Y463200D01*
X56000Y431700D02*
X56400Y432100D01*
X56800D01*
X56400Y432500D01*
X56800Y432900D01*
X56400D01*
X56000Y433300D01*
X55600Y432900D01*
X55200D01*
X55600Y432500D01*
X55200Y432100D01*
X55600D01*
X56000Y431700D01*
X46250D02*
X46650Y432100D01*
X47050D01*
X46650Y432500D01*
X47050Y432900D01*
X46650D01*
X46250Y433300D01*
X45850Y432900D01*
X45450D01*
X45850Y432500D01*
X45450Y432100D01*
X45850D01*
X46250Y431700D01*
X36500D02*
X36900Y432100D01*
X37300D01*
X36900Y432500D01*
X37300Y432900D01*
X36900D01*
X36500Y433300D01*
X36100Y432900D01*
X35700D01*
X36100Y432500D01*
X35700Y432100D01*
X36100D01*
X36500Y431700D01*
X75500D02*
X75900Y432100D01*
X76300D01*
X75900Y432500D01*
X76300Y432900D01*
X75900D01*
X75500Y433300D01*
X75100Y432900D01*
X74700D01*
X75100Y432500D01*
X74700Y432100D01*
X75100D01*
X75500Y431700D01*
X26750D02*
X27150Y432100D01*
X27550D01*
X27150Y432500D01*
X27550Y432900D01*
X27150D01*
X26750Y433300D01*
X26350Y432900D01*
X25950D01*
X26350Y432500D01*
X25950Y432100D01*
X26350D01*
X26750Y431700D01*
X65750D02*
X66150Y432100D01*
X66550D01*
X66150Y432500D01*
X66550Y432900D01*
X66150D01*
X65750Y433300D01*
X65350Y432900D01*
X64950D01*
X65350Y432500D01*
X64950Y432100D01*
X65350D01*
X65750Y431700D01*
X17000D02*
X17400Y432100D01*
X17800D01*
X17400Y432500D01*
X17800Y432900D01*
X17400D01*
X17000Y433300D01*
X16600Y432900D01*
X16200D01*
X16600Y432500D01*
X16200Y432100D01*
X16600D01*
X17000Y431700D01*
X56000Y395200D02*
X56400Y395600D01*
X56800D01*
X56400Y396000D01*
X56800Y396400D01*
X56400D01*
X56000Y396800D01*
X55600Y396400D01*
X55200D01*
X55600Y396000D01*
X55200Y395600D01*
X55600D01*
X56000Y395200D01*
X46250D02*
X46650Y395600D01*
X47050D01*
X46650Y396000D01*
X47050Y396400D01*
X46650D01*
X46250Y396800D01*
X45850Y396400D01*
X45450D01*
X45850Y396000D01*
X45450Y395600D01*
X45850D01*
X46250Y395200D01*
X36500D02*
X36900Y395600D01*
X37300D01*
X36900Y396000D01*
X37300Y396400D01*
X36900D01*
X36500Y396800D01*
X36100Y396400D01*
X35700D01*
X36100Y396000D01*
X35700Y395600D01*
X36100D01*
X36500Y395200D01*
X75500D02*
X75900Y395600D01*
X76300D01*
X75900Y396000D01*
X76300Y396400D01*
X75900D01*
X75500Y396800D01*
X75100Y396400D01*
X74700D01*
X75100Y396000D01*
X74700Y395600D01*
X75100D01*
X75500Y395200D01*
X26750D02*
X27150Y395600D01*
X27550D01*
X27150Y396000D01*
X27550Y396400D01*
X27150D01*
X26750Y396800D01*
X26350Y396400D01*
X25950D01*
X26350Y396000D01*
X25950Y395600D01*
X26350D01*
X26750Y395200D01*
X65750D02*
X66150Y395600D01*
X66550D01*
X66150Y396000D01*
X66550Y396400D01*
X66150D01*
X65750Y396800D01*
X65350Y396400D01*
X64950D01*
X65350Y396000D01*
X64950Y395600D01*
X65350D01*
X65750Y395200D01*
X17000D02*
X17400Y395600D01*
X17800D01*
X17400Y396000D01*
X17800Y396400D01*
X17400D01*
X17000Y396800D01*
X16600Y396400D01*
X16200D01*
X16600Y396000D01*
X16200Y395600D01*
X16600D01*
X17000Y395200D01*
X186000Y91200D02*
X186400Y91600D01*
X186800D01*
X186400Y92000D01*
X186800Y92400D01*
X186400D01*
X186000Y92800D01*
X185600Y92400D01*
X185200D01*
X185600Y92000D01*
X185200Y91600D01*
X185600D01*
X186000Y91200D01*
X17000Y322700D02*
X17400Y323100D01*
X17800D01*
X17400Y323500D01*
X17800Y323900D01*
X17400D01*
X17000Y324300D01*
X16600Y323900D01*
X16200D01*
X16600Y323500D01*
X16200Y323100D01*
X16600D01*
X17000Y322700D01*
X65750D02*
X66150Y323100D01*
X66550D01*
X66150Y323500D01*
X66550Y323900D01*
X66150D01*
X65750Y324300D01*
X65350Y323900D01*
X64950D01*
X65350Y323500D01*
X64950Y323100D01*
X65350D01*
X65750Y322700D01*
X26750D02*
X27150Y323100D01*
X27550D01*
X27150Y323500D01*
X27550Y323900D01*
X27150D01*
X26750Y324300D01*
X26350Y323900D01*
X25950D01*
X26350Y323500D01*
X25950Y323100D01*
X26350D01*
X26750Y322700D01*
X75500D02*
X75900Y323100D01*
X76300D01*
X75900Y323500D01*
X76300Y323900D01*
X75900D01*
X75500Y324300D01*
X75100Y323900D01*
X74700D01*
X75100Y323500D01*
X74700Y323100D01*
X75100D01*
X75500Y322700D01*
X36500D02*
X36900Y323100D01*
X37300D01*
X36900Y323500D01*
X37300Y323900D01*
X36900D01*
X36500Y324300D01*
X36100Y323900D01*
X35700D01*
X36100Y323500D01*
X35700Y323100D01*
X36100D01*
X36500Y322700D01*
X46250D02*
X46650Y323100D01*
X47050D01*
X46650Y323500D01*
X47050Y323900D01*
X46650D01*
X46250Y324300D01*
X45850Y323900D01*
X45450D01*
X45850Y323500D01*
X45450Y323100D01*
X45850D01*
X46250Y322700D01*
X56000D02*
X56400Y323100D01*
X56800D01*
X56400Y323500D01*
X56800Y323900D01*
X56400D01*
X56000Y324300D01*
X55600Y323900D01*
X55200D01*
X55600Y323500D01*
X55200Y323100D01*
X55600D01*
X56000Y322700D01*
X17000Y359200D02*
X17400Y359600D01*
X17800D01*
X17400Y360000D01*
X17800Y360400D01*
X17400D01*
X17000Y360800D01*
X16600Y360400D01*
X16200D01*
X16600Y360000D01*
X16200Y359600D01*
X16600D01*
X17000Y359200D01*
X65750D02*
X66150Y359600D01*
X66550D01*
X66150Y360000D01*
X66550Y360400D01*
X66150D01*
X65750Y360800D01*
X65350Y360400D01*
X64950D01*
X65350Y360000D01*
X64950Y359600D01*
X65350D01*
X65750Y359200D01*
X26750D02*
X27150Y359600D01*
X27550D01*
X27150Y360000D01*
X27550Y360400D01*
X27150D01*
X26750Y360800D01*
X26350Y360400D01*
X25950D01*
X26350Y360000D01*
X25950Y359600D01*
X26350D01*
X26750Y359200D01*
X75500D02*
X75900Y359600D01*
X76300D01*
X75900Y360000D01*
X76300Y360400D01*
X75900D01*
X75500Y360800D01*
X75100Y360400D01*
X74700D01*
X75100Y360000D01*
X74700Y359600D01*
X75100D01*
X75500Y359200D01*
X36500D02*
X36900Y359600D01*
X37300D01*
X36900Y360000D01*
X37300Y360400D01*
X36900D01*
X36500Y360800D01*
X36100Y360400D01*
X35700D01*
X36100Y360000D01*
X35700Y359600D01*
X36100D01*
X36500Y359200D01*
X46250D02*
X46650Y359600D01*
X47050D01*
X46650Y360000D01*
X47050Y360400D01*
X46650D01*
X46250Y360800D01*
X45850Y360400D01*
X45450D01*
X45850Y360000D01*
X45450Y359600D01*
X45850D01*
X46250Y359200D01*
X56000D02*
X56400Y359600D01*
X56800D01*
X56400Y360000D01*
X56800Y360400D01*
X56400D01*
X56000Y360800D01*
X55600Y360400D01*
X55200D01*
X55600Y360000D01*
X55200Y359600D01*
X55600D01*
X56000Y359200D01*
X259490Y220778D02*
X259890Y221178D01*
X260290D01*
X259890Y221578D01*
X260290Y221978D01*
X259890D01*
X259490Y222378D01*
X259090Y221978D01*
X258690D01*
X259090Y221578D01*
X258690Y221178D01*
X259090D01*
X259490Y220778D01*
X16937Y185845D02*
X17337Y186245D01*
X17737D01*
X17337Y186645D01*
X17737Y187045D01*
X17337D01*
X16937Y187445D01*
X16537Y187045D01*
X16137D01*
X16537Y186645D01*
X16137Y186245D01*
X16537D01*
X16937Y185845D01*
X74560Y186390D02*
X74960Y186790D01*
X75360D01*
X74960Y187190D01*
X75360Y187590D01*
X74960D01*
X74560Y187990D01*
X74160Y187590D01*
X73760D01*
X74160Y187190D01*
X73760Y186790D01*
X74160D01*
X74560Y186390D01*
X27160Y219918D02*
X27560Y220318D01*
X27960D01*
X27560Y220718D01*
X27960Y221118D01*
X27560D01*
X27160Y221518D01*
X26760Y221118D01*
X26360D01*
X26760Y220718D01*
X26360Y220318D01*
X26760D01*
X27160Y219918D01*
X27026Y212676D02*
X27426Y213076D01*
X27826D01*
X27426Y213476D01*
X27826Y213876D01*
X27426D01*
X27026Y214276D01*
X26626Y213876D01*
X26226D01*
X26626Y213476D01*
X26226Y213076D01*
X26626D01*
X27026Y212676D01*
X240096Y432120D02*
X240496Y432520D01*
X240896D01*
X240496Y432920D01*
X240896Y433320D01*
X240496D01*
X240096Y433720D01*
X239696Y433320D01*
X239296D01*
X239696Y432920D01*
X239296Y432520D01*
X239696D01*
X240096Y432120D01*
X255437Y163762D02*
X255837Y164163D01*
X256237D01*
X255837Y164562D01*
X256237Y164962D01*
X255837D01*
X255437Y165363D01*
X255037Y164962D01*
X254637D01*
X255037Y164562D01*
X254637Y164163D01*
X255037D01*
X255437Y163762D01*
X292035Y166107D02*
X292435Y166507D01*
X292835D01*
X292435Y166907D01*
X292835Y167307D01*
X292435D01*
X292035Y167707D01*
X291635Y167307D01*
X291235D01*
X291635Y166907D01*
X291235Y166507D01*
X291635D01*
X292035Y166107D01*
X180700Y79054D02*
X181100Y79454D01*
X181500D01*
X181100Y79854D01*
X181500Y80254D01*
X181100D01*
X180700Y80654D01*
X180300Y80254D01*
X179900D01*
X180300Y79854D01*
X179900Y79454D01*
X180300D01*
X180700Y79054D01*
X177776Y126822D02*
X178176Y127222D01*
X178576D01*
X178176Y127622D01*
X178576Y128022D01*
X178176D01*
X177776Y128422D01*
X177376Y128022D01*
X176976D01*
X177376Y127622D01*
X176976Y127222D01*
X177376D01*
X177776Y126822D01*
X284835Y74634D02*
X285235Y75034D01*
X285635D01*
X285235Y75434D01*
X285635Y75834D01*
X285235D01*
X284835Y76234D01*
X284435Y75834D01*
X284035D01*
X284435Y75434D01*
X284035Y75034D01*
X284435D01*
X284835Y74634D01*
X274010Y74541D02*
X274410Y74941D01*
X274810D01*
X274410Y75340D01*
X274810Y75740D01*
X274410D01*
X274010Y76140D01*
X273610Y75740D01*
X273210D01*
X273610Y75340D01*
X273210Y74941D01*
X273610D01*
X274010Y74541D01*
D11*
X167707Y320150D02*
G03*
X167707Y320150I-800J0D01*
G01*
Y328024D02*
G03*
X167707Y328024I-800J0D01*
G01*
X159833Y320150D02*
G03*
X159833Y320150I-800J0D01*
G01*
Y328024D02*
G03*
X159833Y328024I-800J0D01*
G01*
X151959Y320150D02*
G03*
X151959Y320150I-800J0D01*
G01*
Y328024D02*
G03*
X151959Y328024I-800J0D01*
G01*
X144085Y320150D02*
G03*
X144085Y320150I-800J0D01*
G01*
Y328024D02*
G03*
X144085Y328024I-800J0D01*
G01*
X129048Y8000D02*
G03*
X129048Y8000I-800J0D01*
G01*
Y15874D02*
G03*
X129048Y15874I-800J0D01*
G01*
X121174Y8000D02*
G03*
X121174Y8000I-800J0D01*
G01*
Y15874D02*
G03*
X121174Y15874I-800J0D01*
G01*
X113300Y8000D02*
G03*
X113300Y8000I-800J0D01*
G01*
Y15874D02*
G03*
X113300Y15874I-800J0D01*
G01*
X105426Y8000D02*
G03*
X105426Y8000I-800J0D01*
G01*
Y15874D02*
G03*
X105426Y15874I-800J0D01*
G01*
X184552Y16000D02*
G03*
X184552Y16000I-800J0D01*
G01*
Y8126D02*
G03*
X184552Y8126I-800J0D01*
G01*
X192426Y16000D02*
G03*
X192426Y16000I-800J0D01*
G01*
Y8126D02*
G03*
X192426Y8126I-800J0D01*
G01*
X200300Y16000D02*
G03*
X200300Y16000I-800J0D01*
G01*
Y8126D02*
G03*
X200300Y8126I-800J0D01*
G01*
X208174Y16000D02*
G03*
X208174Y16000I-800J0D01*
G01*
Y8126D02*
G03*
X208174Y8126I-800J0D01*
G01*
M02*
