M48
;Layer_Color=9474304
;FILE_FORMAT=2:5
INCH,LZ
;TYPE=PLATED
T1F00S00C0.01181
T2F00S00C0.01968
T3F00S00C0.02000
T4F00S00C0.02756
T5F00S00C0.03150
T6F00S00C0.03543
T7F00S00C0.03937
T8F00S00C0.04331
%
T01
X0042975Y0023892
X0049847Y0024386
X0058647Y002404
X0097Y00305
X010675
X01165
X012625
X0136
X014575
X01555
X0183708Y0024868
X0191695Y0025063
X019965Y0025227
X02035Y00465
X0211
X0194894Y0046606
X0187Y00465
X0241Y00145
X0248Y00185
X02655Y00105
X02715Y0028
X027401Y007534
X0284835Y0075434
X02975Y00905
X0303Y00955
X03015Y01065
X03025Y0115
X02935Y0116
X02875Y0107
X03025Y0126
X02725Y0131
X0279Y01405
X0285Y01465
X029Y0155
X0292035Y0166907
X0272Y01565
X0255437Y0164562
X0248Y01465
X02535Y01255
X02565Y0128
X0254Y01135
X02485Y0118
X0248Y01095
X0249Y0104
X0241
X0234
X02245
X0222Y01065
X02185
X02135
X0221Y00915
X0227652Y0083285
X024Y0085
X0245517Y0087817
X0246Y0075
X02545Y0077
X0257Y00845
X0254Y0062
X0224Y00665
X022Y0063
X0217Y0069
X02135Y00665
X0214519Y0080199
X02325Y0096
X02295Y01195
X02385
X0229Y0131
X0238Y0176
X0237Y0204
X0243Y02015
X02575Y01905
X02615Y0189
X02755Y0196
X02795Y02035
X02735Y02095
X0293Y0212
X03Y0202
X0306Y0197
X02865Y01975
X01795Y015
X01695Y0149
X0161Y01505
X01705Y01325
X0174Y0131
X0177776Y0127622
X01905Y01175
X019Y0107
X01875Y01045
X01835Y0106
X0186Y0092
X01765Y00895
Y0085
X01755Y0081
X01715Y00815
X01675Y00825
X01635Y0082
X0157326Y008124
X01605Y00885
X01585Y0095
X0156213Y0101287
X0141604Y0096319
X0140467Y00848
X0140319Y0079213
X014027Y0070809
X0166Y0069
X01715
X01807Y0079854
X0185409Y0079416
X01905Y0077
X0194Y0074
X01985Y00715
X0196431Y0060921
X0176Y0096
X02085Y0106
X01985Y0121
X01205Y01475
X01115Y01645
X00965Y0177
X00935Y01875
X0094Y0193
Y0199
X0085Y0196
X0082Y0192
X00875Y01905
X007456Y018719
X00685Y0183
X00755Y0199
X0076Y0206
X0071Y0207
X008Y0202
X00575Y02115
X0078Y01605
X00765Y0115
X00735Y0102
X007Y0089
X00715Y0077
X0078Y0062
X0062Y00615
X0098Y0063
X00925Y0078
X0092Y00895
X0091Y0102
X00925Y01145
X01165Y00665
X0116Y0192
X0133Y0196
X0048Y02005
X00365Y01895
X00315Y0187
X0016937Y0186645
X00155Y02
X00075Y01765
X00105Y012
X0021Y01155
X00295Y0132
X00545Y0135
X00515Y0147
X00495Y01155
X0049Y02135
X00475Y0227
X00425Y0231
X00495Y0244
X002716Y0220718
X0027026Y0213476
X00115Y02125
X00105Y02285
X0017Y03235
X002675
X00365
X004625
X0056
Y036
X004625
X00365
X002675
X0017
X006575
X00755
Y03235
X006575
X0129Y0347
X013875
X01485
X015825
X0168
X017775
X01875
X0209Y034
X02025Y0306
X0186Y02935
X017625
X01665
X015675
X0147
X013725
X01275
X0141Y0216
X015075
X01605
X017025
X018
X018975
X01995
X02115Y0263
X00915Y02155
X0081Y0218
X00705Y02305
X02405
X0238Y02175
X025949Y0221578
X02675Y02125
X02835Y0231
X0278Y0237
X02555Y02355
X0254Y02445
X02555Y0252
X0271Y0269
X02755Y02835
X02895Y02895
X03025Y0286
X03055Y0319
X02575Y036
X0239Y03575
X0237Y03425
X0221Y0333
X02135Y0356
X0239Y02945
X0225Y02775
X02925Y0224
X03Y023
X03045Y02155
X02825Y039
X0271Y03915
X02295
X0217Y0388
X02265Y03695
X02245Y0424
X0240096Y043292
X02605Y0434
X0262Y04435
X0276Y04525
X02845Y0453
X02955Y04525
X03035Y0452
X0303Y04645
X0295Y0465
X02855
X02765Y04655
X02655Y0468
X0262Y04735
X0238Y0475
X02365Y04825
X02185Y048
X0219Y04865
X0218Y04685
X02315Y0454
X0212Y04515
Y0442
X02105Y0435
X0212Y0424
X01925
X01875Y041
X017775
X0168
X015825
X01485
X013875
X0129
Y03785
X013875
X01485
X015825
X0168
X017775
X01875
X01985Y03875
X0201Y03705
X0185Y04725
X01855Y04795
X01705
X01695Y0473
X01435Y05
X013375
X0124
X011425
X01045
X009475
X0085
X0075Y0464
X006525
X006575Y04325
X00755
Y0396
X006575
X0056
X004625
X00365
X002675
X0017
Y04325
X002675
X00365
X004625
X0056
X00555Y0464
X004575
X0036
X002625
X00165
T02
X02285Y0157
X0252327
X01115Y01525
X0059Y0152
T03
X0211Y01135
X02115Y0136
T04
X02205Y0054
X01675Y00625
T05
X0104626Y0008
X01125
X0120374
X0128248
Y0015874
X0120374
X01125
X0104626
X0183752Y0016
Y0008126
X0191626
X01995
Y0016
X0191626
X0207374
Y0008126
X0166907Y032015
Y0328024
X0159033
X0151159
Y032015
X0159033
X0143285
Y0328024
T06
X0265Y0069
X0275
X0285
X0295
Y0082
X0285
X0275
X0265
X02885Y041
X02985
Y042
X02885
Y043
X02985
Y044
X02885
T07
X0061Y0266
X0250186Y032015
X0234Y04615
X01735
T08
X0242Y03735
X0252
X0262
X0272
M30
