G04 Layer_Color=255*
%FSLAX25Y25*%
%MOIN*%
G70*
G01*
G75*
%ADD18R,0.03000X0.03000*%
%ADD31R,0.05000X0.06000*%
%ADD42R,0.05906X0.05906*%
%ADD43C,0.05906*%
%ADD44C,0.06200*%
%ADD45R,0.06200X0.06200*%
%ADD46C,0.04724*%
%ADD47R,0.04724X0.04724*%
%ADD48O,0.05906X0.09843*%
%ADD49R,0.05906X0.09843*%
D18*
X207406Y46606D02*
D03*
Y53692D02*
D03*
X199462Y46606D02*
D03*
Y53692D02*
D03*
X191654Y46606D02*
D03*
Y53692D02*
D03*
X183696Y46606D02*
D03*
Y53692D02*
D03*
X174500Y46413D02*
D03*
Y53500D02*
D03*
X207378Y35511D02*
D03*
Y28425D02*
D03*
X199491Y35511D02*
D03*
Y28425D02*
D03*
X191603Y35539D02*
D03*
Y28453D02*
D03*
X183749Y35511D02*
D03*
Y28425D02*
D03*
D31*
X167500Y53500D02*
D03*
Y44500D02*
D03*
D42*
X265000Y69000D02*
D03*
Y82000D02*
D03*
D43*
X295000Y69000D02*
D03*
X275000D02*
D03*
X285000D02*
D03*
X295000Y82000D02*
D03*
X275000D02*
D03*
X285000D02*
D03*
D44*
X298500Y440000D02*
D03*
X288500D02*
D03*
X298500Y430000D02*
D03*
X288500D02*
D03*
X298500Y420000D02*
D03*
X288500D02*
D03*
X298500Y410000D02*
D03*
D45*
X288500D02*
D03*
D46*
X207374Y8126D02*
D03*
Y16000D02*
D03*
X199500Y8126D02*
D03*
Y16000D02*
D03*
X191626Y8126D02*
D03*
Y16000D02*
D03*
X183752Y8126D02*
D03*
X104626Y8000D02*
D03*
X112500Y15874D02*
D03*
Y8000D02*
D03*
X120374Y15874D02*
D03*
Y8000D02*
D03*
X128248Y15874D02*
D03*
Y8000D02*
D03*
X143285Y328024D02*
D03*
Y320150D02*
D03*
X151159Y328024D02*
D03*
Y320150D02*
D03*
X159033Y328024D02*
D03*
Y320150D02*
D03*
X166907Y328024D02*
D03*
D47*
X183752Y16000D02*
D03*
X104626Y15874D02*
D03*
X166907Y320150D02*
D03*
D48*
X242000Y373500D02*
D03*
X252000D02*
D03*
X262000D02*
D03*
D49*
X272000D02*
D03*
M02*
