G04 Layer_Color=128*
%FSLAX25Y25*%
%MOIN*%
G70*
G01*
G75*
%ADD10C,0.00200*%
D10*
X269835Y373500D02*
X274165D01*
X272000Y371335D02*
Y375665D01*
X259835Y373500D02*
X264165D01*
X262000Y371335D02*
Y375665D01*
X249835Y373500D02*
X254165D01*
X252000Y371335D02*
Y375665D01*
X239835Y373500D02*
X244165D01*
X242000Y371335D02*
Y375665D01*
X165332Y320150D02*
X168482D01*
X166907Y318575D02*
Y321725D01*
X165332Y328024D02*
X168482D01*
X166907Y326449D02*
Y329599D01*
X157458Y320150D02*
X160608D01*
X159033Y318575D02*
Y321725D01*
X157458Y328024D02*
X160608D01*
X159033Y326449D02*
Y329599D01*
X149584Y320150D02*
X152734D01*
X151159Y318575D02*
Y321725D01*
X149584Y328024D02*
X152734D01*
X151159Y326449D02*
Y329599D01*
X141710Y320150D02*
X144860D01*
X143285Y318575D02*
Y321725D01*
X141710Y328024D02*
X144860D01*
X143285Y326449D02*
Y329599D01*
X126673Y8000D02*
X129823D01*
X128248Y6425D02*
Y9575D01*
X126673Y15874D02*
X129823D01*
X128248Y14299D02*
Y17449D01*
X118799Y8000D02*
X121949D01*
X120374Y6425D02*
Y9575D01*
X118799Y15874D02*
X121949D01*
X120374Y14299D02*
Y17449D01*
X110925Y8000D02*
X114075D01*
X112500Y6425D02*
Y9575D01*
X110925Y15874D02*
X114075D01*
X112500Y14299D02*
Y17449D01*
X103051Y8000D02*
X106201D01*
X104626Y6425D02*
Y9575D01*
X103051Y15874D02*
X106201D01*
X104626Y14299D02*
Y17449D01*
X182177Y16000D02*
X185327D01*
X183752Y14425D02*
Y17575D01*
X182177Y8126D02*
X185327D01*
X183752Y6551D02*
Y9701D01*
X190051Y16000D02*
X193201D01*
X191626Y14425D02*
Y17575D01*
X190051Y8126D02*
X193201D01*
X191626Y6551D02*
Y9701D01*
X197925Y16000D02*
X201075D01*
X199500Y14425D02*
Y17575D01*
X197925Y8126D02*
X201075D01*
X199500Y6551D02*
Y9701D01*
X205799Y16000D02*
X208949D01*
X207374Y14425D02*
Y17575D01*
X205799Y8126D02*
X208949D01*
X207374Y6551D02*
Y9701D01*
X286728Y410000D02*
X290272D01*
X288500Y408228D02*
Y411772D01*
X296728Y410000D02*
X300272D01*
X298500Y408228D02*
Y411772D01*
X286728Y420000D02*
X290272D01*
X288500Y418228D02*
Y421772D01*
X296728Y420000D02*
X300272D01*
X298500Y418228D02*
Y421772D01*
X286728Y430000D02*
X290272D01*
X288500Y428228D02*
Y431772D01*
X296728Y430000D02*
X300272D01*
X298500Y428228D02*
Y431772D01*
X286728Y440000D02*
X290272D01*
X288500Y438228D02*
Y441772D01*
X296728Y440000D02*
X300272D01*
X298500Y438228D02*
Y441772D01*
X283228Y82000D02*
X286772D01*
X285000Y80228D02*
Y83772D01*
X273228Y82000D02*
X276772D01*
X275000Y80228D02*
Y83772D01*
X293228Y82000D02*
X296772D01*
X295000Y80228D02*
Y83772D01*
X263228Y82000D02*
X266772D01*
X265000Y80228D02*
Y83772D01*
X283228Y69000D02*
X286772D01*
X285000Y67228D02*
Y70772D01*
X273228Y69000D02*
X276772D01*
X275000Y67228D02*
Y70772D01*
X293228Y69000D02*
X296772D01*
X295000Y67228D02*
Y70772D01*
X263228Y69000D02*
X266772D01*
X265000Y67228D02*
Y70772D01*
X95910Y177000D02*
X97091D01*
X96500Y176409D02*
Y177591D01*
X110909Y164500D02*
X112091D01*
X111500Y163909D02*
Y165091D01*
X80409Y218000D02*
X81590D01*
X81000Y217409D02*
Y218590D01*
X75410Y206000D02*
X76591D01*
X76000Y205410D02*
Y206591D01*
X74910Y199000D02*
X76091D01*
X75500Y198409D02*
Y199591D01*
X81410Y192000D02*
X82591D01*
X82000Y191409D02*
Y192591D01*
X93410Y199000D02*
X94591D01*
X94000Y198409D02*
Y199591D01*
X210910Y263000D02*
X212090D01*
X211500Y262409D02*
Y263591D01*
X224410Y277500D02*
X225590D01*
X225000Y276909D02*
Y278091D01*
X238409Y294500D02*
X239591D01*
X239000Y293910D02*
Y295091D01*
X201909Y306000D02*
X203091D01*
X202500Y305410D02*
Y306591D01*
X220409Y333000D02*
X221590D01*
X221000Y332410D02*
Y333591D01*
X256909Y360000D02*
X258090D01*
X257500Y359409D02*
Y360591D01*
X238409Y357500D02*
X239591D01*
X239000Y356909D02*
Y358090D01*
X236409Y342500D02*
X237591D01*
X237000Y341910D02*
Y343091D01*
X208410Y340000D02*
X209591D01*
X209000Y339409D02*
Y340591D01*
X212910Y356000D02*
X214090D01*
X213500Y355410D02*
Y356591D01*
X225909Y369500D02*
X227091D01*
X226500Y368910D02*
Y370091D01*
X200409Y370500D02*
X201591D01*
X201000Y369910D02*
Y371091D01*
X228909Y391500D02*
X230090D01*
X229500Y390910D02*
Y392091D01*
X216409Y388000D02*
X217590D01*
X217000Y387409D02*
Y388591D01*
X197909Y387500D02*
X199091D01*
X198500Y386910D02*
Y388090D01*
X270409Y391500D02*
X271590D01*
X271000Y390910D02*
Y392091D01*
X281909Y390000D02*
X283090D01*
X282500Y389409D02*
Y390591D01*
X302909Y452000D02*
X304090D01*
X303500Y451409D02*
Y452591D01*
X294910Y452500D02*
X296091D01*
X295500Y451909D02*
Y453090D01*
X283910Y453000D02*
X285090D01*
X284500Y452410D02*
Y453590D01*
X275410Y452500D02*
X276590D01*
X276000Y451909D02*
Y453090D01*
X302410Y464500D02*
X303590D01*
X303000Y463909D02*
Y465091D01*
X294409Y465000D02*
X295590D01*
X295000Y464409D02*
Y465590D01*
X284910Y465000D02*
X286090D01*
X285500Y464409D02*
Y465590D01*
X275909Y465500D02*
X277091D01*
X276500Y464910D02*
Y466090D01*
X264910Y468000D02*
X266090D01*
X265500Y467410D02*
Y468590D01*
X261409Y473500D02*
X262591D01*
X262000Y472909D02*
Y474090D01*
X261409Y443500D02*
X262591D01*
X262000Y442909D02*
Y444091D01*
X259910Y434000D02*
X261090D01*
X260500Y433410D02*
Y434590D01*
X223909Y424000D02*
X225091D01*
X224500Y423410D02*
Y424590D01*
X191909Y424000D02*
X193091D01*
X192500Y423410D02*
Y424590D01*
X211409Y424000D02*
X212591D01*
X212000Y423410D02*
Y424590D01*
X209910Y435000D02*
X211090D01*
X210500Y434410D02*
Y435591D01*
X211409Y442000D02*
X212591D01*
X212000Y441409D02*
Y442591D01*
X211409Y451500D02*
X212591D01*
X212000Y450910D02*
Y452091D01*
X230909Y454000D02*
X232090D01*
X231500Y453409D02*
Y454591D01*
X237409Y475000D02*
X238591D01*
X238000Y474409D02*
Y475591D01*
X235910Y482500D02*
X237090D01*
X236500Y481910D02*
Y483090D01*
X218409Y486500D02*
X219590D01*
X219000Y485910D02*
Y487090D01*
X217910Y480000D02*
X219091D01*
X218500Y479410D02*
Y480590D01*
X217409Y468500D02*
X218590D01*
X218000Y467909D02*
Y469091D01*
X184409Y472500D02*
X185591D01*
X185000Y471910D02*
Y473091D01*
X168909Y473000D02*
X170091D01*
X169500Y472409D02*
Y473591D01*
X184909Y479500D02*
X186091D01*
X185500Y478909D02*
Y480091D01*
X169909Y479500D02*
X171091D01*
X170500Y478909D02*
Y480091D01*
X270910Y28000D02*
X272091D01*
X271500Y27409D02*
Y28591D01*
X264910Y10500D02*
X266090D01*
X265500Y9909D02*
Y11091D01*
X240409Y14500D02*
X241590D01*
X241000Y13909D02*
Y15090D01*
X247410Y18500D02*
X248590D01*
X248000Y17910D02*
Y19091D01*
X253410Y62000D02*
X254591D01*
X254000Y61409D02*
Y62590D01*
X245409Y75000D02*
X246590D01*
X246000Y74410D02*
Y75590D01*
X256410Y84500D02*
X257591D01*
X257000Y83909D02*
Y85091D01*
X253909Y77000D02*
X255090D01*
X254500Y76410D02*
Y77591D01*
X223410Y66500D02*
X224590D01*
X224000Y65909D02*
Y67090D01*
X219409Y63000D02*
X220590D01*
X220000Y62410D02*
Y63591D01*
X254909Y252000D02*
X256090D01*
X255500Y251410D02*
Y252590D01*
X288910Y289500D02*
X290090D01*
X289500Y288910D02*
Y290090D01*
X301909Y286000D02*
X303091D01*
X302500Y285409D02*
Y286591D01*
X304909Y319000D02*
X306090D01*
X305500Y318409D02*
Y319590D01*
X274909Y283500D02*
X276091D01*
X275500Y282909D02*
Y284090D01*
X270409Y269000D02*
X271590D01*
X271000Y268409D02*
Y269590D01*
X277410Y237000D02*
X278590D01*
X278000Y236409D02*
Y237591D01*
X292910Y116000D02*
X294091D01*
X293500Y115409D02*
Y116591D01*
X296909Y90500D02*
X298091D01*
X297500Y89909D02*
Y91091D01*
X302410Y95500D02*
X303590D01*
X303000Y94910D02*
Y96091D01*
X300909Y106500D02*
X302091D01*
X301500Y105909D02*
Y107091D01*
X286910Y107000D02*
X288090D01*
X287500Y106409D02*
Y107591D01*
X301909Y115000D02*
X303091D01*
X302500Y114409D02*
Y115591D01*
X301909Y126000D02*
X303091D01*
X302500Y125409D02*
Y126591D01*
X271909Y131000D02*
X273091D01*
X272500Y130409D02*
Y131591D01*
X278410Y140500D02*
X279591D01*
X279000Y139909D02*
Y141091D01*
X284409Y146500D02*
X285591D01*
X285000Y145909D02*
Y147091D01*
X289409Y155000D02*
X290591D01*
X290000Y154409D02*
Y155591D01*
X271410Y156500D02*
X272590D01*
X272000Y155909D02*
Y157091D01*
X247410Y146500D02*
X248590D01*
X248000Y145909D02*
Y147091D01*
X237409Y176000D02*
X238591D01*
X238000Y175409D02*
Y176591D01*
X237409Y217500D02*
X238591D01*
X238000Y216910D02*
Y218091D01*
X236409Y204000D02*
X237591D01*
X237000Y203409D02*
Y204591D01*
X242409Y201500D02*
X243590D01*
X243000Y200909D02*
Y202091D01*
X239910Y230500D02*
X241090D01*
X240500Y229909D02*
Y231090D01*
X253410Y244500D02*
X254591D01*
X254000Y243910D02*
Y245091D01*
X254909Y235500D02*
X256090D01*
X255500Y234910D02*
Y236090D01*
X291910Y224000D02*
X293091D01*
X292500Y223410D02*
Y224590D01*
X282909Y231000D02*
X284090D01*
X283500Y230410D02*
Y231591D01*
X292409Y212000D02*
X293590D01*
X293000Y211409D02*
Y212591D01*
X299410Y230000D02*
X300590D01*
X300000Y229410D02*
Y230591D01*
X303909Y215500D02*
X305090D01*
X304500Y214910D02*
Y216090D01*
X299410Y202000D02*
X300590D01*
X300000Y201409D02*
Y202591D01*
X305410Y197000D02*
X306591D01*
X306000Y196409D02*
Y197591D01*
X278909Y203500D02*
X280090D01*
X279500Y202909D02*
Y204091D01*
X274909Y196000D02*
X276091D01*
X275500Y195409D02*
Y196591D01*
X285910Y197500D02*
X287090D01*
X286500Y196909D02*
Y198091D01*
X272909Y209500D02*
X274091D01*
X273500Y208910D02*
Y210090D01*
X266910Y212500D02*
X268091D01*
X267500Y211910D02*
Y213090D01*
X178909Y150000D02*
X180091D01*
X179500Y149409D02*
Y150591D01*
X160409Y150500D02*
X161591D01*
X161000Y149909D02*
Y151091D01*
X168909Y149000D02*
X170091D01*
X169500Y148409D02*
Y149591D01*
X119909Y147500D02*
X121091D01*
X120500Y146909D02*
Y148091D01*
X132409Y196000D02*
X133591D01*
X133000Y195409D02*
Y196591D01*
X115409Y192000D02*
X116591D01*
X116000Y191409D02*
Y192591D01*
X90909Y215500D02*
X92090D01*
X91500Y214910D02*
Y216090D01*
X69910Y230500D02*
X71091D01*
X70500Y229909D02*
Y231090D01*
X41909Y231000D02*
X43091D01*
X42500Y230410D02*
Y231591D01*
X48909Y244000D02*
X50091D01*
X49500Y243409D02*
Y244590D01*
X46909Y227000D02*
X48091D01*
X47500Y226410D02*
Y227590D01*
X9909Y228500D02*
X11091D01*
X10500Y227909D02*
Y229090D01*
X10909Y212500D02*
X12091D01*
X11500Y211910D02*
Y213090D01*
X14909Y200000D02*
X16091D01*
X15500Y199409D02*
Y200591D01*
X56910Y211500D02*
X58091D01*
X57500Y210910D02*
Y212090D01*
X48409Y213500D02*
X49591D01*
X49000Y212910D02*
Y214090D01*
X47409Y200500D02*
X48591D01*
X48000Y199909D02*
Y201091D01*
X30909Y187000D02*
X32091D01*
X31500Y186409D02*
Y187591D01*
X35909Y189500D02*
X37091D01*
X36500Y188909D02*
Y190091D01*
X6909Y176500D02*
X8091D01*
X7500Y175909D02*
Y177091D01*
X50909Y147000D02*
X52091D01*
X51500Y146409D02*
Y147591D01*
X53909Y135000D02*
X55090D01*
X54500Y134409D02*
Y135591D01*
X28909Y132000D02*
X30091D01*
X29500Y131409D02*
Y132591D01*
X9909Y120000D02*
X11091D01*
X10500Y119409D02*
Y120591D01*
X20410Y115500D02*
X21590D01*
X21000Y114909D02*
Y116091D01*
X48909Y115500D02*
X50091D01*
X49500Y114909D02*
Y116091D01*
X61409Y61500D02*
X62590D01*
X62000Y60909D02*
Y62090D01*
X77409Y62000D02*
X78591D01*
X78000Y61409D02*
Y62590D01*
X97409Y63000D02*
X98590D01*
X98000Y62410D02*
Y63591D01*
X115909Y66500D02*
X117091D01*
X116500Y65909D02*
Y67090D01*
X91909Y78000D02*
X93090D01*
X92500Y77409D02*
Y78591D01*
X70910Y77000D02*
X72091D01*
X71500Y76410D02*
Y77591D01*
X91409Y89500D02*
X92590D01*
X92000Y88910D02*
Y90091D01*
X69410Y89000D02*
X70591D01*
X70000Y88410D02*
Y89591D01*
X90409Y102000D02*
X91590D01*
X91000Y101409D02*
Y102591D01*
X72909Y102000D02*
X74090D01*
X73500Y101409D02*
Y102591D01*
X91909Y114500D02*
X93090D01*
X92500Y113909D02*
Y115091D01*
X75910Y115000D02*
X77091D01*
X76500Y114409D02*
Y115591D01*
X220409Y91500D02*
X221590D01*
X221000Y90909D02*
Y92090D01*
X182909Y106000D02*
X184091D01*
X183500Y105409D02*
Y106591D01*
X189909Y117500D02*
X191091D01*
X190500Y116909D02*
Y118091D01*
X197909Y121000D02*
X199091D01*
X198500Y120409D02*
Y121591D01*
X228909Y119500D02*
X230090D01*
X229500Y118909D02*
Y120091D01*
X237910Y119500D02*
X239090D01*
X238500Y118909D02*
Y120091D01*
X247909Y118000D02*
X249091D01*
X248500Y117409D02*
Y118591D01*
X253410Y113500D02*
X254591D01*
X254000Y112909D02*
Y114091D01*
X248410Y104000D02*
X249590D01*
X249000Y103409D02*
Y104591D01*
X247410Y109500D02*
X248590D01*
X248000Y108909D02*
Y110091D01*
X233410Y104000D02*
X234591D01*
X234000Y103409D02*
Y104591D01*
X240409Y104000D02*
X241590D01*
X241000Y103409D02*
Y104591D01*
X174909Y81000D02*
X176091D01*
X175500Y80409D02*
Y81590D01*
X217910Y106500D02*
X219091D01*
X218500Y105909D02*
Y107091D01*
X223909Y104000D02*
X225091D01*
X224500Y103409D02*
Y104591D01*
X221410Y106500D02*
X222590D01*
X222000Y105909D02*
Y107091D01*
X212910Y106500D02*
X214090D01*
X213500Y105909D02*
Y107091D01*
X123409Y500000D02*
X124591D01*
X124000Y499409D02*
Y500591D01*
X113659Y500000D02*
X114841D01*
X114250Y499409D02*
Y500591D01*
X103909Y500000D02*
X105091D01*
X104500Y499409D02*
Y500591D01*
X142909Y500000D02*
X144091D01*
X143500Y499409D02*
Y500591D01*
X94160Y500000D02*
X95341D01*
X94750Y499409D02*
Y500591D01*
X133159Y500000D02*
X134341D01*
X133750Y499409D02*
Y500591D01*
X84409Y500000D02*
X85590D01*
X85000Y499409D02*
Y500591D01*
X135409Y30500D02*
X136591D01*
X136000Y29909D02*
Y31091D01*
X125659Y30500D02*
X126841D01*
X126250Y29909D02*
Y31091D01*
X115909Y30500D02*
X117091D01*
X116500Y29909D02*
Y31091D01*
X154909Y30500D02*
X156091D01*
X155500Y29909D02*
Y31091D01*
X106159Y30500D02*
X107341D01*
X106750Y29909D02*
Y31091D01*
X145159Y30500D02*
X146341D01*
X145750Y29909D02*
Y31091D01*
X96409Y30500D02*
X97591D01*
X97000Y29909D02*
Y31091D01*
X179409Y216000D02*
X180591D01*
X180000Y215409D02*
Y216590D01*
X169659Y216000D02*
X170841D01*
X170250Y215409D02*
Y216590D01*
X159909Y216000D02*
X161091D01*
X160500Y215409D02*
Y216590D01*
X198909Y216000D02*
X200091D01*
X199500Y215409D02*
Y216590D01*
X150159Y216000D02*
X151341D01*
X150750Y215409D02*
Y216590D01*
X189159Y216000D02*
X190341D01*
X189750Y215409D02*
Y216590D01*
X140409Y216000D02*
X141591D01*
X141000Y215409D02*
Y216590D01*
X165909Y293500D02*
X167091D01*
X166500Y292910D02*
Y294091D01*
X156159Y293500D02*
X157341D01*
X156750Y292910D02*
Y294091D01*
X146409Y293500D02*
X147591D01*
X147000Y292910D02*
Y294091D01*
X185409Y293500D02*
X186591D01*
X186000Y292910D02*
Y294091D01*
X136659Y293500D02*
X137841D01*
X137250Y292910D02*
Y294091D01*
X175659Y293500D02*
X176841D01*
X176250Y292910D02*
Y294091D01*
X126909Y293500D02*
X128091D01*
X127500Y292910D02*
Y294091D01*
X167409Y347000D02*
X168591D01*
X168000Y346410D02*
Y347590D01*
X157659Y347000D02*
X158841D01*
X158250Y346410D02*
Y347590D01*
X147909Y347000D02*
X149091D01*
X148500Y346410D02*
Y347590D01*
X186909Y347000D02*
X188091D01*
X187500Y346410D02*
Y347590D01*
X138159Y347000D02*
X139341D01*
X138750Y346410D02*
Y347590D01*
X177159Y347000D02*
X178341D01*
X177750Y346410D02*
Y347590D01*
X128409Y347000D02*
X129591D01*
X129000Y346410D02*
Y347590D01*
X167409Y378500D02*
X168591D01*
X168000Y377909D02*
Y379090D01*
X157659Y378500D02*
X158841D01*
X158250Y377909D02*
Y379090D01*
X147909Y378500D02*
X149091D01*
X148500Y377909D02*
Y379090D01*
X186909Y378500D02*
X188091D01*
X187500Y377909D02*
Y379090D01*
X138159Y378500D02*
X139341D01*
X138750Y377909D02*
Y379090D01*
X177159Y378500D02*
X178341D01*
X177750Y377909D02*
Y379090D01*
X128409Y378500D02*
X129591D01*
X129000Y377909D02*
Y379090D01*
X167409Y410000D02*
X168591D01*
X168000Y409410D02*
Y410591D01*
X157659Y410000D02*
X158841D01*
X158250Y409410D02*
Y410591D01*
X147909Y410000D02*
X149091D01*
X148500Y409410D02*
Y410591D01*
X186909Y410000D02*
X188091D01*
X187500Y409410D02*
Y410591D01*
X138159Y410000D02*
X139341D01*
X138750Y409410D02*
Y410591D01*
X177159Y410000D02*
X178341D01*
X177750Y409410D02*
Y410591D01*
X128409Y410000D02*
X129591D01*
X129000Y409410D02*
Y410591D01*
X248217Y320150D02*
X252154D01*
X250186Y318181D02*
Y322118D01*
X231909Y96000D02*
X233090D01*
X232500Y95410D02*
Y96591D01*
X175909Y89500D02*
X177091D01*
X176500Y88910D02*
Y90091D01*
X175409Y96000D02*
X176591D01*
X176000Y95410D02*
Y96591D01*
X186909Y104500D02*
X188091D01*
X187500Y103909D02*
Y105091D01*
X189409Y107000D02*
X190591D01*
X190000Y106409D02*
Y107591D01*
X141014Y96319D02*
X142195D01*
X141604Y95728D02*
Y96910D01*
X195841Y60921D02*
X197022D01*
X196431Y60331D02*
Y61512D01*
X156735Y81240D02*
X157916D01*
X157326Y80650D02*
Y81831D01*
X139679Y70809D02*
X140860D01*
X140270Y70218D02*
Y71399D01*
X139728Y79213D02*
X140910D01*
X140319Y78623D02*
Y79804D01*
X139877Y84800D02*
X141058D01*
X140467Y84209D02*
Y85391D01*
X58057Y24040D02*
X59238D01*
X58647Y23450D02*
Y24631D01*
X49257Y24386D02*
X50438D01*
X49847Y23796D02*
Y24977D01*
X42385Y23892D02*
X43566D01*
X42975Y23302D02*
Y24483D01*
X210000Y113500D02*
X212000D01*
X211000Y112500D02*
Y114500D01*
X210500Y136000D02*
X212500D01*
X211500Y135000D02*
Y137000D01*
X173409Y131000D02*
X174591D01*
X174000Y130409D02*
Y131591D01*
X169909Y132500D02*
X171091D01*
X170500Y131909D02*
Y133091D01*
X255909Y128000D02*
X257090D01*
X256500Y127409D02*
Y128591D01*
X252909Y125500D02*
X254090D01*
X253500Y124909D02*
Y126091D01*
X228410Y131000D02*
X229591D01*
X229000Y130409D02*
Y131591D01*
X260910Y189000D02*
X262090D01*
X261500Y188409D02*
Y189591D01*
X256909Y190500D02*
X258090D01*
X257500Y189909D02*
Y191091D01*
X207909Y106000D02*
X209090D01*
X208500Y105409D02*
Y106591D01*
X70410Y207000D02*
X71591D01*
X71000Y206410D02*
Y207591D01*
X79409Y202000D02*
X80590D01*
X80000Y201409D02*
Y202591D01*
X219122Y54000D02*
X221878D01*
X220500Y52622D02*
Y55378D01*
X186409Y46500D02*
X187591D01*
X187000Y45909D02*
Y47091D01*
X194304Y46606D02*
X195485D01*
X194894Y46015D02*
Y47196D01*
X202909Y46500D02*
X204091D01*
X203500Y45909D02*
Y47091D01*
X210409Y46500D02*
X211591D01*
X211000Y45909D02*
Y47091D01*
X59031Y266000D02*
X62968D01*
X61000Y264032D02*
Y267969D01*
X171531Y461500D02*
X175469D01*
X173500Y459531D02*
Y463469D01*
X232031Y461500D02*
X235968D01*
X234000Y459531D02*
Y463469D01*
X251343Y157000D02*
X253311D01*
X252327Y156016D02*
Y157984D01*
X227516Y157000D02*
X229484D01*
X228500Y156016D02*
Y157984D01*
X110516Y152500D02*
X112484D01*
X111500Y151516D02*
Y153484D01*
X58016Y152000D02*
X59984D01*
X59000Y151016D02*
Y152984D01*
X77409Y160500D02*
X78591D01*
X78000Y159909D02*
Y161091D01*
X84409Y196000D02*
X85590D01*
X85000Y195409D02*
Y196591D01*
X170909Y81500D02*
X172091D01*
X171500Y80910D02*
Y82091D01*
X93410Y193000D02*
X94591D01*
X94000Y192409D02*
Y193591D01*
X92909Y187500D02*
X94090D01*
X93500Y186909D02*
Y188091D01*
X162909Y82000D02*
X164091D01*
X163500Y81410D02*
Y82591D01*
X86910Y190500D02*
X88090D01*
X87500Y189909D02*
Y191091D01*
X67909Y183000D02*
X69090D01*
X68500Y182409D02*
Y183591D01*
X155622Y101287D02*
X156803D01*
X156213Y100697D02*
Y101878D01*
X157909Y95000D02*
X159091D01*
X158500Y94410D02*
Y95591D01*
X165409Y69000D02*
X166591D01*
X166000Y68410D02*
Y69591D01*
X170909Y69000D02*
X172091D01*
X171500Y68410D02*
Y69591D01*
X166909Y82500D02*
X168091D01*
X167500Y81910D02*
Y83091D01*
X166122Y62500D02*
X168878D01*
X167500Y61122D02*
Y63878D01*
X212910Y66500D02*
X214090D01*
X213500Y65909D02*
Y67090D01*
X216409Y69000D02*
X217590D01*
X217000Y68410D02*
Y69591D01*
X197909Y71500D02*
X199091D01*
X198500Y70910D02*
Y72091D01*
X189909Y77000D02*
X191091D01*
X190500Y76410D02*
Y77591D01*
X193409Y74000D02*
X194591D01*
X194000Y73409D02*
Y74590D01*
X159909Y88500D02*
X161091D01*
X160500Y87910D02*
Y89091D01*
X244927Y87817D02*
X246108D01*
X245517Y87227D02*
Y88408D01*
X239409Y85000D02*
X240591D01*
X240000Y84409D02*
Y85590D01*
X175909Y85000D02*
X177091D01*
X176500Y84409D02*
Y85590D01*
X227062Y83285D02*
X228243D01*
X227652Y82695D02*
Y83876D01*
X184819Y79416D02*
X186000D01*
X185409Y78825D02*
Y80006D01*
X213928Y80199D02*
X215109D01*
X214519Y79609D02*
Y80790D01*
X183117Y24868D02*
X184298D01*
X183708Y24277D02*
Y25458D01*
X191105Y25063D02*
X192286D01*
X191695Y24473D02*
Y25654D01*
X199060Y25227D02*
X200241D01*
X199650Y24636D02*
Y25817D01*
X15910Y464000D02*
X17090D01*
X16500Y463410D02*
Y464591D01*
X64660Y464000D02*
X65841D01*
X65250Y463410D02*
Y464591D01*
X25659Y464000D02*
X26841D01*
X26250Y463410D02*
Y464591D01*
X74410Y464000D02*
X75590D01*
X75000Y463410D02*
Y464591D01*
X35409Y464000D02*
X36591D01*
X36000Y463410D02*
Y464591D01*
X45159Y464000D02*
X46341D01*
X45750Y463410D02*
Y464591D01*
X54909Y464000D02*
X56090D01*
X55500Y463410D02*
Y464591D01*
X55409Y432500D02*
X56590D01*
X56000Y431910D02*
Y433090D01*
X45659Y432500D02*
X46841D01*
X46250Y431910D02*
Y433090D01*
X35909Y432500D02*
X37091D01*
X36500Y431910D02*
Y433090D01*
X74910Y432500D02*
X76091D01*
X75500Y431910D02*
Y433090D01*
X26159Y432500D02*
X27341D01*
X26750Y431910D02*
Y433090D01*
X65159Y432500D02*
X66341D01*
X65750Y431910D02*
Y433090D01*
X16409Y432500D02*
X17591D01*
X17000Y431910D02*
Y433090D01*
X55409Y396000D02*
X56590D01*
X56000Y395409D02*
Y396590D01*
X45659Y396000D02*
X46841D01*
X46250Y395409D02*
Y396590D01*
X35909Y396000D02*
X37091D01*
X36500Y395409D02*
Y396590D01*
X74910Y396000D02*
X76091D01*
X75500Y395409D02*
Y396590D01*
X26159Y396000D02*
X27341D01*
X26750Y395409D02*
Y396590D01*
X65159Y396000D02*
X66341D01*
X65750Y395409D02*
Y396590D01*
X16409Y396000D02*
X17591D01*
X17000Y395409D02*
Y396590D01*
X185409Y92000D02*
X186591D01*
X186000Y91409D02*
Y92590D01*
X16409Y323500D02*
X17591D01*
X17000Y322909D02*
Y324091D01*
X65159Y323500D02*
X66341D01*
X65750Y322909D02*
Y324091D01*
X26159Y323500D02*
X27341D01*
X26750Y322909D02*
Y324091D01*
X74910Y323500D02*
X76091D01*
X75500Y322909D02*
Y324091D01*
X35909Y323500D02*
X37091D01*
X36500Y322909D02*
Y324091D01*
X45659Y323500D02*
X46841D01*
X46250Y322909D02*
Y324091D01*
X55409Y323500D02*
X56590D01*
X56000Y322909D02*
Y324091D01*
X16409Y360000D02*
X17591D01*
X17000Y359409D02*
Y360591D01*
X65159Y360000D02*
X66341D01*
X65750Y359409D02*
Y360591D01*
X26159Y360000D02*
X27341D01*
X26750Y359409D02*
Y360591D01*
X74910Y360000D02*
X76091D01*
X75500Y359409D02*
Y360591D01*
X35909Y360000D02*
X37091D01*
X36500Y359409D02*
Y360591D01*
X45659Y360000D02*
X46841D01*
X46250Y359409D02*
Y360591D01*
X55409Y360000D02*
X56590D01*
X56000Y359409D02*
Y360591D01*
X258900Y221578D02*
X260081D01*
X259490Y220988D02*
Y222169D01*
X16346Y186645D02*
X17527D01*
X16937Y186054D02*
Y187235D01*
X73970Y187190D02*
X75151D01*
X74560Y186600D02*
Y187781D01*
X26569Y220718D02*
X27750D01*
X27160Y220127D02*
Y221308D01*
X26435Y213476D02*
X27617D01*
X27026Y212885D02*
Y214067D01*
X239505Y432920D02*
X240686D01*
X240096Y432329D02*
Y433510D01*
X254846Y164562D02*
X256027D01*
X255437Y163972D02*
Y165153D01*
X291444Y166907D02*
X292625D01*
X292035Y166316D02*
Y167497D01*
X180109Y79854D02*
X181290D01*
X180700Y79263D02*
Y80444D01*
X177185Y127622D02*
X178367D01*
X177776Y127032D02*
Y128213D01*
X284244Y75434D02*
X285425D01*
X284835Y74843D02*
Y76024D01*
X273419Y75340D02*
X274601D01*
X274010Y74750D02*
Y75931D01*
M02*
