G04 Layer_Color=16711935*
%FSLAX25Y25*%
%MOIN*%
G70*
G01*
G75*
%ADD33C,0.01000*%
D33*
X13780Y483543D02*
G03*
X32205Y501968I0J18425D01*
G01*
X278819D02*
G03*
X297244Y483543I18425J0D01*
G01*
Y32205D02*
G03*
X278819Y13780I0J-18425D01*
G01*
X32205D02*
G03*
X13780Y32205I-18425J0D01*
G01*
X297244Y276299D02*
G03*
X297244Y239449I0J-18425D01*
G01*
X13780D02*
G03*
X13780Y276299I0J18425D01*
G01*
X20472Y305118D02*
G03*
X20472Y305118I-6693J0D01*
G01*
X303937Y51890D02*
G03*
X303937Y51890I-6693J0D01*
G01*
Y305118D02*
G03*
X303937Y305118I-6693J0D01*
G01*
X260630Y501968D02*
G03*
X260630Y501968I-6693J0D01*
G01*
X63779D02*
G03*
X63779Y501968I-6693J0D01*
G01*
X20472Y51890D02*
G03*
X20472Y51890I-6693J0D01*
G01*
X311061Y32205D02*
Y239449D01*
X297244Y32205D02*
X311061D01*
X297244Y239449D02*
X311061D01*
X32205Y0D02*
X278819D01*
X32205D02*
Y13780D01*
X278819Y0D02*
Y13780D01*
X-38Y32205D02*
X13780D01*
X-38D02*
Y239449D01*
X13780D01*
X310913Y276389D02*
X311024Y276500D01*
Y483445D01*
X0Y276500D02*
Y483500D01*
X297244Y276299D02*
X310823D01*
X310968Y483445D02*
X311024Y483500D01*
X32205Y516000D02*
X278819D01*
X32205Y501968D02*
Y516000D01*
X278819Y501968D02*
Y516000D01*
X0Y483500D02*
X17Y483517D01*
X43Y483543D02*
X13780D01*
X297244D02*
X310980D01*
X201Y276299D02*
X13780D01*
M02*
