G04 Layer_Color=16711935*
%FSLAX25Y25*%
%MOIN*%
G70*
G01*
G75*
%ADD70R,0.03800X0.03800*%
%ADD83R,0.05800X0.06800*%
%ADD85R,0.06706X0.06706*%
%ADD86C,0.06706*%
%ADD87C,0.07000*%
%ADD88R,0.07000X0.07000*%
%ADD89C,0.05524*%
%ADD90R,0.05524X0.05524*%
%ADD91O,0.06706X0.10642*%
%ADD92R,0.06706X0.10642*%
D70*
X207406Y46606D02*
D03*
Y53692D02*
D03*
X199462Y46606D02*
D03*
Y53692D02*
D03*
X191654Y46606D02*
D03*
Y53692D02*
D03*
X183696Y46606D02*
D03*
Y53692D02*
D03*
X174500Y46413D02*
D03*
Y53500D02*
D03*
X207378Y35511D02*
D03*
Y28425D02*
D03*
X199491Y35511D02*
D03*
Y28425D02*
D03*
X191603Y35539D02*
D03*
Y28453D02*
D03*
X183749Y35511D02*
D03*
Y28425D02*
D03*
D83*
X167500Y53500D02*
D03*
Y44500D02*
D03*
D85*
X265000Y69000D02*
D03*
Y82000D02*
D03*
D86*
X295000Y69000D02*
D03*
X275000D02*
D03*
X285000D02*
D03*
X295000Y82000D02*
D03*
X275000D02*
D03*
X285000D02*
D03*
D87*
X298500Y440000D02*
D03*
X288500D02*
D03*
X298500Y430000D02*
D03*
X288500D02*
D03*
X298500Y420000D02*
D03*
X288500D02*
D03*
X298500Y410000D02*
D03*
D88*
X288500D02*
D03*
D89*
X207374Y8126D02*
D03*
Y16000D02*
D03*
X199500Y8126D02*
D03*
Y16000D02*
D03*
X191626Y8126D02*
D03*
Y16000D02*
D03*
X183752Y8126D02*
D03*
X104626Y8000D02*
D03*
X112500Y15874D02*
D03*
Y8000D02*
D03*
X120374Y15874D02*
D03*
Y8000D02*
D03*
X128248Y15874D02*
D03*
Y8000D02*
D03*
X143285Y328024D02*
D03*
Y320150D02*
D03*
X151159Y328024D02*
D03*
Y320150D02*
D03*
X159033Y328024D02*
D03*
Y320150D02*
D03*
X166907Y328024D02*
D03*
D90*
X183752Y16000D02*
D03*
X104626Y15874D02*
D03*
X166907Y320150D02*
D03*
D91*
X242000Y373500D02*
D03*
X252000D02*
D03*
X262000D02*
D03*
D92*
X272000D02*
D03*
M02*
