G04 Layer_Color=8388736*
%FSLAX25Y25*%
%MOIN*%
G70*
G01*
G75*
%ADD62R,0.03800X0.03800*%
%ADD63R,0.03950X0.10642*%
%ADD64O,0.03950X0.10642*%
%ADD65R,0.13398X0.10642*%
%ADD66R,0.11627X0.11627*%
%ADD67R,0.06800X0.05800*%
%ADD68R,0.02178X0.06706*%
%ADD69O,0.02178X0.06706*%
%ADD70R,0.03800X0.03800*%
%ADD71R,0.04400X0.05800*%
%ADD72R,0.04400X0.04400*%
%ADD73R,0.08300X0.09800*%
%ADD74C,0.04737*%
%ADD75R,0.06800X0.14579*%
%ADD76O,0.08800X0.03200*%
%ADD77R,0.05800X0.01800*%
%ADD78O,0.05800X0.01800*%
%ADD79R,0.01800X0.05800*%
%ADD80R,0.22453X0.10642*%
%ADD81R,0.13300X0.07587*%
%ADD82R,0.09800X0.08300*%
%ADD83R,0.05800X0.06800*%
%ADD84R,0.06800X0.06800*%
%ADD85R,0.06706X0.06706*%
%ADD86C,0.06706*%
%ADD87C,0.07000*%
%ADD88R,0.07000X0.07000*%
%ADD89C,0.05524*%
%ADD90R,0.05524X0.05524*%
%ADD91O,0.06706X0.10642*%
%ADD92R,0.06706X0.10642*%
D62*
X150755Y130500D02*
D03*
X157842D02*
D03*
X114500Y215500D02*
D03*
X107413D02*
D03*
X271413Y221000D02*
D03*
X278500D02*
D03*
X264500Y228000D02*
D03*
X271587D02*
D03*
X288500Y163000D02*
D03*
X295587D02*
D03*
X288000Y189500D02*
D03*
X295087D02*
D03*
X253587Y216500D02*
D03*
X246500D02*
D03*
X63000Y211500D02*
D03*
X70087D02*
D03*
X253587Y209000D02*
D03*
X246500D02*
D03*
X230913Y166000D02*
D03*
X238000D02*
D03*
X8500Y159500D02*
D03*
X15587D02*
D03*
X61500Y160500D02*
D03*
X68587D02*
D03*
X61500Y189500D02*
D03*
X68587D02*
D03*
X56000Y218500D02*
D03*
X63087D02*
D03*
X30587Y217000D02*
D03*
X23500D02*
D03*
X180087Y426000D02*
D03*
X173000D02*
D03*
X167500Y432500D02*
D03*
X160413D02*
D03*
X180087D02*
D03*
X173000D02*
D03*
X180500Y444500D02*
D03*
X173413D02*
D03*
X180500Y450500D02*
D03*
X173413D02*
D03*
X180587Y456500D02*
D03*
X173500D02*
D03*
X156000Y463000D02*
D03*
X163087D02*
D03*
Y456500D02*
D03*
X156000D02*
D03*
X131500Y87500D02*
D03*
X124413D02*
D03*
X38500Y86500D02*
D03*
X31413D02*
D03*
X30587Y210000D02*
D03*
X23500D02*
D03*
X166500Y444500D02*
D03*
X159413D02*
D03*
X180500Y438500D02*
D03*
X173413D02*
D03*
X201000Y459500D02*
D03*
X208087D02*
D03*
X124413Y81500D02*
D03*
X131500D02*
D03*
X131487Y100359D02*
D03*
X124400D02*
D03*
X131487Y108500D02*
D03*
X124400D02*
D03*
X131487Y92859D02*
D03*
X124400D02*
D03*
D63*
X132555Y205500D02*
D03*
X56555Y74000D02*
D03*
D64*
X123500Y205500D02*
D03*
X114445D02*
D03*
X47500Y74000D02*
D03*
X38445D02*
D03*
D65*
X123555Y183000D02*
D03*
X47555Y51500D02*
D03*
D66*
X114500Y230500D02*
D03*
X93831D02*
D03*
X258500Y142500D02*
D03*
X237831D02*
D03*
X36008Y143858D02*
D03*
X15338D02*
D03*
X38500Y100500D02*
D03*
X17831D02*
D03*
D67*
X123500Y170000D02*
D03*
X132500D02*
D03*
X263000Y259000D02*
D03*
X254000D02*
D03*
X59000Y258000D02*
D03*
X50000D02*
D03*
D68*
X249500Y179500D02*
D03*
X22500D02*
D03*
D69*
X252000D02*
D03*
X254500D02*
D03*
X257000D02*
D03*
X259500D02*
D03*
X262000D02*
D03*
X264500D02*
D03*
X267000D02*
D03*
Y200760D02*
D03*
X264500D02*
D03*
X262000D02*
D03*
X259500D02*
D03*
X257000D02*
D03*
X254500D02*
D03*
X252000D02*
D03*
X249500D02*
D03*
X25000Y179500D02*
D03*
X27500D02*
D03*
X30000D02*
D03*
X32500D02*
D03*
X35000D02*
D03*
X37500D02*
D03*
X40000D02*
D03*
Y200760D02*
D03*
X37500D02*
D03*
X35000D02*
D03*
X32500D02*
D03*
X30000D02*
D03*
X27500D02*
D03*
X25000D02*
D03*
X22500D02*
D03*
D70*
X282500Y189587D02*
D03*
Y182500D02*
D03*
Y162913D02*
D03*
Y170000D02*
D03*
X274500Y189587D02*
D03*
Y182500D02*
D03*
X275000Y170087D02*
D03*
Y163000D02*
D03*
X259000Y168087D02*
D03*
Y161000D02*
D03*
X252000Y168000D02*
D03*
Y160913D02*
D03*
X266500Y168087D02*
D03*
Y161000D02*
D03*
X47000Y167500D02*
D03*
Y160413D02*
D03*
X241500Y187913D02*
D03*
Y195000D02*
D03*
X55000Y189500D02*
D03*
Y182413D02*
D03*
Y160500D02*
D03*
Y167587D02*
D03*
X11000Y186500D02*
D03*
Y193587D02*
D03*
X234000Y427413D02*
D03*
Y434500D02*
D03*
X47000Y189587D02*
D03*
Y182500D02*
D03*
X33000Y167500D02*
D03*
Y160413D02*
D03*
X39000Y167500D02*
D03*
Y160413D02*
D03*
X26500Y167500D02*
D03*
Y160413D02*
D03*
X169000Y495587D02*
D03*
Y488500D02*
D03*
X205500Y120500D02*
D03*
Y113413D02*
D03*
X138500Y128913D02*
D03*
Y136000D02*
D03*
X187500Y55913D02*
D03*
Y63000D02*
D03*
X162003Y55772D02*
D03*
Y62859D02*
D03*
X80500Y44413D02*
D03*
Y51500D02*
D03*
D71*
X250000Y231000D02*
D03*
X27300Y233000D02*
D03*
D72*
X246200Y223000D02*
D03*
X253700D02*
D03*
X23500Y225000D02*
D03*
X31000D02*
D03*
D73*
X244815Y244500D02*
D03*
X264500D02*
D03*
X39500Y244000D02*
D03*
X59185D02*
D03*
X247185Y474000D02*
D03*
X227500D02*
D03*
X210000Y412500D02*
D03*
X229685D02*
D03*
D74*
X243000Y332500D02*
D03*
X229460Y62788D02*
D03*
X253677Y43149D02*
D03*
X128000Y432500D02*
D03*
D75*
X102500Y81000D02*
D03*
Y122339D02*
D03*
D76*
X223000Y450000D02*
D03*
Y445000D02*
D03*
Y440000D02*
D03*
Y435000D02*
D03*
X201000D02*
D03*
Y440000D02*
D03*
Y445000D02*
D03*
Y450000D02*
D03*
D77*
X148983Y89623D02*
D03*
Y85686D02*
D03*
Y91591D02*
D03*
Y111276D02*
D03*
Y109308D02*
D03*
Y107339D02*
D03*
Y105371D02*
D03*
Y93560D02*
D03*
Y87654D02*
D03*
Y97497D02*
D03*
X196228Y87654D02*
D03*
X148983Y83717D02*
D03*
Y99465D02*
D03*
Y103402D02*
D03*
X196228Y113245D02*
D03*
Y111276D02*
D03*
Y109308D02*
D03*
Y107339D02*
D03*
Y105371D02*
D03*
Y103402D02*
D03*
Y101434D02*
D03*
Y99465D02*
D03*
Y97497D02*
D03*
Y95528D02*
D03*
Y93560D02*
D03*
Y91591D02*
D03*
Y89623D02*
D03*
Y85686D02*
D03*
Y83717D02*
D03*
X148983Y101434D02*
D03*
Y95528D02*
D03*
D78*
X148984Y113245D02*
D03*
D79*
X177527Y74859D02*
D03*
X175558D02*
D03*
X173590D02*
D03*
X179495D02*
D03*
X161779D02*
D03*
X183432D02*
D03*
X169653Y122103D02*
D03*
X187369Y74859D02*
D03*
X185401D02*
D03*
X181464D02*
D03*
X171621D02*
D03*
X169653D02*
D03*
X167684D02*
D03*
X165716D02*
D03*
X163747D02*
D03*
X159810D02*
D03*
X157842D02*
D03*
X157842Y122103D02*
D03*
X159810D02*
D03*
X165716D02*
D03*
X167684D02*
D03*
X171621D02*
D03*
X173590D02*
D03*
X175558D02*
D03*
X177527D02*
D03*
X179495D02*
D03*
X181464D02*
D03*
X183432D02*
D03*
X185401D02*
D03*
X187369D02*
D03*
X163747D02*
D03*
X161779D02*
D03*
D80*
X201000Y474000D02*
D03*
Y488567D02*
D03*
D81*
X249000Y394000D02*
D03*
Y412500D02*
D03*
D82*
X248500Y423500D02*
D03*
Y443185D02*
D03*
D83*
X70000Y52000D02*
D03*
Y43000D02*
D03*
X178500Y497500D02*
D03*
Y488500D02*
D03*
D84*
X262000Y457000D02*
D03*
X248500D02*
D03*
D85*
X265000Y69000D02*
D03*
Y82000D02*
D03*
D86*
X295000Y69000D02*
D03*
X275000D02*
D03*
X285000D02*
D03*
X295000Y82000D02*
D03*
X275000D02*
D03*
X285000D02*
D03*
D87*
X298500Y440000D02*
D03*
X288500D02*
D03*
X298500Y430000D02*
D03*
X288500D02*
D03*
X298500Y420000D02*
D03*
X288500D02*
D03*
X298500Y410000D02*
D03*
D88*
X288500D02*
D03*
D89*
X207374Y8126D02*
D03*
Y16000D02*
D03*
X199500Y8126D02*
D03*
Y16000D02*
D03*
X191626Y8126D02*
D03*
Y16000D02*
D03*
X183752Y8126D02*
D03*
X104626Y8000D02*
D03*
X112500Y15874D02*
D03*
Y8000D02*
D03*
X120374Y15874D02*
D03*
Y8000D02*
D03*
X128248Y15874D02*
D03*
Y8000D02*
D03*
X143285Y328024D02*
D03*
Y320150D02*
D03*
X151159Y328024D02*
D03*
Y320150D02*
D03*
X159033Y328024D02*
D03*
Y320150D02*
D03*
X166907Y328024D02*
D03*
D90*
X183752Y16000D02*
D03*
X104626Y15874D02*
D03*
X166907Y320150D02*
D03*
D91*
X242000Y373500D02*
D03*
X252000D02*
D03*
X262000D02*
D03*
D92*
X272000D02*
D03*
M02*
