%FSLAX25Y25*%
%MOIN*%
G70*
G01*
G75*
G04 Layer_Color=16711935*
%ADD10R,0.03000X0.03000*%
%ADD11R,0.03000X0.03000*%
%ADD12R,0.06000X0.13780*%
%ADD13R,0.05000X0.01000*%
%ADD14O,0.05000X0.01000*%
%ADD15R,0.01000X0.05000*%
%ADD16C,0.03937*%
%ADD17R,0.03600X0.03600*%
%ADD18R,0.05000X0.03600*%
%ADD19R,0.03600X0.03600*%
%ADD20R,0.03600X0.05000*%
%ADD21R,0.06000X0.05000*%
%ADD22R,0.07500X0.09000*%
%ADD23R,0.10827X0.10827*%
%ADD24R,0.05000X0.06000*%
%ADD25R,0.15748X0.11811*%
%ADD26O,0.03150X0.09843*%
%ADD27R,0.03150X0.09843*%
%ADD28R,0.11811X0.15748*%
%ADD29O,0.09843X0.03150*%
%ADD30R,0.09843X0.03150*%
%ADD31O,0.05906X0.01969*%
G04:AMPARAMS|DCode=32|XSize=86.61mil|YSize=47.24mil|CornerRadius=11.81mil|HoleSize=0mil|Usage=FLASHONLY|Rotation=270.000|XOffset=0mil|YOffset=0mil|HoleType=Round|Shape=RoundedRectangle|*
%AMROUNDEDRECTD32*
21,1,0.08661,0.02362,0,0,270.0*
21,1,0.06299,0.04724,0,0,270.0*
1,1,0.02362,-0.01181,-0.03150*
1,1,0.02362,-0.01181,0.03150*
1,1,0.02362,0.01181,0.03150*
1,1,0.02362,0.01181,-0.03150*
%
%ADD32ROUNDEDRECTD32*%
%ADD33R,0.04724X0.09449*%
%ADD34C,0.01000*%
%ADD35C,0.01969*%
%ADD36C,0.03150*%
%ADD37C,0.01181*%
%ADD38C,0.02953*%
%ADD39C,0.06000*%
%ADD40O,0.07874X0.11811*%
%ADD41C,0.06200*%
%ADD42P,0.06711X8X22.5*%
%ADD43R,0.05906X0.05906*%
%ADD44C,0.05906*%
%ADD45O,0.06000X0.04000*%
%ADD46O,0.04724X0.07874*%
%ADD47P,0.06392X8X22.5*%
%ADD48C,0.05906*%
%ADD49P,0.06392X8X142.5*%
%ADD50P,0.06392X8X82.5*%
%ADD51C,0.06299*%
%ADD52C,0.02362*%
%ADD53R,0.02362X0.04331*%
%ADD54R,0.07087X0.03150*%
%ADD55R,0.01575X0.07874*%
%ADD56O,0.01575X0.07874*%
%ADD57O,0.01969X0.05906*%
%ADD58O,0.02400X0.08000*%
%ADD59C,0.00787*%
%ADD60C,0.00500*%
%ADD61C,0.00800*%
%ADD62C,0.00394*%
%ADD63R,0.02567X0.13000*%
%ADD64R,0.02900X0.14000*%
%ADD65R,0.03800X0.03800*%
%ADD66R,0.03800X0.03800*%
%ADD67R,0.06800X0.14579*%
%ADD68R,0.05800X0.01800*%
%ADD69O,0.05800X0.01800*%
%ADD70R,0.01800X0.05800*%
%ADD71C,0.04737*%
%ADD72R,0.04400X0.04400*%
%ADD73R,0.05800X0.04400*%
%ADD74R,0.04400X0.04400*%
%ADD75R,0.04400X0.05800*%
%ADD76R,0.06800X0.05800*%
%ADD77R,0.08300X0.09800*%
%ADD78R,0.11627X0.11627*%
%ADD79R,0.05800X0.06800*%
%ADD80R,0.16548X0.12611*%
%ADD81O,0.03950X0.10642*%
%ADD82R,0.03950X0.10642*%
%ADD83R,0.12611X0.16548*%
%ADD84O,0.10642X0.03950*%
%ADD85R,0.10642X0.03950*%
%ADD86O,0.06706X0.02769*%
G04:AMPARAMS|DCode=87|XSize=94.61mil|YSize=55.24mil|CornerRadius=13.81mil|HoleSize=0mil|Usage=FLASHONLY|Rotation=270.000|XOffset=0mil|YOffset=0mil|HoleType=Round|Shape=RoundedRectangle|*
%AMROUNDEDRECTD87*
21,1,0.09461,0.02762,0,0,270.0*
21,1,0.06699,0.05524,0,0,270.0*
1,1,0.02762,-0.01381,-0.03350*
1,1,0.02762,-0.01381,0.03350*
1,1,0.02762,0.01381,0.03350*
1,1,0.02762,0.01381,-0.03350*
%
%ADD87ROUNDEDRECTD87*%
%ADD88R,0.05524X0.10249*%
%ADD89C,0.06800*%
%ADD90O,0.08674X0.12611*%
%ADD91C,0.07000*%
%ADD92P,0.07577X8X22.5*%
%ADD93R,0.06706X0.06706*%
%ADD94C,0.06706*%
%ADD95O,0.06800X0.04800*%
%ADD96O,0.05524X0.08674*%
%ADD97P,0.07258X8X22.5*%
%ADD98C,0.06706*%
%ADD99P,0.07258X8X142.5*%
%ADD100P,0.07258X8X82.5*%
%ADD101C,0.07099*%
%ADD102R,0.03162X0.05131*%
%ADD103R,0.07887X0.03950*%
%ADD104R,0.02375X0.08674*%
%ADD105O,0.02375X0.08674*%
%ADD106O,0.02769X0.06706*%
%ADD107O,0.03200X0.08800*%
D60*
X79240Y118072D02*
G03*
X79240Y118072I-7874J0D01*
G01*
X-62492D02*
G03*
X-62492Y118072I-7874J0D01*
G01*
Y-118149D02*
G03*
X-62492Y-118149I-7874J0D01*
G01*
X79240D02*
G03*
X79240Y-118149I-7874J0D01*
G01*
X27075Y-38D02*
G03*
X27075Y-38I-2953J0D01*
G01*
X-20169D02*
G03*
X-20169Y-38I-2953J0D01*
G01*
X157980Y62087D02*
G03*
X-156980Y62087I-157480J-62125D01*
G01*
X59544Y-158700D02*
G03*
X157980Y-62164I-59044J158661D01*
G01*
X-156980D02*
G03*
X-58543Y-158700I157480J62125D01*
G01*
X157980Y-62164D02*
Y62086D01*
X-156980Y-62164D02*
Y62086D01*
X-58543Y-158700D02*
X59543D01*
D62*
X105720Y76016D02*
G03*
X109658Y76016I1969J0D01*
G01*
Y56331D02*
G03*
X105720Y56331I-1969J0D01*
G01*
X109658Y87828D02*
G03*
X105720Y83890I0J-3937D01*
G01*
X105799Y48458D02*
G03*
X109736Y44521I3937J0D01*
G01*
X141154Y44521D02*
G03*
X141154Y48458I0J1969D01*
G01*
Y83890D02*
G03*
X141154Y87827I0J1969D01*
G01*
X109658Y87828D02*
X141154D01*
X105720Y83890D02*
X105720Y83890D01*
X105720Y76016D02*
X105720Y83890D01*
X105720Y48536D02*
X105799Y48458D01*
X105720Y48536D02*
Y56331D01*
X109658Y44521D02*
X141154D01*
X109658Y48458D02*
X141154D01*
X109658Y83890D02*
X141154D01*
X109658Y76016D02*
Y83890D01*
Y48458D02*
Y56331D01*
M02*
