M48
;Layer_Color=9474304
;FILE_FORMAT=2:5
INCH,LZ
;TYPE=PLATED
T1F00S00C0.01181
T2F00S00C0.01378
T3F00S00C0.01968
T4F00S00C0.03000
T5F00S00C0.03150
T6F00S00C0.03543
T7F00S00C0.03937
%
T01
X-0049Y-0131
X-00489Y-01209
X-00484Y-01139
X-00265Y-01167
X-00163Y-01166
X-00168Y-01279
X-00072Y-01275
X-0027005Y-01288
X-00269Y-01387
X-00177Y-01383
X-00271Y-01492
X-00378Y-01491
Y-01388
Y-01288
X00288Y-01235
X00323Y-01223
X00375Y-0139
X00376Y-01449
X00377Y-01532
X00267
X00264Y-01456
X00265Y-01388
X00488Y-01391
X0049Y-01451
X00488Y-01534
X00616Y-01521
Y-01452
X00617Y-01389
X00586Y-01313
X00489Y-01314
X00525Y-01262
X00507Y-01172
X00716Y-01443
X0079Y-01401
X00882Y-01342
X00948Y-01308
X00906Y-01258
X01005Y-01247
X01155Y-01165
X01201Y-00866
X01193Y-0081
X0126Y-00851
X01336Y-0085
X01349Y-00926
X0138Y-0079
X01384Y-00674
X01383Y-00566
X01402Y-00455
Y-00348
X01516Y-00347
X01548Y-00451
X01517Y-00505
X01515Y-00585
X01469Y-00735
X01277Y-00461
X01319Y-00245
X01202Y-0024
X01235Y-00148
X01324Y-00096
X01342Y00006
X01238Y-00006
X01154Y-00088
X01409Y-00061
X0147Y-00087
X01417Y-00153
X01525Y-00175
X01466Y-00241
X01495Y00019
X0151Y0013
X01515Y00221
X0125Y00361
X01188Y0038
X0094Y00318
X00871Y00282
X00747Y00276
X00686Y00305
X00653Y00112
X00435Y00106
X00379Y00209
X00252Y00199
X00291Y00329
X-0006Y00308
X-00128Y00274
X-0024Y00178
X-00345Y00238
X-00429Y00125
X-00314Y-00081
X-00316Y-0021
X-004Y-00193
X-00389Y-00368
X-00373Y-00436
X-00371Y-00579
X-00125Y-00548
X-00128Y-00735
X00226Y-00716
X00211Y-00655
X00356Y-0067
X00488Y-00683
X00545Y-00762
X00547Y-00795
X00654Y-00752
X00704Y-00705
X00635Y-00532
X00795Y-0053
X00826Y-00575
X00964Y-00568
X00983Y-00495
X01013Y-00448
X00899Y-00496
X00931Y-00235
Y-00131
X01023Y-00144
X01035Y-00075
X01053Y00071
X00994Y00074
X00937Y0009
X01078Y-00246
X01073Y-00632
X01034Y-0071
X0098Y-0081
X00897Y-00852
X00923Y-00899
X00887Y-00953
X00829Y-00894
X01029Y-009
X01025Y-0095
X00699Y-00999
X0059Y-00971
X00541
X00488Y-00984
X00421Y-00988
X00405Y-01089
X0046Y-01123
X00229Y-01106
X00248Y-00983
X00208Y-00823
X00237Y-00422
X00188Y-00363
X0012Y-00304
X00104Y-00421
X-00059Y-00386
X-00172Y-00253
X-00313Y-00334
X-00078Y-00117
X-00015Y-0014
X00109Y-00092
X00137Y-00048
Y00052
X-00025Y00069
X0Y00127
X-0007Y00118
X-0012372Y0005002
Y-0004998
X0034Y-00053
X00347Y00005
X00389Y-00015
X00398Y-00094
X00427Y-00172
X0034Y-00153
X00666Y-00119
X0051Y-00372
X-00359Y-00878
X-00362Y-01055
X-0058Y-00908
X-00603Y-00782
Y-00655
X-00546Y-00589
X-00603Y-0053
X-00579Y-00334
X-00571Y-00197
X-00646Y-00178
X-00756Y-00183
X-0085048Y-0017148
X-01009Y-00168
X-01244Y-00182
X-01166Y00033
X-01116Y00114
X-01164Y00226
X-01092Y00305
X-01102Y00396
X-0123Y00344
X-0126Y00296
X-00966Y00317
X-00929Y00268
X-00903Y00357
X-00711Y00359
X-00658Y00305
X-00754Y00277
X-00764Y00127
Y00041
X-00639Y0004
Y00126
X-00573Y00093
X-00883Y00089
X-0097Y00087
X-00927Y-00442
X-0075Y-00398
X-00657Y0043
X-00609Y0058
X-00625Y00648
X-00596Y00687
X-0068Y00669
X-00759Y00666
X-0098Y00647
X-01065Y00675
X-01224Y00756
X-01214Y00919
X-01185Y0111
X-01108Y01161
X-00993Y01177
X-00986Y01109
X-00836Y01052
X-00817Y01002
X-00775Y01034
X-00676Y0098
X-00521Y01064
Y0116
X-00539Y01285
X-00515Y01483
X-00602Y01498
X-006046Y01448
X-00739Y01452
X-00913Y00856
X-006Y00802
X-0051904Y0080418
X-00513Y00856
X-00995Y00458
X-01191Y00449
X-00349Y00497
X-00336Y00687
X-0034Y0076
X-00272Y00752
X-0029749Y00726
X-00168Y00747
X-00128Y00744
X-00123Y00815
X-00187Y00791
X-00171Y00856
X-00152Y00901
X-00189Y0091
X-00244Y00879
Y00944
Y0101
X-00208Y00979
X-00161Y00971
X-0015Y01015
X-00106Y01045
X-00092Y00952
Y00884
X-00013Y00876
X00107Y00897
X00152Y00934
X00154Y0085
X00131Y00759
X00091Y00651
X00164Y00612
X00223Y00615
X00284Y00613
X00283Y00552
X00243Y00483
X002075Y00515
X00359Y00599
X00452Y00726
X00564
X00639Y00728
X00635Y0065
X00629Y00581
X00741Y00705
X00823Y00706
X00895Y00631
X00878Y00561
X00889Y00514
X00939Y00777
X00967Y00813
X00996Y0085
X0102Y00909
X01014Y00973
X00916Y00971
X00872Y01066
X00895Y01134
Y01241
X01054Y01063
X00782Y01009
X00727Y00815
X00678Y00835
X00635Y00877
X00562Y00871
X00454Y00872
X00377Y00888
X00376Y0096
X00428Y00947
X00417Y01063
X0035131Y0105832
X00438Y01179
X00401Y0128
X00395Y01427
X00502Y01338
X00108Y01372
X00011Y01373
X-00097Y01369
X-00192Y01347
X-0019406Y0116823
X-00231Y01197
X-00266Y01215
X-00322Y01274
X-00359Y01307
X-00415Y01395
X-00413Y0145
X-00417Y01566
X-00324Y0161
X-00064Y01645
X0008Y01644
X00081Y0157
X00085Y0118
X00058Y0113
X00103Y01115
X00131Y0108
X00158Y01171
X00013Y01167
X-00417Y01159
Y01064
X-00353Y01025
X-00319Y0101
Y00945
X-00372Y00816
X00005Y00609
X01092Y00989
X0117Y00993
X01153Y01073
X01211Y01109
X01244Y01024
T02
X-0009Y-01403
X0010095
T03
X00098Y-01308
Y-01263
X-00065Y-00676
Y-00635
X-0006513Y-0047987
X00235
X00518Y-00477
X0035Y-00277
X00509Y-00081
X0058Y-00116
X00579Y00207
X00581Y00375
X00678Y00418
X-00403Y00373
X00604Y-00809
X-00929Y-00175
X-00223Y00548
X-0009Y00545
T04
X01373Y00102
Y00202
Y00302
T05
X-00171Y-00148
X-0021037Y-0007981
X-00208Y00079
X-0016863Y0014719
X-0003473Y0022627
X0004401
X0017721Y00148
X0021658Y0007981
X00223Y-00081
X0018363Y-0014919
X00045Y-0023
X-0003374
Y0
X00045
X0014673Y0128899
Y0146615
X0016091Y0157442
X0024891
X-001448
X-002328
X-0013673Y0146615
Y0128899
X0065856Y0146712
X0078344Y0140888
X0100722Y0126029
X0111278Y0117171
T06
X-0100796Y-0098572
X-01141Y00676
X-01241
X-01287Y00837
X-01187
X-01087
X-00987
X-01016Y01019
X-00916
X-01116
X-01216
T07
X0130858Y-0038
X00907
M30
