%FSLAX25Y25*%
%MOIN*%
G70*
G01*
G75*
G04 Layer_Color=16711935*
%ADD10R,0.03000X0.03000*%
%ADD11R,0.03000X0.03000*%
%ADD12R,0.06000X0.13780*%
%ADD13R,0.05000X0.01000*%
%ADD14O,0.05000X0.01000*%
%ADD15R,0.01000X0.05000*%
%ADD16C,0.03937*%
%ADD17R,0.03600X0.03600*%
%ADD18R,0.05000X0.03600*%
%ADD19R,0.03600X0.03600*%
%ADD20R,0.03600X0.05000*%
%ADD21R,0.06000X0.05000*%
%ADD22R,0.07500X0.09000*%
%ADD23R,0.10827X0.10827*%
%ADD24R,0.05000X0.06000*%
%ADD25R,0.15748X0.11811*%
%ADD26O,0.03150X0.09843*%
%ADD27R,0.03150X0.09843*%
%ADD28R,0.11811X0.15748*%
%ADD29O,0.09843X0.03150*%
%ADD30R,0.09843X0.03150*%
%ADD31O,0.05906X0.01969*%
G04:AMPARAMS|DCode=32|XSize=86.61mil|YSize=47.24mil|CornerRadius=11.81mil|HoleSize=0mil|Usage=FLASHONLY|Rotation=270.000|XOffset=0mil|YOffset=0mil|HoleType=Round|Shape=RoundedRectangle|*
%AMROUNDEDRECTD32*
21,1,0.08661,0.02362,0,0,270.0*
21,1,0.06299,0.04724,0,0,270.0*
1,1,0.02362,-0.01181,-0.03150*
1,1,0.02362,-0.01181,0.03150*
1,1,0.02362,0.01181,0.03150*
1,1,0.02362,0.01181,-0.03150*
%
%ADD32ROUNDEDRECTD32*%
%ADD33R,0.04724X0.09449*%
%ADD34C,0.01000*%
%ADD35C,0.01969*%
%ADD36C,0.03150*%
%ADD37C,0.01181*%
%ADD38C,0.02953*%
%ADD39C,0.06000*%
%ADD40O,0.07874X0.11811*%
%ADD41C,0.06200*%
%ADD42P,0.06711X8X22.5*%
%ADD43R,0.05906X0.05906*%
%ADD44C,0.05906*%
%ADD45O,0.06000X0.04000*%
%ADD46O,0.04724X0.07874*%
%ADD47P,0.06392X8X22.5*%
%ADD48C,0.05906*%
%ADD49P,0.06392X8X142.5*%
%ADD50P,0.06392X8X82.5*%
%ADD51C,0.06299*%
%ADD52C,0.02362*%
%ADD53R,0.02362X0.04331*%
%ADD54R,0.07087X0.03150*%
%ADD55R,0.01575X0.07874*%
%ADD56O,0.01575X0.07874*%
%ADD57O,0.01969X0.05906*%
%ADD58O,0.02400X0.08000*%
%ADD59C,0.00787*%
%ADD60C,0.00500*%
%ADD61C,0.00800*%
%ADD62C,0.00394*%
%ADD63R,0.02567X0.13000*%
%ADD64R,0.02900X0.14000*%
%ADD65R,0.03800X0.03800*%
%ADD66R,0.03800X0.03800*%
%ADD67R,0.06800X0.14579*%
%ADD68R,0.05800X0.01800*%
%ADD69O,0.05800X0.01800*%
%ADD70R,0.01800X0.05800*%
%ADD71C,0.04737*%
%ADD72R,0.04400X0.04400*%
%ADD73R,0.05800X0.04400*%
%ADD74R,0.04400X0.04400*%
%ADD75R,0.04400X0.05800*%
%ADD76R,0.06800X0.05800*%
%ADD77R,0.08300X0.09800*%
%ADD78R,0.11627X0.11627*%
%ADD79R,0.05800X0.06800*%
%ADD80R,0.16548X0.12611*%
%ADD81O,0.03950X0.10642*%
%ADD82R,0.03950X0.10642*%
%ADD83R,0.12611X0.16548*%
%ADD84O,0.10642X0.03950*%
%ADD85R,0.10642X0.03950*%
%ADD86O,0.06706X0.02769*%
G04:AMPARAMS|DCode=87|XSize=94.61mil|YSize=55.24mil|CornerRadius=13.81mil|HoleSize=0mil|Usage=FLASHONLY|Rotation=270.000|XOffset=0mil|YOffset=0mil|HoleType=Round|Shape=RoundedRectangle|*
%AMROUNDEDRECTD87*
21,1,0.09461,0.02762,0,0,270.0*
21,1,0.06699,0.05524,0,0,270.0*
1,1,0.02762,-0.01381,-0.03350*
1,1,0.02762,-0.01381,0.03350*
1,1,0.02762,0.01381,0.03350*
1,1,0.02762,0.01381,-0.03350*
%
%ADD87ROUNDEDRECTD87*%
%ADD88R,0.05524X0.10249*%
%ADD89C,0.06800*%
%ADD90O,0.08674X0.12611*%
%ADD91C,0.07000*%
%ADD92P,0.07577X8X22.5*%
%ADD93R,0.06706X0.06706*%
%ADD94C,0.06706*%
%ADD95O,0.06800X0.04800*%
%ADD96O,0.05524X0.08674*%
%ADD97P,0.07258X8X22.5*%
%ADD98C,0.06706*%
%ADD99P,0.07258X8X142.5*%
%ADD100P,0.07258X8X82.5*%
%ADD101C,0.07099*%
%ADD102R,0.03162X0.05131*%
%ADD103R,0.07887X0.03950*%
%ADD104R,0.02375X0.08674*%
%ADD105O,0.02375X0.08674*%
%ADD106O,0.02769X0.06706*%
%ADD107O,0.03200X0.08800*%
D65*
X97100Y-76687D02*
D03*
Y-69600D02*
D03*
X29800Y-69800D02*
D03*
Y-76887D02*
D03*
X52200Y-109887D02*
D03*
Y-102800D02*
D03*
X107100Y-84700D02*
D03*
Y-77613D02*
D03*
X70500Y-52987D02*
D03*
Y-45900D02*
D03*
X16600Y-110087D02*
D03*
Y-103000D02*
D03*
D66*
X109500Y-105000D02*
D03*
X102413D02*
D03*
X109500Y-112100D02*
D03*
X102413D02*
D03*
X112013Y-44600D02*
D03*
X119100D02*
D03*
X89213Y-104991D02*
D03*
X96300D02*
D03*
X89213Y-112091D02*
D03*
X96300D02*
D03*
X106113Y-54500D02*
D03*
X113200D02*
D03*
X117113Y-105100D02*
D03*
X124200D02*
D03*
X117813Y-59900D02*
D03*
X124900D02*
D03*
D71*
X-9000Y-140300D02*
D03*
X10095D02*
D03*
D79*
X88700Y-67700D02*
D03*
Y-76700D02*
D03*
X6600Y-112000D02*
D03*
Y-103000D02*
D03*
D89*
X90700Y-38000D02*
D03*
X130858D02*
D03*
X14673Y128899D02*
D03*
X-13673D02*
D03*
Y146615D02*
D03*
X14673D02*
D03*
D90*
X14819Y-150733D02*
D03*
X-13724D02*
D03*
D91*
X16091Y157442D02*
D03*
X-23280D02*
D03*
D92*
X24891D02*
D03*
X-14480D02*
D03*
D93*
X-98700Y83700D02*
D03*
X-91600Y101900D02*
D03*
X-124100Y67600D02*
D03*
D94*
X-128700Y83700D02*
D03*
X-108700D02*
D03*
X-118700D02*
D03*
X-121600Y101900D02*
D03*
X-101600D02*
D03*
X-111600D02*
D03*
X-114100Y67600D02*
D03*
D95*
X137300Y10200D02*
D03*
Y30200D02*
D03*
Y20200D02*
D03*
D96*
X-100796Y-98572D02*
D03*
D97*
X4500Y0D02*
D03*
Y-23000D02*
D03*
X-3473Y22627D02*
D03*
D98*
X-3374Y0D02*
D03*
X21658Y7981D02*
D03*
X18363Y-14919D02*
D03*
X-3374Y-23000D02*
D03*
X-21037Y-7981D02*
D03*
X-16863Y14719D02*
D03*
X4401Y22627D02*
D03*
D99*
X17721Y14800D02*
D03*
X-17100Y-14800D02*
D03*
D100*
X22300Y-8100D02*
D03*
X-20800Y7900D02*
D03*
D101*
X65856Y146712D02*
D03*
X78344Y140888D02*
D03*
X100722Y126029D02*
D03*
X111278Y117171D02*
D03*
D102*
X31200Y-117800D02*
D03*
X34940D02*
D03*
X38680Y-127643D02*
D03*
Y-117800D02*
D03*
X34940Y-127643D02*
D03*
X31200D02*
D03*
D103*
X119500Y58300D02*
D03*
Y73300D02*
D03*
X140287D02*
D03*
Y68300D02*
D03*
Y63300D02*
D03*
Y58300D02*
D03*
X119500Y63300D02*
D03*
Y68300D02*
D03*
D104*
X5567Y-139800D02*
D03*
X3008D02*
D03*
X449D02*
D03*
X-2110D02*
D03*
X-4669D02*
D03*
X40400Y-61900D02*
D03*
D105*
X75400Y-89459D02*
D03*
X70400D02*
D03*
X65400D02*
D03*
X60400D02*
D03*
X55400D02*
D03*
X50400D02*
D03*
X45400D02*
D03*
X40400D02*
D03*
X75400Y-61900D02*
D03*
X70400D02*
D03*
X65400D02*
D03*
X60400D02*
D03*
X55400D02*
D03*
X50400D02*
D03*
X45400D02*
D03*
D106*
X16500Y-91402D02*
D03*
X11500D02*
D03*
X6500D02*
D03*
X1500D02*
D03*
X16500Y-60300D02*
D03*
X11500D02*
D03*
X6500D02*
D03*
X1500D02*
D03*
D107*
X129200Y-72900D02*
D03*
X124200D02*
D03*
X119200D02*
D03*
X114200D02*
D03*
Y-94900D02*
D03*
X119200D02*
D03*
X124200D02*
D03*
X129200D02*
D03*
M02*
