%FSLAX25Y25*%
%MOIN*%
G70*
G01*
G75*
G04 Layer_Physical_Order=2*
G04 Layer_Color=16711680*
%ADD10R,0.03000X0.03000*%
%ADD11R,0.03000X0.03000*%
%ADD12R,0.06000X0.13780*%
%ADD13R,0.05000X0.01000*%
%ADD14O,0.05000X0.01000*%
%ADD15R,0.01000X0.05000*%
%ADD16C,0.03937*%
%ADD17R,0.03600X0.03600*%
%ADD18R,0.05000X0.03600*%
%ADD19R,0.03600X0.03600*%
%ADD20R,0.03600X0.05000*%
%ADD21R,0.06000X0.05000*%
%ADD22R,0.07500X0.09000*%
%ADD23R,0.10827X0.10827*%
%ADD24R,0.05000X0.06000*%
%ADD25R,0.15748X0.11811*%
%ADD26O,0.03150X0.09843*%
%ADD27R,0.03150X0.09843*%
%ADD28R,0.11811X0.15748*%
%ADD29O,0.09843X0.03150*%
%ADD30R,0.09843X0.03150*%
%ADD31O,0.05906X0.01969*%
G04:AMPARAMS|DCode=32|XSize=86.61mil|YSize=47.24mil|CornerRadius=11.81mil|HoleSize=0mil|Usage=FLASHONLY|Rotation=270.000|XOffset=0mil|YOffset=0mil|HoleType=Round|Shape=RoundedRectangle|*
%AMROUNDEDRECTD32*
21,1,0.08661,0.02362,0,0,270.0*
21,1,0.06299,0.04724,0,0,270.0*
1,1,0.02362,-0.01181,-0.03150*
1,1,0.02362,-0.01181,0.03150*
1,1,0.02362,0.01181,0.03150*
1,1,0.02362,0.01181,-0.03150*
%
%ADD32ROUNDEDRECTD32*%
%ADD33R,0.04724X0.09449*%
%ADD34C,0.01000*%
%ADD35C,0.01969*%
%ADD36C,0.03150*%
%ADD37C,0.01181*%
%ADD38C,0.02953*%
%ADD39C,0.06000*%
%ADD40O,0.07874X0.11811*%
%ADD41C,0.06200*%
%ADD42P,0.06711X8X22.5*%
%ADD43R,0.05906X0.05906*%
%ADD44C,0.05906*%
%ADD45O,0.06000X0.04000*%
%ADD46O,0.04724X0.07874*%
%ADD47P,0.06392X8X22.5*%
%ADD48C,0.05906*%
%ADD49P,0.06392X8X142.5*%
%ADD50P,0.06392X8X82.5*%
%ADD51C,0.06299*%
%ADD52C,0.02362*%
%ADD53R,0.02362X0.04331*%
%ADD54R,0.07087X0.03150*%
%ADD55R,0.01575X0.07874*%
%ADD56O,0.01575X0.07874*%
%ADD57O,0.01969X0.05906*%
%ADD58O,0.02400X0.08000*%
G36*
X-61246Y70911D02*
X-61566Y70666D01*
X-62007Y70090D01*
X-62285Y69419D01*
X-62380Y68700D01*
X-62285Y67981D01*
X-62500Y67580D01*
X-63219Y67485D01*
X-63890Y67207D01*
X-64465Y66765D01*
X-64810Y66317D01*
X-65272Y66508D01*
X-65220Y66900D01*
X-65315Y67619D01*
X-65593Y68290D01*
X-66035Y68866D01*
X-66610Y69307D01*
X-67281Y69585D01*
X-68000Y69680D01*
X-68719Y69585D01*
X-69390Y69307D01*
X-69965Y68866D01*
X-70407Y68290D01*
X-70685Y67619D01*
X-70748Y67144D01*
X-102396Y35496D01*
X-102854Y34810D01*
X-103015Y34000D01*
Y-15030D01*
X-103307Y-15410D01*
X-103585Y-16081D01*
X-103680Y-16800D01*
X-103585Y-17519D01*
X-103307Y-18190D01*
X-102866Y-18766D01*
X-102290Y-19207D01*
X-101619Y-19485D01*
X-100900Y-19580D01*
X-100181Y-19485D01*
X-99510Y-19207D01*
X-98935Y-18766D01*
X-98493Y-18190D01*
X-98215Y-17519D01*
X-98120Y-16800D01*
X-98215Y-16081D01*
X-98493Y-15410D01*
X-98785Y-15030D01*
Y33124D01*
X-89908Y42000D01*
X-89860D01*
Y42000D01*
X-87563D01*
Y42000D01*
X-87115Y42000D01*
Y-15315D01*
X-87455Y-15758D01*
X-87733Y-16429D01*
X-87828Y-17148D01*
X-87733Y-17867D01*
X-87455Y-18538D01*
X-87014Y-19114D01*
X-86438Y-19555D01*
X-85768Y-19833D01*
X-85048Y-19928D01*
X-84329Y-19833D01*
X-83658Y-19555D01*
X-83082Y-19114D01*
X-82641Y-18538D01*
X-82363Y-17867D01*
X-82268Y-17148D01*
X-82363Y-16429D01*
X-82641Y-15758D01*
X-82885Y-15440D01*
Y41424D01*
X-62256Y62053D01*
X-61781Y62115D01*
X-61110Y62393D01*
X-60535Y62835D01*
X-60093Y63410D01*
X-59815Y64081D01*
X-59720Y64800D01*
X-59815Y65519D01*
X-59847Y65598D01*
X-59600Y65920D01*
X-58881Y66015D01*
X-58210Y66293D01*
X-57830Y66585D01*
X-50691D01*
X-50534Y60857D01*
X-52296Y59096D01*
X-52754Y58410D01*
X-52915Y57600D01*
Y-35124D01*
X-55476Y-37685D01*
X-63547D01*
Y-28147D01*
X-63500Y-28100D01*
X-127700D01*
Y47600D01*
X-127800Y47700D01*
X-127500Y48000D01*
Y63073D01*
X-119572D01*
Y63200D01*
X-115308D01*
X-115282Y63189D01*
X-114100Y63033D01*
X-112918Y63189D01*
X-111817Y63645D01*
X-110871Y64371D01*
X-110145Y65317D01*
X-109689Y66418D01*
X-109533Y67600D01*
X-109689Y68782D01*
X-109758Y68950D01*
X-107324Y71385D01*
X-61406D01*
X-61246Y70911D01*
D02*
G37*
G36*
X8234Y167244D02*
X15951Y166708D01*
X23636Y165817D01*
X31271Y164571D01*
X38840Y162975D01*
X46328Y161030D01*
X53718Y158742D01*
X60994Y156114D01*
X68141Y153154D01*
X75144Y149867D01*
X81987Y146259D01*
X88657Y142340D01*
X95139Y138117D01*
X101418Y133598D01*
X107482Y128795D01*
X113318Y123717D01*
X118913Y118375D01*
X124255Y112779D01*
X129334Y106944D01*
X133457Y101739D01*
X133352Y101250D01*
X111083Y89634D01*
X109658D01*
Y89648D01*
X108167Y89452D01*
X106779Y88877D01*
X105586Y87962D01*
X104671Y86769D01*
X104096Y85381D01*
X103900Y83890D01*
X103900D01*
X103914Y83890D01*
X103914Y76016D01*
D01*
Y76016D01*
D01*
X103921Y75980D01*
X104045Y75040D01*
X104422Y74130D01*
X104500Y74029D01*
Y73181D01*
X83270D01*
X83019Y73285D01*
X82300Y73380D01*
X81581Y73285D01*
X80910Y73007D01*
X80335Y72566D01*
X79893Y71990D01*
X79615Y71319D01*
X79520Y70600D01*
X79615Y69881D01*
X79893Y69210D01*
X80335Y68634D01*
X80514Y68497D01*
X80497Y67997D01*
X79918Y67610D01*
X65924Y53615D01*
X22520D01*
X22140Y53907D01*
X21469Y54185D01*
X20750Y54280D01*
X20145Y54200D01*
X16292D01*
X816Y69676D01*
Y85830D01*
X1107Y86210D01*
X1385Y86881D01*
X1480Y87600D01*
X1385Y88319D01*
X1107Y88990D01*
X666Y89565D01*
X90Y90007D01*
X-581Y90285D01*
X-1300Y90380D01*
X-2019Y90285D01*
X-2690Y90007D01*
X-3266Y89565D01*
X-3707Y88990D01*
X-3985Y88319D01*
X-4080Y87600D01*
X-3985Y86881D01*
X-3707Y86210D01*
X-3415Y85830D01*
Y68800D01*
X-3254Y67990D01*
X-2796Y67304D01*
X14800Y49708D01*
Y44381D01*
X-15831D01*
X-19719Y48269D01*
Y52219D01*
X-11716D01*
X-11527Y51973D01*
X-10787Y51405D01*
X-9925Y51048D01*
X-9000Y50926D01*
X-8075Y51048D01*
X-7213Y51405D01*
X-6473Y51973D01*
X-5905Y52713D01*
X-5548Y53575D01*
X-5426Y54500D01*
X-5548Y55425D01*
X-5905Y56287D01*
X-6473Y57027D01*
X-7213Y57595D01*
X-8075Y57952D01*
X-9000Y58074D01*
X-9925Y57952D01*
X-10787Y57595D01*
X-11066Y57381D01*
X-19843D01*
X-20513Y57895D01*
X-21375Y58252D01*
X-22300Y58374D01*
X-23225Y58252D01*
X-24087Y57895D01*
X-24827Y57327D01*
X-25395Y56587D01*
X-25752Y55725D01*
X-25874Y54800D01*
X-25752Y53875D01*
X-25395Y53013D01*
X-24881Y52343D01*
Y47200D01*
X-24800Y46584D01*
Y42200D01*
X-26323Y40677D01*
X-39193D01*
X-39375Y40752D01*
X-40300Y40874D01*
X-41225Y40752D01*
X-42087Y40395D01*
X-42827Y39827D01*
X-43395Y39087D01*
X-43752Y38225D01*
X-43874Y37300D01*
X-43752Y36375D01*
X-43395Y35513D01*
X-42827Y34773D01*
X-42087Y34205D01*
X-41225Y33848D01*
X-40300Y33726D01*
X-39375Y33848D01*
X-38513Y34205D01*
X-38359Y34323D01*
X54723D01*
Y22290D01*
X54448Y21625D01*
X54326Y20700D01*
X54382Y20276D01*
X54052Y19900D01*
X50150D01*
X43125Y26925D01*
X42591Y27335D01*
X42279Y27464D01*
X41968Y27593D01*
X41300Y27681D01*
X16900D01*
X16232Y27593D01*
X16050Y27518D01*
X15609Y27335D01*
X15303Y27100D01*
X5113D01*
X4401Y27194D01*
X3689Y27100D01*
X-1154D01*
X-1209Y27155D01*
X-5737D01*
X-8000Y24891D01*
Y20363D01*
X-5737Y18100D01*
X-1400D01*
Y18000D01*
X2414Y14186D01*
X2265Y13991D01*
X2136Y13679D01*
X2007Y13368D01*
X1919Y12700D01*
Y4210D01*
X593Y2885D01*
X94Y2917D01*
X-145Y3229D01*
X-1091Y3955D01*
X-2192Y4411D01*
X-3374Y4567D01*
X-4556Y4411D01*
X-5657Y3955D01*
X-6603Y3229D01*
X-7329Y2283D01*
X-7785Y1182D01*
X-7941Y0D01*
X-7785Y-1182D01*
X-7329Y-2283D01*
X-6603Y-3229D01*
X-5955Y-3726D01*
Y-4826D01*
X-5867Y-5494D01*
X-5738Y-5805D01*
X-5609Y-6117D01*
X-5199Y-6651D01*
X2625Y-14475D01*
X-1695Y-18795D01*
X-2192Y-18589D01*
X-3374Y-18433D01*
X-4556Y-18589D01*
X-5657Y-19045D01*
X-6603Y-19771D01*
X-7329Y-20717D01*
X-7785Y-21818D01*
X-7941Y-23000D01*
X-7785Y-24182D01*
X-7329Y-25283D01*
X-6603Y-26229D01*
X-5657Y-26955D01*
X-4556Y-27411D01*
X-3557Y-27542D01*
X-3500Y-27600D01*
X15750D01*
X17675Y-29525D01*
X18209Y-29935D01*
X18650Y-30118D01*
X18832Y-30193D01*
X19500Y-30281D01*
X32543D01*
X33213Y-30795D01*
X34075Y-31152D01*
X35000Y-31274D01*
X35925Y-31152D01*
X36787Y-30795D01*
X37527Y-30227D01*
X38095Y-29487D01*
X38452Y-28625D01*
X38574Y-27700D01*
X38452Y-26775D01*
X38095Y-25913D01*
X37527Y-25173D01*
X36787Y-24605D01*
X35925Y-24248D01*
X35000Y-24126D01*
X34075Y-24248D01*
X33213Y-24605D01*
X32543Y-25119D01*
X20569D01*
X7406Y-11955D01*
X8572Y-2719D01*
X9027Y-2264D01*
Y2264D01*
X7081Y4210D01*
Y11631D01*
X9850Y14400D01*
X12700D01*
X12700Y14400D01*
X12700D01*
X12729Y14392D01*
X14932Y10576D01*
X14973Y10565D01*
X17300Y6000D01*
X19653Y1656D01*
X19467Y1209D01*
X19303Y-38D01*
X19467Y-1286D01*
X19542Y-1466D01*
X16200Y-9200D01*
X15536Y-11381D01*
X15134Y-11690D01*
X14408Y-12636D01*
X13952Y-13737D01*
X13796Y-14919D01*
X13952Y-16101D01*
X14408Y-17202D01*
X15134Y-18148D01*
X16080Y-18874D01*
X17181Y-19330D01*
X18363Y-19486D01*
X19545Y-19330D01*
X20646Y-18874D01*
X21592Y-18148D01*
X22318Y-17202D01*
X22734Y-16199D01*
X25500Y-13000D01*
X26894Y-9198D01*
X27353Y-8403D01*
X27282Y-8140D01*
X27700Y-7000D01*
X28697Y-1478D01*
X28777Y-1286D01*
X28898Y-368D01*
X29000Y200D01*
X29000Y200D01*
X28907Y219D01*
X28777Y1209D01*
X28698Y1398D01*
X28700Y1400D01*
X28700D01*
X26300Y8600D01*
X26094Y8972D01*
X26069Y9163D01*
X25613Y10264D01*
X24888Y11210D01*
X24837Y11248D01*
X22753Y15023D01*
X22774Y15103D01*
X20510Y19024D01*
X17600Y19804D01*
Y19807D01*
X17600D01*
Y21955D01*
X17600D01*
X17600Y21955D01*
Y22150D01*
X17969Y22519D01*
X40231D01*
X48319Y14431D01*
Y-5643D01*
X47805Y-6313D01*
X47448Y-7175D01*
X47326Y-8100D01*
X47448Y-9025D01*
X47805Y-9887D01*
X48373Y-10627D01*
X49113Y-11195D01*
X49975Y-11552D01*
X50900Y-11674D01*
X50915Y-11672D01*
X52400Y-12600D01*
X54823Y-13905D01*
Y-40184D01*
X50678Y-44330D01*
X50013Y-44605D01*
X49746Y-44810D01*
X25090D01*
X24425Y-44535D01*
X23500Y-44413D01*
X22575Y-44535D01*
X21910Y-44810D01*
X-4924D01*
X-5588Y-44535D01*
X-6513Y-44413D01*
X-7438Y-44535D01*
X-8300Y-44892D01*
X-9041Y-45459D01*
X-9608Y-46200D01*
X-9966Y-47062D01*
X-10087Y-47987D01*
X-9966Y-48912D01*
X-9677Y-49609D01*
Y-61910D01*
X-9952Y-62575D01*
X-10074Y-63500D01*
X-9952Y-64425D01*
X-9677Y-65090D01*
Y-66010D01*
X-9952Y-66675D01*
X-10074Y-67600D01*
X-9952Y-68525D01*
X-9595Y-69387D01*
X-9027Y-70127D01*
X-8287Y-70695D01*
X-7425Y-71052D01*
X-6500Y-71174D01*
X-5575Y-71052D01*
X-4713Y-70695D01*
X-3973Y-70127D01*
X-3405Y-69387D01*
X-3048Y-68525D01*
X-2926Y-67600D01*
X-3048Y-66675D01*
X-3323Y-66010D01*
Y-65090D01*
X-3079Y-64500D01*
X204D01*
X209Y-64504D01*
X832Y-64762D01*
X1500Y-64850D01*
X2168Y-64762D01*
X2791Y-64504D01*
X2795Y-64500D01*
X5204D01*
X5209Y-64504D01*
X5832Y-64762D01*
X6500Y-64850D01*
X7168Y-64762D01*
X7791Y-64504D01*
X7796Y-64500D01*
X9385D01*
Y-70324D01*
X5004Y-74704D01*
X4546Y-75390D01*
X4385Y-76200D01*
Y-87000D01*
X2311D01*
X2168Y-86941D01*
X1500Y-86853D01*
X832Y-86941D01*
X209Y-87199D01*
X-325Y-87609D01*
X-735Y-88143D01*
X-993Y-88766D01*
X-1081Y-89434D01*
Y-93371D01*
X-993Y-94039D01*
X-735Y-94661D01*
X-325Y-95196D01*
X209Y-95606D01*
X832Y-95864D01*
X1500Y-95952D01*
X2168Y-95864D01*
X2184Y-95857D01*
X2600Y-96135D01*
Y-98425D01*
X2525D01*
Y-107575D01*
Y-110819D01*
X10675D01*
Y-107575D01*
Y-104915D01*
X13525D01*
Y-106075D01*
X19675D01*
Y-104915D01*
X49125D01*
Y-105875D01*
X55275D01*
Y-104915D01*
X59400D01*
X60210Y-104754D01*
X60896Y-104296D01*
X60896Y-104296D01*
X60896Y-104296D01*
X66896Y-98296D01*
X67354Y-97610D01*
X67515Y-96800D01*
X67515Y-96800D01*
X67515Y-96800D01*
Y-96800D01*
Y-95900D01*
X70708D01*
X73400Y-98592D01*
Y-102980D01*
X73033Y-103320D01*
X71305Y-103184D01*
X68971Y-103368D01*
X66695Y-103914D01*
X64533Y-104810D01*
X62537Y-106033D01*
X60757Y-107553D01*
X59237Y-109333D01*
X58014Y-111328D01*
X57119Y-113491D01*
X56572Y-115767D01*
X56389Y-118100D01*
X56572Y-120433D01*
X57119Y-122709D01*
X58014Y-124872D01*
X59237Y-126867D01*
X60757Y-128647D01*
X62537Y-130167D01*
X64533Y-131390D01*
X66695Y-132286D01*
X68971Y-132832D01*
X71305Y-133016D01*
X73638Y-132832D01*
X75914Y-132286D01*
X78076Y-131390D01*
X80072Y-130167D01*
X81852Y-128647D01*
X83372Y-126867D01*
X84595Y-124872D01*
X85491Y-122709D01*
X86037Y-120433D01*
X86221Y-118100D01*
X86037Y-115767D01*
X85906Y-115221D01*
X85906Y-115221D01*
X86139Y-115166D01*
X86211Y-115166D01*
X86211Y-115166D01*
Y-115166D01*
X92288D01*
Y-109612D01*
X92300Y-109600D01*
Y-107300D01*
X92288D01*
Y-101916D01*
X86708D01*
X77741Y-92949D01*
X77808Y-92609D01*
Y-86309D01*
X77625Y-85388D01*
X77600Y-85350D01*
Y-83381D01*
X84600D01*
X85268Y-83293D01*
X85579Y-83164D01*
X85891Y-83035D01*
X86425Y-82625D01*
X87775Y-81275D01*
X92775D01*
Y-81200D01*
X94786D01*
X94865Y-81391D01*
X95275Y-81925D01*
X95489Y-82139D01*
X95593Y-82390D01*
X96034Y-82965D01*
X96610Y-83407D01*
X97281Y-83685D01*
X98000Y-83780D01*
X98719Y-83685D01*
X99390Y-83407D01*
X99966Y-82965D01*
X100407Y-82390D01*
X100685Y-81719D01*
X100780Y-81000D01*
X100685Y-80281D01*
X100407Y-79610D01*
X100175Y-79307D01*
Y-73612D01*
X94025D01*
Y-74106D01*
X92775D01*
Y-72275D01*
Y-68881D01*
X84625D01*
Y-72275D01*
Y-77125D01*
X83531Y-78219D01*
X63200D01*
Y-74192D01*
X65383Y-72009D01*
X65842Y-71322D01*
X66003Y-70513D01*
Y-68089D01*
X66741Y-67350D01*
X69402Y-67224D01*
X69478Y-67275D01*
X70400Y-67458D01*
X71322Y-67275D01*
X71551Y-67121D01*
X74069Y-67001D01*
X74219Y-67101D01*
Y-61901D01*
Y-56699D01*
X73941Y-56884D01*
X73500Y-56649D01*
Y-56061D01*
X73575D01*
Y-49912D01*
X67425D01*
Y-55800D01*
X58537D01*
X58345Y-55338D01*
X66963Y-46720D01*
X67425Y-46911D01*
Y-46259D01*
X68965Y-44719D01*
X69319D01*
Y-44365D01*
X70859Y-42825D01*
X71511D01*
X71320Y-42363D01*
X73183Y-40500D01*
X77385D01*
Y-51230D01*
X77093Y-51610D01*
X76815Y-52281D01*
X76720Y-53000D01*
X76815Y-53719D01*
X77093Y-54390D01*
X77535Y-54966D01*
X78110Y-55407D01*
X78781Y-55685D01*
X79246Y-55746D01*
X80022Y-56522D01*
X79915Y-56781D01*
X79820Y-57500D01*
X79915Y-58219D01*
X80193Y-58890D01*
X80634Y-59465D01*
X81210Y-59907D01*
X81881Y-60185D01*
X82600Y-60280D01*
X83319Y-60185D01*
X83990Y-59907D01*
X84566Y-59465D01*
X85007Y-58890D01*
X85285Y-58219D01*
X85380Y-57500D01*
X85285Y-56781D01*
X85007Y-56110D01*
X84715Y-55730D01*
Y-10276D01*
X99644Y4653D01*
X100119Y4715D01*
X100790Y4993D01*
X101365Y5435D01*
X101807Y6010D01*
X102085Y6681D01*
X102180Y7400D01*
X102085Y8119D01*
X101807Y8790D01*
X101365Y9365D01*
X100790Y9807D01*
X100119Y10085D01*
X99400Y10180D01*
X98681Y10085D01*
X98010Y9807D01*
X97435Y9365D01*
X96993Y8790D01*
X96933Y8646D01*
X96450Y8775D01*
X96480Y9000D01*
X96385Y9719D01*
X96107Y10390D01*
X95666Y10966D01*
X95090Y11407D01*
X94419Y11685D01*
X94307Y12015D01*
X95496Y13204D01*
X95954Y13891D01*
X96115Y14700D01*
X96115Y14700D01*
X96115Y14700D01*
Y14700D01*
Y17300D01*
X96115Y17300D01*
X96115Y17300D01*
Y17300D01*
Y30030D01*
X96407Y30410D01*
X96685Y31081D01*
X96780Y31800D01*
X96685Y32519D01*
X96407Y33190D01*
X95965Y33766D01*
X95390Y34207D01*
X94719Y34485D01*
X94000Y34580D01*
X93281Y34485D01*
X92610Y34207D01*
X92035Y33766D01*
X91593Y33190D01*
X91315Y32519D01*
X91220Y31800D01*
X91315Y31081D01*
X91593Y30410D01*
X91885Y30030D01*
Y17300D01*
X91884Y17300D01*
X91885D01*
Y15800D01*
Y15576D01*
X74404Y-1904D01*
X73946Y-2590D01*
X73785Y-3400D01*
Y-33915D01*
X55962Y-51738D01*
X55500Y-51547D01*
Y-48493D01*
X60246Y-43746D01*
X60751Y-43088D01*
X61068Y-42322D01*
X61069Y-42322D01*
X61068Y-42322D01*
Y-42322D01*
X61177Y-41500D01*
Y-13190D01*
X61452Y-12525D01*
X61574Y-11600D01*
X61452Y-10675D01*
X61177Y-10010D01*
Y19352D01*
X61352Y19775D01*
X61474Y20700D01*
X61352Y21625D01*
X61077Y22290D01*
Y35559D01*
X61195Y35713D01*
X61552Y36575D01*
X61579Y36779D01*
X64019Y39219D01*
X65343D01*
X66013Y38705D01*
X66875Y38348D01*
X67800Y38226D01*
X68725Y38348D01*
X69587Y38705D01*
X70327Y39273D01*
X70895Y40013D01*
X71252Y40875D01*
X71374Y41800D01*
X71252Y42725D01*
X71110Y43069D01*
X71387Y43485D01*
X99724D01*
X131654Y11554D01*
X131654D01*
X131654Y11554D01*
X132731Y10477D01*
X132694Y10200D01*
X132817Y9267D01*
X133177Y8397D01*
X133750Y7650D01*
X134497Y7077D01*
X135367Y6717D01*
X136300Y6594D01*
X138300D01*
X139233Y6717D01*
X140103Y7077D01*
X140850Y7650D01*
X141423Y8397D01*
X141783Y9267D01*
X141906Y10200D01*
X141783Y11133D01*
X141423Y12003D01*
X140850Y12750D01*
X140103Y13323D01*
X139233Y13683D01*
X138300Y13806D01*
X136300D01*
X135492Y13699D01*
X134646Y14546D01*
X102096Y47096D01*
X101410Y47554D01*
X100600Y47715D01*
X79174D01*
X79100Y48047D01*
Y55008D01*
X85076Y60985D01*
X87730D01*
X88110Y60693D01*
X88781Y60415D01*
X89500Y60320D01*
X90219Y60415D01*
X90890Y60693D01*
X91270Y60985D01*
X104500D01*
Y58319D01*
X104422Y58218D01*
X104045Y57308D01*
X103921Y56368D01*
X103914Y56331D01*
Y48536D01*
X103914Y48536D01*
X103914D01*
X104052Y47845D01*
X104061Y47831D01*
X104174Y46967D01*
X104750Y45579D01*
X105665Y44386D01*
X106857Y43471D01*
X108246Y42896D01*
X109736Y42700D01*
Y42714D01*
X115622D01*
X133400Y35384D01*
Y32293D01*
X133177Y32003D01*
X132817Y31133D01*
X132694Y30200D01*
X132817Y29267D01*
X133177Y28397D01*
X133750Y27650D01*
X134497Y27077D01*
X135367Y26717D01*
X136300Y26594D01*
X138300D01*
X139233Y26717D01*
X140103Y27077D01*
X140850Y27650D01*
X141383Y28345D01*
X145879Y30239D01*
X156120Y26016D01*
Y-61820D01*
X153693Y-67680D01*
X150405Y-74682D01*
X146798Y-81526D01*
X142878Y-88196D01*
X138655Y-94677D01*
X134137Y-100956D01*
X129334Y-107021D01*
X124255Y-112856D01*
X118913Y-118451D01*
X113318Y-123794D01*
X107482Y-128872D01*
X101418Y-133676D01*
X95139Y-138194D01*
X88657Y-142417D01*
X81987Y-146336D01*
X75144Y-149944D01*
X68141Y-153231D01*
X60994Y-156192D01*
X59200Y-156840D01*
X24556D01*
X20378Y-152187D01*
Y-151914D01*
X9260D01*
Y-152298D01*
X8600Y-153900D01*
X7091Y-156840D01*
X-5366D01*
X-7300Y-153800D01*
X-8165Y-152243D01*
Y-151914D01*
X-19284D01*
Y-152281D01*
X-21394Y-156840D01*
X-39589D01*
X-52000Y-127400D01*
X-55596Y-118411D01*
X-55579Y-118200D01*
X-55763Y-115867D01*
X-56309Y-113591D01*
X-57205Y-111428D01*
X-58428Y-109433D01*
X-59948Y-107653D01*
X-61430Y-106387D01*
X-63791Y-103197D01*
X-63566Y-102750D01*
X-63547D01*
Y-46315D01*
X-54900D01*
X-54090Y-46154D01*
X-53404Y-45696D01*
X-47004Y-39296D01*
X-47004Y-39296D01*
X-47004Y-39296D01*
X-46546Y-38610D01*
X-46385Y-37800D01*
Y55024D01*
X-41824Y59585D01*
X-25500D01*
X-24690Y59746D01*
X-24004Y60204D01*
X-12556Y71653D01*
X-12081Y71715D01*
X-11410Y71993D01*
X-10835Y72435D01*
X-10393Y73010D01*
X-10115Y73681D01*
X-10020Y74400D01*
X-10115Y75119D01*
X-10393Y75790D01*
X-10835Y76366D01*
X-11410Y76807D01*
X-12081Y77085D01*
X-12800Y77180D01*
X-13519Y77085D01*
X-14190Y76807D01*
X-14442Y76614D01*
X-14834Y76666D01*
X-15410Y77107D01*
X-16081Y77385D01*
X-16800Y77480D01*
X-17519Y77385D01*
X-18190Y77107D01*
X-18766Y76666D01*
X-19207Y76090D01*
X-19485Y75419D01*
X-19547Y74944D01*
X-22823Y71668D01*
X-23600Y72100D01*
X-23011Y71480D01*
X-28776Y65715D01*
X-32322D01*
X-32420Y66206D01*
X-32210Y66293D01*
X-31635Y66734D01*
X-31193Y67310D01*
X-30915Y67981D01*
X-30820Y68700D01*
X-30915Y69419D01*
X-31005Y69638D01*
X-30652Y69991D01*
X-30468Y69915D01*
X-29749Y69820D01*
X-29029Y69915D01*
X-28359Y70193D01*
X-27783Y70635D01*
X-27341Y71210D01*
X-27064Y71881D01*
X-26989Y72448D01*
X-26481Y72515D01*
X-25810Y72793D01*
X-25234Y73234D01*
X-24793Y73810D01*
X-24515Y74481D01*
X-24420Y75200D01*
X-24515Y75919D01*
X-24793Y76590D01*
X-25084Y76970D01*
Y82263D01*
X-25246Y83073D01*
X-25704Y83759D01*
X-37673Y95727D01*
X-38359Y96186D01*
X-39169Y96347D01*
X-102800D01*
Y97112D01*
X-102424Y97442D01*
X-102781Y97489D01*
Y100719D01*
X-106011D01*
X-106061Y101095D01*
X-106439Y100768D01*
X-106900Y100900D01*
X-107158Y100952D01*
X-107033Y101900D01*
X-107189Y103082D01*
X-107645Y104183D01*
X-108371Y105129D01*
X-109317Y105855D01*
X-110418Y106311D01*
X-111600Y106467D01*
X-112782Y106311D01*
X-113050Y106200D01*
X-120150D01*
X-120418Y106311D01*
X-121600Y106467D01*
X-122782Y106311D01*
X-123883Y105855D01*
X-124829Y105129D01*
X-125555Y104183D01*
X-126011Y103082D01*
X-126167Y101900D01*
X-126011Y100718D01*
X-125555Y99617D01*
X-124829Y98671D01*
X-123883Y97945D01*
X-122782Y97489D01*
X-121600Y97333D01*
X-120418Y97489D01*
X-120250Y97558D01*
X-114900Y92208D01*
Y87257D01*
X-115265Y86916D01*
X-115471Y86929D01*
X-116417Y87655D01*
X-117518Y88111D01*
X-118700Y88267D01*
X-119882Y88111D01*
X-120983Y87655D01*
X-121929Y86929D01*
X-122655Y85983D01*
X-123111Y84882D01*
X-123267Y83700D01*
X-123111Y82518D01*
X-122655Y81417D01*
X-121929Y80471D01*
X-120983Y79745D01*
X-119882Y79289D01*
X-118700Y79133D01*
X-117518Y79289D01*
X-117350Y79359D01*
X-115982Y77990D01*
X-116173Y77528D01*
X-116287D01*
X-117097Y77367D01*
X-117783Y76908D01*
X-122564Y72127D01*
X-127500D01*
Y79296D01*
X-126417Y79745D01*
X-125471Y80471D01*
X-124745Y81417D01*
X-124289Y82518D01*
X-124289Y82519D01*
X-128701D01*
Y84881D01*
X-124289D01*
X-124289Y84882D01*
X-124745Y85983D01*
X-125471Y86929D01*
X-126417Y87655D01*
X-127500Y88103D01*
Y107902D01*
X-123255Y112779D01*
X-117913Y118375D01*
X-112318Y123717D01*
X-106482Y128795D01*
X-100418Y133598D01*
X-94138Y138117D01*
X-87657Y142340D01*
X-80987Y146259D01*
X-74144Y149867D01*
X-67141Y153154D01*
X-59994Y156114D01*
X-52718Y158742D01*
X-45328Y161030D01*
X-37840Y162975D01*
X-30271Y164571D01*
X-22636Y165817D01*
X-14951Y166708D01*
X-7234Y167244D01*
X500Y167423D01*
X8234Y167244D01*
D02*
G37*
G36*
X59985Y-68076D02*
Y-68724D01*
X55196Y-73512D01*
X54500Y-73420D01*
X53781Y-73515D01*
X53110Y-73793D01*
X52535Y-74234D01*
X52093Y-74810D01*
X51815Y-75481D01*
X51720Y-76200D01*
X51815Y-76919D01*
X52093Y-77590D01*
X52392Y-77980D01*
X52293Y-78110D01*
X52015Y-78781D01*
X51920Y-79500D01*
X52015Y-80219D01*
X52293Y-80890D01*
X52735Y-81466D01*
X53310Y-81907D01*
X53981Y-82185D01*
X54700Y-82280D01*
X55419Y-82185D01*
X55625Y-82100D01*
X56600D01*
Y-83746D01*
X56214Y-84063D01*
X56322Y-84084D01*
X56581Y-84257D01*
Y-89460D01*
X54219D01*
Y-84258D01*
X54213Y-84261D01*
X53727Y-84147D01*
X53700Y-84100D01*
X51345D01*
X51322Y-84084D01*
X50400Y-83901D01*
X49478Y-84084D01*
X49455Y-84100D01*
X46345D01*
X46322Y-84084D01*
X45400Y-83901D01*
X44478Y-84084D01*
X44455Y-84100D01*
X41345D01*
X41322Y-84084D01*
X40400Y-83901D01*
X39478Y-84084D01*
X38697Y-84606D01*
X38175Y-85388D01*
X37991Y-86309D01*
Y-92609D01*
X38175Y-93530D01*
X38697Y-94312D01*
X39478Y-94834D01*
X40400Y-95017D01*
X40595Y-94978D01*
X43000Y-95700D01*
X43479Y-95860D01*
X43904Y-96496D01*
X46053Y-98644D01*
X46115Y-99119D01*
X46393Y-99790D01*
X46735Y-100236D01*
X46514Y-100685D01*
X19675D01*
Y-99925D01*
X19675D01*
X19500Y-99900D01*
D01*
X19500Y-99900D01*
Y-98615D01*
X20300D01*
X21110Y-98454D01*
X21796Y-97996D01*
X46896Y-72896D01*
X47354Y-72210D01*
X47515Y-71400D01*
Y-67300D01*
X49605D01*
X50400Y-67458D01*
X51195Y-67300D01*
X54605D01*
X55400Y-67458D01*
X56195Y-67300D01*
X59208D01*
X59985Y-68076D01*
D02*
G37*
G36*
X48285Y-56276D02*
Y-57665D01*
X48175Y-57829D01*
X48150Y-57954D01*
X47650D01*
X47625Y-57829D01*
X47103Y-57047D01*
X46322Y-56525D01*
X45400Y-56342D01*
X44478Y-56525D01*
X43697Y-57047D01*
X43241Y-57730D01*
X42762Y-57585D01*
Y-56388D01*
X38038D01*
Y-67412D01*
X38285D01*
Y-69624D01*
X33337Y-74572D01*
X32875Y-74380D01*
Y-73812D01*
X26725D01*
Y-79961D01*
X27685D01*
Y-82000D01*
Y-83596D01*
X24181Y-87100D01*
X17553D01*
X17168Y-86941D01*
X16500Y-86853D01*
X15832Y-86941D01*
X15447Y-87100D01*
X12553D01*
X12168Y-86941D01*
X11500Y-86853D01*
X10832Y-86941D01*
X10447Y-87100D01*
X8615D01*
Y-77076D01*
X12996Y-72696D01*
X12996Y-72696D01*
X12996Y-72696D01*
X13454Y-72010D01*
X13615Y-71200D01*
Y-64500D01*
X15000D01*
X15089Y-64411D01*
X15209Y-64504D01*
X15319Y-64549D01*
Y-60299D01*
X16499D01*
Y-59119D01*
X19081D01*
Y-58332D01*
X18993Y-57664D01*
X18735Y-57041D01*
X18797Y-56915D01*
X27124D01*
X27685Y-57476D01*
Y-66725D01*
X26725D01*
Y-72875D01*
X32875D01*
Y-66725D01*
X31915D01*
Y-56600D01*
X31754Y-55790D01*
X31296Y-55104D01*
X31415Y-54815D01*
X46824D01*
X48285Y-56276D01*
D02*
G37*
%LPC*%
G36*
X120188Y-102025D02*
X118295D01*
Y-103919D01*
X120188D01*
Y-102025D01*
D02*
G37*
G36*
X99375Y-101916D02*
X93225D01*
Y-108066D01*
X99339D01*
Y-108075D01*
X105488D01*
Y-101925D01*
X99375D01*
Y-101916D01*
D02*
G37*
G36*
X131999Y-96081D02*
X130381D01*
Y-100214D01*
X130599Y-100124D01*
X131179Y-99679D01*
X131624Y-99099D01*
X131903Y-98424D01*
X131999Y-97700D01*
Y-96081D01*
D02*
G37*
G36*
X110175Y-81625D02*
X104025D01*
Y-87775D01*
X110175D01*
X110175Y-87775D01*
Y-87775D01*
X110351Y-87702D01*
X111619Y-88969D01*
Y-91080D01*
X111497Y-91376D01*
X111401Y-92100D01*
Y-97700D01*
X111497Y-98424D01*
X111564Y-98586D01*
X108224Y-101925D01*
X106425D01*
Y-107100D01*
X106400D01*
Y-109400D01*
X106425Y-109425D01*
Y-115175D01*
X112575D01*
Y-109025D01*
X112081D01*
Y-108075D01*
X112575D01*
Y-104876D01*
X113577Y-103874D01*
X114038Y-104065D01*
Y-103919D01*
X115932D01*
Y-102025D01*
X116078D01*
X115887Y-101563D01*
X116025Y-101425D01*
X116428Y-100900D01*
X122084D01*
Y-102025D01*
X121125D01*
Y-108175D01*
X127275D01*
Y-102516D01*
X127300Y-102500D01*
X127300Y-102500D01*
Y-100400D01*
X127600Y-100100D01*
X127770D01*
X127801Y-100124D01*
X128019Y-100214D01*
Y-94901D01*
Y-89586D01*
X127801Y-89676D01*
X127639Y-89800D01*
X125761D01*
X125599Y-89676D01*
X124924Y-89397D01*
X124200Y-89301D01*
X123476Y-89397D01*
X122801Y-89676D01*
X122639Y-89800D01*
X120761D01*
X120599Y-89676D01*
X119924Y-89397D01*
X119200Y-89301D01*
X118759Y-89359D01*
X116702Y-87303D01*
X116693Y-87232D01*
X116435Y-86609D01*
X116025Y-86075D01*
X112825Y-82875D01*
X112291Y-82465D01*
X111979Y-82336D01*
X111668Y-82207D01*
X111000Y-82119D01*
X110175D01*
Y-81625D01*
D02*
G37*
G36*
X120188Y-106281D02*
X118295D01*
Y-108175D01*
X120188D01*
Y-106281D01*
D02*
G37*
G36*
X51019Y-106812D02*
X49125D01*
Y-108705D01*
X51019D01*
Y-106812D01*
D02*
G37*
G36*
X19675Y-107012D02*
X17781D01*
Y-108905D01*
X19675D01*
Y-107012D01*
D02*
G37*
G36*
X115932Y-106281D02*
X114039D01*
Y-108175D01*
X115932D01*
Y-106281D01*
D02*
G37*
G36*
X55275Y-106812D02*
X53381D01*
Y-108705D01*
X55275D01*
Y-106812D01*
D02*
G37*
G36*
X130381Y-89586D02*
Y-93719D01*
X131999D01*
Y-92100D01*
X131903Y-91376D01*
X131624Y-90701D01*
X131179Y-90121D01*
X130599Y-89676D01*
X130381Y-89586D01*
D02*
G37*
G36*
X77808Y-63081D02*
X76581D01*
Y-67101D01*
X77103Y-66753D01*
X77625Y-65971D01*
X77808Y-65050D01*
Y-63081D01*
D02*
G37*
G36*
X-14906Y-143361D02*
X-15163Y-143395D01*
X-16504Y-143950D01*
X-17655Y-144834D01*
X-18539Y-145985D01*
X-19094Y-147326D01*
X-19284Y-148765D01*
Y-149552D01*
X-14906D01*
Y-143361D01*
D02*
G37*
G36*
X92775Y-63125D02*
X89881D01*
Y-66519D01*
X92775D01*
Y-63125D01*
D02*
G37*
G36*
X87519D02*
X84625D01*
Y-66519D01*
X87519D01*
Y-63125D01*
D02*
G37*
G36*
X100175Y-66525D02*
X98281D01*
Y-68419D01*
X100175D01*
Y-66525D01*
D02*
G37*
G36*
Y-70781D02*
X98281D01*
Y-72675D01*
X100175D01*
Y-70781D01*
D02*
G37*
G36*
X95919D02*
X94025D01*
Y-72675D01*
X95919D01*
Y-70781D01*
D02*
G37*
G36*
X-12543Y-143361D02*
Y-149552D01*
X-8165D01*
Y-148765D01*
X-8354Y-147326D01*
X-8910Y-145985D01*
X-9793Y-144834D01*
X-10945Y-143950D01*
X-12286Y-143395D01*
X-12543Y-143361D01*
D02*
G37*
G36*
X95919Y-66525D02*
X94025D01*
Y-68419D01*
X95919D01*
Y-66525D01*
D02*
G37*
G36*
X15419Y-107012D02*
X13525D01*
Y-108905D01*
X15419D01*
Y-107012D01*
D02*
G37*
G36*
X41436Y-128824D02*
X39861D01*
Y-131383D01*
X41436D01*
Y-128824D01*
D02*
G37*
G36*
X10675Y-113181D02*
X7781D01*
Y-116575D01*
X6185D01*
X6330Y-117053D01*
X6104Y-117204D01*
X-1047Y-124355D01*
X-1506Y-125042D01*
X-1667Y-125851D01*
Y-134288D01*
X-4473D01*
Y-139801D01*
Y-145312D01*
X7929D01*
Y-143688D01*
X8345Y-143411D01*
X8913Y-143646D01*
Y-140301D01*
Y-138668D01*
X9051Y-138488D01*
X9369Y-137722D01*
X9477Y-136900D01*
Y-136807D01*
X9853Y-136758D01*
X9477Y-136428D01*
Y-135416D01*
X9871Y-135021D01*
X10371D01*
X11335Y-135985D01*
X11869Y-136395D01*
X12309Y-136577D01*
X12492Y-136653D01*
X13160Y-136741D01*
X32600D01*
X33268Y-136653D01*
X33579Y-136524D01*
X33891Y-136395D01*
X34425Y-135985D01*
X36765Y-133645D01*
X37176Y-133110D01*
X37358Y-132670D01*
X37433Y-132488D01*
X37521Y-131820D01*
Y-131383D01*
X37696D01*
Y-127644D01*
Y-123902D01*
X35069D01*
X34791Y-123487D01*
X34985Y-123019D01*
X35080Y-122300D01*
X34985Y-121581D01*
X35012Y-121540D01*
X34969D01*
X34707Y-120910D01*
X34266Y-120334D01*
X33956Y-120097D01*
Y-117801D01*
Y-114060D01*
X28444D01*
Y-116585D01*
X10685D01*
X10675Y-116575D01*
X10675Y-116231D01*
X10675Y-116231D01*
X10675D01*
Y-113181D01*
D02*
G37*
G36*
X37499Y-114060D02*
X36121D01*
Y-117801D01*
Y-121540D01*
X37499D01*
Y-117801D01*
Y-114060D01*
D02*
G37*
G36*
X41436Y-123902D02*
X39861D01*
Y-126461D01*
X41436D01*
Y-123902D01*
D02*
G37*
G36*
X-5850Y-134288D02*
X-7032D01*
Y-136830D01*
X-7447Y-137108D01*
X-7819Y-136954D01*
Y-140301D01*
Y-143646D01*
X-7447Y-143492D01*
X-7032Y-143770D01*
Y-145312D01*
X-5850D01*
Y-139801D01*
Y-134288D01*
D02*
G37*
G36*
X13441Y-141481D02*
X11276D01*
Y-143646D01*
X11881Y-143395D01*
X12622Y-142827D01*
X13190Y-142087D01*
X13441Y-141481D01*
D02*
G37*
G36*
X-10181D02*
X-12346D01*
X-12095Y-142087D01*
X-11527Y-142827D01*
X-10787Y-143395D01*
X-10181Y-143646D01*
Y-141481D01*
D02*
G37*
G36*
X11276Y-136954D02*
Y-139119D01*
X13441D01*
X13190Y-138513D01*
X12622Y-137773D01*
X11881Y-137205D01*
X11276Y-136954D01*
D02*
G37*
G36*
X-10181Y-136954D02*
X-10787Y-137205D01*
X-11527Y-137773D01*
X-12095Y-138513D01*
X-12346Y-139119D01*
X-10181D01*
Y-136954D01*
D02*
G37*
G36*
X41436Y-118981D02*
X39861D01*
Y-121540D01*
X41436D01*
Y-118981D01*
D02*
G37*
G36*
X16000Y-143361D02*
Y-149552D01*
X20378D01*
Y-148765D01*
X20189Y-147326D01*
X19634Y-145985D01*
X18750Y-144834D01*
X17599Y-143950D01*
X16258Y-143395D01*
X16000Y-143361D01*
D02*
G37*
G36*
X51019Y-111068D02*
X49125D01*
Y-112961D01*
X51019D01*
Y-111068D01*
D02*
G37*
G36*
X55275D02*
X53381D01*
Y-112961D01*
X55275D01*
Y-111068D01*
D02*
G37*
G36*
X13638Y-143361D02*
X13380Y-143395D01*
X12039Y-143950D01*
X10888Y-144834D01*
X10004Y-145985D01*
X9449Y-147326D01*
X9260Y-148765D01*
Y-149552D01*
X13638D01*
Y-143361D01*
D02*
G37*
G36*
X19675Y-111268D02*
X17781D01*
Y-113161D01*
X19675D01*
Y-111268D01*
D02*
G37*
G36*
X5419Y-113181D02*
X2525D01*
Y-116575D01*
X5419D01*
Y-113181D01*
D02*
G37*
G36*
X41436Y-114060D02*
X39861D01*
Y-116619D01*
X41436D01*
Y-114060D01*
D02*
G37*
G36*
X15419Y-111268D02*
X13525D01*
Y-113161D01*
X15419D01*
Y-111268D01*
D02*
G37*
G36*
X99375Y-109016D02*
X93225D01*
Y-115166D01*
X99339D01*
Y-115175D01*
X105488D01*
Y-109025D01*
X99375D01*
Y-109016D01*
D02*
G37*
G36*
X19081Y-61481D02*
X17681D01*
Y-64549D01*
X17791Y-64504D01*
X18325Y-64094D01*
X18735Y-63559D01*
X18993Y-62937D01*
X19081Y-62269D01*
Y-61481D01*
D02*
G37*
G36*
X106987Y119230D02*
X106959Y119185D01*
X106585Y117999D01*
X106531Y116756D01*
X106800Y115542D01*
X107375Y114438D01*
X107410Y114399D01*
X109614Y117026D01*
X106987Y119230D01*
D02*
G37*
G36*
X111423Y115507D02*
X109220Y112881D01*
X109264Y112853D01*
X110450Y112479D01*
X111693Y112424D01*
X112908Y112694D01*
X114011Y113268D01*
X114050Y113303D01*
X111423Y115507D01*
D02*
G37*
G36*
X115146Y119943D02*
X112942Y117317D01*
X115568Y115113D01*
X115597Y115157D01*
X115971Y116344D01*
X116025Y117587D01*
X115756Y118801D01*
X115181Y119904D01*
X115146Y119943D01*
D02*
G37*
G36*
X65440Y151459D02*
X64226Y151189D01*
X63123Y150615D01*
X62205Y149775D01*
X61537Y148726D01*
X61163Y147539D01*
X61109Y146296D01*
X61378Y145082D01*
X61952Y143979D01*
X62399Y143491D01*
X38124Y119216D01*
X17570D01*
X17190Y119507D01*
X16519Y119785D01*
X15800Y119880D01*
X15081Y119785D01*
X14410Y119507D01*
X13835Y119065D01*
X13393Y118490D01*
X13115Y117819D01*
X13020Y117100D01*
X13087Y116591D01*
X12758Y116216D01*
X6900D01*
X6090Y116054D01*
X5650Y115760D01*
X5081Y115685D01*
X4410Y115407D01*
X3835Y114965D01*
X3393Y114390D01*
X3115Y113719D01*
X3020Y113000D01*
X3115Y112281D01*
X3393Y111610D01*
X3835Y111035D01*
X4410Y110593D01*
X5081Y110315D01*
X5602Y110246D01*
X10100Y106700D01*
X11055Y106138D01*
X11135Y106035D01*
X11710Y105593D01*
X12381Y105315D01*
X13100Y105220D01*
X13819Y105315D01*
X14490Y105593D01*
X15066Y106035D01*
X15507Y106610D01*
X15785Y107281D01*
X15847Y107756D01*
X16501Y108410D01*
X32400D01*
Y106197D01*
X32352Y105832D01*
X32447Y105112D01*
X32724Y104442D01*
X33016Y104061D01*
Y93608D01*
X31224Y91815D01*
X12470D01*
X12090Y92107D01*
X11419Y92385D01*
X10700Y92480D01*
X9981Y92385D01*
X9310Y92107D01*
X8734Y91666D01*
X8293Y91090D01*
X8015Y90419D01*
X7920Y89700D01*
X8015Y88981D01*
X8293Y88310D01*
X8734Y87735D01*
X9310Y87293D01*
X9981Y87015D01*
X10700Y86920D01*
X11419Y87015D01*
X12090Y87293D01*
X12470Y87585D01*
X32100D01*
X32910Y87746D01*
X33596Y88204D01*
X33596Y88204D01*
X33596Y88204D01*
X36627Y91236D01*
X36627Y91236D01*
X36627Y91236D01*
X37086Y91922D01*
X37247Y92731D01*
Y104061D01*
X37539Y104442D01*
X37817Y105112D01*
X37911Y105832D01*
X37900Y105916D01*
Y108410D01*
X52325D01*
X61190Y99545D01*
X61243Y99465D01*
X84504Y76204D01*
X84504Y76204D01*
X84504D01*
X84504Y76204D01*
X84504D01*
X84504Y76204D01*
Y76204D01*
Y76204D01*
D01*
D01*
X84504D01*
Y76204D01*
X85190Y75746D01*
X86000Y75585D01*
X92130D01*
X92510Y75293D01*
X93181Y75015D01*
X93900Y74920D01*
X94619Y75015D01*
X95290Y75293D01*
X95865Y75735D01*
X96307Y76310D01*
X96503Y76782D01*
X98248Y79014D01*
X98665Y79334D01*
X99107Y79910D01*
X99286Y80340D01*
X101133Y82702D01*
X101566Y83034D01*
X102007Y83610D01*
X102285Y84281D01*
X102380Y85000D01*
X102285Y85719D01*
X102007Y86390D01*
X101566Y86966D01*
X100990Y87407D01*
X100319Y87685D01*
X99600Y87780D01*
X98881Y87685D01*
X98210Y87407D01*
X97830Y87115D01*
X84658D01*
X70737Y101037D01*
X70800Y101100D01*
Y102863D01*
X71167Y103203D01*
X71405Y103184D01*
X73738Y103368D01*
X76014Y103914D01*
X78176Y104810D01*
X80172Y106033D01*
X81952Y107553D01*
X83472Y109333D01*
X84695Y111328D01*
X85591Y113491D01*
X86137Y115767D01*
X86321Y118100D01*
X86137Y120433D01*
X85591Y122709D01*
X84695Y124872D01*
X83472Y126867D01*
X81952Y128647D01*
X80172Y130167D01*
X78176Y131390D01*
X76014Y132286D01*
X76038Y132484D01*
X91274D01*
X96239Y127520D01*
X96029Y126856D01*
X95975Y125613D01*
X96244Y124399D01*
X96819Y123295D01*
X97659Y122378D01*
X98708Y121710D01*
X99895Y121336D01*
X101137Y121282D01*
X102352Y121551D01*
X103455Y122125D01*
X104373Y122966D01*
X105041Y124015D01*
X105415Y125201D01*
X105469Y126444D01*
X105200Y127658D01*
X104625Y128762D01*
X103785Y129679D01*
X102736Y130347D01*
X101550Y130721D01*
X100307Y130776D01*
X99210Y130533D01*
X93647Y136096D01*
X92960Y136554D01*
X92151Y136715D01*
X81473D01*
X81292Y137181D01*
X81995Y137825D01*
X82023Y137870D01*
X78916Y139319D01*
X77702Y136716D01*
X76101D01*
X75348Y137195D01*
X75208Y136715D01*
X67185D01*
X64396Y139504D01*
X67023Y142131D01*
X67485Y142234D01*
X68589Y142808D01*
X69506Y143649D01*
X70174Y144698D01*
X70548Y145884D01*
X70603Y147127D01*
X70333Y148342D01*
X69759Y149445D01*
X68919Y150362D01*
X67870Y151030D01*
X66683Y151405D01*
X65440Y151459D01*
D02*
G37*
G36*
X110863Y121918D02*
X109648Y121649D01*
X108545Y121075D01*
X108506Y121039D01*
X111132Y118835D01*
X113336Y121462D01*
X113292Y121490D01*
X112105Y121864D01*
X110863Y121918D01*
D02*
G37*
G36*
X-97189Y100719D02*
X-100419D01*
Y97489D01*
X-100418Y97489D01*
X-99317Y97945D01*
X-98371Y98671D01*
X-97645Y99617D01*
X-97189Y100718D01*
X-97189Y100719D01*
D02*
G37*
G36*
X-87072Y106428D02*
X-96127D01*
Y97373D01*
X-87072D01*
Y106428D01*
D02*
G37*
G36*
X-102781Y106311D02*
X-102782Y106311D01*
X-103883Y105855D01*
X-104829Y105129D01*
X-105555Y104183D01*
X-106011Y103082D01*
X-106011Y103081D01*
X-102781D01*
Y106311D01*
D02*
G37*
G36*
X-70395Y133116D02*
X-72729Y132932D01*
X-75005Y132386D01*
X-77167Y131490D01*
X-79163Y130267D01*
X-80942Y128747D01*
X-82463Y126967D01*
X-83686Y124972D01*
X-84581Y122809D01*
X-85128Y120533D01*
X-85311Y118200D01*
X-85128Y115867D01*
X-84581Y113591D01*
X-83686Y111428D01*
X-82463Y109433D01*
X-80942Y107653D01*
X-79163Y106133D01*
X-77167Y104910D01*
X-75005Y104014D01*
X-72729Y103468D01*
X-70395Y103284D01*
X-68062Y103468D01*
X-65786Y104014D01*
X-63623Y104910D01*
X-61628Y106133D01*
X-59848Y107653D01*
X-58328Y109433D01*
X-57105Y111428D01*
X-56209Y113591D01*
X-55663Y115867D01*
X-55479Y118200D01*
X-55663Y120533D01*
X-56209Y122809D01*
X-57105Y124972D01*
X-58328Y126967D01*
X-59848Y128747D01*
X-61628Y130267D01*
X-63623Y131490D01*
X-65786Y132386D01*
X-68062Y132932D01*
X-70395Y133116D01*
D02*
G37*
G36*
X-100419Y106311D02*
Y103081D01*
X-97189D01*
X-97189Y103082D01*
X-97645Y104183D01*
X-98371Y105129D01*
X-99317Y105855D01*
X-100418Y106311D01*
X-100419Y106311D01*
D02*
G37*
G36*
X73667Y141766D02*
X73651Y141716D01*
X73597Y140473D01*
X73866Y139259D01*
X74441Y138155D01*
X75281Y137238D01*
X75326Y137210D01*
X76775Y140317D01*
X73667Y141766D01*
D02*
G37*
G36*
X15854Y133357D02*
Y130080D01*
X19132D01*
X19130Y130093D01*
X18669Y131206D01*
X17936Y132161D01*
X16980Y132895D01*
X15868Y133356D01*
X15854Y133357D01*
D02*
G37*
G36*
X81363Y144567D02*
X79914Y141460D01*
X83021Y140011D01*
X83037Y140061D01*
X83091Y141304D01*
X82822Y142518D01*
X82248Y143622D01*
X81407Y144539D01*
X81363Y144567D01*
D02*
G37*
G36*
X16091Y162157D02*
X14870Y161996D01*
X13733Y161525D01*
X12756Y160776D01*
X12007Y159800D01*
X11536Y158662D01*
X11375Y157442D01*
X11536Y156221D01*
X11636Y155979D01*
X-1139Y143204D01*
X-5304D01*
X-9111Y147011D01*
X-9216Y147809D01*
X-9677Y148922D01*
X-9900Y149213D01*
Y155009D01*
X-9805Y155104D01*
Y159779D01*
X-12142Y162117D01*
X-16817D01*
X-18901Y160032D01*
X-19400Y160065D01*
X-19945Y160776D01*
X-20922Y161525D01*
X-22059Y161996D01*
X-23280Y162157D01*
X-24500Y161996D01*
X-25637Y161525D01*
X-26614Y160776D01*
X-27363Y159800D01*
X-27834Y158662D01*
X-27995Y157442D01*
X-27834Y156221D01*
X-27734Y155979D01*
X-28096Y155617D01*
X-28554Y154931D01*
X-28715Y154121D01*
Y125941D01*
X-29500Y125500D01*
X-32227Y124818D01*
X-57452Y150044D01*
X-57515Y150519D01*
X-57793Y151190D01*
X-58235Y151766D01*
X-58810Y152207D01*
X-59481Y152485D01*
X-60200Y152580D01*
X-60919Y152485D01*
X-61590Y152207D01*
X-62165Y151766D01*
X-62607Y151190D01*
X-62885Y150519D01*
X-62980Y149800D01*
X-62970Y149730D01*
X-63100Y149600D01*
Y145628D01*
X-63145Y145519D01*
X-63240Y144800D01*
X-63145Y144081D01*
X-62867Y143410D01*
X-62425Y142834D01*
X-61850Y142393D01*
X-61179Y142115D01*
X-60704Y142052D01*
X-19900Y101249D01*
Y100522D01*
Y100522D01*
X-19900Y100224D01*
X-19900D01*
Y98154D01*
X-20200Y96600D01*
X-19900Y96900D01*
Y98154D01*
X-19501Y100224D01*
D01*
X-19498Y100225D01*
X-19498D01*
X-19023Y100371D01*
X-18656Y100004D01*
D01*
X-18656D01*
X-18656Y100004D01*
X-18656Y100004D01*
X-18656D01*
D01*
X-18656D01*
X-18656Y100004D01*
Y100004D01*
X-18656Y100004D01*
Y100004D01*
X-17969Y99546D01*
X-17160Y99385D01*
X-16770D01*
X-16390Y99093D01*
X-15719Y98815D01*
X-15101Y98734D01*
X-15004Y98449D01*
D01*
X-14940Y98260D01*
Y98260D01*
X-16100Y97100D01*
X-14808Y98088D01*
D01*
X-14526Y98304D01*
X-14526D01*
X-9945Y101806D01*
X-9881Y101815D01*
X-9210Y102093D01*
X-8635Y102534D01*
X-8193Y103110D01*
X-7915Y103781D01*
X-7820Y104500D01*
X-7915Y105219D01*
X-8193Y105890D01*
X-8635Y106465D01*
X-9210Y106907D01*
X-9881Y107185D01*
X-10600Y107280D01*
X-11319Y107185D01*
X-11990Y106907D01*
X-12370Y106615D01*
X-14024D01*
X-17100Y109692D01*
Y112368D01*
X-17100D01*
Y114414D01*
D01*
Y114831D01*
X-17100Y114831D01*
Y115300D01*
X-17100Y115300D01*
D01*
X-17100Y115301D01*
X-16999Y115433D01*
X-16721Y116103D01*
X-16713Y116167D01*
X-16200Y117000D01*
X-14864Y124441D01*
X-14854Y124440D01*
Y124497D01*
X-14800Y124800D01*
X-14854Y124608D01*
Y128898D01*
Y133358D01*
X-14524Y133401D01*
X-14900Y133730D01*
Y137300D01*
X-13227Y138973D01*
X-263D01*
X547Y139134D01*
X1233Y139593D01*
X5304Y143664D01*
X12044Y142866D01*
X12366Y142619D01*
X13479Y142158D01*
X14673Y142001D01*
X15868Y142158D01*
X16980Y142619D01*
X17936Y143352D01*
X18669Y144308D01*
X19130Y145421D01*
X19287Y146615D01*
X19240Y146980D01*
X26956Y152767D01*
X27228D01*
X29565Y155104D01*
Y159779D01*
X27228Y162117D01*
X22553D01*
X20469Y160032D01*
X19970Y160065D01*
X19425Y160776D01*
X18448Y161525D01*
X17311Y161996D01*
X16091Y162157D01*
D02*
G37*
G36*
X77929Y145635D02*
X76714Y145366D01*
X75611Y144792D01*
X74694Y143951D01*
X74666Y143907D01*
X77773Y142458D01*
X79222Y145565D01*
X79172Y145581D01*
X77929Y145635D01*
D02*
G37*
G36*
X13492Y127717D02*
X10214D01*
X10216Y127704D01*
X10677Y126592D01*
X11410Y125636D01*
X12366Y124902D01*
X13479Y124442D01*
X13492Y124440D01*
Y127717D01*
D02*
G37*
G36*
X-9214D02*
X-12492D01*
Y124440D01*
X-12479Y124442D01*
X-11366Y124902D01*
X-10410Y125636D01*
X-9677Y126592D01*
X-9216Y127704D01*
X-9214Y127717D01*
D02*
G37*
G36*
X19132D02*
X15854D01*
Y124440D01*
X15868Y124442D01*
X16980Y124902D01*
X17936Y125636D01*
X18669Y126592D01*
X19130Y127704D01*
X19132Y127717D01*
D02*
G37*
G36*
X13492Y133357D02*
X13479Y133356D01*
X12366Y132895D01*
X11410Y132161D01*
X10677Y131206D01*
X10216Y130093D01*
X10214Y130080D01*
X13492D01*
Y133357D01*
D02*
G37*
G36*
X-12492D02*
Y130080D01*
X-9214D01*
X-9216Y130093D01*
X-9677Y131206D01*
X-10410Y132161D01*
X-11366Y132895D01*
X-12479Y133356D01*
X-12492Y133357D01*
D02*
G37*
G36*
X109188Y-55681D02*
X107294D01*
Y-57575D01*
X109188D01*
Y-55681D01*
D02*
G37*
G36*
X104932D02*
X103039D01*
Y-57575D01*
X104932D01*
Y-55681D01*
D02*
G37*
G36*
Y-51425D02*
X103039D01*
Y-53319D01*
X104932D01*
Y-51425D01*
D02*
G37*
G36*
X69319Y-47081D02*
X67425D01*
Y-48975D01*
X69319D01*
Y-47081D01*
D02*
G37*
G36*
X109188Y-51425D02*
X107294D01*
Y-53319D01*
X109188D01*
Y-51425D01*
D02*
G37*
G36*
X127975Y-61081D02*
X126081D01*
Y-62975D01*
X127975D01*
Y-61081D01*
D02*
G37*
G36*
X123719D02*
X121825D01*
Y-62975D01*
X123719D01*
Y-61081D01*
D02*
G37*
G36*
X76581Y-56699D02*
Y-60719D01*
X77808D01*
Y-58750D01*
X77625Y-57829D01*
X77103Y-57047D01*
X76581Y-56699D01*
D02*
G37*
G36*
X127975Y-56825D02*
X126081D01*
Y-58719D01*
X127975D01*
Y-56825D01*
D02*
G37*
G36*
X123719D02*
X121825D01*
Y-58719D01*
X123719D01*
Y-56825D01*
D02*
G37*
G36*
X136119Y19019D02*
X132920D01*
X133177Y18397D01*
X133750Y17650D01*
X134497Y17077D01*
X135367Y16717D01*
X136119Y16618D01*
Y19019D01*
D02*
G37*
G36*
X-16863Y19286D02*
X-18045Y19130D01*
X-19146Y18674D01*
X-20092Y17948D01*
X-20818Y17002D01*
X-21025Y16502D01*
X-23486Y12152D01*
X-23589Y12124D01*
X-25853Y8203D01*
X-25810Y8043D01*
X-26400Y7000D01*
X-27564Y1721D01*
X-27777Y1209D01*
X-27941Y-38D01*
X-27777Y-1286D01*
X-27295Y-2448D01*
X-27097Y-2706D01*
X-25523Y-8597D01*
X-25448Y-9163D01*
X-25232Y-9685D01*
X-24800Y-11300D01*
X-20919Y-17240D01*
X-19889Y-19024D01*
X-16797Y-19853D01*
X-12876Y-17589D01*
X-12047Y-14497D01*
X-14093Y-10953D01*
X-15900Y-6600D01*
X-18362Y-540D01*
X-17100Y2800D01*
X-12500Y13300D01*
X-12500Y13300D01*
X-12541Y13321D01*
X-12452Y13537D01*
X-12296Y14719D01*
X-12452Y15901D01*
X-12908Y17002D01*
X-13634Y17948D01*
X-14580Y18674D01*
X-15681Y19130D01*
X-16863Y19286D01*
D02*
G37*
G36*
X141680Y19019D02*
X138481D01*
Y16618D01*
X139233Y16717D01*
X140103Y17077D01*
X140850Y17650D01*
X141423Y18397D01*
X141680Y19019D01*
D02*
G37*
G36*
X138481Y23782D02*
Y21381D01*
X141680D01*
X141423Y22003D01*
X140850Y22750D01*
X140103Y23323D01*
X139233Y23683D01*
X138481Y23782D01*
D02*
G37*
G36*
X136119D02*
X135367Y23683D01*
X134497Y23323D01*
X133750Y22750D01*
X133177Y22003D01*
X132920Y21381D01*
X136119D01*
Y23782D01*
D02*
G37*
G36*
X73575Y-42825D02*
X71681D01*
Y-44719D01*
X73575D01*
Y-42825D01*
D02*
G37*
G36*
Y-47081D02*
X71681D01*
Y-48975D01*
X73575D01*
Y-47081D01*
D02*
G37*
G36*
X130858Y-33386D02*
X129663Y-33543D01*
X128550Y-34004D01*
X127595Y-34737D01*
X126861Y-35693D01*
X126782Y-35885D01*
X118300D01*
X118222Y-35900D01*
X112878D01*
X112800Y-35885D01*
X94775D01*
X94696Y-35693D01*
X93963Y-34737D01*
X93007Y-34004D01*
X91894Y-33543D01*
X90700Y-33386D01*
X89506Y-33543D01*
X88393Y-34004D01*
X87437Y-34737D01*
X86704Y-35693D01*
X86243Y-36806D01*
X86086Y-38000D01*
X86243Y-39194D01*
X86704Y-40307D01*
X87437Y-41263D01*
X88393Y-41996D01*
X89506Y-42457D01*
X90700Y-42614D01*
X91894Y-42457D01*
X93007Y-41996D01*
X93963Y-41263D01*
X94696Y-40307D01*
X94775Y-40115D01*
X109000D01*
Y-41525D01*
X108939D01*
Y-47675D01*
X112084D01*
Y-51425D01*
X110125D01*
Y-57575D01*
X112084D01*
Y-68299D01*
X111776Y-68701D01*
X111497Y-69376D01*
X111401Y-70100D01*
Y-70319D01*
X109400D01*
X108732Y-70407D01*
X108550Y-70482D01*
X108109Y-70665D01*
X107575Y-71075D01*
X105275Y-73375D01*
X104865Y-73909D01*
X104769Y-74139D01*
X104607Y-74532D01*
X104606Y-74539D01*
X104025D01*
Y-80688D01*
X110175D01*
Y-78400D01*
X113468D01*
X113476Y-78403D01*
X113885Y-78457D01*
X113900Y-78500D01*
X113900Y-78500D01*
X114121Y-78488D01*
X114200Y-78499D01*
X114384Y-78474D01*
X116256Y-78376D01*
X116619Y-78720D01*
Y-80271D01*
X116615Y-80281D01*
X116520Y-81000D01*
X116615Y-81719D01*
X116893Y-82390D01*
X117334Y-82965D01*
X117910Y-83407D01*
X118581Y-83685D01*
X119300Y-83780D01*
X120019Y-83685D01*
X120690Y-83407D01*
X121265Y-82965D01*
X121707Y-82390D01*
X121985Y-81719D01*
X122080Y-81000D01*
X121985Y-80281D01*
X121781Y-79789D01*
Y-78100D01*
X122770D01*
X122801Y-78124D01*
X123019Y-78214D01*
Y-72899D01*
X125381D01*
Y-78214D01*
X125482Y-78172D01*
X125500Y-78200D01*
X125500Y-78200D01*
X125912Y-78100D01*
X125912D01*
X125912D01*
X125912Y-78100D01*
X126153D01*
Y-78100D01*
X126573D01*
D01*
X126843D01*
D01*
X127196Y-78100D01*
X127196D01*
X127770D01*
X127801Y-78124D01*
X128476Y-78403D01*
X129200Y-78499D01*
X129924Y-78403D01*
X130599Y-78124D01*
X131179Y-77679D01*
X131624Y-77099D01*
X131903Y-76424D01*
X131999Y-75700D01*
Y-70100D01*
X131903Y-69376D01*
X131624Y-68701D01*
X131316Y-68299D01*
Y-68200D01*
X131154Y-67390D01*
X130696Y-66704D01*
X129196Y-65204D01*
X128509Y-64746D01*
X127700Y-64585D01*
X120900D01*
Y-62800D01*
X120900Y-62800D01*
X120888Y-62798D01*
Y-56825D01*
X119016D01*
Y-47675D01*
X122175D01*
Y-41908D01*
X122200Y-41900D01*
X122200Y-41900D01*
Y-40115D01*
X126782D01*
X126861Y-40307D01*
X127595Y-41263D01*
X128550Y-41996D01*
X129663Y-42457D01*
X130858Y-42614D01*
X132052Y-42457D01*
X133165Y-41996D01*
X134120Y-41263D01*
X134854Y-40307D01*
X135315Y-39194D01*
X135472Y-38000D01*
X135315Y-36806D01*
X134854Y-35693D01*
X134120Y-34737D01*
X133165Y-34004D01*
X132052Y-33543D01*
X130858Y-33386D01*
D02*
G37*
G36*
X-92900Y29580D02*
X-93619Y29485D01*
X-94290Y29207D01*
X-94866Y28765D01*
X-95307Y28190D01*
X-95585Y27519D01*
X-95680Y26800D01*
X-95585Y26081D01*
X-95307Y25410D01*
X-95015Y25030D01*
Y-15730D01*
X-95307Y-16110D01*
X-95585Y-16781D01*
X-95680Y-17500D01*
X-95585Y-18219D01*
X-95307Y-18890D01*
X-94866Y-19466D01*
X-94290Y-19907D01*
X-93619Y-20185D01*
X-92900Y-20280D01*
X-92181Y-20185D01*
X-91510Y-19907D01*
X-90934Y-19466D01*
X-90493Y-18890D01*
X-90215Y-18219D01*
X-90120Y-17500D01*
X-90215Y-16781D01*
X-90493Y-16110D01*
X-90785Y-15730D01*
Y25030D01*
X-90493Y25410D01*
X-90215Y26081D01*
X-90120Y26800D01*
X-90215Y27519D01*
X-90493Y28190D01*
X-90934Y28765D01*
X-91510Y29207D01*
X-92181Y29485D01*
X-92900Y29580D01*
D02*
G37*
G36*
X-110200Y42380D02*
X-110919Y42285D01*
X-111590Y42007D01*
X-112165Y41565D01*
X-112607Y40990D01*
X-112885Y40319D01*
X-112947Y39844D01*
X-125896Y26896D01*
X-126354Y26210D01*
X-126515Y25400D01*
Y-16430D01*
X-126807Y-16810D01*
X-127085Y-17481D01*
X-127180Y-18200D01*
X-127085Y-18919D01*
X-126807Y-19590D01*
X-126365Y-20166D01*
X-125790Y-20607D01*
X-125119Y-20885D01*
X-124400Y-20980D01*
X-123681Y-20885D01*
X-123010Y-20607D01*
X-122434Y-20166D01*
X-121993Y-19590D01*
X-121715Y-18919D01*
X-121620Y-18200D01*
X-121715Y-17481D01*
X-121993Y-16810D01*
X-122284Y-16430D01*
Y24524D01*
X-109956Y36852D01*
X-109481Y36915D01*
X-108810Y37193D01*
X-108235Y37635D01*
X-107793Y38210D01*
X-107515Y38881D01*
X-107420Y39600D01*
X-107515Y40319D01*
X-107793Y40990D01*
X-108235Y41565D01*
X-108810Y42007D01*
X-109481Y42285D01*
X-110200Y42380D01*
D02*
G37*
%LPD*%
D10*
X97100Y-76687D02*
D03*
Y-69600D02*
D03*
X29800Y-69800D02*
D03*
Y-76887D02*
D03*
X52200Y-109887D02*
D03*
Y-102800D02*
D03*
X107100Y-84700D02*
D03*
Y-77613D02*
D03*
X70500Y-52987D02*
D03*
Y-45900D02*
D03*
X16600Y-110087D02*
D03*
Y-103000D02*
D03*
D11*
X109500Y-105000D02*
D03*
X102413D02*
D03*
X109500Y-112100D02*
D03*
X102413D02*
D03*
X112013Y-44600D02*
D03*
X119100D02*
D03*
X89213Y-104991D02*
D03*
X96300D02*
D03*
X89213Y-112091D02*
D03*
X96300D02*
D03*
X106113Y-54500D02*
D03*
X113200D02*
D03*
X117113Y-105100D02*
D03*
X124200D02*
D03*
X117813Y-59900D02*
D03*
X124900D02*
D03*
D16*
X-9000Y-140300D02*
D03*
X10095D02*
D03*
X60400Y-80900D02*
D03*
X67800Y41800D02*
D03*
X9800Y-126300D02*
D03*
X-22300Y54800D02*
D03*
X-40300Y37300D02*
D03*
X9800Y-130800D02*
D03*
X-6513Y-47987D02*
D03*
X58100Y37500D02*
D03*
X57900Y20700D02*
D03*
X23500Y-47987D02*
D03*
X51800Y-47700D02*
D03*
X58000Y-11600D02*
D03*
X-6500Y-67600D02*
D03*
Y-63500D02*
D03*
X-9000Y54500D02*
D03*
X35000Y-27700D02*
D03*
X50900Y-8100D02*
D03*
D24*
X88700Y-67700D02*
D03*
Y-76700D02*
D03*
X6600Y-112000D02*
D03*
Y-103000D02*
D03*
D34*
X54682Y114100D02*
X57867Y110915D01*
X50400Y-93200D02*
X54300Y-97100D01*
X6900Y114100D02*
X54682D01*
X58291Y110491D02*
X83782Y85000D01*
X57867Y110915D02*
X58291Y110491D01*
X83782Y85000D02*
X99600D01*
X84954Y81300D02*
X96700D01*
X53942Y112313D02*
X84954Y81300D01*
X11113Y112313D02*
X53942D01*
X53201Y110525D02*
X62739Y100987D01*
X15625Y110525D02*
X53201D01*
X86000Y77700D02*
X93900D01*
X62739Y100961D02*
X86000Y77700D01*
X62739Y100961D02*
Y100987D01*
X32300Y-122300D02*
Y-121700D01*
X31200Y-120600D02*
X32300Y-121700D01*
X31200Y-120600D02*
Y-117800D01*
X54700Y-79700D02*
X54900Y-79500D01*
X7600Y-118700D02*
X31200D01*
X15800Y117100D02*
X39000D01*
X54500Y-76200D02*
X55500D01*
X28500Y-123800D02*
X31200Y-126500D01*
X55500Y-76200D02*
X62100Y-69600D01*
X54700Y-79500D02*
X54900D01*
X63887Y-70513D01*
X54700Y-79700D02*
Y-79500D01*
X63887Y-70513D02*
Y-67213D01*
X-27200Y75200D02*
Y82263D01*
X-39169Y94231D02*
X-27200Y82263D01*
X-29749Y72600D02*
Y81349D01*
X54100Y-97100D02*
X54300D01*
X-113700Y78700D02*
X-61500D01*
X-60000Y80200D01*
X-60401Y75413D02*
X-52682Y83131D01*
X-38739D01*
X-116287Y75413D02*
X-60401D01*
X-118700Y83700D02*
X-113700Y78700D01*
X-38739Y83131D02*
X-37207Y81600D01*
X-124100Y67600D02*
X-116287Y75413D01*
X-37207Y81600D02*
X-37200D01*
X-27900Y63600D02*
X-16800Y74700D01*
X-44800Y63600D02*
X-27900D01*
X-50800Y57600D02*
X-44800Y63600D01*
X-48500Y55900D02*
X-42700Y61700D01*
X-48500Y-37800D02*
Y55900D01*
X-54900Y-44200D02*
X-48500Y-37800D01*
X34940Y-113140D02*
X38340D01*
X34940Y-117800D02*
Y-113140D01*
X38340D02*
X38680Y-113480D01*
Y-117800D02*
Y-113480D01*
Y-127643D02*
Y-117800D01*
X29800Y-84472D02*
Y-76887D01*
X19560Y-94713D02*
X29800Y-84472D01*
X17300Y-94713D02*
X19560D01*
X16500Y-93913D02*
X17300Y-94713D01*
X16500Y-93913D02*
Y-91402D01*
X29800Y-82000D02*
Y-76887D01*
X45400Y-71400D02*
Y-61900D01*
X20300Y-96500D02*
X45400Y-71400D01*
X11500Y-94300D02*
X13700Y-96500D01*
X20300D01*
X11500Y-94300D02*
Y-91402D01*
X79500Y-5200D02*
X93700Y9000D01*
X79500Y-53000D02*
Y-5200D01*
X75400Y-61900D02*
Y-48100D01*
X73200Y-45900D02*
X75400Y-48100D01*
X70500Y-45900D02*
X73200D01*
X70400Y-61900D02*
Y-53087D01*
X75900Y-3400D02*
X94000Y14700D01*
X75900Y-34792D02*
Y-3400D01*
X55400Y-55292D02*
X75900Y-34792D01*
X29243Y-127643D02*
X31200D01*
X22087Y-120487D02*
X29243Y-127643D01*
X8340Y-120487D02*
X22087D01*
X3008Y-125820D02*
X8340Y-120487D01*
X3008Y-139800D02*
Y-125820D01*
X449Y-125851D02*
X7600Y-118700D01*
X449Y-139800D02*
Y-125851D01*
X62100Y-69600D02*
Y-67200D01*
X65400Y-65700D02*
Y-61900D01*
X63887Y-67213D02*
X65400Y-65700D01*
X60400Y-65500D02*
X62100Y-67200D01*
X60400Y-65500D02*
Y-61900D01*
X99600Y85000D02*
X99700D01*
X102404Y-112091D02*
X102413Y-112100D01*
X96300Y-112091D02*
X102404D01*
Y-104991D02*
X102413Y-105000D01*
X96300Y-104991D02*
X102404D01*
X89213Y-112091D02*
Y-111413D01*
X70400Y-92600D02*
X89213Y-111413D01*
X70400Y-92600D02*
Y-89459D01*
X86791Y-104991D02*
X89213D01*
X75400Y-93600D02*
X86791Y-104991D01*
X75400Y-93600D02*
Y-89459D01*
X55400Y-61900D02*
Y-55292D01*
X94000Y14700D02*
Y17300D01*
Y31800D01*
Y15800D02*
Y17300D01*
X13100Y108000D02*
X15625Y110525D01*
X5800Y113000D02*
X6900Y114100D01*
X68500Y134600D02*
X92151D01*
X60500D02*
X68500D01*
X43800Y117900D02*
X60500Y134600D01*
X92151D02*
X100722Y126029D01*
X10700Y89700D02*
X32100D01*
X35131Y92731D02*
Y105832D01*
X32100Y89700D02*
X35131Y92731D01*
X65856Y143956D02*
Y146712D01*
X39000Y117100D02*
X65856Y143956D01*
X114200Y-72900D02*
Y-46400D01*
X112113Y-44700D02*
X114200D01*
Y-39400D01*
Y-46400D02*
Y-44700D01*
X116900Y-44600D02*
X119100D01*
X116900D02*
Y-39400D01*
Y-60900D02*
Y-44600D01*
X112800Y-38000D02*
X114200Y-39400D01*
X90700Y-38000D02*
X112800D01*
X116900Y-39400D02*
X118300Y-38000D01*
X130858D01*
X127700Y-66700D02*
X129200Y-68200D01*
X116800Y-65900D02*
X117600Y-66700D01*
X116800Y-65900D02*
Y-60900D01*
X117600Y-66700D02*
X127700D01*
X129200Y-72900D02*
Y-68200D01*
X114200Y-72900D02*
Y-69800D01*
X119200Y-94900D02*
X124200D01*
Y-105100D02*
Y-94900D01*
X82600Y-9400D02*
X99400Y7400D01*
X82600Y-57500D02*
Y-9400D01*
X50400Y-93200D02*
Y-89459D01*
X45400Y-95000D02*
Y-89459D01*
Y-95000D02*
X48800Y-98400D01*
X-25500Y61700D02*
X-12800Y74400D01*
X-42700Y61700D02*
X-25500D01*
X29800Y-76887D02*
X34013D01*
X40400Y-70500D01*
Y-61900D01*
X6500Y-60300D02*
Y-56500D01*
X8200Y-54800D01*
X28000D01*
X29800Y-56600D01*
Y-69800D02*
Y-56600D01*
X50400Y-61900D02*
Y-55400D01*
X47700Y-52700D02*
X50400Y-55400D01*
X4300Y-52700D02*
X47700D01*
X1500Y-55500D02*
X4300Y-52700D01*
X1500Y-60300D02*
Y-55500D01*
X31200Y-127643D02*
Y-126500D01*
X6500Y-91402D02*
Y-76200D01*
X11500Y-71200D01*
Y-60300D01*
X52200Y-102800D02*
X59400D01*
X6800D02*
X52200D01*
X1500Y-91402D02*
X6500D01*
Y-102900D02*
Y-91402D01*
Y-102900D02*
X6600Y-103000D01*
X6800Y-102800D01*
X59400D02*
X65400Y-96800D01*
Y-89459D01*
X114114Y66114D02*
X116300Y68300D01*
X81414Y66114D02*
X114114D01*
X66800Y51500D02*
X81414Y66114D01*
X116300Y68300D02*
X119500D01*
X84200Y63100D02*
X89500D01*
X119300D01*
X20750Y51500D02*
X66800D01*
X20650D02*
X20750D01*
X69400Y48300D02*
X84200Y63100D01*
X24300Y48300D02*
X69400D01*
X21900Y45600D02*
X100600D01*
X19869Y47631D02*
X21900Y45600D01*
X133150Y13050D02*
X136700Y9500D01*
X-1300Y68800D02*
X19869Y47631D01*
X100600Y45600D02*
X133150Y13050D01*
X119300Y63100D02*
X119500Y63300D01*
X133150Y13050D02*
X134300Y11900D01*
X-39200Y90800D02*
X-29800Y81400D01*
X-34000Y76000D02*
Y82100D01*
X-40500Y88600D02*
X-34000Y82100D01*
X-1300Y68800D02*
Y87600D01*
X-110500Y90800D02*
X-39200D01*
X-121600Y101900D02*
X-110500Y90800D01*
X-111600Y101900D02*
X-103931Y94231D01*
X-39169D01*
X-19012Y141088D02*
X-263D01*
X-23100Y137000D02*
X-19012Y141088D01*
X-23100Y119700D02*
Y137000D01*
Y119700D02*
X-22900D01*
X-19200Y117029D02*
Y134700D01*
X-263Y141088D02*
X16091Y157442D01*
X-26600Y154121D02*
X-23280Y157442D01*
X-26600Y121500D02*
Y154121D01*
X-60200Y149800D02*
X-14900Y104500D01*
X-60460Y144800D02*
X-17160Y101500D01*
X-15000D01*
X-9000Y-140300D02*
X-8900D01*
X-114100Y67600D02*
X-108200Y73500D01*
X-58822D01*
X-59600Y68700D02*
X-33600D01*
X-85000Y42300D02*
X-62500Y64800D01*
X-100900Y34000D02*
X-68000Y66900D01*
X-100900Y-16800D02*
Y34000D01*
X-124400Y25400D02*
X-110200Y39600D01*
X-124400Y-18200D02*
Y25400D01*
X-108700Y83700D02*
Y85800D01*
X-105900Y88600D01*
X-88500D01*
X-97100D02*
X-88500D01*
X-40500D01*
X-58822Y73500D02*
X-51904Y80418D01*
X-85000Y-17100D02*
Y42300D01*
X-85048Y-17148D02*
X-85000Y-17100D01*
X-91300Y85600D02*
X-51300D01*
X-92900Y-17500D02*
Y26800D01*
X-14900Y104500D02*
X-10600D01*
X-75000Y-39800D02*
X-54600D01*
X-50800Y-36000D01*
Y57600D01*
X-92700Y-44200D02*
X-54900D01*
D35*
X48600Y-79300D02*
Y-79000D01*
Y-79300D02*
X53100Y-83800D01*
X55400D01*
Y-89459D02*
Y-83800D01*
X-45400Y32200D02*
X-37000Y23800D01*
X-34500D01*
X-45400Y32200D02*
Y43600D01*
X-39300Y49700D01*
X-34900D01*
X55400Y-93000D02*
Y-89459D01*
X59000Y-97100D02*
Y-96600D01*
X55400Y-93000D02*
X59000Y-96600D01*
X109500Y-105000D02*
Y-104300D01*
Y-112100D02*
Y-105000D01*
X114200Y-99600D02*
Y-94900D01*
X109500Y-104300D02*
X114200Y-99600D01*
X97100Y-80100D02*
Y-76687D01*
Y-80100D02*
X98000Y-81000D01*
X119200Y-80900D02*
X119300Y-81000D01*
X119200Y-80900D02*
Y-72900D01*
X114200Y-94900D02*
Y-87900D01*
X107100Y-84700D02*
X111000D01*
X114200Y-87900D01*
X109400Y-72900D02*
X114200D01*
X107100Y-75200D02*
X109400Y-72900D01*
X107100Y-77613D02*
Y-75200D01*
X88700Y-76700D02*
X88713Y-76687D01*
X97100D01*
X84600Y-80800D02*
X88700Y-76700D01*
X60400Y-80800D02*
X84600D01*
X32600Y-134160D02*
X34940Y-131820D01*
X13160Y-134160D02*
X32600D01*
X34940Y-131820D02*
Y-127643D01*
X9700Y-130700D02*
X9800Y-130800D01*
X13160Y-134160D01*
X60400Y-89459D02*
Y-80800D01*
X-22300Y54800D02*
X-9000D01*
X-16900Y41800D02*
X67800D01*
X94046Y60346D02*
X113154D01*
X115200Y58300D01*
X119500D01*
X82300Y70600D02*
X112000D01*
X114700Y73300D01*
X119500D01*
X-22300Y47200D02*
X-16900Y41800D01*
X-22300Y47200D02*
Y54800D01*
X19500Y-27700D02*
X35000D01*
X41300Y25100D02*
X50900Y15500D01*
Y-8100D02*
Y15500D01*
X16900Y25100D02*
X41300D01*
X-3374Y-4826D02*
X19500Y-27700D01*
X-3374Y-4826D02*
Y0D01*
X4500D02*
Y12700D01*
X16900Y25100D01*
X-8900Y-140400D02*
X-5269D01*
X-4869Y-140000D01*
X-7200Y-127500D02*
X-4869Y-129831D01*
Y-140000D02*
Y-129831D01*
D36*
X10000Y-130600D02*
Y-126000D01*
X6300Y-134100D02*
X9700Y-130700D01*
X9800Y-130800D02*
X10000Y-130600D01*
X6300Y-136900D02*
Y-134100D01*
X51800Y-47700D02*
X58000Y-41500D01*
X23500Y-47987D02*
X51513D01*
X58000Y-41500D02*
Y-11600D01*
X-6513Y-47987D02*
X23500D01*
X-6500Y-63500D02*
Y-48000D01*
Y-67600D02*
Y-63500D01*
X58000Y-11600D02*
Y20600D01*
X57900Y20700D02*
Y37300D01*
X-40300Y37500D02*
X58100D01*
D37*
X37900Y20500D02*
Y20900D01*
D39*
X90700Y-38000D02*
D03*
X130858D02*
D03*
X14673Y128899D02*
D03*
X-13673D02*
D03*
Y146615D02*
D03*
X14673D02*
D03*
D40*
X14819Y-150733D02*
D03*
X-13724D02*
D03*
D41*
X16091Y157442D02*
D03*
X-23280D02*
D03*
D42*
X24891D02*
D03*
X-14480D02*
D03*
D43*
X-98700Y83700D02*
D03*
X-91600Y101900D02*
D03*
X-124100Y67600D02*
D03*
D44*
X-128700Y83700D02*
D03*
X-108700D02*
D03*
X-118700D02*
D03*
X-121600Y101900D02*
D03*
X-101600D02*
D03*
X-111600D02*
D03*
X-114100Y67600D02*
D03*
D45*
X137300Y10200D02*
D03*
Y30200D02*
D03*
Y20200D02*
D03*
D46*
X-100796Y-98572D02*
D03*
D47*
X4500Y0D02*
D03*
Y-23000D02*
D03*
X-3473Y22627D02*
D03*
D48*
X-3374Y0D02*
D03*
X21658Y7981D02*
D03*
X18363Y-14919D02*
D03*
X-3374Y-23000D02*
D03*
X-21037Y-7981D02*
D03*
X-16863Y14719D02*
D03*
X4401Y22627D02*
D03*
D49*
X17721Y14800D02*
D03*
X-17100Y-14800D02*
D03*
D50*
X22300Y-8100D02*
D03*
X-20800Y7900D02*
D03*
D51*
X65856Y146712D02*
D03*
X78344Y140888D02*
D03*
X100722Y126029D02*
D03*
X111278Y117171D02*
D03*
D52*
X103400Y-71000D02*
D03*
X120100Y-86600D02*
D03*
X63500Y-53200D02*
D03*
X-75900Y66600D02*
D03*
X32300Y-122300D02*
D03*
X24800Y-98300D02*
D03*
X29100Y32900D02*
D03*
X43500Y10600D02*
D03*
X-12800Y-73500D02*
D03*
X133600Y-85000D02*
D03*
X96400Y-56800D02*
D03*
X107300Y-63200D02*
D03*
X89700Y-85200D02*
D03*
X70400Y-70500D02*
D03*
X65400Y-75200D02*
D03*
X68600Y30500D02*
D03*
X25200Y19900D02*
D03*
X42700Y-17200D02*
D03*
X12000Y-30400D02*
D03*
X-96600Y31700D02*
D03*
X-90300Y35700D02*
D03*
X-98600Y110900D02*
D03*
X-118500Y111000D02*
D03*
X-81700Y100200D02*
D03*
X-106500Y67500D02*
D03*
X72700Y81500D02*
D03*
X124400Y102400D02*
D03*
X105400Y106300D02*
D03*
X125000Y36100D02*
D03*
X134200Y600D02*
D03*
X151500Y22100D02*
D03*
X149500Y1900D02*
D03*
X123500Y-14800D02*
D03*
X69900Y-99900D02*
D03*
X102500Y-95000D02*
D03*
X88700Y-95300D02*
D03*
X102900Y-90000D02*
D03*
X92300Y-89900D02*
D03*
X82900Y-89400D02*
D03*
X126000Y-85100D02*
D03*
X134900Y-92600D02*
D03*
X138000Y-79000D02*
D03*
X146900Y-73500D02*
D03*
X138400Y-67400D02*
D03*
X151500Y-58500D02*
D03*
X151700Y-50500D02*
D03*
X98300Y-49500D02*
D03*
X127700Y-46100D02*
D03*
X101300Y-44800D02*
D03*
X-31400Y-8100D02*
D03*
X-31600Y-21000D02*
D03*
X-36200Y-105500D02*
D03*
X-35900Y-87800D02*
D03*
X-26500Y-116700D02*
D03*
X-16300Y-116600D02*
D03*
X-48400Y-113900D02*
D03*
X-17700Y-138300D02*
D03*
X-16800Y-127900D02*
D03*
X22900Y-110600D02*
D03*
X46000Y-112300D02*
D03*
X52500Y-126200D02*
D03*
X50700Y-117200D02*
D03*
X48800Y-68300D02*
D03*
X88900Y51400D02*
D03*
X105300Y7100D02*
D03*
X87100Y28200D02*
D03*
X8500Y118000D02*
D03*
X15800Y117100D02*
D03*
X35600Y-67000D02*
D03*
X21100Y-65500D02*
D03*
X20800Y-82300D02*
D03*
X22600Y-71600D02*
D03*
X78200Y100900D02*
D03*
X18800Y-36300D02*
D03*
X59000Y-97100D02*
D03*
X54700Y-79500D02*
D03*
X54500Y-76200D02*
D03*
X40500Y-108900D02*
D03*
X42100Y-98800D02*
D03*
X23700Y-42200D02*
D03*
X-27200Y75200D02*
D03*
X-29749Y72600D02*
D03*
X54100Y-97100D02*
D03*
X-60000Y80200D02*
D03*
X79500Y-53000D02*
D03*
X28800Y-123500D02*
D03*
X99600Y85000D02*
D03*
X96700Y81300D02*
D03*
X94000Y31800D02*
D03*
X93900Y77700D02*
D03*
X13100Y108000D02*
D03*
X10300Y111500D02*
D03*
X43800Y117900D02*
D03*
X5800Y113000D02*
D03*
X35131Y105832D02*
D03*
X10700Y89700D02*
D03*
X98000Y-81000D02*
D03*
X119300D02*
D03*
X82600Y-57500D02*
D03*
X48800Y-98400D02*
D03*
X93700Y9000D02*
D03*
X99400Y7400D02*
D03*
X-12800Y74400D02*
D03*
X-16800Y74700D02*
D03*
X-126000Y29600D02*
D03*
X-73900Y145200D02*
D03*
X-88300Y8900D02*
D03*
X-97000Y8700D02*
D03*
X-71100Y35900D02*
D03*
X-123000Y34400D02*
D03*
X-98000Y64700D02*
D03*
X-121400Y91900D02*
D03*
X-77500Y103400D02*
D03*
X39500Y142700D02*
D03*
X40100Y128000D02*
D03*
X1100Y137300D02*
D03*
X118800Y38000D02*
D03*
X147000Y-8700D02*
D03*
X140900Y-6100D02*
D03*
X141700Y-15300D02*
D03*
X132400Y-9600D02*
D03*
X151600Y-34700D02*
D03*
X154800Y-45100D02*
D03*
X49000Y-145100D02*
D03*
X115500Y-116500D02*
D03*
X138300Y-56600D02*
D03*
X102300Y-14400D02*
D03*
X146600Y-24100D02*
D03*
X34700Y500D02*
D03*
X82300Y70600D02*
D03*
X89500Y63100D02*
D03*
X20750Y51500D02*
D03*
X24300Y48300D02*
D03*
X71600Y-144300D02*
D03*
X58600Y-131300D02*
D03*
X61700Y-138900D02*
D03*
X61600Y-145200D02*
D03*
X90600Y-125800D02*
D03*
X26400Y-145600D02*
D03*
X-7200Y-127500D02*
D03*
X-48900Y-120900D02*
D03*
X-49000Y-131000D02*
D03*
X-37100Y-57900D02*
D03*
X-37300Y-43600D02*
D03*
X-31300Y-33400D02*
D03*
X-40000Y-19300D02*
D03*
X500Y60900D02*
D03*
X-67600Y98000D02*
D03*
X37700Y-153200D02*
D03*
X79000Y-140100D02*
D03*
X48800Y-139100D02*
D03*
Y-153400D02*
D03*
X26500Y-138800D02*
D03*
X48900Y-131400D02*
D03*
X-27005Y-128800D02*
D03*
X-57100Y-19700D02*
D03*
X-34900Y49700D02*
D03*
X-119100Y44900D02*
D03*
X-99500Y45800D02*
D03*
X-116400Y22600D02*
D03*
X-109200Y30500D02*
D03*
X-116600Y3300D02*
D03*
X-111600Y11400D02*
D03*
X-76400Y4100D02*
D03*
X-63900Y4000D02*
D03*
X-76400Y12700D02*
D03*
X-63900Y12600D02*
D03*
X-65700Y43000D02*
D03*
X-65800Y30500D02*
D03*
X-18700Y79100D02*
D03*
X-24400Y87900D02*
D03*
Y94400D02*
D03*
X-31900Y94500D02*
D03*
X-24400Y101000D02*
D03*
X-31900D02*
D03*
X50200Y133800D02*
D03*
X1300Y116700D02*
D03*
X15400Y85000D02*
D03*
X41700Y106300D02*
D03*
X42800Y94700D02*
D03*
X37700Y88800D02*
D03*
X13100Y75900D02*
D03*
X15200Y93400D02*
D03*
X-32200Y127400D02*
D03*
X-35900Y130700D02*
D03*
X-41500Y139500D02*
D03*
X-41300Y145000D02*
D03*
X-33600Y68700D02*
D03*
X-34000Y76000D02*
D03*
X-23100Y119700D02*
D03*
X-19406Y116823D02*
D03*
X-19200Y134700D02*
D03*
X-26600Y121500D02*
D03*
X-15000Y101500D02*
D03*
X-60200Y149800D02*
D03*
X-60460Y144800D02*
D03*
X-37200Y81600D02*
D03*
X-1300Y87600D02*
D03*
X-10600Y104500D02*
D03*
X-35300Y102500D02*
D03*
X-16100Y97100D02*
D03*
X-20800Y97900D02*
D03*
X-18900Y91000D02*
D03*
X-12300Y81500D02*
D03*
X-9200Y88400D02*
D03*
Y95200D02*
D03*
X-52100Y116000D02*
D03*
X-41700Y115900D02*
D03*
X-52100Y106400D02*
D03*
X-41700D02*
D03*
X-110800Y116100D02*
D03*
X-99300Y117700D02*
D03*
X-12372Y-4998D02*
D03*
Y5002D02*
D03*
X13700Y-4800D02*
D03*
Y5200D02*
D03*
X0Y12700D02*
D03*
X-1500Y-14000D02*
D03*
X34000Y-15300D02*
D03*
Y-5300D02*
D03*
X152500Y-17500D02*
D03*
X120200Y-24000D02*
D03*
X131900Y-24500D02*
D03*
X9100Y65100D02*
D03*
X45400Y87200D02*
D03*
X45200Y72600D02*
D03*
X56200Y87100D02*
D03*
X56400Y72600D02*
D03*
X63500Y87700D02*
D03*
X63900Y72800D02*
D03*
X28400Y61300D02*
D03*
X16400Y61200D02*
D03*
X35900Y59900D02*
D03*
X62900Y58100D02*
D03*
X10800Y137200D02*
D03*
X-9700Y136900D02*
D03*
X-6400Y164500D02*
D03*
X8000Y164400D02*
D03*
X8100Y157000D02*
D03*
X-51500Y148300D02*
D03*
X-32400Y161000D02*
D03*
X-41700Y156600D02*
D03*
X-12800Y27400D02*
D03*
X-5900Y-38600D02*
D03*
X39800Y-9400D02*
D03*
X-17200Y-25300D02*
D03*
X26700Y-153200D02*
D03*
X37500Y-139000D02*
D03*
X37600Y-144900D02*
D03*
X-37800Y-149100D02*
D03*
X-27100Y-149200D02*
D03*
X-37800Y-138800D02*
D03*
X-26900Y-138700D02*
D03*
X-37800Y-128800D02*
D03*
X140200Y-34800D02*
D03*
X123800Y-600D02*
D03*
X140200Y-45500D02*
D03*
X94800Y-130800D02*
D03*
X88200Y-134200D02*
D03*
X61600Y-152100D02*
D03*
X100500Y-124700D02*
D03*
X107800Y-24600D02*
D03*
X151000Y13000D02*
D03*
X22300Y61500D02*
D03*
X63500Y65000D02*
D03*
X91600Y97100D02*
D03*
X-15200Y90100D02*
D03*
X101400Y97300D02*
D03*
X117000Y99300D02*
D03*
X121100Y110900D02*
D03*
X89500Y113400D02*
D03*
Y124100D02*
D03*
X-59600Y68700D02*
D03*
X-62500Y64800D02*
D03*
X-68000Y66900D02*
D03*
X-100900Y-16800D02*
D03*
X-92900Y-17500D02*
D03*
X-110200Y39600D02*
D03*
X-124400Y-18200D02*
D03*
X-51904Y80418D02*
D03*
X-85048Y-17148D02*
D03*
X-92700Y-44200D02*
D03*
X-75000Y-39800D02*
D03*
X-51300Y85600D02*
D03*
X-91300D02*
D03*
X-122400Y75600D02*
D03*
X-60300Y-53000D02*
D03*
Y-65500D02*
D03*
Y-78200D02*
D03*
X-92900Y26800D02*
D03*
X-60900Y58000D02*
D03*
X-17100Y85600D02*
D03*
X37900Y20900D02*
D03*
X-75600Y-18300D02*
D03*
X-64600Y-17800D02*
D03*
X-57900Y-33400D02*
D03*
X-54600Y-58900D02*
D03*
X-2500Y6900D02*
D03*
X10900Y-9200D02*
D03*
X-7000Y11800D02*
D03*
X-7800Y-11700D02*
D03*
X-38900Y-36800D02*
D03*
X51000Y-37200D02*
D03*
X38900Y-1500D02*
D03*
X10400Y-42100D02*
D03*
X-12500Y-54800D02*
D03*
X66600Y-11900D02*
D03*
X103500Y-7500D02*
D03*
X74700Y27600D02*
D03*
X-24000Y17800D02*
D03*
X-34500Y23800D02*
D03*
X-42900Y12500D02*
D03*
X65300Y11200D02*
D03*
X93100Y-13100D02*
D03*
Y-23500D02*
D03*
X89900Y-49600D02*
D03*
X115400Y-8800D02*
D03*
X102000Y90900D02*
D03*
X74100Y70500D02*
D03*
X37600Y96000D02*
D03*
X-53900Y128500D02*
D03*
X-83600Y105200D02*
D03*
X-75400Y27700D02*
D03*
X-57300Y9300D02*
D03*
X-58000Y-90800D02*
D03*
X-6000Y30800D02*
D03*
X87800Y56100D02*
D03*
X67800Y83500D02*
D03*
X115300Y107300D02*
D03*
X87200Y106600D02*
D03*
X109200Y98900D02*
D03*
X28300Y55200D02*
D03*
D53*
X31200Y-117800D02*
D03*
X34940D02*
D03*
X38680Y-127643D02*
D03*
Y-117800D02*
D03*
X34940Y-127643D02*
D03*
X31200D02*
D03*
D54*
X119500Y58300D02*
D03*
Y73300D02*
D03*
X140287D02*
D03*
Y68300D02*
D03*
Y63300D02*
D03*
Y58300D02*
D03*
X119500Y63300D02*
D03*
Y68300D02*
D03*
D55*
X5567Y-139800D02*
D03*
X3008D02*
D03*
X449D02*
D03*
X-2110D02*
D03*
X-4669D02*
D03*
X40400Y-61900D02*
D03*
D56*
X75400Y-89459D02*
D03*
X70400D02*
D03*
X65400D02*
D03*
X60400D02*
D03*
X55400D02*
D03*
X50400D02*
D03*
X45400D02*
D03*
X40400D02*
D03*
X75400Y-61900D02*
D03*
X70400D02*
D03*
X65400D02*
D03*
X60400D02*
D03*
X55400D02*
D03*
X50400D02*
D03*
X45400D02*
D03*
D57*
X16500Y-91402D02*
D03*
X11500D02*
D03*
X6500D02*
D03*
X1500D02*
D03*
X16500Y-60300D02*
D03*
X11500D02*
D03*
X6500D02*
D03*
X1500D02*
D03*
D58*
X129200Y-72900D02*
D03*
X124200D02*
D03*
X119200D02*
D03*
X114200D02*
D03*
Y-94900D02*
D03*
X119200D02*
D03*
X124200D02*
D03*
X129200D02*
D03*
M02*
