%FSLAX25Y25*%
%MOIN*%
G70*
G01*
G75*
G04 Layer_Color=32896*
%ADD10R,0.03000X0.03000*%
%ADD11R,0.03000X0.03000*%
%ADD12R,0.06000X0.13780*%
%ADD13R,0.05000X0.01000*%
%ADD14O,0.05000X0.01000*%
%ADD15R,0.01000X0.05000*%
%ADD16C,0.03937*%
%ADD17R,0.03600X0.03600*%
%ADD18R,0.05000X0.03600*%
%ADD19R,0.03600X0.03600*%
%ADD20R,0.03600X0.05000*%
%ADD21R,0.06000X0.05000*%
%ADD22R,0.07500X0.09000*%
%ADD23R,0.10827X0.10827*%
%ADD24R,0.05000X0.06000*%
%ADD25R,0.15748X0.11811*%
%ADD26O,0.03150X0.09843*%
%ADD27R,0.03150X0.09843*%
%ADD28R,0.11811X0.15748*%
%ADD29O,0.09843X0.03150*%
%ADD30R,0.09843X0.03150*%
%ADD31O,0.05906X0.01969*%
G04:AMPARAMS|DCode=32|XSize=86.61mil|YSize=47.24mil|CornerRadius=11.81mil|HoleSize=0mil|Usage=FLASHONLY|Rotation=270.000|XOffset=0mil|YOffset=0mil|HoleType=Round|Shape=RoundedRectangle|*
%AMROUNDEDRECTD32*
21,1,0.08661,0.02362,0,0,270.0*
21,1,0.06299,0.04724,0,0,270.0*
1,1,0.02362,-0.01181,-0.03150*
1,1,0.02362,-0.01181,0.03150*
1,1,0.02362,0.01181,0.03150*
1,1,0.02362,0.01181,-0.03150*
%
%ADD32ROUNDEDRECTD32*%
%ADD33R,0.04724X0.09449*%
%ADD34C,0.01000*%
%ADD35C,0.01969*%
%ADD36C,0.03150*%
%ADD37C,0.01181*%
%ADD38C,0.02953*%
%ADD39C,0.06000*%
%ADD40O,0.07874X0.11811*%
%ADD41C,0.06200*%
%ADD42P,0.06711X8X22.5*%
%ADD43R,0.05906X0.05906*%
%ADD44C,0.05906*%
%ADD45O,0.06000X0.04000*%
%ADD46O,0.04724X0.07874*%
%ADD47P,0.06392X8X22.5*%
%ADD48C,0.05906*%
%ADD49P,0.06392X8X142.5*%
%ADD50P,0.06392X8X82.5*%
%ADD51C,0.06299*%
%ADD52C,0.02362*%
%ADD53R,0.02362X0.04331*%
%ADD54R,0.07087X0.03150*%
%ADD55R,0.01575X0.07874*%
%ADD56O,0.01575X0.07874*%
%ADD57O,0.01969X0.05906*%
%ADD58O,0.02400X0.08000*%
%ADD59C,0.00787*%
%ADD60C,0.00500*%
%ADD61C,0.00800*%
%ADD62C,0.00394*%
%ADD63R,0.02567X0.13000*%
%ADD64R,0.02900X0.14000*%
%ADD65R,0.03800X0.03800*%
%ADD66R,0.03800X0.03800*%
%ADD67R,0.06800X0.14579*%
%ADD68R,0.05800X0.01800*%
%ADD69O,0.05800X0.01800*%
%ADD70R,0.01800X0.05800*%
%ADD71C,0.04737*%
%ADD72R,0.04400X0.04400*%
%ADD73R,0.05800X0.04400*%
%ADD74R,0.04400X0.04400*%
%ADD75R,0.04400X0.05800*%
%ADD76R,0.06800X0.05800*%
%ADD77R,0.08300X0.09800*%
%ADD78R,0.11627X0.11627*%
%ADD79R,0.05800X0.06800*%
%ADD80R,0.16548X0.12611*%
%ADD81O,0.03950X0.10642*%
%ADD82R,0.03950X0.10642*%
%ADD83R,0.12611X0.16548*%
%ADD84O,0.10642X0.03950*%
%ADD85R,0.10642X0.03950*%
%ADD86O,0.06706X0.02769*%
G04:AMPARAMS|DCode=87|XSize=94.61mil|YSize=55.24mil|CornerRadius=13.81mil|HoleSize=0mil|Usage=FLASHONLY|Rotation=270.000|XOffset=0mil|YOffset=0mil|HoleType=Round|Shape=RoundedRectangle|*
%AMROUNDEDRECTD87*
21,1,0.09461,0.02762,0,0,270.0*
21,1,0.06699,0.05524,0,0,270.0*
1,1,0.02762,-0.01381,-0.03350*
1,1,0.02762,-0.01381,0.03350*
1,1,0.02762,0.01381,0.03350*
1,1,0.02762,0.01381,-0.03350*
%
%ADD87ROUNDEDRECTD87*%
%ADD88R,0.05524X0.10249*%
%ADD89C,0.06800*%
%ADD90O,0.08674X0.12611*%
%ADD91C,0.07000*%
%ADD92P,0.07577X8X22.5*%
%ADD93R,0.06706X0.06706*%
%ADD94C,0.06706*%
%ADD95O,0.06800X0.04800*%
%ADD96O,0.05524X0.08674*%
%ADD97P,0.07258X8X22.5*%
%ADD98C,0.06706*%
%ADD99P,0.07258X8X142.5*%
%ADD100P,0.07258X8X82.5*%
%ADD101C,0.07099*%
%ADD102R,0.03162X0.05131*%
%ADD103R,0.07887X0.03950*%
%ADD104R,0.02375X0.08674*%
%ADD105O,0.02375X0.08674*%
%ADD106O,0.02769X0.06706*%
%ADD107O,0.03200X0.08800*%
D34*
X7390Y137757D02*
G03*
X7390Y137757I-6890J0D01*
G01*
X131700Y-81400D02*
G03*
X131700Y-86400I0J-2500D01*
G01*
X14500Y-159800D02*
Y-157300D01*
X-10500Y-161300D02*
X13000D01*
X-12000D02*
X-10500D01*
X-13500Y-159800D02*
X-12000Y-161300D01*
X-13500Y-159800D02*
Y-159300D01*
X13000Y-161300D02*
X14500Y-159800D01*
X-13500Y-159300D02*
Y-157300D01*
Y-144300D02*
Y-142800D01*
Y-140800D01*
X-13000Y-140300D01*
X-11500D01*
X14500Y-143800D02*
Y-141300D01*
X13500Y-140300D02*
X14500Y-141300D01*
X13000Y-140300D02*
X13500D01*
X111700Y-88900D02*
X131700D01*
X111700D02*
Y-78900D01*
X131700D01*
Y-81400D02*
Y-78900D01*
Y-88900D02*
Y-86400D01*
X32764Y-56000D02*
X36044D01*
X36700Y-56656D01*
Y-57968D01*
X36044Y-58624D01*
X32764D01*
X36700Y-59936D02*
Y-61248D01*
Y-60592D01*
X32764D01*
X33420Y-59936D01*
Y-63216D02*
X32764Y-63872D01*
Y-65183D01*
X33420Y-65839D01*
X36044D01*
X36700Y-65183D01*
Y-63872D01*
X36044Y-63216D01*
X33420D01*
X-8036Y-79200D02*
X-4756D01*
X-4100Y-79856D01*
Y-81168D01*
X-4756Y-81824D01*
X-8036D01*
X-7380Y-83136D02*
X-8036Y-83792D01*
Y-85104D01*
X-7380Y-85760D01*
X-6724D01*
X-6068Y-85104D01*
X-5412Y-85760D01*
X-4756D01*
X-4100Y-85104D01*
Y-83792D01*
X-4756Y-83136D01*
X-5412D01*
X-6068Y-83792D01*
X-6724Y-83136D01*
X-7380D01*
X-6068Y-83792D02*
Y-85104D01*
X141436Y-88300D02*
X138156D01*
X137500Y-87644D01*
Y-86332D01*
X138156Y-85676D01*
X141436D01*
Y-84364D02*
Y-81740D01*
X140780D01*
X138156Y-84364D01*
X137500D01*
X27500Y-92300D02*
X31436D01*
Y-90332D01*
X30780Y-89676D01*
X29468D01*
X28812Y-90332D01*
Y-92300D01*
Y-90988D02*
X27500Y-89676D01*
Y-85740D02*
Y-88364D01*
X30124Y-85740D01*
X30780D01*
X31436Y-86396D01*
Y-87708D01*
X30780Y-88364D01*
X31436Y-81805D02*
Y-84429D01*
X29468D01*
X30124Y-83117D01*
Y-82461D01*
X29468Y-81805D01*
X28156D01*
X27500Y-82461D01*
Y-83773D01*
X28156Y-84429D01*
X110600Y-100200D02*
Y-96264D01*
X108632D01*
X107976Y-96920D01*
Y-98232D01*
X108632Y-98888D01*
X110600D01*
X109288D02*
X107976Y-100200D01*
X104040D02*
X106664D01*
X104040Y-97576D01*
Y-96920D01*
X104696Y-96264D01*
X106008D01*
X106664Y-96920D01*
X100761Y-100200D02*
Y-96264D01*
X102728Y-98232D01*
X100105D01*
X110700Y-73500D02*
Y-69564D01*
X108732D01*
X108076Y-70220D01*
Y-71532D01*
X108732Y-72188D01*
X110700D01*
X109388D02*
X108076Y-73500D01*
X106764Y-70220D02*
X106108Y-69564D01*
X104796D01*
X104140Y-70220D01*
Y-70876D01*
X104796Y-71532D01*
X104140Y-72188D01*
Y-72844D01*
X104796Y-73500D01*
X106108D01*
X106764Y-72844D01*
Y-72188D01*
X106108Y-71532D01*
X106764Y-70876D01*
Y-70220D01*
X106108Y-71532D02*
X104796D01*
X108800Y-120600D02*
Y-116664D01*
X106832D01*
X106176Y-117320D01*
Y-118632D01*
X106832Y-119288D01*
X108800D01*
X107488D02*
X106176Y-120600D01*
X104864Y-116664D02*
X102240D01*
Y-117320D01*
X104864Y-119944D01*
Y-120600D01*
X50400Y-120464D02*
Y-124400D01*
X48432D01*
X47776Y-123744D01*
Y-121120D01*
X48432Y-120464D01*
X50400D01*
X46464Y-121120D02*
X45808Y-120464D01*
X44496D01*
X43840Y-121120D01*
Y-121776D01*
X44496Y-122432D01*
X45152D01*
X44496D01*
X43840Y-123088D01*
Y-123744D01*
X44496Y-124400D01*
X45808D01*
X46464Y-123744D01*
X118176Y-37420D02*
X118832Y-36764D01*
X120144D01*
X120800Y-37420D01*
Y-40044D01*
X120144Y-40700D01*
X118832D01*
X118176Y-40044D01*
X116864Y-37420D02*
X116208Y-36764D01*
X114896D01*
X114240Y-37420D01*
Y-38076D01*
X114896Y-38732D01*
X115552D01*
X114896D01*
X114240Y-39388D01*
Y-40044D01*
X114896Y-40700D01*
X116208D01*
X116864Y-40044D01*
X112928D02*
X112273Y-40700D01*
X110961D01*
X110305Y-40044D01*
Y-37420D01*
X110961Y-36764D01*
X112273D01*
X112928Y-37420D01*
Y-38076D01*
X112273Y-38732D01*
X110305D01*
X126976Y-52420D02*
X127632Y-51764D01*
X128944D01*
X129600Y-52420D01*
Y-55044D01*
X128944Y-55700D01*
X127632D01*
X126976Y-55044D01*
X125664Y-52420D02*
X125008Y-51764D01*
X123696D01*
X123040Y-52420D01*
Y-53076D01*
X123696Y-53732D01*
X124352D01*
X123696D01*
X123040Y-54388D01*
Y-55044D01*
X123696Y-55700D01*
X125008D01*
X125664Y-55044D01*
X121729Y-51764D02*
X119105D01*
Y-52420D01*
X121729Y-55044D01*
Y-55700D01*
X102176Y-62020D02*
X102832Y-61364D01*
X104144D01*
X104800Y-62020D01*
Y-64644D01*
X104144Y-65300D01*
X102832D01*
X102176Y-64644D01*
X100864Y-62020D02*
X100208Y-61364D01*
X98896D01*
X98240Y-62020D01*
Y-62676D01*
X98896Y-63332D01*
X99552D01*
X98896D01*
X98240Y-63988D01*
Y-64644D01*
X98896Y-65300D01*
X100208D01*
X100864Y-64644D01*
X94305Y-61364D02*
X95617Y-62020D01*
X96929Y-63332D01*
Y-64644D01*
X96273Y-65300D01*
X94961D01*
X94305Y-64644D01*
Y-63988D01*
X94961Y-63332D01*
X96929D01*
X-1924Y-100820D02*
X-1268Y-100164D01*
X44D01*
X700Y-100820D01*
Y-103444D01*
X44Y-104100D01*
X-1268D01*
X-1924Y-103444D01*
X-3236Y-100820D02*
X-3892Y-100164D01*
X-5204D01*
X-5860Y-100820D01*
Y-101476D01*
X-5204Y-102132D01*
X-4548D01*
X-5204D01*
X-5860Y-102788D01*
Y-103444D01*
X-5204Y-104100D01*
X-3892D01*
X-3236Y-103444D01*
X-9795Y-100164D02*
X-7171D01*
Y-102132D01*
X-8483Y-101476D01*
X-9139D01*
X-9795Y-102132D01*
Y-103444D01*
X-9139Y-104100D01*
X-7827D01*
X-7171Y-103444D01*
X94276Y-97820D02*
X94932Y-97164D01*
X96244D01*
X96900Y-97820D01*
Y-100444D01*
X96244Y-101100D01*
X94932D01*
X94276Y-100444D01*
X92964Y-97820D02*
X92308Y-97164D01*
X90996D01*
X90340Y-97820D01*
Y-98476D01*
X90996Y-99132D01*
X91652D01*
X90996D01*
X90340Y-99788D01*
Y-100444D01*
X90996Y-101100D01*
X92308D01*
X92964Y-100444D01*
X87061Y-101100D02*
Y-97164D01*
X89029Y-99132D01*
X86405D01*
X21576Y-114820D02*
X22232Y-114164D01*
X23544D01*
X24200Y-114820D01*
Y-117444D01*
X23544Y-118100D01*
X22232D01*
X21576Y-117444D01*
X20264Y-114820D02*
X19608Y-114164D01*
X18296D01*
X17640Y-114820D01*
Y-115476D01*
X18296Y-116132D01*
X18952D01*
X18296D01*
X17640Y-116788D01*
Y-117444D01*
X18296Y-118100D01*
X19608D01*
X20264Y-117444D01*
X16329Y-114820D02*
X15673Y-114164D01*
X14361D01*
X13705Y-114820D01*
Y-115476D01*
X14361Y-116132D01*
X15017D01*
X14361D01*
X13705Y-116788D01*
Y-117444D01*
X14361Y-118100D01*
X15673D01*
X16329Y-117444D01*
X95976Y-117620D02*
X96632Y-116964D01*
X97944D01*
X98600Y-117620D01*
Y-120244D01*
X97944Y-120900D01*
X96632D01*
X95976Y-120244D01*
X94664Y-117620D02*
X94008Y-116964D01*
X92696D01*
X92040Y-117620D01*
Y-118276D01*
X92696Y-118932D01*
X93352D01*
X92696D01*
X92040Y-119588D01*
Y-120244D01*
X92696Y-120900D01*
X94008D01*
X94664Y-120244D01*
X88105Y-120900D02*
X90728D01*
X88105Y-118276D01*
Y-117620D01*
X88761Y-116964D01*
X90073D01*
X90728Y-117620D01*
X99376Y-51720D02*
X100032Y-51064D01*
X101344D01*
X102000Y-51720D01*
Y-54344D01*
X101344Y-55000D01*
X100032D01*
X99376Y-54344D01*
X98064Y-51720D02*
X97408Y-51064D01*
X96096D01*
X95440Y-51720D01*
Y-52376D01*
X96096Y-53032D01*
X96752D01*
X96096D01*
X95440Y-53688D01*
Y-54344D01*
X96096Y-55000D01*
X97408D01*
X98064Y-54344D01*
X94129Y-55000D02*
X92817D01*
X93473D01*
Y-51064D01*
X94129Y-51720D01*
X64076Y-46120D02*
X64732Y-45464D01*
X66044D01*
X66700Y-46120D01*
Y-48744D01*
X66044Y-49400D01*
X64732D01*
X64076Y-48744D01*
X60140Y-49400D02*
X62764D01*
X60140Y-46776D01*
Y-46120D01*
X60796Y-45464D01*
X62108D01*
X62764Y-46120D01*
X58829Y-48744D02*
X58173Y-49400D01*
X56861D01*
X56205Y-48744D01*
Y-46120D01*
X56861Y-45464D01*
X58173D01*
X58829Y-46120D01*
Y-46776D01*
X58173Y-47432D01*
X56205D01*
X45176Y-101420D02*
X45832Y-100764D01*
X47144D01*
X47800Y-101420D01*
Y-104044D01*
X47144Y-104700D01*
X45832D01*
X45176Y-104044D01*
X41240Y-104700D02*
X43864D01*
X41240Y-102076D01*
Y-101420D01*
X41896Y-100764D01*
X43208D01*
X43864Y-101420D01*
X39928Y-100764D02*
X37305D01*
Y-101420D01*
X39928Y-104044D01*
Y-104700D01*
X122874Y-109322D02*
X123530Y-108666D01*
X124842D01*
X125498Y-109322D01*
Y-111946D01*
X124842Y-112602D01*
X123530D01*
X122874Y-111946D01*
X118938Y-112602D02*
X121562D01*
X118938Y-109978D01*
Y-109322D01*
X119594Y-108666D01*
X120906D01*
X121562Y-109322D01*
X115003Y-108666D02*
X116315Y-109322D01*
X117627Y-110634D01*
Y-111946D01*
X116971Y-112602D01*
X115659D01*
X115003Y-111946D01*
Y-111290D01*
X115659Y-110634D01*
X117627D01*
X89026Y-56770D02*
X89682Y-56114D01*
X90994D01*
X91650Y-56770D01*
Y-59394D01*
X90994Y-60050D01*
X89682D01*
X89026Y-59394D01*
X85090Y-56114D02*
X87714D01*
Y-58082D01*
X86402Y-57426D01*
X85746D01*
X85090Y-58082D01*
Y-59394D01*
X85746Y-60050D01*
X87058D01*
X87714Y-59394D01*
X2400Y8836D02*
Y4900D01*
X432D01*
X-224Y5556D01*
Y8180D01*
X432Y8836D01*
X2400D01*
X-3504Y4900D02*
Y8836D01*
X-1536Y6868D01*
X-4160D01*
X-43000Y112436D02*
Y109156D01*
X-43656Y108500D01*
X-44968D01*
X-45624Y109156D01*
Y112436D01*
X-46936Y108500D02*
X-48248D01*
X-47592D01*
Y112436D01*
X-46936Y111780D01*
X152800Y55036D02*
Y51756D01*
X152144Y51100D01*
X150832D01*
X150176Y51756D01*
Y55036D01*
X148864Y51756D02*
X148208Y51100D01*
X146896D01*
X146240Y51756D01*
Y54380D01*
X146896Y55036D01*
X148208D01*
X148864Y54380D01*
Y53724D01*
X148208Y53068D01*
X146240D01*
X-22324Y-139364D02*
X-21012D01*
X-21668D01*
Y-142644D01*
X-21012Y-143300D01*
X-20356D01*
X-19700Y-142644D01*
X-26260Y-139364D02*
X-24948Y-140020D01*
X-23636Y-141332D01*
Y-142644D01*
X-24292Y-143300D01*
X-25604D01*
X-26260Y-142644D01*
Y-141988D01*
X-25604Y-141332D01*
X-23636D01*
X28000Y141536D02*
Y137600D01*
Y138912D01*
X25376Y141536D01*
X27344Y139568D01*
X25376Y137600D01*
X21440Y141536D02*
X24064D01*
Y137600D01*
X21440D01*
X24064Y139568D02*
X22752D01*
X20129Y141536D02*
Y140880D01*
X18817Y139568D01*
X17505Y140880D01*
Y141536D01*
X18817Y139568D02*
Y137600D01*
D59*
X95091Y-78417D02*
G03*
X99068Y-78439I2009J3818D01*
G01*
X99109Y-67883D02*
G03*
X95131Y-67861I-2009J-3818D01*
G01*
X37900Y-77780D02*
G03*
X37900Y-73579I0J2100D01*
G01*
X-1000Y-77101D02*
G03*
X-1000Y-74601I0J1250D01*
G01*
X50191Y-111618D02*
G03*
X54168Y-111639I2009J3818D01*
G01*
X54209Y-101083D02*
G03*
X50231Y-101061I-2009J-3818D01*
G01*
X68491Y-54717D02*
G03*
X72469Y-54739I2009J3818D01*
G01*
X72509Y-44183D02*
G03*
X68532Y-44161I-2009J-3818D01*
G01*
X110283Y-42591D02*
G03*
X110261Y-46569I3818J-2009D01*
G01*
X120817Y-46609D02*
G03*
X120839Y-42632I-3818J2009D01*
G01*
X87483Y-102982D02*
G03*
X87461Y-106959I3818J-2009D01*
G01*
X98018Y-107000D02*
G03*
X98039Y-103022I-3818J2009D01*
G01*
X14591Y-111818D02*
G03*
X18568Y-111839I2009J3818D01*
G01*
X18609Y-101283D02*
G03*
X14631Y-101261I-2009J-3818D01*
G01*
X87483Y-110082D02*
G03*
X87461Y-114059I3818J-2009D01*
G01*
X98018Y-114100D02*
G03*
X98039Y-110122I-3818J2009D01*
G01*
X104383Y-52491D02*
G03*
X104361Y-56468I3818J-2009D01*
G01*
X114918Y-56509D02*
G03*
X114939Y-52531I-3818J2009D01*
G01*
X115383Y-103091D02*
G03*
X115361Y-107069I3818J-2009D01*
G01*
X125917Y-107109D02*
G03*
X125939Y-103131I-3818J2009D01*
G01*
X116083Y-57891D02*
G03*
X116061Y-61869I3818J-2009D01*
G01*
X126618Y-61909D02*
G03*
X126639Y-57932I-3818J2009D01*
G01*
X99100Y-78439D02*
Y-68000D01*
X95100Y-78400D02*
Y-67900D01*
X85157Y-80913D02*
X92243D01*
X85157Y-63487D02*
X92243D01*
Y-70200D02*
Y-63487D01*
X85157Y-70200D02*
Y-63487D01*
Y-80913D02*
Y-74200D01*
X92243Y-80913D02*
Y-74200D01*
X37900Y-69124D02*
X77900D01*
Y-82235D02*
Y-69124D01*
X37900Y-82235D02*
X77900D01*
X37900D02*
Y-77780D01*
Y-73579D02*
Y-69124D01*
X-1000Y-66540D02*
X19000D01*
Y-85162D02*
Y-66540D01*
X-1000Y-85162D02*
X19000D01*
X-1000D02*
Y-77101D01*
Y-74601D02*
Y-66540D01*
X100459Y-107000D02*
Y-103000D01*
X111459Y-107000D02*
Y-103000D01*
X100459D02*
X111459D01*
X100459Y-107000D02*
X111459D01*
X27800Y-78841D02*
X31800D01*
X27800Y-67841D02*
X31800D01*
X27800Y-78841D02*
Y-67841D01*
X31800Y-78841D02*
Y-67841D01*
X3057Y-98787D02*
X10143D01*
X3057Y-116213D02*
X10143D01*
X3057D02*
Y-109500D01*
X10143Y-116213D02*
Y-109500D01*
Y-105500D02*
Y-98787D01*
X3057Y-105500D02*
Y-98787D01*
X54200Y-111639D02*
Y-101200D01*
X50200Y-111600D02*
Y-101100D01*
X100459Y-114100D02*
Y-110100D01*
X111459Y-114100D02*
Y-110100D01*
X100459D02*
X111459D01*
X100459Y-114100D02*
X111459D01*
X105100Y-75659D02*
X109100D01*
X105100Y-86659D02*
X109100D01*
Y-75659D01*
X105100Y-86659D02*
Y-75659D01*
X72500Y-54739D02*
Y-44300D01*
X68500Y-54700D02*
Y-44200D01*
X110261Y-46600D02*
X120700D01*
X110300Y-42600D02*
X120800D01*
X87461Y-106991D02*
X97900D01*
X87500Y-102991D02*
X98000D01*
X18600Y-111839D02*
Y-101400D01*
X14600Y-111800D02*
Y-101300D01*
X87461Y-114091D02*
X97900D01*
X87500Y-110091D02*
X98000D01*
X104361Y-56500D02*
X114800D01*
X104400Y-52500D02*
X114900D01*
X115361Y-107100D02*
X125800D01*
X115400Y-103100D02*
X125900D01*
X116061Y-61900D02*
X126500D01*
X116100Y-57900D02*
X126600D01*
D60*
X7390Y137757D02*
G03*
X7390Y137757I-6890J0D01*
G01*
X15264Y-161456D02*
Y-158700D01*
X-14264Y-161456D02*
Y-158700D01*
X-9539Y-161456D02*
Y-158700D01*
X-9050Y-161456D02*
Y-147676D01*
X-9539Y-158700D02*
Y-139212D01*
X-11311Y149568D02*
X12311D01*
X-11311Y125946D02*
X12311D01*
X-11311D02*
Y149568D01*
X12311Y125946D02*
Y149568D01*
X-13083Y-147676D02*
X14083D01*
X-14264Y-161456D02*
X15264D01*
X10050D02*
Y-147676D01*
X13295Y-161456D02*
Y-139212D01*
X15264Y-158700D02*
Y-139212D01*
X-12295Y-161456D02*
Y-139212D01*
X-14264Y-158700D02*
Y-139212D01*
X-13083Y-161456D02*
Y-147676D01*
X-14264Y-161456D02*
Y-139212D01*
X15264D01*
Y-161456D02*
Y-139212D01*
X14083Y-161456D02*
Y-147676D01*
X10539Y-161456D02*
Y-158700D01*
Y-139212D01*
X-7374Y-157519D02*
X8374D01*
X-7374D02*
Y-147676D01*
X8374Y-157519D02*
Y-147676D01*
X12311Y125946D02*
Y149568D01*
X-11311Y125946D02*
Y149568D01*
Y125946D02*
X12311D01*
X-11311Y149568D02*
X12311D01*
D62*
X29702Y-123674D02*
G03*
X29700Y-122100I-17J787D01*
G01*
X132975Y75493D02*
G03*
X126891Y75493I-3042J-815D01*
G01*
X132312Y51174D02*
G03*
X127555Y51174I-2379J0D01*
G01*
X29700Y-124600D02*
X40100D01*
Y-120900D01*
X29800D02*
X40100D01*
X29700Y-121000D02*
X29800Y-120900D01*
X29702Y-124599D02*
Y-123674D01*
X29700Y-122100D02*
Y-121000D01*
X124421Y56528D02*
Y68142D01*
X135366Y56528D02*
Y68142D01*
X124421Y56528D02*
X135366D01*
X119500Y51174D02*
X127555D01*
X132312D02*
X140287D01*
X119500D02*
Y80426D01*
X140287Y51174D02*
Y80426D01*
X119500D02*
X140287D01*
X132975Y75493D02*
X135366Y68142D01*
X124421Y68103D02*
X126891Y75493D01*
X126390Y59127D02*
X133398D01*
X126390Y60308D02*
X133398D01*
Y59127D02*
Y60308D01*
X126390Y59127D02*
Y60308D01*
M02*
